G04*
G04 #@! TF.GenerationSoftware,Altium Limited,Altium Designer,18.1.11 (251)*
G04*
G04 Layer_Color=32896*
%FSLAX25Y25*%
%MOIN*%
G70*
G01*
G75*
%ADD13C,0.00197*%
%ADD15C,0.00650*%
%ADD16C,0.03000*%
%ADD17C,0.00394*%
G36*
X157433Y131452D02*
X157476D01*
Y131410D01*
X157518D01*
Y131367D01*
X157561D01*
Y131325D01*
X157603D01*
Y131282D01*
X157646D01*
Y131240D01*
X157688D01*
Y131198D01*
X157730D01*
Y131155D01*
Y131113D01*
X157815D01*
Y131070D01*
Y131028D01*
X157730D01*
Y131070D01*
Y131113D01*
X157646D01*
Y131155D01*
X157603D01*
Y131198D01*
Y131240D01*
X157518D01*
Y131282D01*
Y131325D01*
X157433D01*
Y131367D01*
Y131410D01*
X157349D01*
Y131452D01*
Y131495D01*
X157433D01*
Y131452D01*
D02*
G37*
G36*
X118189Y121261D02*
X117537D01*
Y122760D01*
X115788D01*
Y121261D01*
X115149D01*
Y124801D01*
X115788D01*
Y123329D01*
X117537D01*
Y124801D01*
X118189D01*
Y121261D01*
D02*
G37*
G36*
X110555D02*
X109916D01*
Y123884D01*
X108043Y121261D01*
X107404D01*
Y124801D01*
X108029D01*
Y122219D01*
X109889Y124801D01*
X110555D01*
Y121261D01*
D02*
G37*
G36*
X126850Y121261D02*
X126239D01*
Y123732D01*
X125268Y121261D01*
X124713D01*
X123741Y123732D01*
Y121261D01*
X123144D01*
Y124801D01*
X123796D01*
X124976Y122122D01*
X126156Y124801D01*
X126850D01*
Y121261D01*
D02*
G37*
G36*
X99964Y121261D02*
X99354D01*
Y123732D01*
X98382Y121261D01*
X97827D01*
X96869Y123732D01*
Y121261D01*
X96259D01*
Y124801D01*
X96911D01*
X98091Y122122D01*
X99284Y124801D01*
X99964D01*
Y121261D01*
D02*
G37*
G36*
X136802Y124232D02*
X135789D01*
Y121261D01*
X135150D01*
Y124232D01*
X134123D01*
Y124801D01*
X136802D01*
Y124232D01*
D02*
G37*
G36*
X133748Y121261D02*
X131306D01*
Y121830D01*
X133110D01*
Y122760D01*
X131430D01*
Y123343D01*
X133110D01*
Y124232D01*
X131333D01*
Y124801D01*
X133748D01*
Y121261D01*
D02*
G37*
G36*
X131000D02*
X130348D01*
X129168Y124120D01*
X128613Y122788D01*
X129335D01*
X129557Y122219D01*
X128377D01*
X127974Y121261D01*
X127267D01*
X128807Y124801D01*
X129515D01*
X131000Y121261D01*
D02*
G37*
G36*
X121284Y121261D02*
X120632D01*
Y124204D01*
X119744D01*
X119591Y124190D01*
X119494Y124148D01*
X119424Y124107D01*
X119410Y124093D01*
X119341Y123995D01*
X119313Y123898D01*
X119299Y123815D01*
Y123787D01*
Y123773D01*
X119313Y123676D01*
X119341Y123593D01*
X119410Y123454D01*
X119466Y123399D01*
X119494Y123357D01*
X119521Y123343D01*
X119535Y123329D01*
X119632Y123274D01*
X119730Y123218D01*
X119952Y123135D01*
X120049Y123107D01*
X120132Y123079D01*
X120188Y123066D01*
X120202D01*
X120104Y122496D01*
X119841Y122538D01*
X119619Y122608D01*
X119424Y122677D01*
X119272Y122746D01*
X119147Y122816D01*
X119063Y122871D01*
X119008Y122913D01*
X118994Y122927D01*
X118869Y123066D01*
X118772Y123204D01*
X118716Y123357D01*
X118661Y123496D01*
X118633Y123607D01*
X118619Y123718D01*
Y123773D01*
Y123801D01*
X118633Y123982D01*
X118661Y124134D01*
X118702Y124259D01*
X118758Y124370D01*
X118814Y124440D01*
X118855Y124509D01*
X118883Y124537D01*
X118897Y124551D01*
X119008Y124634D01*
X119133Y124689D01*
X119272Y124745D01*
X119396Y124773D01*
X119521Y124787D01*
X119619Y124801D01*
X121284D01*
Y121261D01*
D02*
G37*
G36*
X114705D02*
X114039D01*
X112873Y124120D01*
X112318Y122788D01*
X113026D01*
X113262Y122219D01*
X112082D01*
X111679Y121261D01*
X110971D01*
X112512Y124801D01*
X113220D01*
X114705Y121261D01*
D02*
G37*
G36*
X107029Y124232D02*
X106016D01*
Y121261D01*
X105350D01*
Y124232D01*
X104351D01*
Y124801D01*
X107029D01*
Y124232D01*
D02*
G37*
G36*
X102629Y124801D02*
X102907Y124745D01*
X103129Y124676D01*
X103323Y124592D01*
X103462Y124495D01*
X103573Y124426D01*
X103629Y124370D01*
X103657Y124356D01*
X103809Y124176D01*
X103906Y123968D01*
X103990Y123746D01*
X104045Y123524D01*
X104073Y123329D01*
X104087Y123177D01*
X104101Y123107D01*
Y123066D01*
Y123038D01*
Y123024D01*
X104073Y122705D01*
X104017Y122441D01*
X103934Y122205D01*
X103851Y122025D01*
X103768Y121872D01*
X103698Y121761D01*
X103643Y121705D01*
X103629Y121677D01*
X103435Y121525D01*
X103226Y121428D01*
X103018Y121344D01*
X102810Y121289D01*
X102616Y121261D01*
X102463Y121247D01*
X102407Y121233D01*
X102324D01*
X102019Y121247D01*
X101755Y121303D01*
X101533Y121372D01*
X101353Y121456D01*
X101200Y121539D01*
X101103Y121608D01*
X101033Y121664D01*
X101019Y121677D01*
X100867Y121872D01*
X100756Y122080D01*
X100686Y122302D01*
X100631Y122524D01*
X100603Y122719D01*
X100575Y122885D01*
Y122941D01*
Y122982D01*
Y123010D01*
Y123024D01*
X100589Y123343D01*
X100645Y123607D01*
X100714Y123843D01*
X100797Y124023D01*
X100881Y124176D01*
X100950Y124273D01*
X101005Y124343D01*
X101019Y124356D01*
X101200Y124509D01*
X101408Y124620D01*
X101630Y124703D01*
X101838Y124759D01*
X102033Y124787D01*
X102185Y124814D01*
X102324D01*
X102629Y124801D01*
D02*
G37*
G36*
X146921Y130214D02*
X147281Y130172D01*
X147601Y130117D01*
X147740Y130089D01*
X147864Y130061D01*
X147975Y130033D01*
X148073Y130006D01*
X148156Y129992D01*
X148211Y129978D01*
X148239Y129964D01*
X148253D01*
X148628Y129839D01*
X148975Y129686D01*
X149308Y129534D01*
X149585Y129381D01*
X149710Y129312D01*
X149835Y129242D01*
X149933Y129173D01*
X150016Y129131D01*
X150071Y129076D01*
X150127Y129048D01*
X150155Y129034D01*
X150169Y129020D01*
X150488Y128784D01*
X150793Y128520D01*
X151057Y128271D01*
X151293Y128035D01*
X151473Y127813D01*
X151557Y127729D01*
X151612Y127646D01*
X151667Y127577D01*
X151709Y127535D01*
X151723Y127507D01*
X151737Y127493D01*
X151959Y127146D01*
X152167Y126799D01*
X152320Y126466D01*
X152459Y126161D01*
X152514Y126022D01*
X152570Y125897D01*
X152597Y125786D01*
X152639Y125703D01*
X152667Y125619D01*
X152681Y125564D01*
X152695Y125536D01*
Y125522D01*
X152792Y125134D01*
X152861Y124745D01*
X152917Y124384D01*
X152945Y124065D01*
X152958Y123926D01*
Y123787D01*
X152972Y123676D01*
Y123579D01*
Y123510D01*
Y123440D01*
Y123413D01*
Y123399D01*
X152945Y122996D01*
X152889Y122621D01*
X152820Y122274D01*
X152750Y121955D01*
X152708Y121816D01*
X152681Y121691D01*
X152639Y121580D01*
X152611Y121497D01*
X152584Y121414D01*
X152570Y121358D01*
X152556Y121331D01*
Y121317D01*
X152403Y120942D01*
X152223Y120581D01*
X152042Y120262D01*
X151862Y119984D01*
X151779Y119859D01*
X151709Y119748D01*
X151640Y119651D01*
X151570Y119568D01*
X151529Y119498D01*
X151487Y119457D01*
X151473Y119429D01*
X151459Y119415D01*
Y119429D01*
X151223Y119596D01*
X151459Y119915D01*
X151681Y120234D01*
X151862Y120539D01*
X152001Y120817D01*
X152126Y121053D01*
X152167Y121164D01*
X152209Y121247D01*
X152237Y121317D01*
X152264Y121372D01*
X152278Y121400D01*
Y121414D01*
X152403Y121789D01*
X152486Y122136D01*
X152570Y122483D01*
X152611Y122788D01*
X152639Y122913D01*
X152653Y123038D01*
Y123149D01*
X152667Y123246D01*
X152681Y123315D01*
Y123371D01*
Y123399D01*
Y123413D01*
Y123787D01*
X152653Y124162D01*
X152611Y124495D01*
X152556Y124801D01*
X152528Y124939D01*
X152514Y125064D01*
X152486Y125175D01*
X152459Y125259D01*
X152445Y125342D01*
X152431Y125397D01*
X152417Y125425D01*
Y125439D01*
X152292Y125814D01*
X152139Y126161D01*
X151987Y126480D01*
X151834Y126758D01*
X151765Y126883D01*
X151695Y126994D01*
X151640Y127077D01*
X151584Y127160D01*
X151543Y127230D01*
X151515Y127271D01*
X151487Y127299D01*
Y127313D01*
X151237Y127632D01*
X150987Y127910D01*
X150738Y128173D01*
X150502Y128382D01*
X150307Y128562D01*
X150141Y128687D01*
X150085Y128743D01*
X150044Y128770D01*
X150016Y128798D01*
X150002D01*
X149669Y129006D01*
X149350Y129187D01*
X149044Y129339D01*
X148767Y129464D01*
X148517Y129561D01*
X148420Y129603D01*
X148336Y129631D01*
X148267Y129659D01*
X148211Y129672D01*
X148184Y129686D01*
X148170D01*
X147795Y129783D01*
X147434Y129853D01*
X147101Y129894D01*
X146782Y129922D01*
X146643D01*
X146518Y129936D01*
X146143D01*
X145755Y129908D01*
X145380Y129867D01*
X145033Y129797D01*
X144728Y129714D01*
X144589Y129686D01*
X144464Y129645D01*
X144353Y129617D01*
X144270Y129575D01*
X144186Y129561D01*
X144131Y129534D01*
X144103Y129520D01*
X144089D01*
X143992Y129783D01*
X144380Y129922D01*
X144769Y130033D01*
X145130Y130117D01*
X145449Y130172D01*
X145602Y130186D01*
X145727Y130214D01*
X145852D01*
X145949Y130228D01*
X146018Y130242D01*
X146532D01*
X146921Y130214D01*
D02*
G37*
G36*
X141632Y127799D02*
X141369Y127479D01*
X141147Y127160D01*
X140952Y126855D01*
X140799Y126577D01*
X140675Y126327D01*
X140619Y126230D01*
X140577Y126133D01*
X140550Y126064D01*
X140522Y126008D01*
X140508Y125980D01*
Y125967D01*
X140369Y125592D01*
X140272Y125231D01*
X140189Y124884D01*
X140133Y124578D01*
X140119Y124440D01*
X140092Y124315D01*
Y124204D01*
X140078Y124120D01*
X140064Y124037D01*
Y123982D01*
Y123954D01*
Y123940D01*
Y123551D01*
X140078Y123190D01*
X140119Y122844D01*
X140161Y122524D01*
X140189Y122385D01*
X140217Y122260D01*
X140230Y122150D01*
X140258Y122066D01*
X140272Y121983D01*
X140286Y121927D01*
X140300Y121900D01*
Y121886D01*
X140425Y121511D01*
X140577Y121150D01*
X140730Y120817D01*
X140883Y120526D01*
X140952Y120401D01*
X141022Y120290D01*
X141091Y120192D01*
X141133Y120109D01*
X141188Y120040D01*
X141216Y119998D01*
X141230Y119970D01*
X141244Y119956D01*
X141493Y119623D01*
X141757Y119332D01*
X142007Y119082D01*
X142257Y118860D01*
X142465Y118679D01*
X142548Y118610D01*
X142618Y118555D01*
X142687Y118499D01*
X142729Y118471D01*
X142757Y118457D01*
X142770Y118444D01*
X143104Y118235D01*
X143437Y118055D01*
X143756Y117902D01*
X144047Y117777D01*
X144297Y117680D01*
X144394Y117639D01*
X144492Y117611D01*
X144561Y117583D01*
X144616Y117569D01*
X144644Y117555D01*
X144658D01*
X145033Y117472D01*
X145408Y117403D01*
X145755Y117361D01*
X146060Y117347D01*
X146213Y117333D01*
X146726D01*
X147115Y117375D01*
X147490Y117430D01*
X147851Y117514D01*
X148156Y117597D01*
X148309Y117639D01*
X148433Y117680D01*
X148531Y117722D01*
X148628Y117750D01*
X148711Y117777D01*
X148767Y117805D01*
X148794Y117819D01*
X148808D01*
X148919Y117555D01*
X148475Y117389D01*
X148267Y117319D01*
X148073Y117264D01*
X147906Y117222D01*
X147781Y117194D01*
X147698Y117167D01*
X147670D01*
X147420Y117125D01*
X147198Y117097D01*
X146976Y117069D01*
X146782Y117055D01*
X146615D01*
X146490Y117042D01*
X146379D01*
X146046Y117055D01*
X145893D01*
X145768Y117069D01*
X145658Y117083D01*
X145560D01*
X145505Y117097D01*
X145491D01*
X145172Y117153D01*
X145019Y117180D01*
X144880Y117208D01*
X144769Y117236D01*
X144686Y117264D01*
X144630Y117278D01*
X144616D01*
X144214Y117403D01*
X143839Y117555D01*
X143506Y117708D01*
X143201Y117861D01*
X143076Y117930D01*
X142951Y117999D01*
X142854Y118055D01*
X142770Y118110D01*
X142701Y118166D01*
X142646Y118194D01*
X142618Y118208D01*
X142604Y118221D01*
X142271Y118471D01*
X141965Y118735D01*
X141688Y118999D01*
X141466Y119249D01*
X141271Y119457D01*
X141202Y119554D01*
X141133Y119623D01*
X141091Y119693D01*
X141049Y119734D01*
X141035Y119762D01*
X141022Y119776D01*
X140786Y120123D01*
X140591Y120470D01*
X140411Y120817D01*
X140272Y121122D01*
X140217Y121261D01*
X140175Y121386D01*
X140133Y121497D01*
X140092Y121594D01*
X140064Y121664D01*
X140050Y121733D01*
X140036Y121761D01*
Y121775D01*
X139939Y122177D01*
X139856Y122580D01*
X139814Y122954D01*
X139786Y123288D01*
X139772Y123440D01*
Y123579D01*
Y123704D01*
Y123801D01*
Y123884D01*
Y123940D01*
Y123982D01*
Y123995D01*
X139814Y124412D01*
X139883Y124801D01*
X139953Y125161D01*
X140036Y125481D01*
X140078Y125619D01*
X140119Y125744D01*
X140161Y125855D01*
X140189Y125953D01*
X140217Y126036D01*
X140244Y126091D01*
X140258Y126119D01*
Y126133D01*
X140425Y126508D01*
X140619Y126869D01*
X140799Y127174D01*
X140994Y127452D01*
X141077Y127577D01*
X141160Y127674D01*
X141230Y127771D01*
X141285Y127854D01*
X141341Y127910D01*
X141382Y127951D01*
X141396Y127979D01*
X141410Y127993D01*
X141632Y127799D01*
D02*
G37*
G36*
X140702Y130602D02*
X141147Y130242D01*
X141549Y129908D01*
X141743Y129756D01*
X141924Y129603D01*
X142076Y129478D01*
X142229Y129353D01*
X142354Y129256D01*
X142465Y129159D01*
X142548Y129089D01*
X142618Y129034D01*
X142659Y129006D01*
X142673Y128992D01*
X143117Y128631D01*
X143562Y128271D01*
X143978Y127937D01*
X144158Y127771D01*
X144339Y127632D01*
X144505Y127493D01*
X144658Y127382D01*
X144783Y127271D01*
X144894Y127174D01*
X144977Y127105D01*
X145047Y127049D01*
X145088Y127021D01*
X145102Y127007D01*
X145546Y126647D01*
X145991Y126286D01*
X146407Y125953D01*
X146587Y125800D01*
X146768Y125647D01*
X146934Y125522D01*
X147087Y125397D01*
X147212Y125300D01*
X147323Y125203D01*
X147406Y125134D01*
X147476Y125078D01*
X147517Y125050D01*
X147531Y125037D01*
X147989Y124662D01*
X148420Y124301D01*
X148836Y123968D01*
X149030Y123815D01*
X149211Y123662D01*
X149363Y123524D01*
X149516Y123413D01*
X149655Y123301D01*
X149766Y123204D01*
X149849Y123135D01*
X149919Y123079D01*
X149960Y123052D01*
X149974Y123038D01*
X149724Y122954D01*
X149475Y122871D01*
X149252Y122788D01*
X149058Y122719D01*
X148878Y122663D01*
X148753Y122621D01*
X148669Y122594D01*
X148656Y122580D01*
X148642D01*
X148392Y122496D01*
X148156Y122427D01*
X147934Y122344D01*
X147726Y122274D01*
X147559Y122219D01*
X147420Y122177D01*
X147337Y122150D01*
X147323Y122136D01*
X147309D01*
X147573Y121858D01*
X147823Y121580D01*
X148059Y121317D01*
X148281Y121095D01*
X148447Y120900D01*
X148586Y120748D01*
X148642Y120692D01*
X148683Y120650D01*
X148697Y120637D01*
X148711Y120623D01*
X148975Y120345D01*
X149225Y120068D01*
X149475Y119804D01*
X149683Y119582D01*
X149863Y119387D01*
X150002Y119235D01*
X150057Y119179D01*
X150099Y119138D01*
X150113Y119124D01*
X150127Y119110D01*
X150391Y118832D01*
X150640Y118568D01*
X150876Y118319D01*
X151085Y118096D01*
X151265Y117902D01*
X151390Y117750D01*
X151445Y117694D01*
X151487Y117652D01*
X151501Y117639D01*
X151515Y117625D01*
X151779Y117347D01*
X152028Y117083D01*
X152264Y116833D01*
X152473Y116611D01*
X152653Y116417D01*
X152778Y116264D01*
X152833Y116209D01*
X152875Y116167D01*
X152889Y116153D01*
X152903Y116139D01*
Y116126D01*
Y116112D01*
X152889Y116084D01*
X152875Y116070D01*
X152389Y116431D01*
X151931Y116778D01*
X151487Y117111D01*
X151279Y117264D01*
X151098Y117403D01*
X150918Y117541D01*
X150765Y117652D01*
X150627Y117763D01*
X150502Y117847D01*
X150404Y117916D01*
X150335Y117972D01*
X150293Y117999D01*
X150279Y118013D01*
X149794Y118374D01*
X149322Y118721D01*
X148878Y119054D01*
X148683Y119207D01*
X148489Y119346D01*
X148322Y119484D01*
X148156Y119596D01*
X148017Y119707D01*
X147906Y119790D01*
X147809Y119859D01*
X147740Y119915D01*
X147698Y119943D01*
X147684Y119956D01*
X147198Y120331D01*
X146726Y120678D01*
X146282Y121011D01*
X146074Y121164D01*
X145893Y121317D01*
X145713Y121442D01*
X145560Y121566D01*
X145422Y121664D01*
X145297Y121761D01*
X145199Y121830D01*
X145130Y121886D01*
X145088Y121914D01*
X145074Y121927D01*
X144589Y122302D01*
X144117Y122663D01*
X143673Y122996D01*
X143464Y123149D01*
X143270Y123288D01*
X143090Y123426D01*
X142937Y123538D01*
X142798Y123649D01*
X142673Y123732D01*
X142576Y123801D01*
X142507Y123857D01*
X142465Y123884D01*
X142451Y123898D01*
X142757Y123982D01*
X143048Y124065D01*
X143326Y124134D01*
X143576Y124204D01*
X143784Y124245D01*
X143867Y124273D01*
X143936Y124287D01*
X143992Y124315D01*
X144034D01*
X144061Y124329D01*
X144075D01*
X144380Y124412D01*
X144672Y124495D01*
X144936Y124565D01*
X145186Y124634D01*
X145394Y124689D01*
X145477Y124717D01*
X145546Y124731D01*
X145602Y124745D01*
X145644Y124759D01*
X145671Y124773D01*
X145685D01*
X145422Y125064D01*
X145172Y125328D01*
X144950Y125592D01*
X144741Y125828D01*
X144561Y126022D01*
X144422Y126175D01*
X144380Y126230D01*
X144339Y126272D01*
X144325Y126286D01*
X144311Y126300D01*
X144047Y126591D01*
X143798Y126869D01*
X143576Y127132D01*
X143367Y127368D01*
X143187Y127563D01*
X143048Y127715D01*
X143006Y127771D01*
X142965Y127813D01*
X142951Y127826D01*
X142937Y127840D01*
X142687Y128132D01*
X142437Y128395D01*
X142201Y128659D01*
X142007Y128895D01*
X141827Y129089D01*
X141688Y129242D01*
X141646Y129298D01*
X141604Y129339D01*
X141591Y129353D01*
X141577Y129367D01*
X141327Y129659D01*
X141077Y129922D01*
X140855Y130186D01*
X140647Y130408D01*
X140480Y130602D01*
X140341Y130755D01*
X140300Y130811D01*
X140258Y130852D01*
X140244Y130866D01*
X140230Y130880D01*
Y130908D01*
X140244Y130922D01*
Y130949D01*
X140258Y130963D01*
X140702Y130602D01*
D02*
G37*
%LPC*%
G36*
X102421Y124259D02*
X102324D01*
X102144Y124245D01*
X101977Y124204D01*
X101838Y124162D01*
X101727Y124107D01*
X101644Y124037D01*
X101588Y123995D01*
X101547Y123954D01*
X101533Y123940D01*
X101436Y123815D01*
X101366Y123676D01*
X101325Y123524D01*
X101283Y123371D01*
X101269Y123246D01*
X101255Y123135D01*
Y123066D01*
Y123052D01*
Y123038D01*
X101269Y122830D01*
X101297Y122635D01*
X101339Y122483D01*
X101394Y122358D01*
X101450Y122247D01*
X101491Y122177D01*
X101519Y122136D01*
X101533Y122122D01*
X101644Y122025D01*
X101769Y121941D01*
X101894Y121886D01*
X102033Y121858D01*
X102144Y121830D01*
X102241Y121816D01*
X102324D01*
X102518Y121830D01*
X102685Y121858D01*
X102838Y121914D01*
X102949Y121969D01*
X103046Y122025D01*
X103101Y122080D01*
X103143Y122108D01*
X103157Y122122D01*
X103240Y122247D01*
X103310Y122399D01*
X103351Y122552D01*
X103393Y122691D01*
X103407Y122830D01*
X103421Y122941D01*
Y123010D01*
Y123038D01*
X103407Y123246D01*
X103379Y123426D01*
X103337Y123579D01*
X103282Y123718D01*
X103240Y123815D01*
X103199Y123884D01*
X103171Y123926D01*
X103157Y123940D01*
X103046Y124051D01*
X102907Y124120D01*
X102768Y124176D01*
X102629Y124218D01*
X102518Y124245D01*
X102421Y124259D01*
D02*
G37*
%LPD*%
D13*
X75590Y77756D02*
X92126D01*
X75590Y63189D02*
X92126D01*
X75590D02*
Y77756D01*
X92126Y63189D02*
Y77756D01*
X91780Y78150D02*
Y85630D01*
X78787Y78150D02*
Y85630D01*
Y78150D02*
X91780D01*
X78787Y85630D02*
X91780D01*
X74756Y111343D02*
Y122760D01*
X69244Y111343D02*
Y122760D01*
X74756D01*
X69244Y111343D02*
X74756D01*
X57142Y118441D02*
X68362D01*
X68559D02*
Y123559D01*
X57142D02*
X68362D01*
X57142Y118441D02*
Y123559D01*
X27468Y42020D02*
Y56980D01*
X71563Y42020D02*
Y56980D01*
X27468D02*
X71563D01*
X27468Y42020D02*
X71563D01*
X25984Y109941D02*
X71653D01*
X25984Y81398D02*
X71653D01*
X25984D02*
Y109941D01*
X71653Y81398D02*
Y109941D01*
X42630Y80614D02*
X71370D01*
X42630Y57386D02*
X71370D01*
X42630D02*
Y80614D01*
X71370Y57386D02*
Y80614D01*
X55118Y110236D02*
X68504D01*
X55118Y118110D02*
X68504D01*
Y110236D02*
Y118110D01*
X55118Y110236D02*
Y118110D01*
X107874Y52165D02*
X140945D01*
X107874Y70669D02*
X140945D01*
Y52165D02*
Y70669D01*
X107874Y52165D02*
Y70669D01*
X160433Y51378D02*
X165551D01*
X160433D02*
Y62598D01*
Y62795D02*
X165551D01*
Y51378D02*
Y62598D01*
X217028Y76378D02*
Y122047D01*
X188484Y76378D02*
Y122047D01*
X217028D01*
X188484Y76378D02*
X217028D01*
X170374Y30512D02*
Y76181D01*
X198917Y30512D02*
Y76181D01*
X170374Y30512D02*
X198917D01*
X170374Y76181D02*
X198917D01*
X200000Y55807D02*
Y67224D01*
X205512Y55807D02*
Y67224D01*
X200000Y55807D02*
X205512D01*
X200000Y67224D02*
X205512D01*
X78787Y86024D02*
Y93504D01*
X91780Y86024D02*
Y93504D01*
X78787D02*
X91780D01*
X78787Y86024D02*
X91780D01*
X153937Y57284D02*
Y68701D01*
X148425Y57284D02*
Y68701D01*
X153937D01*
X148425Y57284D02*
X153937D01*
X160039Y51181D02*
Y56693D01*
X148622Y51181D02*
Y56693D01*
Y51181D02*
X160039D01*
X148622Y56693D02*
X160039D01*
X154331Y68799D02*
X159843D01*
X154331Y57382D02*
X159843D01*
Y68799D01*
X154331Y57382D02*
Y68799D01*
D15*
X53500Y65499D02*
Y62000D01*
Y65499D02*
X52334D01*
X51834Y65333D01*
X51500Y64999D01*
X51334Y64666D01*
X51167Y64166D01*
Y63333D01*
X51334Y62833D01*
X51500Y62500D01*
X51834Y62167D01*
X52334Y62000D01*
X53500D01*
X48884Y64999D02*
Y62000D01*
X50384Y63500D02*
X47385D01*
X44352Y64999D02*
X44519Y65333D01*
X45019Y65499D01*
X45352D01*
X45852Y65333D01*
X46185Y64833D01*
X46352Y64000D01*
Y63166D01*
X46185Y62500D01*
X45852Y62167D01*
X45352Y62000D01*
X45185D01*
X44685Y62167D01*
X44352Y62500D01*
X44185Y63000D01*
Y63166D01*
X44352Y63666D01*
X44685Y64000D01*
X45185Y64166D01*
X45352D01*
X45852Y64000D01*
X46185Y63666D01*
X46352Y63166D01*
X42419Y65499D02*
X42919Y65333D01*
X43252Y64833D01*
X43419Y64000D01*
Y63500D01*
X43252Y62666D01*
X42919Y62167D01*
X42419Y62000D01*
X42086D01*
X41586Y62167D01*
X41253Y62666D01*
X41086Y63500D01*
Y64000D01*
X41253Y64833D01*
X41586Y65333D01*
X42086Y65499D01*
X42419D01*
X40303D02*
X38970Y62000D01*
X37637Y65499D02*
X38970Y62000D01*
X37187Y60834D02*
X34521D01*
X34071Y65499D02*
Y62000D01*
X31738Y65499D02*
Y62000D01*
X34071Y63833D02*
X31738D01*
X30771Y65499D02*
X29438Y62000D01*
X28105Y65499D02*
X29438Y62000D01*
X46500Y74499D02*
Y71000D01*
X44167Y74499D02*
Y71000D01*
X46500Y72833D02*
X44167D01*
X43201Y74499D02*
X41868Y71000D01*
X40535Y74499D02*
X41868Y71000D01*
X40085Y69834D02*
X37419D01*
X34469Y73666D02*
X34636Y73999D01*
X34969Y74333D01*
X35302Y74499D01*
X35969D01*
X36302Y74333D01*
X36635Y73999D01*
X36802Y73666D01*
X36969Y73166D01*
Y72333D01*
X36802Y71833D01*
X36635Y71500D01*
X36302Y71167D01*
X35969Y71000D01*
X35302D01*
X34969Y71167D01*
X34636Y71500D01*
X34469Y71833D01*
Y72333D01*
X35302D02*
X34469D01*
X33669Y74499D02*
Y71000D01*
Y74499D02*
X31337Y71000D01*
Y74499D02*
Y71000D01*
X30370Y74499D02*
Y71000D01*
Y74499D02*
X29204D01*
X28704Y74333D01*
X28371Y73999D01*
X28204Y73666D01*
X28037Y73166D01*
Y72333D01*
X28204Y71833D01*
X28371Y71500D01*
X28704Y71167D01*
X29204Y71000D01*
X30370D01*
X251000Y50999D02*
Y47500D01*
X249000D01*
X248617Y50999D02*
X247284Y47500D01*
X245951Y50999D02*
X247284Y47500D01*
X245501Y46334D02*
X242835D01*
X239886Y50166D02*
X240052Y50499D01*
X240386Y50833D01*
X240719Y50999D01*
X241385D01*
X241719Y50833D01*
X242052Y50499D01*
X242219Y50166D01*
X242385Y49666D01*
Y48833D01*
X242219Y48333D01*
X242052Y48000D01*
X241719Y47667D01*
X241385Y47500D01*
X240719D01*
X240386Y47667D01*
X240052Y48000D01*
X239886Y48333D01*
Y48833D01*
X240719D02*
X239886D01*
X239086Y50999D02*
Y47500D01*
Y50999D02*
X236753Y47500D01*
Y50999D02*
Y47500D01*
X235787Y50999D02*
Y47500D01*
Y50999D02*
X234620D01*
X234120Y50833D01*
X233787Y50499D01*
X233620Y50166D01*
X233454Y49666D01*
Y48833D01*
X233620Y48333D01*
X233787Y48000D01*
X234120Y47667D01*
X234620Y47500D01*
X235787D01*
X250000Y68539D02*
Y65039D01*
Y68539D02*
X248834D01*
X248334Y68372D01*
X248000Y68039D01*
X247834Y67706D01*
X247667Y67206D01*
Y66372D01*
X247834Y65873D01*
X248000Y65539D01*
X248334Y65206D01*
X248834Y65039D01*
X250000D01*
X245384Y68039D02*
Y65039D01*
X246884Y66539D02*
X243885D01*
X242851Y67872D02*
X242518Y68039D01*
X242018Y68539D01*
Y65039D01*
X240119Y67706D02*
Y67872D01*
X239952Y68205D01*
X239786Y68372D01*
X239452Y68539D01*
X238786D01*
X238453Y68372D01*
X238286Y68205D01*
X238119Y67872D01*
Y67539D01*
X238286Y67206D01*
X238619Y66706D01*
X240285Y65039D01*
X237953D01*
X237169Y68539D02*
X235836Y65039D01*
X234503Y68539D02*
X235836Y65039D01*
X234053Y63873D02*
X231387D01*
X230937Y68539D02*
Y65039D01*
X228938D01*
X228555Y68539D02*
X227221Y65039D01*
X225888Y68539D02*
X227221Y65039D01*
X161001Y52834D02*
X164500D01*
X161001Y54000D02*
Y51667D01*
X161501Y48918D02*
X161167Y49251D01*
X161001Y49751D01*
Y50417D01*
X161167Y50917D01*
X161501Y51251D01*
X161834D01*
X162167Y51084D01*
X162334Y50917D01*
X162500Y50584D01*
X162834Y49584D01*
X163000Y49251D01*
X163167Y49084D01*
X163500Y48918D01*
X164000D01*
X164333Y49251D01*
X164500Y49751D01*
Y50417D01*
X164333Y50917D01*
X164000Y51251D01*
X164500Y45469D02*
X161001Y46801D01*
X164500Y48135D01*
X163334Y47635D02*
Y45968D01*
X161001Y44652D02*
X164500D01*
Y42652D01*
X165666Y42269D02*
Y39603D01*
X161001Y39153D02*
X164500D01*
X161001D02*
Y37653D01*
X161167Y37154D01*
X161334Y36987D01*
X161667Y36820D01*
X162001D01*
X162334Y36987D01*
X162500Y37154D01*
X162667Y37653D01*
Y39153D01*
Y37987D02*
X164500Y36820D01*
X161001Y33871D02*
Y36037D01*
X164500D01*
Y33871D01*
X162667Y36037D02*
Y34704D01*
X161001Y33288D02*
X164500D01*
X161001D02*
Y32121D01*
X161167Y31622D01*
X161501Y31288D01*
X161834Y31122D01*
X162334Y30955D01*
X163167D01*
X163667Y31122D01*
X164000Y31288D01*
X164333Y31622D01*
X164500Y32121D01*
Y33288D01*
X161501Y28672D02*
X164500D01*
X163000Y30172D02*
Y27172D01*
X204001Y43500D02*
X207500D01*
Y41500D01*
X204001Y41117D02*
X207500Y39784D01*
X204001Y38451D02*
X207500Y39784D01*
X208666Y38001D02*
Y35335D01*
X204834Y32386D02*
X204501Y32552D01*
X204167Y32886D01*
X204001Y33219D01*
Y33885D01*
X204167Y34219D01*
X204501Y34552D01*
X204834Y34718D01*
X205334Y34885D01*
X206167D01*
X206667Y34718D01*
X207000Y34552D01*
X207333Y34219D01*
X207500Y33885D01*
Y33219D01*
X207333Y32886D01*
X207000Y32552D01*
X206667Y32386D01*
X206167D01*
Y33219D02*
Y32386D01*
X204001Y31586D02*
X207500D01*
X204001D02*
X207500Y29253D01*
X204001D02*
X207500D01*
X204001Y28287D02*
X207500D01*
X204001D02*
Y27120D01*
X204167Y26620D01*
X204501Y26287D01*
X204834Y26120D01*
X205334Y25954D01*
X206167D01*
X206667Y26120D01*
X207000Y26287D01*
X207333Y26620D01*
X207500Y27120D01*
Y28287D01*
X191501Y45000D02*
X195000D01*
Y43000D01*
X191501Y42617D02*
X195000Y41284D01*
X191501Y39951D02*
X195000Y41284D01*
X196166Y39501D02*
Y36835D01*
X192334Y33886D02*
X192001Y34052D01*
X191667Y34386D01*
X191501Y34719D01*
Y35385D01*
X191667Y35719D01*
X192001Y36052D01*
X192334Y36219D01*
X192834Y36385D01*
X193667D01*
X194167Y36219D01*
X194500Y36052D01*
X194833Y35719D01*
X195000Y35385D01*
Y34719D01*
X194833Y34386D01*
X194500Y34052D01*
X194167Y33886D01*
X193667D01*
Y34719D02*
Y33886D01*
X191501Y33086D02*
X195000D01*
X191501D02*
X195000Y30753D01*
X191501D02*
X195000D01*
X191501Y29787D02*
X195000D01*
X191501D02*
Y28620D01*
X191667Y28120D01*
X192001Y27787D01*
X192334Y27620D01*
X192834Y27454D01*
X193667D01*
X194167Y27620D01*
X194500Y27787D01*
X194833Y28120D01*
X195000Y28620D01*
Y29787D01*
X181501Y52000D02*
X185000D01*
X181501D02*
Y50834D01*
X181667Y50334D01*
X182001Y50000D01*
X182334Y49834D01*
X182834Y49667D01*
X183667D01*
X184167Y49834D01*
X184500Y50000D01*
X184833Y50334D01*
X185000Y50834D01*
Y52000D01*
X182001Y47384D02*
X185000D01*
X183500Y48884D02*
Y45885D01*
X182167Y44851D02*
X182001Y44518D01*
X181501Y44018D01*
X185000D01*
X182334Y42119D02*
X182167D01*
X181834Y41952D01*
X181667Y41785D01*
X181501Y41452D01*
Y40786D01*
X181667Y40453D01*
X181834Y40286D01*
X182167Y40119D01*
X182501D01*
X182834Y40286D01*
X183334Y40619D01*
X185000Y42285D01*
Y39953D01*
X181501Y39169D02*
X185000Y37836D01*
X181501Y36503D02*
X185000Y37836D01*
X186166Y36053D02*
Y33387D01*
X181501Y32937D02*
X185000D01*
Y30938D01*
X181501Y30555D02*
X185000Y29221D01*
X181501Y27889D02*
X185000Y29221D01*
X171501Y55500D02*
X175000Y54167D01*
X171501Y52834D02*
X175000Y54167D01*
X172334Y49885D02*
X172001Y50051D01*
X171667Y50384D01*
X171501Y50718D01*
Y51384D01*
X171667Y51718D01*
X172001Y52051D01*
X172334Y52217D01*
X172834Y52384D01*
X173667D01*
X174167Y52217D01*
X174500Y52051D01*
X174833Y51718D01*
X175000Y51384D01*
Y50718D01*
X174833Y50384D01*
X174500Y50051D01*
X174167Y49885D01*
X171501Y48901D02*
X174000D01*
X174500Y48735D01*
X174833Y48401D01*
X175000Y47902D01*
Y47568D01*
X174833Y47069D01*
X174500Y46735D01*
X174000Y46569D01*
X171501D01*
X176166Y45602D02*
Y42936D01*
X175000Y39820D02*
X171501Y41153D01*
X175000Y42486D01*
X173834Y41986D02*
Y40320D01*
X172334Y36504D02*
X172001Y36671D01*
X171667Y37004D01*
X171501Y37337D01*
Y38004D01*
X171667Y38337D01*
X172001Y38670D01*
X172334Y38837D01*
X172834Y39004D01*
X173667D01*
X174167Y38837D01*
X174500Y38670D01*
X174833Y38337D01*
X175000Y38004D01*
Y37337D01*
X174833Y37004D01*
X174500Y36671D01*
X174167Y36504D01*
X171501Y34354D02*
X175000D01*
X171501Y35521D02*
Y33188D01*
Y32772D02*
X175000D01*
X171501Y32038D02*
X175000Y30705D01*
X171501Y29372D02*
X175000Y30705D01*
X171501Y26756D02*
Y28922D01*
X175000D01*
Y26756D01*
X173167Y28922D02*
Y27589D01*
X219020Y38334D02*
X222520D01*
X219020Y39500D02*
Y37167D01*
X219520Y34418D02*
X219187Y34751D01*
X219020Y35251D01*
Y35917D01*
X219187Y36417D01*
X219520Y36751D01*
X219854D01*
X220187Y36584D01*
X220354Y36417D01*
X220520Y36084D01*
X220853Y35084D01*
X221020Y34751D01*
X221187Y34584D01*
X221520Y34418D01*
X222020D01*
X222353Y34751D01*
X222520Y35251D01*
Y35917D01*
X222353Y36417D01*
X222020Y36751D01*
X222520Y30968D02*
X219020Y32302D01*
X222520Y33635D01*
X221353Y33135D02*
Y31468D01*
X219020Y30152D02*
X222520D01*
Y28152D01*
X223686Y27769D02*
Y25103D01*
X219854Y22154D02*
X219520Y22320D01*
X219187Y22654D01*
X219020Y22987D01*
Y23653D01*
X219187Y23987D01*
X219520Y24320D01*
X219854Y24487D01*
X220354Y24653D01*
X221187D01*
X221687Y24487D01*
X222020Y24320D01*
X222353Y23987D01*
X222520Y23653D01*
Y22987D01*
X222353Y22654D01*
X222020Y22320D01*
X221687Y22154D01*
X221187D01*
Y22987D02*
Y22154D01*
X219020Y21354D02*
X222520D01*
X219020D02*
Y19854D01*
X219187Y19354D01*
X219354Y19188D01*
X219687Y19021D01*
X220020D01*
X220354Y19188D01*
X220520Y19354D01*
X220687Y19854D01*
Y21354D01*
Y20188D02*
X222520Y19021D01*
X219020Y16072D02*
Y18238D01*
X222520D01*
Y16072D01*
X220687Y18238D02*
Y16905D01*
X219020Y13322D02*
Y15488D01*
X222520D01*
Y13322D01*
X220687Y15488D02*
Y14155D01*
X219020Y12739D02*
X222520D01*
X219020D02*
X222520Y10406D01*
X219020D02*
X222520D01*
X221020Y9440D02*
Y6440D01*
X135334Y118499D02*
Y115000D01*
X136500Y118499D02*
X134167D01*
X131418Y117999D02*
X131751Y118333D01*
X132251Y118499D01*
X132917D01*
X133417Y118333D01*
X133751Y117999D01*
Y117666D01*
X133584Y117333D01*
X133417Y117166D01*
X133084Y117000D01*
X132084Y116666D01*
X131751Y116500D01*
X131584Y116333D01*
X131418Y116000D01*
Y115500D01*
X131751Y115167D01*
X132251Y115000D01*
X132917D01*
X133417Y115167D01*
X133751Y115500D01*
X127969Y115000D02*
X129302Y118499D01*
X130635Y115000D01*
X130135Y116166D02*
X128468D01*
X127152Y118499D02*
Y115000D01*
X125152D01*
X122020Y118499D02*
Y115000D01*
Y118499D02*
X120520D01*
X120020Y118333D01*
X119854Y118166D01*
X119687Y117833D01*
Y117499D01*
X119854Y117166D01*
X120020Y117000D01*
X120520Y116833D01*
X122020D01*
X120853D02*
X119687Y115000D01*
X116738Y118499D02*
X118904D01*
Y115000D01*
X116738D01*
X118904Y116833D02*
X117571D01*
X116154Y118499D02*
X114821Y115000D01*
X113488Y118499D02*
X114821Y115000D01*
X110122Y117666D02*
Y117833D01*
X109956Y118166D01*
X109789Y118333D01*
X109456Y118499D01*
X108789D01*
X108456Y118333D01*
X108289Y118166D01*
X108123Y117833D01*
Y117499D01*
X108289Y117166D01*
X108623Y116666D01*
X110289Y115000D01*
X107956D01*
X226834Y81999D02*
Y79333D01*
X227000Y78833D01*
X227167Y78667D01*
X227500Y78500D01*
X227834D01*
X228167Y78667D01*
X228333Y78833D01*
X228500Y79333D01*
Y79666D01*
X225934Y80166D02*
X224434D01*
X223934Y80333D01*
X223768Y80500D01*
X223601Y80833D01*
Y81333D01*
X223768Y81666D01*
X223934Y81833D01*
X224434Y81999D01*
X225934D01*
Y78500D01*
X222651Y81166D02*
Y81333D01*
X222485Y81666D01*
X222318Y81833D01*
X221985Y81999D01*
X221318D01*
X220985Y81833D01*
X220818Y81666D01*
X220652Y81333D01*
Y80999D01*
X220818Y80666D01*
X221152Y80166D01*
X222818Y78500D01*
X220485D01*
X216952Y81999D02*
Y78500D01*
X214953D01*
X214570Y81999D02*
X213237Y78500D01*
X211904Y81999D02*
X213237Y78500D01*
X211454Y77334D02*
X208788D01*
X205838Y81166D02*
X206005Y81499D01*
X206338Y81833D01*
X206671Y81999D01*
X207338D01*
X207671Y81833D01*
X208004Y81499D01*
X208171Y81166D01*
X208338Y80666D01*
Y79833D01*
X208171Y79333D01*
X208004Y79000D01*
X207671Y78667D01*
X207338Y78500D01*
X206671D01*
X206338Y78667D01*
X206005Y79000D01*
X205838Y79333D01*
Y79833D01*
X206671D02*
X205838D01*
X205038Y81999D02*
Y78500D01*
Y81999D02*
X202706Y78500D01*
Y81999D02*
Y78500D01*
X201739Y81999D02*
Y78500D01*
Y81999D02*
X200573D01*
X200073Y81833D01*
X199740Y81499D01*
X199573Y81166D01*
X199406Y80666D01*
Y79833D01*
X199573Y79333D01*
X199740Y79000D01*
X200073Y78667D01*
X200573Y78500D01*
X201739D01*
X86834Y114999D02*
Y112333D01*
X87000Y111833D01*
X87167Y111667D01*
X87500Y111500D01*
X87833D01*
X88167Y111667D01*
X88333Y111833D01*
X88500Y112333D01*
Y112666D01*
X85934Y113166D02*
X84434D01*
X83934Y113333D01*
X83768Y113500D01*
X83601Y113833D01*
Y114333D01*
X83768Y114666D01*
X83934Y114833D01*
X84434Y114999D01*
X85934D01*
Y111500D01*
X80818Y114499D02*
X80985Y114833D01*
X81485Y114999D01*
X81818D01*
X82318Y114833D01*
X82651Y114333D01*
X82818Y113500D01*
Y112666D01*
X82651Y112000D01*
X82318Y111667D01*
X81818Y111500D01*
X81652D01*
X81152Y111667D01*
X80818Y112000D01*
X80652Y112500D01*
Y112666D01*
X80818Y113166D01*
X81152Y113500D01*
X81652Y113666D01*
X81818D01*
X82318Y113500D01*
X82651Y113166D01*
X82818Y112666D01*
X77136Y114999D02*
Y111500D01*
Y114999D02*
X75969D01*
X75469Y114833D01*
X75136Y114499D01*
X74970Y114166D01*
X74803Y113666D01*
Y112833D01*
X74970Y112333D01*
X75136Y112000D01*
X75469Y111667D01*
X75969Y111500D01*
X77136D01*
X72520Y114499D02*
Y111500D01*
X74020Y113000D02*
X71020D01*
X67988Y114999D02*
X69654D01*
X69821Y113500D01*
X69654Y113666D01*
X69154Y113833D01*
X68654D01*
X68154Y113666D01*
X67821Y113333D01*
X67655Y112833D01*
Y112500D01*
X67821Y112000D01*
X68154Y111667D01*
X68654Y111500D01*
X69154D01*
X69654Y111667D01*
X69821Y111833D01*
X69987Y112167D01*
X66871Y114999D02*
X65538Y111500D01*
X64205Y114999D02*
X65538Y111500D01*
X63755Y110334D02*
X61089D01*
X59473Y114999D02*
Y111500D01*
X60639Y114999D02*
X58306D01*
X55557Y114499D02*
X55890Y114833D01*
X56390Y114999D01*
X57057D01*
X57557Y114833D01*
X57890Y114499D01*
Y114166D01*
X57723Y113833D01*
X57557Y113666D01*
X57223Y113500D01*
X56224Y113166D01*
X55890Y113000D01*
X55724Y112833D01*
X55557Y112500D01*
Y112000D01*
X55890Y111667D01*
X56390Y111500D01*
X57057D01*
X57557Y111667D01*
X57890Y112000D01*
X64834Y31499D02*
Y28833D01*
X65000Y28333D01*
X65167Y28167D01*
X65500Y28000D01*
X65833D01*
X66167Y28167D01*
X66333Y28333D01*
X66500Y28833D01*
Y29166D01*
X63934Y29666D02*
X62434D01*
X61934Y29833D01*
X61768Y30000D01*
X61601Y30333D01*
Y30833D01*
X61768Y31166D01*
X61934Y31333D01*
X62434Y31499D01*
X63934D01*
Y28000D01*
X58818Y31499D02*
X60485D01*
X60651Y30000D01*
X60485Y30166D01*
X59985Y30333D01*
X59485D01*
X58985Y30166D01*
X58652Y29833D01*
X58485Y29333D01*
Y29000D01*
X58652Y28500D01*
X58985Y28167D01*
X59485Y28000D01*
X59985D01*
X60485Y28167D01*
X60651Y28333D01*
X60818Y28666D01*
X54953Y31499D02*
Y28000D01*
X52620Y31499D02*
Y28000D01*
X54953Y29833D02*
X52620D01*
X51653Y31499D02*
X50320Y28000D01*
X48987Y31499D02*
X50320Y28000D01*
X48537Y26834D02*
X45871D01*
X42922Y30666D02*
X43088Y30999D01*
X43422Y31333D01*
X43755Y31499D01*
X44421D01*
X44755Y31333D01*
X45088Y30999D01*
X45255Y30666D01*
X45421Y30166D01*
Y29333D01*
X45255Y28833D01*
X45088Y28500D01*
X44755Y28167D01*
X44421Y28000D01*
X43755D01*
X43422Y28167D01*
X43088Y28500D01*
X42922Y28833D01*
Y29333D01*
X43755D02*
X42922D01*
X42122Y31499D02*
Y28000D01*
Y31499D02*
X39789Y28000D01*
Y31499D02*
Y28000D01*
X38823Y31499D02*
Y28000D01*
Y31499D02*
X37656D01*
X37156Y31333D01*
X36823Y30999D01*
X36656Y30666D01*
X36490Y30166D01*
Y29333D01*
X36656Y28833D01*
X36823Y28500D01*
X37156Y28167D01*
X37656Y28000D01*
X38823D01*
X42834Y46499D02*
Y43833D01*
X43000Y43333D01*
X43167Y43167D01*
X43500Y43000D01*
X43834D01*
X44167Y43167D01*
X44333Y43333D01*
X44500Y43833D01*
Y44166D01*
X41934Y44666D02*
X40434D01*
X39934Y44833D01*
X39768Y45000D01*
X39601Y45333D01*
Y45833D01*
X39768Y46166D01*
X39934Y46333D01*
X40434Y46499D01*
X41934D01*
Y43000D01*
X37152Y46499D02*
X38818Y44166D01*
X36318D01*
X37152Y46499D02*
Y43000D01*
X32952Y46499D02*
Y43000D01*
Y46499D02*
X31786D01*
X31286Y46333D01*
X30953Y45999D01*
X30786Y45666D01*
X30620Y45166D01*
Y44333D01*
X30786Y43833D01*
X30953Y43500D01*
X31286Y43167D01*
X31786Y43000D01*
X32952D01*
X28337Y45999D02*
Y43000D01*
X29836Y44500D02*
X26837D01*
X23804Y45999D02*
X23971Y46333D01*
X24471Y46499D01*
X24804D01*
X25304Y46333D01*
X25637Y45833D01*
X25804Y45000D01*
Y44166D01*
X25637Y43500D01*
X25304Y43167D01*
X24804Y43000D01*
X24638D01*
X24138Y43167D01*
X23804Y43500D01*
X23638Y44000D01*
Y44166D01*
X23804Y44666D01*
X24138Y45000D01*
X24638Y45166D01*
X24804D01*
X25304Y45000D01*
X25637Y44666D01*
X25804Y44166D01*
X21871Y46499D02*
X22371Y46333D01*
X22705Y45833D01*
X22871Y45000D01*
Y44500D01*
X22705Y43666D01*
X22371Y43167D01*
X21871Y43000D01*
X21538D01*
X21038Y43167D01*
X20705Y43666D01*
X20538Y44500D01*
Y45000D01*
X20705Y45833D01*
X21038Y46333D01*
X21538Y46499D01*
X21871D01*
X19755D02*
X18422Y43000D01*
X17089Y46499D02*
X18422Y43000D01*
X16639Y41834D02*
X13973D01*
X13523Y46499D02*
Y43000D01*
X11191Y46499D02*
Y43000D01*
X13523Y44833D02*
X11191D01*
X10224Y46499D02*
X8891Y43000D01*
X7558Y46499D02*
X8891Y43000D01*
X86834Y38499D02*
Y35833D01*
X87000Y35333D01*
X87167Y35167D01*
X87500Y35000D01*
X87833D01*
X88167Y35167D01*
X88333Y35333D01*
X88500Y35833D01*
Y36166D01*
X85934Y36666D02*
X84434D01*
X83934Y36833D01*
X83768Y37000D01*
X83601Y37333D01*
Y37833D01*
X83768Y38166D01*
X83934Y38333D01*
X84434Y38499D01*
X85934D01*
Y35000D01*
X82485Y38499D02*
X80652D01*
X81652Y37166D01*
X81152D01*
X80818Y37000D01*
X80652Y36833D01*
X80485Y36333D01*
Y36000D01*
X80652Y35500D01*
X80985Y35167D01*
X81485Y35000D01*
X81985D01*
X82485Y35167D01*
X82651Y35333D01*
X82818Y35666D01*
X75786Y38499D02*
Y35000D01*
X76952Y38499D02*
X74620D01*
X71870Y37999D02*
X72203Y38333D01*
X72703Y38499D01*
X73370D01*
X73870Y38333D01*
X74203Y37999D01*
Y37666D01*
X74036Y37333D01*
X73870Y37166D01*
X73536Y37000D01*
X72537Y36666D01*
X72203Y36500D01*
X72037Y36333D01*
X71870Y36000D01*
Y35500D01*
X72203Y35167D01*
X72703Y35000D01*
X73370D01*
X73870Y35167D01*
X74203Y35500D01*
X203834Y62999D02*
Y60333D01*
X204000Y59833D01*
X204167Y59667D01*
X204500Y59500D01*
X204834D01*
X205167Y59667D01*
X205333Y59833D01*
X205500Y60333D01*
Y60666D01*
X202934Y61166D02*
X201434D01*
X200934Y61333D01*
X200768Y61500D01*
X200601Y61833D01*
Y62333D01*
X200768Y62666D01*
X200934Y62833D01*
X201434Y62999D01*
X202934D01*
Y59500D01*
X199818Y62333D02*
X199485Y62499D01*
X198985Y62999D01*
Y59500D01*
X194502Y62999D02*
Y59500D01*
Y62999D02*
X193336D01*
X192836Y62833D01*
X192503Y62499D01*
X192336Y62166D01*
X192169Y61666D01*
Y60833D01*
X192336Y60333D01*
X192503Y60000D01*
X192836Y59667D01*
X193336Y59500D01*
X194502D01*
X189887Y62499D02*
Y59500D01*
X191386Y61000D02*
X188387D01*
X187354Y62333D02*
X187021Y62499D01*
X186521Y62999D01*
Y59500D01*
X184621Y62166D02*
Y62333D01*
X184455Y62666D01*
X184288Y62833D01*
X183955Y62999D01*
X183288D01*
X182955Y62833D01*
X182788Y62666D01*
X182622Y62333D01*
Y61999D01*
X182788Y61666D01*
X183122Y61166D01*
X184788Y59500D01*
X182455D01*
X181672Y62999D02*
X180339Y59500D01*
X179006Y62999D02*
X180339Y59500D01*
X178556Y58334D02*
X175890D01*
X175440Y62999D02*
Y59500D01*
X173440D01*
X173057Y62999D02*
X171724Y59500D01*
X170391Y62999D02*
X171724Y59500D01*
X225385Y30878D02*
Y27379D01*
Y30878D02*
X226718Y27379D01*
X228051Y30878D02*
X226718Y27379D01*
X228051Y30878D02*
Y27379D01*
X229051Y30878D02*
Y27379D01*
X231383Y30878D02*
Y27379D01*
X229051Y29212D02*
X231383D01*
X234016Y30878D02*
X232350Y28545D01*
X234849D01*
X234016Y30878D02*
Y27379D01*
X224380Y135393D02*
Y131894D01*
Y135393D02*
X225713Y131894D01*
X227046Y135393D02*
X225713Y131894D01*
X227046Y135393D02*
Y131894D01*
X228046Y135393D02*
Y131894D01*
X230379Y135393D02*
Y131894D01*
X228046Y133727D02*
X230379D01*
X231678Y135393D02*
X233511D01*
X232511Y134060D01*
X233011D01*
X233345Y133893D01*
X233511Y133727D01*
X233678Y133227D01*
Y132893D01*
X233511Y132393D01*
X233178Y132060D01*
X232678Y131894D01*
X232178D01*
X231678Y132060D01*
X231512Y132227D01*
X231345Y132560D01*
X4891Y32873D02*
Y29374D01*
Y32873D02*
X6224Y29374D01*
X7557Y32873D02*
X6224Y29374D01*
X7557Y32873D02*
Y29374D01*
X8557Y32873D02*
Y29374D01*
X10890Y32873D02*
Y29374D01*
X8557Y31207D02*
X10890D01*
X12023Y32040D02*
Y32207D01*
X12190Y32540D01*
X12356Y32707D01*
X12689Y32873D01*
X13356D01*
X13689Y32707D01*
X13856Y32540D01*
X14023Y32207D01*
Y31874D01*
X13856Y31540D01*
X13523Y31040D01*
X11856Y29374D01*
X14189D01*
X29097Y133873D02*
Y130374D01*
Y133873D02*
X30430Y130374D01*
X31763Y133873D02*
X30430Y130374D01*
X31763Y133873D02*
Y130374D01*
X32763Y133873D02*
Y130374D01*
X35096Y133873D02*
Y130374D01*
X32763Y132207D02*
X35096D01*
X36062Y133207D02*
X36395Y133373D01*
X36895Y133873D01*
Y130374D01*
D16*
X0Y137795D02*
X255906D01*
X0Y0D02*
Y137795D01*
X255906Y0D02*
Y137795D01*
X0Y0D02*
X255906D01*
D17*
X120866Y66142D02*
G03*
X120866Y66142I-1969J0D01*
G01*
X80610Y76673D02*
X87106D01*
X80610Y64272D02*
X87106D01*
X80610D02*
Y76673D01*
X87106Y64272D02*
Y76673D01*
X89417Y79232D02*
Y84547D01*
X81150Y79232D02*
Y84547D01*
Y79232D02*
X89417D01*
X81150Y84547D02*
X89417D01*
X73772Y113705D02*
Y120398D01*
X70228Y113705D02*
Y120398D01*
X73772D01*
X70228Y113705D02*
X73772D01*
X29831Y43201D02*
Y55799D01*
X69201Y43201D02*
Y55799D01*
X29831D02*
X69201D01*
X29831Y43201D02*
X69201D01*
X34252Y108957D02*
X58661D01*
X34252Y82382D02*
X58661D01*
X34252D02*
Y108957D01*
X58661Y82382D02*
Y108957D01*
X44992Y79630D02*
X69008D01*
X44992Y58370D02*
X69008D01*
X44992D02*
Y79630D01*
X69008Y58370D02*
Y79630D01*
X57480Y111319D02*
X66142D01*
X57480Y117028D02*
X66142D01*
Y111319D02*
Y117028D01*
X57480Y111319D02*
Y117028D01*
X115354Y53150D02*
X133465D01*
X115354Y69685D02*
X133465D01*
Y53150D02*
Y69685D01*
X115354Y53150D02*
Y69685D01*
X216043Y89370D02*
Y113779D01*
X189469Y89370D02*
Y113779D01*
X216043D01*
X189469Y89370D02*
X216043D01*
X171358Y38780D02*
Y63189D01*
X197933Y38780D02*
Y63189D01*
X171358Y38780D02*
X197933D01*
X171358Y63189D02*
X197933D01*
X200984Y58169D02*
Y64862D01*
X204527Y58169D02*
Y64862D01*
X200984Y58169D02*
X204527D01*
X200984Y64862D02*
X204527D01*
X81150Y87106D02*
Y92421D01*
X89417Y87106D02*
Y92421D01*
X81150D02*
X89417D01*
X81150Y87106D02*
X89417D01*
X152953Y59646D02*
Y66339D01*
X149409Y59646D02*
Y66339D01*
X152953D01*
X149409Y59646D02*
X152953D01*
X157677Y52165D02*
Y55709D01*
X150984Y52165D02*
Y55709D01*
Y52165D02*
X157677D01*
X150984Y55709D02*
X157677D01*
X155315Y66437D02*
X158858D01*
X155315Y59744D02*
X158858D01*
Y66437D01*
X155315Y59744D02*
Y66437D01*
X83858Y68504D02*
Y72441D01*
X81890Y70472D02*
X85827D01*
X83315Y81890D02*
X87252D01*
X85283Y79921D02*
Y83858D01*
X70228Y117051D02*
X73772D01*
X72000Y115279D02*
Y118823D01*
X47547Y49500D02*
X51484D01*
X49516Y47532D02*
Y51468D01*
X48819Y93701D02*
Y97638D01*
X46850Y95669D02*
X50787D01*
X57000Y67032D02*
Y70969D01*
X55032Y69000D02*
X58969D01*
X61811Y112205D02*
Y116142D01*
X59842Y114173D02*
X63779D01*
X124409Y59449D02*
Y63386D01*
X122441Y61417D02*
X126378D01*
X200787Y99213D02*
X204724D01*
X202756Y97244D02*
Y101181D01*
X182677Y53347D02*
X186614D01*
X184646Y51378D02*
Y55315D01*
X200984Y61516D02*
X204527D01*
X202756Y59744D02*
Y63287D01*
X83315Y89764D02*
X87252D01*
X85283Y87795D02*
Y91732D01*
X149409Y62992D02*
X152953D01*
X151181Y61221D02*
Y64764D01*
X152559Y53937D02*
X156102D01*
X154331Y52165D02*
Y55709D01*
X157087Y61319D02*
Y64862D01*
X155315Y63090D02*
X158858D01*
M02*
