G04*
G04 #@! TF.GenerationSoftware,Altium Limited,Altium Designer,20.2.6 (244)*
G04*
G04 Layer_Color=8421504*
%FSLAX25Y25*%
%MOIN*%
G70*
G04*
G04 #@! TF.SameCoordinates,6BCE7D3D-6E75-4611-AB79-44D2FB597E60*
G04*
G04*
G04 #@! TF.FilePolarity,Positive*
G04*
G01*
G75*
%ADD16C,0.07874*%
%ADD17R,0.05512X0.02362*%
%ADD18R,0.02756X0.02362*%
%ADD19R,0.04134X0.02362*%
%ADD20R,0.03937X0.05315*%
%ADD21R,0.03543X0.03347*%
%ADD22R,0.03150X0.03150*%
%ADD23R,0.10197X0.12756*%
%ADD24R,0.03937X0.11811*%
%ADD25R,0.21850X0.25197*%
%ADD26R,0.06496X0.21260*%
%ADD27R,0.05118X0.05709*%
%ADD28O,0.06496X0.02362*%
%ADD29R,0.03150X0.03150*%
%ADD30R,0.03347X0.03543*%
G36*
X67200Y92087D02*
Y89724D01*
X64444Y86968D01*
X54995D01*
X52239Y89724D01*
Y92087D01*
X54995Y94842D01*
X64444D01*
X67200Y92087D01*
D02*
G37*
D16*
X158500Y59900D02*
D03*
X213350Y43650D02*
D03*
X87650Y57700D02*
D03*
X75550Y98000D02*
D03*
X167850Y47500D02*
D03*
X191700Y80750D02*
D03*
D17*
X67200Y85000D02*
D03*
Y96811D02*
D03*
D18*
X68578Y90905D02*
D03*
D19*
X89173Y66732D02*
D03*
Y70472D02*
D03*
Y74213D02*
D03*
X78543D02*
D03*
Y66732D02*
D03*
D20*
X81740Y81890D02*
D03*
X88827D02*
D03*
X88827Y89764D02*
D03*
X81740D02*
D03*
D21*
X74050Y105149D02*
D03*
Y111251D02*
D03*
X210900Y58752D02*
D03*
Y52650D02*
D03*
X158395Y73202D02*
D03*
Y79304D02*
D03*
X164300Y73300D02*
D03*
Y79402D02*
D03*
D22*
X68439Y111927D02*
D03*
X62140D02*
D03*
D23*
X65500Y49500D02*
D03*
X33531D02*
D03*
D24*
X184530Y67238D02*
D03*
X202561D02*
D03*
X202640Y80821D02*
D03*
X220672D02*
D03*
D25*
X193546Y41844D02*
D03*
X211656Y106215D02*
D03*
D26*
X67138Y69000D02*
D03*
X46862D02*
D03*
D27*
X61101Y105100D02*
D03*
X67400D02*
D03*
D28*
X136713Y56417D02*
D03*
X112106Y66417D02*
D03*
Y56417D02*
D03*
X136713Y66417D02*
D03*
D29*
X170205Y67198D02*
D03*
Y73497D02*
D03*
D30*
X164595Y67198D02*
D03*
X158493D02*
D03*
M02*
