G04*
G04 #@! TF.GenerationSoftware,Altium Limited,Altium Designer,20.2.6 (244)*
G04*
G04 Layer_Physical_Order=1*
G04 Layer_Color=255*
%FSLAX25Y25*%
%MOIN*%
G70*
G04*
G04 #@! TF.SameCoordinates,6BCE7D3D-6E75-4611-AB79-44D2FB597E60*
G04*
G04*
G04 #@! TF.FilePolarity,Positive*
G04*
G01*
G75*
%ADD16C,0.07874*%
%ADD17R,0.05512X0.02362*%
%ADD18R,0.02756X0.02362*%
%ADD19R,0.04134X0.02362*%
%ADD20R,0.03937X0.05315*%
%ADD21R,0.03543X0.03347*%
%ADD22R,0.03150X0.03150*%
%ADD23R,0.10197X0.12756*%
%ADD24R,0.03937X0.11811*%
%ADD25R,0.21850X0.25197*%
%ADD26R,0.06496X0.21260*%
%ADD27R,0.05118X0.05709*%
%ADD28O,0.06496X0.02362*%
%ADD29R,0.03150X0.03150*%
%ADD30R,0.03347X0.03543*%
%ADD48C,0.01600*%
%ADD49C,0.03200*%
%ADD50C,0.24410*%
%ADD51C,0.06693*%
%ADD52C,0.02953*%
G36*
X97097Y67889D02*
X92475D01*
X92240Y68291D01*
Y70073D01*
X89173D01*
X86106D01*
Y68291D01*
X86606D01*
Y65051D01*
X87086D01*
Y62101D01*
X86492Y62023D01*
X85412Y61576D01*
X84486Y60865D01*
X83774Y59938D01*
X83327Y58858D01*
X83175Y57700D01*
X83327Y56542D01*
X83774Y55462D01*
X84486Y54536D01*
X85412Y53824D01*
X86492Y53377D01*
X87650Y53225D01*
X88808Y53377D01*
X89888Y53824D01*
X90815Y54536D01*
X91526Y55462D01*
X91973Y56542D01*
X92125Y57700D01*
X91973Y58858D01*
X91526Y59938D01*
X90815Y60865D01*
X89888Y61576D01*
X89737Y61638D01*
Y65051D01*
X91740D01*
Y65238D01*
X97097D01*
Y57743D01*
X94624D01*
X94116Y57642D01*
X93686Y57355D01*
X93572Y57240D01*
X93493Y57225D01*
X93063Y56937D01*
X92775Y56507D01*
X92674Y56000D01*
X92775Y55493D01*
X93063Y55063D01*
X93493Y54775D01*
X94000Y54675D01*
X94206D01*
X94713Y54775D01*
X95144Y55063D01*
X95173Y55092D01*
X97097D01*
Y2039D01*
X2039D01*
Y135756D01*
X97097D01*
Y67889D01*
D02*
G37*
G36*
X253866Y2039D02*
X148179D01*
Y55133D01*
X150059D01*
X150566Y55234D01*
X150996Y55521D01*
X151037Y55563D01*
X151325Y55993D01*
X151426Y56500D01*
X151325Y57007D01*
X151037Y57437D01*
X150607Y57725D01*
X150100Y57825D01*
X149892Y57784D01*
X148179D01*
Y65092D01*
X149067D01*
X149575Y65193D01*
X150005Y65480D01*
X152837Y68313D01*
X153125Y68743D01*
X153226Y69250D01*
Y77551D01*
X153653Y77978D01*
X156123D01*
Y77131D01*
X160666D01*
Y78028D01*
X162028D01*
Y77229D01*
X166572D01*
Y78751D01*
X187725D01*
X187824Y78512D01*
X188535Y77586D01*
X189462Y76874D01*
X190542Y76427D01*
X191700Y76275D01*
X192858Y76427D01*
X193938Y76874D01*
X194864Y77586D01*
X195576Y78512D01*
X195954Y79425D01*
X200172D01*
Y74415D01*
X201275D01*
Y73644D01*
X200093D01*
Y60833D01*
X205030D01*
Y65913D01*
X208813D01*
X209474Y65251D01*
Y60926D01*
X208628D01*
Y56579D01*
X213172D01*
Y60926D01*
X212125D01*
Y65800D01*
X212025Y66307D01*
X211737Y66737D01*
X210299Y68176D01*
X209869Y68463D01*
X209362Y68564D01*
X205030D01*
Y73644D01*
X203926D01*
Y74415D01*
X205109D01*
Y87226D01*
X200172D01*
Y82076D01*
X195954D01*
X195576Y82988D01*
X194864Y83915D01*
X193938Y84626D01*
X192858Y85073D01*
X191700Y85225D01*
X190542Y85073D01*
X189462Y84626D01*
X188535Y83915D01*
X187824Y82988D01*
X187377Y81908D01*
X187311Y81402D01*
X166572D01*
Y81576D01*
X162028D01*
Y80679D01*
X160666D01*
Y81477D01*
X156123D01*
Y80629D01*
X153104D01*
X152597Y80528D01*
X152167Y80241D01*
X150963Y79037D01*
X150675Y78607D01*
X150575Y78100D01*
Y69799D01*
X148679Y67904D01*
X148179Y68111D01*
Y135756D01*
X253866D01*
Y2039D01*
D02*
G37*
%LPC*%
G36*
X64715Y114502D02*
X62540D01*
Y112327D01*
X64715D01*
Y114502D01*
D02*
G37*
G36*
X61740D02*
X59565D01*
Y112327D01*
X61740D01*
Y114502D01*
D02*
G37*
G36*
X15748Y134791D02*
X13754Y134634D01*
X11810Y134168D01*
X9962Y133402D01*
X8257Y132357D01*
X6737Y131059D01*
X5438Y129538D01*
X4393Y127833D01*
X3628Y125985D01*
X3161Y124041D01*
X3004Y122047D01*
X3161Y120054D01*
X3628Y118109D01*
X4393Y116262D01*
X5438Y114557D01*
X6737Y113036D01*
X8257Y111737D01*
X9962Y110692D01*
X11810Y109927D01*
X13754Y109460D01*
X15748Y109303D01*
X17742Y109460D01*
X19686Y109927D01*
X21534Y110692D01*
X23239Y111737D01*
X24759Y113036D01*
X26058Y114557D01*
X27103Y116262D01*
X27868Y118109D01*
X28335Y120054D01*
X28492Y122047D01*
X28335Y124041D01*
X27868Y125985D01*
X27103Y127833D01*
X26058Y129538D01*
X24759Y131059D01*
X23239Y132357D01*
X21534Y133402D01*
X19686Y134168D01*
X17742Y134634D01*
X15748Y134791D01*
D02*
G37*
G36*
X70514Y114002D02*
X66365D01*
Y109852D01*
X70514D01*
Y110264D01*
X71778D01*
Y109078D01*
X76322D01*
Y113424D01*
X71778D01*
Y112914D01*
X70514D01*
Y114002D01*
D02*
G37*
G36*
X64715Y111527D02*
X59565D01*
Y109454D01*
X59565Y109352D01*
X59318Y108954D01*
X57542D01*
Y105500D01*
X61101D01*
Y105100D01*
X61501D01*
Y101246D01*
X64660D01*
Y101746D01*
X65874D01*
Y98492D01*
X63944D01*
Y95384D01*
X54995D01*
X54995Y95384D01*
X54613Y95225D01*
X54613Y95225D01*
X51857Y92469D01*
X51698Y92087D01*
X51698Y92087D01*
Y89724D01*
X51698Y89724D01*
X51857Y89342D01*
X51857Y89342D01*
X54613Y86586D01*
X54995Y86427D01*
X54995Y86427D01*
X63944D01*
Y83319D01*
X65874D01*
Y80130D01*
X63390D01*
Y57870D01*
X64997D01*
Y56378D01*
X59902D01*
Y42622D01*
X71098D01*
Y56378D01*
X69279D01*
Y57870D01*
X70886D01*
Y80130D01*
X68525D01*
Y83319D01*
X70456D01*
Y83675D01*
X72551D01*
X75273Y80953D01*
X75703Y80665D01*
X76210Y80564D01*
X79272D01*
Y78732D01*
X84209D01*
Y85047D01*
X79272D01*
Y83215D01*
X76759D01*
X74037Y85937D01*
X73607Y86225D01*
X73100Y86326D01*
X70456D01*
Y86681D01*
X65575D01*
X65384Y87143D01*
X66965Y88724D01*
X68178D01*
Y90905D01*
Y93087D01*
X66965D01*
X65384Y94668D01*
X65575Y95130D01*
X70456D01*
Y95867D01*
X71631D01*
X71674Y95762D01*
X72386Y94836D01*
X73312Y94124D01*
X74392Y93677D01*
X75550Y93525D01*
X76708Y93677D01*
X77788Y94124D01*
X78715Y94836D01*
X79426Y95762D01*
X79873Y96842D01*
X80025Y98000D01*
X79873Y99158D01*
X79426Y100238D01*
X78715Y101164D01*
X77788Y101876D01*
X76708Y102323D01*
X75550Y102475D01*
X74392Y102323D01*
X73312Y101876D01*
X72386Y101164D01*
X71674Y100238D01*
X71227Y99158D01*
X71143Y98518D01*
X68525D01*
Y101746D01*
X70459D01*
Y103804D01*
X71778D01*
Y102976D01*
X76322D01*
Y107322D01*
X71778D01*
Y106455D01*
X70459D01*
Y108454D01*
X65013D01*
X64773Y108694D01*
X64669Y108954D01*
X64715Y109352D01*
X64715Y109432D01*
Y111527D01*
D02*
G37*
G36*
X60701Y104700D02*
X57542D01*
Y101246D01*
X60701D01*
Y104700D01*
D02*
G37*
G36*
X70956Y93087D02*
X68978D01*
Y91306D01*
X70956D01*
Y93087D01*
D02*
G37*
G36*
X84709Y93421D02*
X82140D01*
Y90164D01*
X84709D01*
Y93421D01*
D02*
G37*
G36*
X81340D02*
X78772D01*
Y90164D01*
X81340D01*
Y93421D01*
D02*
G37*
G36*
X70956Y90505D02*
X68978D01*
Y88724D01*
X70956D01*
Y90505D01*
D02*
G37*
G36*
X84709Y89364D02*
X82140D01*
Y86106D01*
X84709D01*
Y89364D01*
D02*
G37*
G36*
X81340D02*
X78772D01*
Y86106D01*
X81340D01*
Y89364D01*
D02*
G37*
G36*
X22053Y77323D02*
Y73392D01*
X25985D01*
X25888Y74127D01*
X25450Y75184D01*
X24754Y76092D01*
X23845Y76789D01*
X22788Y77227D01*
X22053Y77323D01*
D02*
G37*
G36*
X21253D02*
X20519Y77227D01*
X19462Y76789D01*
X18554Y76092D01*
X17857Y75184D01*
X17419Y74127D01*
X17322Y73392D01*
X21253D01*
Y77323D01*
D02*
G37*
G36*
X91295Y92921D02*
X86358D01*
Y86606D01*
X87501D01*
Y85047D01*
X86358D01*
Y78732D01*
X87674D01*
Y75894D01*
X86606D01*
Y72654D01*
X86106D01*
Y70872D01*
X89173D01*
X92240D01*
Y72654D01*
X91740D01*
Y75894D01*
X90325D01*
Y78732D01*
X91295D01*
Y85047D01*
X90152D01*
Y86606D01*
X91295D01*
Y92921D01*
D02*
G37*
G36*
X51110Y80630D02*
X47262D01*
Y69400D01*
X51110D01*
Y80630D01*
D02*
G37*
G36*
X46462D02*
X42614D01*
Y69400D01*
X46462D01*
Y80630D01*
D02*
G37*
G36*
X25985Y72592D02*
X21654D01*
X17322D01*
X17419Y71858D01*
X17857Y70800D01*
X18554Y69892D01*
X19462Y69195D01*
X19834Y69041D01*
X19735Y68541D01*
X18000D01*
X18000Y68541D01*
X17617Y68383D01*
Y68383D01*
X15617Y66383D01*
X15459Y66000D01*
X15459Y66000D01*
Y60000D01*
X15617Y59617D01*
X18617Y56617D01*
X19000Y56459D01*
X19000Y56459D01*
X23959Y56459D01*
Y40000D01*
X23975Y39962D01*
X23965Y39922D01*
X24052Y39775D01*
X24117Y39617D01*
X24156Y39601D01*
X24177Y39566D01*
X26527Y37816D01*
X26692Y37774D01*
X26850Y37709D01*
X40250D01*
X40250Y37709D01*
X40633Y37867D01*
X40633Y37867D01*
X42383Y39617D01*
X42541Y40000D01*
X42541Y40000D01*
Y56900D01*
X42560Y57022D01*
X42650Y57129D01*
X42932Y57370D01*
X46462D01*
Y68600D01*
X42614D01*
Y57846D01*
X42114Y57620D01*
X29858Y68406D01*
X29677Y68468D01*
X29500Y68541D01*
X23572D01*
X23473Y69041D01*
X23845Y69195D01*
X24754Y69892D01*
X25450Y70800D01*
X25888Y71858D01*
X25985Y72592D01*
D02*
G37*
G36*
X73622Y76031D02*
X72851Y75877D01*
X72197Y75441D01*
X71760Y74787D01*
X71607Y74016D01*
X71760Y73245D01*
X72197Y72591D01*
X72851Y72154D01*
X73622Y72001D01*
X74393Y72154D01*
X75047Y72591D01*
X75179Y72789D01*
X75976D01*
Y72531D01*
X77218D01*
Y68413D01*
X75976D01*
Y65051D01*
X81110D01*
Y68413D01*
X79869D01*
Y72531D01*
X81110D01*
Y75894D01*
X75976D01*
Y75440D01*
X75048D01*
X75047Y75441D01*
X74393Y75877D01*
X73622Y76031D01*
D02*
G37*
G36*
X51110Y68600D02*
X47262D01*
Y57370D01*
X51110D01*
Y68600D01*
D02*
G37*
G36*
X15748Y28492D02*
X13754Y28335D01*
X11810Y27868D01*
X9962Y27103D01*
X8257Y26058D01*
X6737Y24759D01*
X5438Y23239D01*
X4393Y21534D01*
X3628Y19686D01*
X3161Y17742D01*
X3004Y15748D01*
X3161Y13754D01*
X3628Y11810D01*
X4393Y9962D01*
X5438Y8257D01*
X6737Y6737D01*
X8257Y5438D01*
X9962Y4393D01*
X11810Y3628D01*
X13754Y3161D01*
X15748Y3004D01*
X17742Y3161D01*
X19686Y3628D01*
X21534Y4393D01*
X23239Y5438D01*
X24759Y6737D01*
X26058Y8257D01*
X27103Y9962D01*
X27868Y11810D01*
X28335Y13754D01*
X28492Y15748D01*
X28335Y17742D01*
X27868Y19686D01*
X27103Y21534D01*
X26058Y23239D01*
X24759Y24759D01*
X23239Y26058D01*
X21534Y27103D01*
X19686Y27868D01*
X17742Y28335D01*
X15748Y28492D01*
D02*
G37*
%LPD*%
G36*
X67200Y92087D02*
Y89724D01*
X64444Y86968D01*
X54995D01*
X52239Y89724D01*
Y92087D01*
X54995Y94842D01*
X64444D01*
X67200Y92087D01*
D02*
G37*
G36*
X42000Y57000D02*
Y40000D01*
X40250Y38250D01*
X26850D01*
X24500Y40000D01*
Y57000D01*
X19000Y57000D01*
X16000Y60000D01*
Y66000D01*
X18000Y68000D01*
X29500D01*
X42000Y57000D01*
D02*
G37*
%LPC*%
G36*
X22053Y67323D02*
Y63392D01*
X25985D01*
X25888Y64127D01*
X25450Y65184D01*
X24754Y66092D01*
X23845Y66789D01*
X22788Y67227D01*
X22053Y67323D01*
D02*
G37*
G36*
X21253D02*
X20519Y67227D01*
X19462Y66789D01*
X18554Y66092D01*
X17857Y65184D01*
X17419Y64127D01*
X17322Y63392D01*
X21253D01*
Y67323D01*
D02*
G37*
G36*
Y62592D02*
X17322D01*
X17419Y61857D01*
X17857Y60800D01*
X18554Y59892D01*
X19462Y59196D01*
X20519Y58758D01*
X21253Y58661D01*
Y62592D01*
D02*
G37*
G36*
X25985D02*
X22053D01*
Y58661D01*
X22788Y58758D01*
X23845Y59196D01*
X24754Y59892D01*
X25450Y60800D01*
X25888Y61857D01*
X25985Y62592D01*
D02*
G37*
G36*
X39630Y56878D02*
X33931D01*
Y49900D01*
X39630D01*
Y56878D01*
D02*
G37*
G36*
X33132D02*
X27433D01*
Y49900D01*
X33132D01*
Y56878D01*
D02*
G37*
G36*
X39630Y49100D02*
X33931D01*
Y42122D01*
X39630D01*
Y49100D01*
D02*
G37*
G36*
X33132D02*
X27433D01*
Y42122D01*
X33132D01*
Y49100D01*
D02*
G37*
G36*
X240158Y134791D02*
X238164Y134634D01*
X236219Y134168D01*
X234372Y133402D01*
X232667Y132357D01*
X231146Y131059D01*
X229847Y129538D01*
X228802Y127833D01*
X228037Y125985D01*
X227570Y124041D01*
X227414Y122047D01*
X227570Y120054D01*
X228037Y118109D01*
X228802Y116262D01*
X229847Y114557D01*
X231146Y113036D01*
X232667Y111737D01*
X234372Y110692D01*
X236219Y109927D01*
X238164Y109460D01*
X240158Y109303D01*
X242151Y109460D01*
X244096Y109927D01*
X245943Y110692D01*
X247648Y111737D01*
X249169Y113036D01*
X250468Y114557D01*
X251513Y116262D01*
X252278Y118109D01*
X252745Y120054D01*
X252902Y122047D01*
X252745Y124041D01*
X252278Y125985D01*
X251513Y127833D01*
X250468Y129538D01*
X249169Y131059D01*
X247648Y132357D01*
X245943Y133402D01*
X244096Y134168D01*
X242151Y134634D01*
X240158Y134791D01*
D02*
G37*
G36*
X223640Y87726D02*
X221072D01*
Y81221D01*
X223640D01*
Y87726D01*
D02*
G37*
G36*
X220272D02*
X217703D01*
Y81221D01*
X220272D01*
Y87726D01*
D02*
G37*
G36*
X172280Y75572D02*
X168131D01*
Y74724D01*
X166572D01*
Y75473D01*
X162028D01*
Y71127D01*
X166572D01*
Y72073D01*
X168131D01*
Y71422D01*
X172280D01*
Y75572D01*
D02*
G37*
G36*
X223640Y80421D02*
X221072D01*
Y73915D01*
X223640D01*
Y80421D01*
D02*
G37*
G36*
X220272D02*
X217703D01*
Y73915D01*
X220272D01*
Y80421D01*
D02*
G37*
G36*
X164195Y69969D02*
X161922D01*
Y67598D01*
X164195D01*
Y69969D01*
D02*
G37*
G36*
X170606Y69772D02*
Y67598D01*
X172780D01*
Y69772D01*
X170606D01*
D02*
G37*
G36*
X172780Y66798D02*
X170606D01*
Y64623D01*
X172780D01*
Y66798D01*
D02*
G37*
G36*
X164195Y66798D02*
X161922D01*
Y64426D01*
X164195D01*
Y66798D01*
D02*
G37*
G36*
X167269Y69969D02*
X167212Y69969D01*
X164995D01*
Y67198D01*
Y64426D01*
X167212D01*
X167269Y64426D01*
X167687Y64623D01*
X167769Y64623D01*
X169806D01*
Y67198D01*
Y69772D01*
X167687Y69772D01*
X167269Y69969D01*
D02*
G37*
G36*
X186998Y73644D02*
X182061D01*
Y68564D01*
X178088D01*
X177581Y68463D01*
X177151Y68176D01*
X175113Y66137D01*
X174825Y65707D01*
X174724Y65200D01*
Y40899D01*
X171976Y38151D01*
X171689Y37721D01*
X171588Y37213D01*
Y25268D01*
X170974Y25013D01*
X170170Y24397D01*
X169553Y23593D01*
X169166Y22658D01*
X169034Y21654D01*
X169166Y20649D01*
X169553Y19714D01*
X170170Y18910D01*
X170974Y18294D01*
X171909Y17906D01*
X172913Y17774D01*
X173917Y17906D01*
X174853Y18294D01*
X175657Y18910D01*
X176273Y19714D01*
X176661Y20649D01*
X176793Y21654D01*
X176661Y22658D01*
X176273Y23593D01*
X175657Y24397D01*
X174853Y25013D01*
X174239Y25268D01*
Y36664D01*
X176987Y39413D01*
X177275Y39843D01*
X177375Y40350D01*
Y64651D01*
X178637Y65913D01*
X182061D01*
Y60833D01*
X186998D01*
Y73644D01*
D02*
G37*
G36*
X228746Y63150D02*
Y59219D01*
X232678D01*
X232581Y59953D01*
X232143Y61011D01*
X231446Y61919D01*
X230538Y62616D01*
X229481Y63054D01*
X228746Y63150D01*
D02*
G37*
G36*
X227946D02*
X227212Y63054D01*
X226154Y62616D01*
X225247Y61919D01*
X224550Y61011D01*
X224112Y59953D01*
X224015Y59219D01*
X227946D01*
Y63150D01*
D02*
G37*
G36*
X232678Y58419D02*
X228346D01*
X224015D01*
X224112Y57684D01*
X224550Y56627D01*
X225247Y55719D01*
X226154Y55022D01*
X226592Y54841D01*
X226492Y54341D01*
X219924D01*
X219333Y54933D01*
X218950Y55091D01*
X218950Y55091D01*
X213672D01*
X213289Y54933D01*
X213266Y54876D01*
X213172Y54823D01*
X208628D01*
X208534Y54876D01*
X208511Y54933D01*
X208128Y55091D01*
X207724D01*
X205833Y56983D01*
X205450Y57141D01*
X205450Y57141D01*
X179350Y57141D01*
X178967Y56983D01*
X178809Y56600D01*
Y28291D01*
X178709Y28050D01*
X178867Y27667D01*
X180367Y26167D01*
X180750Y26009D01*
X180855Y25547D01*
X180863Y25509D01*
X180721Y25450D01*
X179814Y24754D01*
X179117Y23845D01*
X178679Y22788D01*
X178582Y22053D01*
X187245D01*
X187148Y22788D01*
X186710Y23845D01*
X186013Y24754D01*
X185105Y25450D01*
X184964Y25509D01*
X185063Y26009D01*
X190763D01*
X190863Y25509D01*
X190721Y25450D01*
X189813Y24754D01*
X189117Y23845D01*
X188679Y22788D01*
X188582Y22053D01*
X192913D01*
Y21654D01*
X193313D01*
Y17322D01*
X194048Y17419D01*
X195105Y17857D01*
X196013Y18554D01*
X196710Y19462D01*
X196759Y19579D01*
X197259Y19480D01*
Y18950D01*
X197417Y18567D01*
X197417Y18567D01*
X197567Y18417D01*
X197588Y18409D01*
X197598Y18389D01*
X200348Y16039D01*
X200527Y15981D01*
X200700Y15909D01*
X205950D01*
X205950Y15909D01*
X206333Y16067D01*
X206333Y16067D01*
X208233Y17967D01*
X208391Y18350D01*
X208391Y18350D01*
Y32676D01*
X209324Y33609D01*
X223000D01*
X223000Y33609D01*
X223383Y33767D01*
X235183Y45567D01*
X235341Y45950D01*
X235341Y45950D01*
Y51400D01*
X235183Y51783D01*
X235183Y51783D01*
X232783Y54183D01*
X232400Y54341D01*
X232400Y54341D01*
X230201D01*
X230101Y54841D01*
X230538Y55022D01*
X231446Y55719D01*
X232143Y56627D01*
X232581Y57684D01*
X232678Y58419D01*
D02*
G37*
G36*
X168250Y52427D02*
Y47900D01*
X172777D01*
X172660Y48789D01*
X172162Y49990D01*
X171371Y51021D01*
X170340Y51812D01*
X169139Y52310D01*
X168250Y52427D01*
D02*
G37*
G36*
X167450D02*
X166561Y52310D01*
X165360Y51812D01*
X164329Y51021D01*
X163538Y49990D01*
X163040Y48789D01*
X162923Y47900D01*
X167450D01*
Y52427D01*
D02*
G37*
G36*
X172777Y47100D02*
X168250D01*
Y42573D01*
X169139Y42690D01*
X170340Y43187D01*
X171371Y43979D01*
X172162Y45010D01*
X172660Y46211D01*
X172777Y47100D01*
D02*
G37*
G36*
X167450D02*
X162923D01*
X163040Y46211D01*
X163538Y45010D01*
X164329Y43979D01*
X165360Y43187D01*
X166561Y42690D01*
X167450Y42573D01*
Y47100D01*
D02*
G37*
G36*
X223081Y119313D02*
X200231D01*
Y93116D01*
X223081D01*
Y104875D01*
X227701D01*
X238074Y94501D01*
Y40599D01*
X227301Y29825D01*
X219760D01*
X219253Y29725D01*
X218823Y29437D01*
X214532Y25146D01*
X213917Y25401D01*
X212913Y25533D01*
X211909Y25401D01*
X210974Y25013D01*
X210170Y24397D01*
X209554Y23593D01*
X209166Y22658D01*
X209034Y21654D01*
X209166Y20649D01*
X209554Y19714D01*
X210170Y18910D01*
X210974Y18294D01*
X211909Y17906D01*
X212913Y17774D01*
X213917Y17906D01*
X214853Y18294D01*
X215657Y18910D01*
X216273Y19714D01*
X216661Y20649D01*
X216793Y21654D01*
X216661Y22658D01*
X216406Y23272D01*
X220309Y27174D01*
X227850D01*
X228357Y27275D01*
X228787Y27563D01*
X240337Y39113D01*
X240625Y39543D01*
X240725Y40050D01*
Y95050D01*
X240625Y95557D01*
X240337Y95987D01*
X229187Y107137D01*
X228757Y107425D01*
X228250Y107526D01*
X223081D01*
Y119313D01*
D02*
G37*
G36*
X160666Y75375D02*
X156123D01*
Y71028D01*
X157118D01*
Y69469D01*
X156320D01*
Y64926D01*
X157171D01*
Y64152D01*
X156262Y63776D01*
X155335Y63064D01*
X154624Y62138D01*
X154177Y61058D01*
X154025Y59900D01*
X154177Y58742D01*
X154624Y57662D01*
X155335Y56735D01*
X156262Y56024D01*
X157167Y55649D01*
Y40857D01*
X157268Y40350D01*
X157556Y39920D01*
X161524Y35951D01*
Y25242D01*
X160974Y25013D01*
X160170Y24397D01*
X159554Y23593D01*
X159166Y22658D01*
X159034Y21654D01*
X159166Y20649D01*
X159554Y19714D01*
X160170Y18910D01*
X160974Y18294D01*
X161909Y17906D01*
X162913Y17774D01*
X163918Y17906D01*
X164853Y18294D01*
X165657Y18910D01*
X166273Y19714D01*
X166661Y20649D01*
X166793Y21654D01*
X166661Y22658D01*
X166273Y23593D01*
X165657Y24397D01*
X164853Y25013D01*
X164175Y25294D01*
Y36500D01*
X164075Y37007D01*
X163787Y37437D01*
X159818Y41406D01*
Y55643D01*
X160738Y56024D01*
X161664Y56735D01*
X162376Y57662D01*
X162823Y58742D01*
X162975Y59900D01*
X162823Y61058D01*
X162376Y62138D01*
X161664Y63064D01*
X160738Y63776D01*
X159822Y64155D01*
Y64926D01*
X160666D01*
Y69469D01*
X159769D01*
Y71028D01*
X160666D01*
Y75375D01*
D02*
G37*
G36*
X192513Y21253D02*
X188582D01*
X188679Y20519D01*
X189117Y19462D01*
X189813Y18554D01*
X190721Y17857D01*
X191779Y17419D01*
X192513Y17322D01*
Y21253D01*
D02*
G37*
G36*
X187245D02*
X183313D01*
Y17322D01*
X184048Y17419D01*
X185105Y17857D01*
X186013Y18554D01*
X186710Y19462D01*
X187148Y20519D01*
X187245Y21253D01*
D02*
G37*
G36*
X182513D02*
X178582D01*
X178679Y20519D01*
X179117Y19462D01*
X179814Y18554D01*
X180721Y17857D01*
X181779Y17419D01*
X182513Y17322D01*
Y21253D01*
D02*
G37*
G36*
X240158Y28492D02*
X238164Y28335D01*
X236219Y27868D01*
X234372Y27103D01*
X232667Y26058D01*
X231146Y24759D01*
X229847Y23239D01*
X228802Y21534D01*
X228037Y19686D01*
X227570Y17742D01*
X227414Y15748D01*
X227570Y13754D01*
X228037Y11810D01*
X228802Y9962D01*
X229847Y8257D01*
X231146Y6737D01*
X232667Y5438D01*
X234372Y4393D01*
X236219Y3628D01*
X238164Y3161D01*
X240158Y3004D01*
X242151Y3161D01*
X244096Y3628D01*
X245943Y4393D01*
X247648Y5438D01*
X249169Y6737D01*
X250468Y8257D01*
X251513Y9962D01*
X252278Y11810D01*
X252745Y13754D01*
X252902Y15748D01*
X252745Y17742D01*
X252278Y19686D01*
X251513Y21534D01*
X250468Y23239D01*
X249169Y24759D01*
X247648Y26058D01*
X245943Y27103D01*
X244096Y27868D01*
X242151Y28335D01*
X240158Y28492D01*
D02*
G37*
%LPD*%
G36*
X205450Y56600D02*
X207500Y54550D01*
X208128D01*
Y53050D01*
X213672D01*
Y54550D01*
X218950D01*
X219700Y53800D01*
X232400D01*
X234800Y51400D01*
Y45950D01*
X223000Y34150D01*
X209100D01*
X207850Y32900D01*
Y18350D01*
X205950Y16450D01*
X200700D01*
X197950Y18800D01*
X197800Y18950D01*
Y26550D01*
X180750D01*
X179250Y28050D01*
X179350Y28150D01*
Y56600D01*
X205450Y56600D01*
D02*
G37*
%LPC*%
G36*
X213672Y52250D02*
X211300D01*
Y49977D01*
X213672D01*
Y52250D01*
D02*
G37*
G36*
X210500D02*
X208128D01*
Y49977D01*
X210500D01*
Y52250D01*
D02*
G37*
G36*
X228746Y53150D02*
Y49219D01*
X232678D01*
X232581Y49954D01*
X232143Y51011D01*
X231446Y51919D01*
X230538Y52615D01*
X229481Y53053D01*
X228746Y53150D01*
D02*
G37*
G36*
X227946D02*
X227212Y53053D01*
X226154Y52615D01*
X225247Y51919D01*
X224550Y51011D01*
X224112Y49954D01*
X224015Y49219D01*
X227946D01*
Y53150D01*
D02*
G37*
G36*
Y48419D02*
X224015D01*
X224112Y47684D01*
X224550Y46627D01*
X225247Y45719D01*
X226154Y45022D01*
X227212Y44584D01*
X227946Y44488D01*
Y48419D01*
D02*
G37*
G36*
X232678D02*
X228746D01*
Y44488D01*
X229481Y44584D01*
X230538Y45022D01*
X231446Y45719D01*
X232143Y46627D01*
X232581Y47684D01*
X232678Y48419D01*
D02*
G37*
G36*
X213750Y48577D02*
Y44050D01*
X218277D01*
X218160Y44939D01*
X217663Y46140D01*
X216871Y47171D01*
X215840Y47962D01*
X214639Y48460D01*
X213750Y48577D01*
D02*
G37*
G36*
X212950D02*
X212061Y48460D01*
X210860Y47962D01*
X209829Y47171D01*
X209037Y46140D01*
X208540Y44939D01*
X208423Y44050D01*
X212950D01*
Y48577D01*
D02*
G37*
G36*
X205471Y55443D02*
X193946D01*
Y42244D01*
X205471D01*
Y55443D01*
D02*
G37*
G36*
X193146D02*
X181621D01*
Y42244D01*
X193146D01*
Y55443D01*
D02*
G37*
G36*
X218277Y43250D02*
X213750D01*
Y38723D01*
X214639Y38840D01*
X215840Y39338D01*
X216871Y40129D01*
X217663Y41160D01*
X218160Y42361D01*
X218277Y43250D01*
D02*
G37*
G36*
X212950D02*
X208423D01*
X208540Y42361D01*
X209037Y41160D01*
X209829Y40129D01*
X210860Y39338D01*
X212061Y38840D01*
X212950Y38723D01*
Y43250D01*
D02*
G37*
G36*
X205471Y41445D02*
X193946D01*
Y28246D01*
X205471D01*
Y41445D01*
D02*
G37*
G36*
X193146D02*
X181621D01*
Y28246D01*
X193146D01*
Y41445D01*
D02*
G37*
G36*
X203313Y25985D02*
Y22053D01*
X207245D01*
X207148Y22788D01*
X206710Y23845D01*
X206013Y24754D01*
X205105Y25450D01*
X204048Y25888D01*
X203313Y25985D01*
D02*
G37*
G36*
X202513D02*
X201779Y25888D01*
X200721Y25450D01*
X199813Y24754D01*
X199117Y23845D01*
X198679Y22788D01*
X198582Y22053D01*
X202513D01*
Y25985D01*
D02*
G37*
G36*
X207245Y21253D02*
X203313D01*
Y17322D01*
X204048Y17419D01*
X205105Y17857D01*
X206013Y18554D01*
X206710Y19462D01*
X207148Y20519D01*
X207245Y21253D01*
D02*
G37*
G36*
X202513D02*
X198582D01*
X198679Y20519D01*
X199117Y19462D01*
X199813Y18554D01*
X200721Y17857D01*
X201779Y17419D01*
X202513Y17322D01*
Y21253D01*
D02*
G37*
%LPD*%
D16*
X158500Y59900D02*
D03*
X213350Y43650D02*
D03*
X87650Y57700D02*
D03*
X75550Y98000D02*
D03*
X167850Y47500D02*
D03*
X191700Y80750D02*
D03*
D17*
X67200Y85000D02*
D03*
Y96811D02*
D03*
D18*
X68578Y90905D02*
D03*
D19*
X89173Y66732D02*
D03*
Y70472D02*
D03*
Y74213D02*
D03*
X78543D02*
D03*
Y66732D02*
D03*
D20*
X81740Y81890D02*
D03*
X88827D02*
D03*
X88827Y89764D02*
D03*
X81740D02*
D03*
D21*
X74050Y105149D02*
D03*
Y111251D02*
D03*
X210900Y58752D02*
D03*
Y52650D02*
D03*
X158395Y73202D02*
D03*
Y79304D02*
D03*
X164300Y73300D02*
D03*
Y79402D02*
D03*
D22*
X68439Y111927D02*
D03*
X62140D02*
D03*
D23*
X65500Y49500D02*
D03*
X33531D02*
D03*
D24*
X184530Y67238D02*
D03*
X202561D02*
D03*
X202640Y80821D02*
D03*
X220672D02*
D03*
D25*
X193546Y41844D02*
D03*
X211656Y106215D02*
D03*
D26*
X67138Y69000D02*
D03*
X46862D02*
D03*
D27*
X61101Y105100D02*
D03*
X67400D02*
D03*
D28*
X136713Y56417D02*
D03*
X112106Y66417D02*
D03*
Y56417D02*
D03*
X136713Y66417D02*
D03*
D29*
X170205Y67198D02*
D03*
Y73497D02*
D03*
D30*
X164595Y67198D02*
D03*
X158493D02*
D03*
D48*
X88793Y66732D02*
X89173D01*
X88412Y66351D02*
X88793Y66732D01*
X88412Y58462D02*
Y66351D01*
X87650Y57700D02*
X88412Y58462D01*
X67200Y96811D02*
Y104900D01*
X74031Y105130D02*
X74050Y105149D01*
X67430Y105130D02*
X74031D01*
X67200Y104900D02*
X67430Y105130D01*
X202382Y80750D02*
X202601Y80532D01*
X191700Y80750D02*
X202382D01*
X164300Y79402D02*
X164974Y80076D01*
X191026D01*
X191700Y80750D01*
X158493Y59893D02*
X158500Y59900D01*
X158493Y40857D02*
Y59893D01*
Y67198D02*
X158496Y67194D01*
Y59904D02*
Y67194D01*
Y59904D02*
X158500Y59900D01*
X67200Y96811D02*
X67581Y97192D01*
X74742D01*
X75550Y98000D01*
X67200Y85000D02*
X73100D01*
X76210Y81890D01*
X81740D01*
X73712Y111589D02*
X74050Y111251D01*
X68777Y111589D02*
X73712D01*
X68439Y111927D02*
X68777Y111589D01*
X67200Y69062D02*
Y85000D01*
X67138Y69000D02*
X67200Y69062D01*
X210800Y58852D02*
X210900Y58752D01*
X210800Y58852D02*
Y65800D01*
X209362Y67238D02*
X210800Y65800D01*
X202561Y67238D02*
X209362D01*
X136713Y56417D02*
X136754Y56459D01*
X150059D01*
X150100Y56500D01*
X227850Y28500D02*
X239400Y40050D01*
Y95050D01*
X219760Y28500D02*
X227850D01*
X212913Y21654D02*
X219760Y28500D01*
X228250Y106200D02*
X239400Y95050D01*
X211656Y106215D02*
X211670Y106200D01*
X228250D01*
X162850Y21717D02*
X162913Y21654D01*
X162850Y21717D02*
Y36500D01*
X158493Y40857D02*
X162850Y36500D01*
X172913Y21654D02*
Y37213D01*
X176050Y40350D01*
Y65200D01*
X178088Y67238D02*
X184530D01*
X176050Y65200D02*
X178088Y67238D01*
X158395Y73202D02*
X158444Y73152D01*
Y67247D02*
Y73152D01*
Y67247D02*
X158493Y67198D01*
X164300Y73300D02*
X164398Y73398D01*
X170107D01*
X170205Y73497D01*
X202601Y67278D02*
Y80532D01*
X158395Y79304D02*
X158444Y79353D01*
X164251D01*
X164300Y79402D01*
X151900Y69250D02*
Y78100D01*
X153104Y79304D02*
X158395D01*
X151900Y78100D02*
X153104Y79304D01*
X136713Y66417D02*
X149067D01*
X151900Y69250D01*
X202561Y67238D02*
X202601Y67278D01*
X94624Y56417D02*
X112106D01*
X94206Y56000D02*
X94624Y56417D01*
X94000Y56000D02*
X94206D01*
X89173Y66732D02*
X89342Y66563D01*
X111960D01*
X112106Y66417D01*
X88827Y81890D02*
X89000Y81717D01*
Y74386D02*
Y81717D01*
Y74386D02*
X89173Y74213D01*
X88827Y81890D02*
X88827Y81890D01*
Y89764D01*
X78543Y66732D02*
Y74213D01*
X78445Y74114D02*
X78543Y74213D01*
X73721Y74114D02*
X78445D01*
X73622Y74016D02*
X73721Y74114D01*
D49*
X65500Y49500D02*
X67138Y51138D01*
Y69000D01*
D50*
X15748Y122047D02*
D03*
Y15748D02*
D03*
X240158D02*
D03*
Y122047D02*
D03*
D51*
X212913Y21654D02*
D03*
X192913D02*
D03*
X202913D02*
D03*
X162913D02*
D03*
X182913D02*
D03*
X172913D02*
D03*
X228346Y58819D02*
D03*
Y48819D02*
D03*
X21654Y72992D02*
D03*
Y62992D02*
D03*
D52*
X192700Y16000D02*
D03*
X183250Y15750D02*
D03*
X220800Y71850D02*
D03*
X165700Y62750D02*
D03*
X170350Y62800D02*
D03*
X27750Y72950D02*
D03*
X57850Y111750D02*
D03*
X81700Y95650D02*
D03*
X40200Y62450D02*
D03*
X40400Y74350D02*
D03*
X82520Y125039D02*
D03*
X92520Y105039D02*
D03*
X82520Y45039D02*
D03*
X92520Y25039D02*
D03*
X82520Y5039D02*
D03*
X62520Y125039D02*
D03*
X72520Y25039D02*
D03*
X62520Y5039D02*
D03*
X42520Y125039D02*
D03*
X52520Y105039D02*
D03*
X42520Y85039D02*
D03*
X52520Y25039D02*
D03*
X42520Y5039D02*
D03*
X32520Y105039D02*
D03*
X22520Y85039D02*
D03*
X32520Y25039D02*
D03*
X222520Y125039D02*
D03*
X232520Y65039D02*
D03*
X222520Y5039D02*
D03*
X202520Y125039D02*
D03*
Y5039D02*
D03*
X182520Y125039D02*
D03*
X192520Y105039D02*
D03*
X182520Y85039D02*
D03*
X192520Y65039D02*
D03*
X182520Y5039D02*
D03*
X162520Y125039D02*
D03*
X172520Y105039D02*
D03*
X162520Y85039D02*
D03*
Y5039D02*
D03*
X75550Y98000D02*
D03*
X150100Y56500D02*
D03*
X94000Y56000D02*
D03*
X73622Y74016D02*
D03*
M02*
