G04*
G04 #@! TF.GenerationSoftware,Altium Limited,Altium Designer,20.2.6 (244)*
G04*
G04 Layer_Color=128*
%FSLAX25Y25*%
%MOIN*%
G70*
G04*
G04 #@! TF.SameCoordinates,6BCE7D3D-6E75-4611-AB79-44D2FB597E60*
G04*
G04*
G04 #@! TF.FilePolarity,Positive*
G04*
G01*
G75*
%ADD14C,0.01000*%
%ADD53C,0.00600*%
D14*
X141550Y148300D02*
X147550Y150300D01*
X141550Y152300D02*
X147550Y150300D01*
X97550D02*
X103550Y152300D01*
X97550Y150300D02*
X103550Y148300D01*
X133630Y150300D02*
X147550D01*
X97550D02*
X108270D01*
X147550Y140550D02*
Y151300D01*
X97550Y140500D02*
Y151300D01*
D53*
X109870Y147951D02*
X111037D01*
X110453D01*
Y151449D01*
X109870Y150866D01*
X115119Y147951D02*
X112786D01*
X115119Y150283D01*
Y150866D01*
X114535Y151449D01*
X113369D01*
X112786Y150866D01*
X116285Y147951D02*
Y148534D01*
X116868D01*
Y147951D01*
X116285D01*
X119201Y151449D02*
X121533D01*
Y150866D01*
X119201Y148534D01*
Y147951D01*
X122699Y150866D02*
X123283Y151449D01*
X124449D01*
X125032Y150866D01*
Y148534D01*
X124449Y147951D01*
X123283D01*
X122699Y148534D01*
Y150866D01*
X126198Y147951D02*
Y150283D01*
X126781D01*
X127365Y149700D01*
Y147951D01*
Y149700D01*
X127948Y150283D01*
X128531Y149700D01*
Y147951D01*
X129697D02*
Y150283D01*
X130280D01*
X130863Y149700D01*
Y147951D01*
Y149700D01*
X131447Y150283D01*
X132030Y149700D01*
Y147951D01*
M02*
