G04*
G04 #@! TF.GenerationSoftware,Altium Limited,Altium Designer,20.2.6 (244)*
G04*
G04 Layer_Color=8388736*
%FSLAX25Y25*%
%MOIN*%
G70*
G04*
G04 #@! TF.SameCoordinates,6BCE7D3D-6E75-4611-AB79-44D2FB597E60*
G04*
G04*
G04 #@! TF.FilePolarity,Negative*
G04*
G01*
G75*
%ADD31C,0.08465*%
%ADD32R,0.06102X0.02953*%
%ADD33R,0.03347X0.02953*%
%ADD34R,0.04724X0.02953*%
%ADD35R,0.04528X0.05906*%
%ADD36R,0.04134X0.03937*%
%ADD37R,0.03740X0.03740*%
%ADD38R,0.10787X0.13346*%
%ADD39R,0.04528X0.12402*%
%ADD40R,0.22441X0.25787*%
%ADD41R,0.07087X0.21850*%
%ADD42R,0.05709X0.06299*%
%ADD43O,0.07087X0.02953*%
%ADD44R,0.03740X0.03740*%
%ADD45R,0.03937X0.04134*%
%ADD46C,0.25000*%
%ADD47C,0.07284*%
G36*
X54995Y95139D02*
X64444D01*
X64490Y95135D01*
X64536Y95124D01*
X64566Y95112D01*
X64579Y95106D01*
X64618Y95082D01*
X64653Y95052D01*
X67409Y92296D01*
X67440Y92261D01*
X67464Y92221D01*
X67469Y92208D01*
X67482Y92178D01*
X67493Y92133D01*
X67496Y92087D01*
Y89724D01*
X67493Y89678D01*
X67482Y89633D01*
X67469Y89603D01*
X67464Y89590D01*
X67440Y89550D01*
X67409Y89515D01*
X64653Y86759D01*
X64618Y86729D01*
X64579Y86705D01*
X64566Y86699D01*
X64536Y86687D01*
X64490Y86676D01*
X64444Y86672D01*
X54995D01*
X54949Y86676D01*
X54904Y86687D01*
X54873Y86699D01*
X54861Y86705D01*
X54821Y86729D01*
X54786Y86759D01*
X52030Y89515D01*
X52030Y89515D01*
X52000Y89550D01*
X51976Y89590D01*
X51968Y89608D01*
X51958Y89633D01*
X51947Y89678D01*
X51943Y89724D01*
X51943Y89724D01*
Y92087D01*
X51947Y92133D01*
X51958Y92178D01*
X51970Y92208D01*
X51976Y92221D01*
X52000Y92261D01*
X52030Y92296D01*
X54786Y95052D01*
X54786Y95052D01*
X54821Y95082D01*
X54861Y95106D01*
X54879Y95114D01*
X54904Y95124D01*
X54949Y95135D01*
X54995Y95139D01*
X54995Y95139D01*
D02*
G37*
D31*
X158500Y59900D02*
D03*
X213350Y43650D02*
D03*
X87650Y57700D02*
D03*
X75550Y98000D02*
D03*
X167850Y47500D02*
D03*
X191700Y80750D02*
D03*
D32*
X67200Y85000D02*
D03*
Y96811D02*
D03*
D33*
X68578Y90905D02*
D03*
D34*
X89173Y66732D02*
D03*
Y70472D02*
D03*
Y74213D02*
D03*
X78543D02*
D03*
Y66732D02*
D03*
D35*
X81740Y81890D02*
D03*
X88827D02*
D03*
X88827Y89764D02*
D03*
X81740D02*
D03*
D36*
X74050Y105149D02*
D03*
Y111251D02*
D03*
X210900Y58752D02*
D03*
Y52650D02*
D03*
X158395Y73202D02*
D03*
Y79304D02*
D03*
X164300Y73300D02*
D03*
Y79402D02*
D03*
D37*
X68439Y111927D02*
D03*
X62140D02*
D03*
D38*
X65500Y49500D02*
D03*
X33531D02*
D03*
D39*
X184530Y67238D02*
D03*
X202561D02*
D03*
X202640Y80821D02*
D03*
X220672D02*
D03*
D40*
X193546Y41844D02*
D03*
X211656Y106215D02*
D03*
D41*
X67138Y69000D02*
D03*
X46862D02*
D03*
D42*
X61101Y105100D02*
D03*
X67400D02*
D03*
D43*
X136713Y56417D02*
D03*
X112106Y66417D02*
D03*
Y56417D02*
D03*
X136713Y66417D02*
D03*
D44*
X170205Y67198D02*
D03*
Y73497D02*
D03*
D45*
X164595Y67198D02*
D03*
X158493D02*
D03*
D46*
X15748Y122047D02*
D03*
Y15748D02*
D03*
X240158D02*
D03*
Y122047D02*
D03*
D47*
X212913Y21654D02*
D03*
X192913D02*
D03*
X202913D02*
D03*
X162913D02*
D03*
X182913D02*
D03*
X172913D02*
D03*
X228346Y58819D02*
D03*
Y48819D02*
D03*
X21654Y72992D02*
D03*
Y62992D02*
D03*
M02*
