G04*
G04 #@! TF.GenerationSoftware,Altium Limited,Altium Designer,18.1.11 (251)*
G04*
G04 Layer_Physical_Order=2*
G04 Layer_Color=16711680*
%FSLAX25Y25*%
%MOIN*%
G70*
G01*
G75*
%ADD13C,0.00197*%
%ADD15C,0.00650*%
%ADD16C,0.03000*%
%ADD17C,0.00394*%
%ADD49C,0.01600*%
%ADD50C,0.24410*%
%ADD51C,0.06693*%
%ADD52C,0.02953*%
%ADD53C,0.07874*%
G36*
X97097Y2039D02*
X2039D01*
Y135756D01*
X97097D01*
Y2039D01*
D02*
G37*
G36*
X253866D02*
X148179D01*
Y135756D01*
X253866D01*
Y2039D01*
D02*
G37*
%LPC*%
G36*
X15748Y134791D02*
X13754Y134634D01*
X11810Y134168D01*
X9962Y133402D01*
X8257Y132357D01*
X6737Y131059D01*
X5438Y129538D01*
X4393Y127833D01*
X3628Y125985D01*
X3161Y124041D01*
X3004Y122047D01*
X3161Y120054D01*
X3628Y118109D01*
X4393Y116262D01*
X5438Y114557D01*
X6737Y113036D01*
X8257Y111737D01*
X9962Y110692D01*
X11810Y109927D01*
X13754Y109460D01*
X15748Y109303D01*
X17742Y109460D01*
X19686Y109927D01*
X21534Y110692D01*
X23239Y111737D01*
X24759Y113036D01*
X26058Y114557D01*
X27103Y116262D01*
X27868Y118109D01*
X28335Y120054D01*
X28492Y122047D01*
X28335Y124041D01*
X27868Y125985D01*
X27103Y127833D01*
X26058Y129538D01*
X24759Y131059D01*
X23239Y132357D01*
X21534Y133402D01*
X19686Y134168D01*
X17742Y134634D01*
X15748Y134791D01*
D02*
G37*
G36*
X22053Y77323D02*
Y73392D01*
X25985D01*
X25888Y74127D01*
X25450Y75184D01*
X24754Y76092D01*
X23845Y76789D01*
X22788Y77227D01*
X22053Y77323D01*
D02*
G37*
G36*
X21253D02*
X20519Y77227D01*
X19462Y76789D01*
X18554Y76092D01*
X17857Y75184D01*
X17419Y74127D01*
X17322Y73392D01*
X21253D01*
Y77323D01*
D02*
G37*
G36*
X74000Y108975D02*
X72842Y108823D01*
X71762Y108376D01*
X70836Y107665D01*
X70124Y106738D01*
X69677Y105658D01*
X69525Y104500D01*
X69677Y103342D01*
X70124Y102262D01*
X70836Y101336D01*
X71762Y100624D01*
X72675Y100246D01*
Y90094D01*
X72398Y89679D01*
X72297Y89172D01*
Y75507D01*
X72197Y75441D01*
X71760Y74787D01*
X71607Y74016D01*
X71760Y73245D01*
X72197Y72591D01*
X72851Y72154D01*
X73622Y72001D01*
X74393Y72154D01*
X75047Y72591D01*
X75484Y73245D01*
X75637Y74016D01*
X75484Y74787D01*
X75047Y75441D01*
X74948Y75507D01*
Y88628D01*
X75225Y89043D01*
X75326Y89550D01*
Y100246D01*
X76238Y100624D01*
X77165Y101336D01*
X77876Y102262D01*
X78323Y103342D01*
X78475Y104500D01*
X78323Y105658D01*
X77876Y106738D01*
X77165Y107665D01*
X76238Y108376D01*
X75158Y108823D01*
X74000Y108975D01*
D02*
G37*
G36*
X21253Y72592D02*
X17322D01*
X17419Y71858D01*
X17857Y70800D01*
X18554Y69892D01*
X19462Y69195D01*
X20519Y68758D01*
X21253Y68661D01*
Y72592D01*
D02*
G37*
G36*
X25985D02*
X22053D01*
Y68661D01*
X22788Y68758D01*
X23845Y69195D01*
X24754Y69892D01*
X25450Y70800D01*
X25888Y71858D01*
X25985Y72592D01*
D02*
G37*
G36*
X21654Y66872D02*
X20649Y66740D01*
X19714Y66352D01*
X18910Y65736D01*
X18294Y64932D01*
X17906Y63996D01*
X17774Y62992D01*
X17906Y61988D01*
X18294Y61052D01*
X18910Y60249D01*
X19714Y59632D01*
X20649Y59245D01*
X21654Y59113D01*
X22658Y59245D01*
X23593Y59632D01*
X24397Y60249D01*
X25013Y61052D01*
X25401Y61988D01*
X25533Y62992D01*
X25401Y63996D01*
X25013Y64932D01*
X24397Y65736D01*
X23593Y66352D01*
X22658Y66740D01*
X21654Y66872D01*
D02*
G37*
G36*
X33500Y40975D02*
X32342Y40823D01*
X31262Y40376D01*
X30336Y39665D01*
X29624Y38738D01*
X29246Y37826D01*
X28491D01*
X28425Y37925D01*
X27771Y38362D01*
X27000Y38515D01*
X26229Y38362D01*
X25575Y37925D01*
X25138Y37271D01*
X24985Y36500D01*
X25138Y35729D01*
X25575Y35075D01*
X26229Y34638D01*
X27000Y34485D01*
X27771Y34638D01*
X28425Y35075D01*
X28491Y35175D01*
X29246D01*
X29624Y34262D01*
X30336Y33336D01*
X31262Y32624D01*
X32342Y32177D01*
X33500Y32025D01*
X34658Y32177D01*
X35738Y32624D01*
X36665Y33336D01*
X37376Y34262D01*
X37754Y35175D01*
X38509D01*
X38575Y35075D01*
X39229Y34638D01*
X40000Y34485D01*
X40771Y34638D01*
X41425Y35075D01*
X41862Y35729D01*
X42015Y36500D01*
X41862Y37271D01*
X41425Y37925D01*
X40771Y38362D01*
X40000Y38515D01*
X39229Y38362D01*
X38575Y37925D01*
X38509Y37826D01*
X37754D01*
X37376Y38738D01*
X36665Y39665D01*
X35738Y40376D01*
X34658Y40823D01*
X33500Y40975D01*
D02*
G37*
G36*
X51400Y41427D02*
Y36900D01*
X55927D01*
X55810Y37789D01*
X55313Y38990D01*
X54521Y40021D01*
X53490Y40813D01*
X52289Y41310D01*
X51400Y41427D01*
D02*
G37*
G36*
X50600D02*
X49711Y41310D01*
X48510Y40813D01*
X47479Y40021D01*
X46687Y38990D01*
X46190Y37789D01*
X46073Y36900D01*
X50600D01*
Y41427D01*
D02*
G37*
G36*
X66000Y40975D02*
X64842Y40823D01*
X63762Y40376D01*
X62836Y39665D01*
X62124Y38738D01*
X61677Y37658D01*
X61525Y36500D01*
X61677Y35342D01*
X62124Y34262D01*
X62836Y33336D01*
X63762Y32624D01*
X64842Y32177D01*
X66000Y32025D01*
X67158Y32177D01*
X68238Y32624D01*
X69165Y33336D01*
X69876Y34262D01*
X70323Y35342D01*
X70475Y36500D01*
X70323Y37658D01*
X69876Y38738D01*
X69165Y39665D01*
X68238Y40376D01*
X67158Y40823D01*
X66000Y40975D01*
D02*
G37*
G36*
X55927Y36100D02*
X51400D01*
Y31573D01*
X52289Y31690D01*
X53490Y32188D01*
X54521Y32979D01*
X55313Y34010D01*
X55810Y35211D01*
X55927Y36100D01*
D02*
G37*
G36*
X50600D02*
X46073D01*
X46190Y35211D01*
X46687Y34010D01*
X47479Y32979D01*
X48510Y32188D01*
X49711Y31690D01*
X50600Y31573D01*
Y36100D01*
D02*
G37*
G36*
X15748Y28492D02*
X13754Y28335D01*
X11810Y27868D01*
X9962Y27103D01*
X8257Y26058D01*
X6737Y24759D01*
X5438Y23239D01*
X4393Y21534D01*
X3628Y19686D01*
X3161Y17742D01*
X3004Y15748D01*
X3161Y13754D01*
X3628Y11810D01*
X4393Y9962D01*
X5438Y8257D01*
X6737Y6737D01*
X8257Y5438D01*
X9962Y4393D01*
X11810Y3628D01*
X13754Y3161D01*
X15748Y3004D01*
X17742Y3161D01*
X19686Y3628D01*
X21534Y4393D01*
X23239Y5438D01*
X24759Y6737D01*
X26058Y8257D01*
X27103Y9962D01*
X27868Y11810D01*
X28335Y13754D01*
X28492Y15748D01*
X28335Y17742D01*
X27868Y19686D01*
X27103Y21534D01*
X26058Y23239D01*
X24759Y24759D01*
X23239Y26058D01*
X21534Y27103D01*
X19686Y27868D01*
X17742Y28335D01*
X15748Y28492D01*
D02*
G37*
G36*
X240158Y134791D02*
X238164Y134634D01*
X236219Y134168D01*
X234372Y133402D01*
X232667Y132357D01*
X231146Y131059D01*
X229847Y129538D01*
X228802Y127833D01*
X228037Y125985D01*
X227570Y124041D01*
X227414Y122047D01*
X227570Y120054D01*
X228037Y118109D01*
X228802Y116262D01*
X229847Y114557D01*
X231146Y113036D01*
X232667Y111737D01*
X234372Y110692D01*
X236219Y109927D01*
X238164Y109460D01*
X240158Y109303D01*
X242151Y109460D01*
X244096Y109927D01*
X245943Y110692D01*
X247648Y111737D01*
X249169Y113036D01*
X250468Y114557D01*
X251513Y116262D01*
X252278Y118109D01*
X252745Y120054D01*
X252902Y122047D01*
X252745Y124041D01*
X252278Y125985D01*
X251513Y127833D01*
X250468Y129538D01*
X249169Y131059D01*
X247648Y132357D01*
X245943Y133402D01*
X244096Y134168D01*
X242151Y134634D01*
X240158Y134791D01*
D02*
G37*
G36*
X212400Y76427D02*
Y71900D01*
X216927D01*
X216810Y72789D01*
X216313Y73990D01*
X215521Y75021D01*
X214490Y75813D01*
X213289Y76310D01*
X212400Y76427D01*
D02*
G37*
G36*
X211600D02*
X210711Y76310D01*
X209510Y75813D01*
X208479Y75021D01*
X207687Y73990D01*
X207190Y72789D01*
X207073Y71900D01*
X211600D01*
Y76427D01*
D02*
G37*
G36*
X216927Y71100D02*
X212400D01*
Y66573D01*
X213289Y66690D01*
X214490Y67188D01*
X215521Y67979D01*
X216313Y69010D01*
X216810Y70211D01*
X216927Y71100D01*
D02*
G37*
G36*
X211600D02*
X207073D01*
X207190Y70211D01*
X207687Y69010D01*
X208479Y67979D01*
X209510Y67188D01*
X210711Y66690D01*
X211600Y66573D01*
Y71100D01*
D02*
G37*
G36*
X214000Y62975D02*
X212842Y62823D01*
X211762Y62376D01*
X210836Y61664D01*
X210124Y60738D01*
X209968Y60361D01*
X209490Y60216D01*
X209271Y60362D01*
X208500Y60515D01*
X207729Y60362D01*
X207075Y59925D01*
X206638Y59271D01*
X206485Y58500D01*
X206638Y57729D01*
X207075Y57075D01*
X207729Y56638D01*
X208500Y56485D01*
X209271Y56638D01*
X209490Y56784D01*
X209968Y56639D01*
X210124Y56262D01*
X210836Y55335D01*
X211762Y54624D01*
X212842Y54177D01*
X214000Y54025D01*
X215158Y54177D01*
X216238Y54624D01*
X217164Y55335D01*
X217876Y56262D01*
X218032Y56639D01*
X218510Y56784D01*
X218729Y56638D01*
X219500Y56485D01*
X220271Y56638D01*
X220925Y57075D01*
X221362Y57729D01*
X221515Y58500D01*
X221362Y59271D01*
X220925Y59925D01*
X220271Y60362D01*
X219500Y60515D01*
X218729Y60362D01*
X218510Y60216D01*
X218032Y60361D01*
X217876Y60738D01*
X217164Y61664D01*
X216238Y62376D01*
X215158Y62823D01*
X214000Y62975D01*
D02*
G37*
G36*
X228346Y62699D02*
X227342Y62566D01*
X226407Y62179D01*
X225603Y61562D01*
X224987Y60759D01*
X224599Y59823D01*
X224467Y58819D01*
X224599Y57815D01*
X224987Y56879D01*
X225603Y56076D01*
X226407Y55459D01*
X227342Y55072D01*
X228346Y54939D01*
X229351Y55072D01*
X230286Y55459D01*
X231090Y56076D01*
X231706Y56879D01*
X232094Y57815D01*
X232226Y58819D01*
X232094Y59823D01*
X231706Y60759D01*
X231090Y61562D01*
X230286Y62179D01*
X229351Y62566D01*
X228346Y62699D01*
D02*
G37*
G36*
X228746Y53150D02*
Y49219D01*
X232678D01*
X232581Y49954D01*
X232143Y51011D01*
X231446Y51919D01*
X230538Y52615D01*
X229481Y53053D01*
X228746Y53150D01*
D02*
G37*
G36*
X227946D02*
X227212Y53053D01*
X226154Y52615D01*
X225247Y51919D01*
X224550Y51011D01*
X224112Y49954D01*
X224015Y49219D01*
X227946D01*
Y53150D01*
D02*
G37*
G36*
Y48419D02*
X224015D01*
X224112Y47684D01*
X224550Y46627D01*
X225247Y45719D01*
X226154Y45022D01*
X227212Y44584D01*
X227946Y44488D01*
Y48419D01*
D02*
G37*
G36*
X232678D02*
X228746D01*
Y44488D01*
X229481Y44584D01*
X230538Y45022D01*
X231446Y45719D01*
X232143Y46627D01*
X232581Y47684D01*
X232678Y48419D01*
D02*
G37*
G36*
X203313Y25985D02*
Y22053D01*
X207245D01*
X207148Y22788D01*
X206710Y23845D01*
X206013Y24754D01*
X205105Y25450D01*
X204048Y25888D01*
X203313Y25985D01*
D02*
G37*
G36*
X202513D02*
X201779Y25888D01*
X200721Y25450D01*
X199813Y24754D01*
X199117Y23845D01*
X198679Y22788D01*
X198582Y22053D01*
X202513D01*
Y25985D01*
D02*
G37*
G36*
X193313D02*
Y22053D01*
X197245D01*
X197148Y22788D01*
X196710Y23845D01*
X196013Y24754D01*
X195105Y25450D01*
X194048Y25888D01*
X193313Y25985D01*
D02*
G37*
G36*
X192513D02*
X191779Y25888D01*
X190721Y25450D01*
X189813Y24754D01*
X189117Y23845D01*
X188679Y22788D01*
X188582Y22053D01*
X192513D01*
Y25985D01*
D02*
G37*
G36*
X212913Y25533D02*
X211909Y25401D01*
X210974Y25013D01*
X210170Y24397D01*
X209554Y23593D01*
X209166Y22658D01*
X209034Y21654D01*
X209166Y20649D01*
X209554Y19714D01*
X210170Y18910D01*
X210974Y18294D01*
X211909Y17906D01*
X212913Y17774D01*
X213917Y17906D01*
X214853Y18294D01*
X215657Y18910D01*
X216273Y19714D01*
X216661Y20649D01*
X216793Y21654D01*
X216661Y22658D01*
X216273Y23593D01*
X215657Y24397D01*
X214853Y25013D01*
X213917Y25401D01*
X212913Y25533D01*
D02*
G37*
G36*
X182913D02*
X181909Y25401D01*
X180974Y25013D01*
X180170Y24397D01*
X179553Y23593D01*
X179166Y22658D01*
X179034Y21654D01*
X179166Y20649D01*
X179553Y19714D01*
X180170Y18910D01*
X180974Y18294D01*
X181909Y17906D01*
X182913Y17774D01*
X183917Y17906D01*
X184853Y18294D01*
X185657Y18910D01*
X186273Y19714D01*
X186661Y20649D01*
X186793Y21654D01*
X186661Y22658D01*
X186273Y23593D01*
X185657Y24397D01*
X184853Y25013D01*
X183917Y25401D01*
X182913Y25533D01*
D02*
G37*
G36*
X172913D02*
X171909Y25401D01*
X170974Y25013D01*
X170170Y24397D01*
X169553Y23593D01*
X169166Y22658D01*
X169034Y21654D01*
X169166Y20649D01*
X169553Y19714D01*
X170170Y18910D01*
X170974Y18294D01*
X171909Y17906D01*
X172913Y17774D01*
X173917Y17906D01*
X174853Y18294D01*
X175657Y18910D01*
X176273Y19714D01*
X176661Y20649D01*
X176793Y21654D01*
X176661Y22658D01*
X176273Y23593D01*
X175657Y24397D01*
X174853Y25013D01*
X173917Y25401D01*
X172913Y25533D01*
D02*
G37*
G36*
X162913D02*
X161909Y25401D01*
X160974Y25013D01*
X160170Y24397D01*
X159554Y23593D01*
X159166Y22658D01*
X159034Y21654D01*
X159166Y20649D01*
X159554Y19714D01*
X160170Y18910D01*
X160974Y18294D01*
X161909Y17906D01*
X162913Y17774D01*
X163918Y17906D01*
X164853Y18294D01*
X165657Y18910D01*
X166273Y19714D01*
X166661Y20649D01*
X166793Y21654D01*
X166661Y22658D01*
X166273Y23593D01*
X165657Y24397D01*
X164853Y25013D01*
X163918Y25401D01*
X162913Y25533D01*
D02*
G37*
G36*
X207245Y21253D02*
X203313D01*
Y17322D01*
X204048Y17419D01*
X205105Y17857D01*
X206013Y18554D01*
X206710Y19462D01*
X207148Y20519D01*
X207245Y21253D01*
D02*
G37*
G36*
X202513D02*
X198582D01*
X198679Y20519D01*
X199117Y19462D01*
X199813Y18554D01*
X200721Y17857D01*
X201779Y17419D01*
X202513Y17322D01*
Y21253D01*
D02*
G37*
G36*
X197245D02*
X193313D01*
Y17322D01*
X194048Y17419D01*
X195105Y17857D01*
X196013Y18554D01*
X196710Y19462D01*
X197148Y20519D01*
X197245Y21253D01*
D02*
G37*
G36*
X192513D02*
X188582D01*
X188679Y20519D01*
X189117Y19462D01*
X189813Y18554D01*
X190721Y17857D01*
X191779Y17419D01*
X192513Y17322D01*
Y21253D01*
D02*
G37*
G36*
X240158Y28492D02*
X238164Y28335D01*
X236219Y27868D01*
X234372Y27103D01*
X232667Y26058D01*
X231146Y24759D01*
X229847Y23239D01*
X228802Y21534D01*
X228037Y19686D01*
X227570Y17742D01*
X227414Y15748D01*
X227570Y13754D01*
X228037Y11810D01*
X228802Y9962D01*
X229847Y8257D01*
X231146Y6737D01*
X232667Y5438D01*
X234372Y4393D01*
X236219Y3628D01*
X238164Y3161D01*
X240158Y3004D01*
X242151Y3161D01*
X244096Y3628D01*
X245943Y4393D01*
X247648Y5438D01*
X249169Y6737D01*
X250468Y8257D01*
X251513Y9962D01*
X252278Y11810D01*
X252745Y13754D01*
X252902Y15748D01*
X252745Y17742D01*
X252278Y19686D01*
X251513Y21534D01*
X250468Y23239D01*
X249169Y24759D01*
X247648Y26058D01*
X245943Y27103D01*
X244096Y27868D01*
X242151Y28335D01*
X240158Y28492D01*
D02*
G37*
%LPD*%
D13*
X75590Y77756D02*
X92126D01*
X75590Y63189D02*
X92126D01*
X75590D02*
Y77756D01*
X92126Y63189D02*
Y77756D01*
X91780Y78150D02*
Y85630D01*
X78787Y78150D02*
Y85630D01*
Y78150D02*
X91780D01*
X78787Y85630D02*
X91780D01*
X74756Y111343D02*
Y122760D01*
X69244Y111343D02*
Y122760D01*
X74756D01*
X69244Y111343D02*
X74756D01*
X57142Y118441D02*
X68362D01*
X68559D02*
Y123559D01*
X57142D02*
X68362D01*
X57142Y118441D02*
Y123559D01*
X27468Y42020D02*
Y56980D01*
X71563Y42020D02*
Y56980D01*
X27468D02*
X71563D01*
X27468Y42020D02*
X71563D01*
X25984Y109941D02*
X71653D01*
X25984Y81398D02*
X71653D01*
X25984D02*
Y109941D01*
X71653Y81398D02*
Y109941D01*
X42630Y80614D02*
X71370D01*
X42630Y57386D02*
X71370D01*
X42630D02*
Y80614D01*
X71370Y57386D02*
Y80614D01*
X55118Y110236D02*
X68504D01*
X55118Y118110D02*
X68504D01*
Y110236D02*
Y118110D01*
X55118Y110236D02*
Y118110D01*
X107874Y52165D02*
X140945D01*
X107874Y70669D02*
X140945D01*
Y52165D02*
Y70669D01*
X107874Y52165D02*
Y70669D01*
X160433Y51378D02*
X165551D01*
X160433D02*
Y62598D01*
Y62795D02*
X165551D01*
Y51378D02*
Y62598D01*
X217028Y76378D02*
Y122047D01*
X188484Y76378D02*
Y122047D01*
X217028D01*
X188484Y76378D02*
X217028D01*
X170374Y30512D02*
Y76181D01*
X198917Y30512D02*
Y76181D01*
X170374Y30512D02*
X198917D01*
X170374Y76181D02*
X198917D01*
X200000Y55807D02*
Y67224D01*
X205512Y55807D02*
Y67224D01*
X200000Y55807D02*
X205512D01*
X200000Y67224D02*
X205512D01*
X78787Y86024D02*
Y93504D01*
X91780Y86024D02*
Y93504D01*
X78787D02*
X91780D01*
X78787Y86024D02*
X91780D01*
X153937Y57284D02*
Y68701D01*
X148425Y57284D02*
Y68701D01*
X153937D01*
X148425Y57284D02*
X153937D01*
X160039Y51181D02*
Y56693D01*
X148622Y51181D02*
Y56693D01*
Y51181D02*
X160039D01*
X148622Y56693D02*
X160039D01*
X154331Y68799D02*
X159843D01*
X154331Y57382D02*
X159843D01*
Y68799D01*
X154331Y57382D02*
Y68799D01*
D15*
X225385Y30878D02*
Y27379D01*
Y30878D02*
X226718Y27379D01*
X228051Y30878D02*
X226718Y27379D01*
X228051Y30878D02*
Y27379D01*
X229051Y30878D02*
Y27379D01*
X231383Y30878D02*
Y27379D01*
X229051Y29212D02*
X231383D01*
X234016Y30878D02*
X232350Y28545D01*
X234849D01*
X234016Y30878D02*
Y27379D01*
X224380Y135393D02*
Y131894D01*
Y135393D02*
X225713Y131894D01*
X227046Y135393D02*
X225713Y131894D01*
X227046Y135393D02*
Y131894D01*
X228046Y135393D02*
Y131894D01*
X230379Y135393D02*
Y131894D01*
X228046Y133727D02*
X230379D01*
X231678Y135393D02*
X233511D01*
X232511Y134060D01*
X233011D01*
X233345Y133893D01*
X233511Y133727D01*
X233678Y133227D01*
Y132893D01*
X233511Y132393D01*
X233178Y132060D01*
X232678Y131894D01*
X232178D01*
X231678Y132060D01*
X231512Y132227D01*
X231345Y132560D01*
X4891Y32873D02*
Y29374D01*
Y32873D02*
X6224Y29374D01*
X7557Y32873D02*
X6224Y29374D01*
X7557Y32873D02*
Y29374D01*
X8557Y32873D02*
Y29374D01*
X10890Y32873D02*
Y29374D01*
X8557Y31207D02*
X10890D01*
X12023Y32040D02*
Y32207D01*
X12190Y32540D01*
X12356Y32707D01*
X12689Y32873D01*
X13356D01*
X13689Y32707D01*
X13856Y32540D01*
X14023Y32207D01*
Y31874D01*
X13856Y31540D01*
X13523Y31040D01*
X11856Y29374D01*
X14189D01*
X29097Y133873D02*
Y130374D01*
Y133873D02*
X30430Y130374D01*
X31763Y133873D02*
X30430Y130374D01*
X31763Y133873D02*
Y130374D01*
X32763Y133873D02*
Y130374D01*
X35096Y133873D02*
Y130374D01*
X32763Y132207D02*
X35096D01*
X36062Y133207D02*
X36395Y133373D01*
X36895Y133873D01*
Y130374D01*
D16*
X0Y137795D02*
X255906D01*
X0Y0D02*
Y137795D01*
X255906Y0D02*
Y137795D01*
X0Y0D02*
X255906D01*
D17*
X120866Y66142D02*
G03*
X120866Y66142I-1969J0D01*
G01*
X80610Y76673D02*
X87106D01*
X80610Y64272D02*
X87106D01*
X80610D02*
Y76673D01*
X87106Y64272D02*
Y76673D01*
X89417Y79232D02*
Y84547D01*
X81150Y79232D02*
Y84547D01*
Y79232D02*
X89417D01*
X81150Y84547D02*
X89417D01*
X73772Y113705D02*
Y120398D01*
X70228Y113705D02*
Y120398D01*
X73772D01*
X70228Y113705D02*
X73772D01*
X29831Y43201D02*
Y55799D01*
X69201Y43201D02*
Y55799D01*
X29831D02*
X69201D01*
X29831Y43201D02*
X69201D01*
X34252Y108957D02*
X58661D01*
X34252Y82382D02*
X58661D01*
X34252D02*
Y108957D01*
X58661Y82382D02*
Y108957D01*
X44992Y79630D02*
X69008D01*
X44992Y58370D02*
X69008D01*
X44992D02*
Y79630D01*
X69008Y58370D02*
Y79630D01*
X57480Y111319D02*
X66142D01*
X57480Y117028D02*
X66142D01*
Y111319D02*
Y117028D01*
X57480Y111319D02*
Y117028D01*
X115354Y53150D02*
X133465D01*
X115354Y69685D02*
X133465D01*
Y53150D02*
Y69685D01*
X115354Y53150D02*
Y69685D01*
X216043Y89370D02*
Y113779D01*
X189469Y89370D02*
Y113779D01*
X216043D01*
X189469Y89370D02*
X216043D01*
X171358Y38780D02*
Y63189D01*
X197933Y38780D02*
Y63189D01*
X171358Y38780D02*
X197933D01*
X171358Y63189D02*
X197933D01*
X200984Y58169D02*
Y64862D01*
X204527Y58169D02*
Y64862D01*
X200984Y58169D02*
X204527D01*
X200984Y64862D02*
X204527D01*
X81150Y87106D02*
Y92421D01*
X89417Y87106D02*
Y92421D01*
X81150D02*
X89417D01*
X81150Y87106D02*
X89417D01*
X152953Y59646D02*
Y66339D01*
X149409Y59646D02*
Y66339D01*
X152953D01*
X149409Y59646D02*
X152953D01*
X157677Y52165D02*
Y55709D01*
X150984Y52165D02*
Y55709D01*
Y52165D02*
X157677D01*
X150984Y55709D02*
X157677D01*
X155315Y66437D02*
X158858D01*
X155315Y59744D02*
X158858D01*
Y66437D01*
X155315Y59744D02*
Y66437D01*
X83858Y68504D02*
Y72441D01*
X81890Y70472D02*
X85827D01*
X83315Y81890D02*
X87252D01*
X85283Y79921D02*
Y83858D01*
X70228Y117051D02*
X73772D01*
X72000Y115279D02*
Y118823D01*
X47547Y49500D02*
X51484D01*
X49516Y47532D02*
Y51468D01*
X48819Y93701D02*
Y97638D01*
X46850Y95669D02*
X50787D01*
X57000Y67032D02*
Y70969D01*
X55032Y69000D02*
X58969D01*
X61811Y112205D02*
Y116142D01*
X59842Y114173D02*
X63779D01*
X124409Y59449D02*
Y63386D01*
X122441Y61417D02*
X126378D01*
X200787Y99213D02*
X204724D01*
X202756Y97244D02*
Y101181D01*
X182677Y53347D02*
X186614D01*
X184646Y51378D02*
Y55315D01*
X200984Y61516D02*
X204527D01*
X202756Y59744D02*
Y63287D01*
X83315Y89764D02*
X87252D01*
X85283Y87795D02*
Y91732D01*
X149409Y62992D02*
X152953D01*
X151181Y61221D02*
Y64764D01*
X152559Y53937D02*
X156102D01*
X154331Y52165D02*
Y55709D01*
X157087Y61319D02*
Y64862D01*
X155315Y63090D02*
X158858D01*
D49*
X27000Y36500D02*
X33500D01*
X40000D01*
X214000Y58500D02*
X219500D01*
X208500D02*
X214000D01*
X74000Y89550D02*
Y104500D01*
X73622Y89172D02*
X74000Y89550D01*
X73622Y74016D02*
Y89172D01*
D50*
X15748Y122047D02*
D03*
Y15748D02*
D03*
X240158D02*
D03*
Y122047D02*
D03*
D51*
X172913Y21654D02*
D03*
X182913D02*
D03*
X162913D02*
D03*
X202913D02*
D03*
X192913D02*
D03*
X212913D02*
D03*
X228346Y58819D02*
D03*
Y48819D02*
D03*
X21654Y62992D02*
D03*
Y72992D02*
D03*
D52*
X232520Y105039D02*
D03*
X162520Y125039D02*
D03*
X182520D02*
D03*
X202520D02*
D03*
X222520Y85039D02*
D03*
X202520D02*
D03*
X162520Y5039D02*
D03*
X222520Y125039D02*
D03*
X182520Y5039D02*
D03*
X172520Y105039D02*
D03*
X222520Y45039D02*
D03*
X202520Y5039D02*
D03*
X222520D02*
D03*
X202520Y45039D02*
D03*
X82520Y125039D02*
D03*
X92520Y105039D02*
D03*
X82520Y45039D02*
D03*
X92520Y25039D02*
D03*
X82520Y5039D02*
D03*
X72520Y25039D02*
D03*
X62520Y5039D02*
D03*
X42520Y125039D02*
D03*
X52520Y25039D02*
D03*
X42520Y5039D02*
D03*
X22520Y85039D02*
D03*
X32520Y25039D02*
D03*
X12520Y105039D02*
D03*
Y65039D02*
D03*
X27000Y36500D02*
D03*
X40000D02*
D03*
X66000D02*
D03*
X150500Y43000D02*
D03*
X74000Y104500D02*
D03*
X208500Y58500D02*
D03*
X219500D02*
D03*
X94000Y56000D02*
D03*
X73622Y74016D02*
D03*
D53*
X74000Y104500D02*
D03*
X212000Y71500D02*
D03*
X214000Y58500D02*
D03*
X66000Y36500D02*
D03*
X33500D02*
D03*
X51000D02*
D03*
M02*
