G04*
G04 #@! TF.GenerationSoftware,Altium Limited,Altium Designer,20.2.6 (244)*
G04*
G04 Layer_Physical_Order=2*
G04 Layer_Color=16711680*
%FSLAX25Y25*%
%MOIN*%
G70*
G04*
G04 #@! TF.SameCoordinates,6BCE7D3D-6E75-4611-AB79-44D2FB597E60*
G04*
G04*
G04 #@! TF.FilePolarity,Positive*
G04*
G01*
G75*
%ADD48C,0.01600*%
%ADD50C,0.24410*%
%ADD51C,0.06693*%
%ADD52C,0.02953*%
G36*
X97097Y2039D02*
X2039D01*
Y135756D01*
X97097D01*
Y2039D01*
D02*
G37*
G36*
X253866D02*
X148179D01*
Y135756D01*
X253866D01*
Y2039D01*
D02*
G37*
%LPC*%
G36*
X15748Y134791D02*
X13754Y134634D01*
X11810Y134168D01*
X9962Y133402D01*
X8257Y132357D01*
X6737Y131059D01*
X5438Y129538D01*
X4393Y127833D01*
X3628Y125985D01*
X3161Y124041D01*
X3004Y122047D01*
X3161Y120054D01*
X3628Y118109D01*
X4393Y116262D01*
X5438Y114557D01*
X6737Y113036D01*
X8257Y111737D01*
X9962Y110692D01*
X11810Y109927D01*
X13754Y109460D01*
X15748Y109303D01*
X17742Y109460D01*
X19686Y109927D01*
X21534Y110692D01*
X23239Y111737D01*
X24759Y113036D01*
X26058Y114557D01*
X27103Y116262D01*
X27868Y118109D01*
X28335Y120054D01*
X28492Y122047D01*
X28335Y124041D01*
X27868Y125985D01*
X27103Y127833D01*
X26058Y129538D01*
X24759Y131059D01*
X23239Y132357D01*
X21534Y133402D01*
X19686Y134168D01*
X17742Y134634D01*
X15748Y134791D01*
D02*
G37*
G36*
X22053Y77323D02*
Y73392D01*
X25985D01*
X25888Y74127D01*
X25450Y75184D01*
X24754Y76092D01*
X23845Y76789D01*
X22788Y77227D01*
X22053Y77323D01*
D02*
G37*
G36*
X21253D02*
X20519Y77227D01*
X19462Y76789D01*
X18554Y76092D01*
X17857Y75184D01*
X17419Y74127D01*
X17322Y73392D01*
X21253D01*
Y77323D01*
D02*
G37*
G36*
X75550Y100015D02*
X74779Y99862D01*
X74125Y99425D01*
X73688Y98771D01*
X73535Y98000D01*
X73688Y97229D01*
X74125Y96575D01*
X74225Y96509D01*
Y91649D01*
X72685Y90109D01*
X72398Y89679D01*
X72297Y89172D01*
Y75507D01*
X72197Y75441D01*
X71760Y74787D01*
X71607Y74016D01*
X71760Y73245D01*
X72197Y72591D01*
X72851Y72154D01*
X73622Y72001D01*
X74393Y72154D01*
X75047Y72591D01*
X75484Y73245D01*
X75637Y74016D01*
X75484Y74787D01*
X75047Y75441D01*
X74948Y75507D01*
Y88623D01*
X76487Y90163D01*
X76775Y90593D01*
X76876Y91100D01*
Y96509D01*
X76975Y96575D01*
X77412Y97229D01*
X77565Y98000D01*
X77412Y98771D01*
X76975Y99425D01*
X76321Y99862D01*
X75550Y100015D01*
D02*
G37*
G36*
X21253Y72592D02*
X17322D01*
X17419Y71858D01*
X17857Y70800D01*
X18554Y69892D01*
X19462Y69195D01*
X20519Y68758D01*
X21253Y68661D01*
Y72592D01*
D02*
G37*
G36*
X25985D02*
X22053D01*
Y68661D01*
X22788Y68758D01*
X23845Y69195D01*
X24754Y69892D01*
X25450Y70800D01*
X25888Y71858D01*
X25985Y72592D01*
D02*
G37*
G36*
X21654Y66872D02*
X20649Y66740D01*
X19714Y66352D01*
X18910Y65736D01*
X18294Y64932D01*
X17906Y63996D01*
X17774Y62992D01*
X17906Y61988D01*
X18294Y61052D01*
X18910Y60249D01*
X19714Y59632D01*
X20649Y59245D01*
X21654Y59113D01*
X22658Y59245D01*
X23593Y59632D01*
X24397Y60249D01*
X25013Y61052D01*
X25401Y61988D01*
X25533Y62992D01*
X25401Y63996D01*
X25013Y64932D01*
X24397Y65736D01*
X23593Y66352D01*
X22658Y66740D01*
X21654Y66872D01*
D02*
G37*
G36*
X15748Y28492D02*
X13754Y28335D01*
X11810Y27868D01*
X9962Y27103D01*
X8257Y26058D01*
X6737Y24759D01*
X5438Y23239D01*
X4393Y21534D01*
X3628Y19686D01*
X3161Y17742D01*
X3004Y15748D01*
X3161Y13754D01*
X3628Y11810D01*
X4393Y9962D01*
X5438Y8257D01*
X6737Y6737D01*
X8257Y5438D01*
X9962Y4393D01*
X11810Y3628D01*
X13754Y3161D01*
X15748Y3004D01*
X17742Y3161D01*
X19686Y3628D01*
X21534Y4393D01*
X23239Y5438D01*
X24759Y6737D01*
X26058Y8257D01*
X27103Y9962D01*
X27868Y11810D01*
X28335Y13754D01*
X28492Y15748D01*
X28335Y17742D01*
X27868Y19686D01*
X27103Y21534D01*
X26058Y23239D01*
X24759Y24759D01*
X23239Y26058D01*
X21534Y27103D01*
X19686Y27868D01*
X17742Y28335D01*
X15748Y28492D01*
D02*
G37*
G36*
X240158Y134791D02*
X238164Y134634D01*
X236219Y134168D01*
X234372Y133402D01*
X232667Y132357D01*
X231146Y131059D01*
X229847Y129538D01*
X228802Y127833D01*
X228037Y125985D01*
X227570Y124041D01*
X227414Y122047D01*
X227570Y120054D01*
X228037Y118109D01*
X228802Y116262D01*
X229847Y114557D01*
X231146Y113036D01*
X232667Y111737D01*
X234372Y110692D01*
X236219Y109927D01*
X238164Y109460D01*
X240158Y109303D01*
X242151Y109460D01*
X244096Y109927D01*
X245943Y110692D01*
X247648Y111737D01*
X249169Y113036D01*
X250468Y114557D01*
X251513Y116262D01*
X252278Y118109D01*
X252745Y120054D01*
X252902Y122047D01*
X252745Y124041D01*
X252278Y125985D01*
X251513Y127833D01*
X250468Y129538D01*
X249169Y131059D01*
X247648Y132357D01*
X245943Y133402D01*
X244096Y134168D01*
X242151Y134634D01*
X240158Y134791D01*
D02*
G37*
G36*
X228746Y63150D02*
Y59219D01*
X232678D01*
X232581Y59953D01*
X232143Y61011D01*
X231446Y61919D01*
X230538Y62616D01*
X229481Y63054D01*
X228746Y63150D01*
D02*
G37*
G36*
X227946D02*
X227212Y63054D01*
X226154Y62616D01*
X225247Y61919D01*
X224550Y61011D01*
X224112Y59953D01*
X224015Y59219D01*
X227946D01*
Y63150D01*
D02*
G37*
G36*
Y58419D02*
X224015D01*
X224112Y57684D01*
X224550Y56627D01*
X225247Y55719D01*
X226154Y55022D01*
X227212Y54584D01*
X227946Y54488D01*
Y58419D01*
D02*
G37*
G36*
X232678D02*
X228746D01*
Y54488D01*
X229481Y54584D01*
X230538Y55022D01*
X231446Y55719D01*
X232143Y56627D01*
X232581Y57684D01*
X232678Y58419D01*
D02*
G37*
G36*
X228346Y52698D02*
X227342Y52566D01*
X226407Y52179D01*
X225603Y51562D01*
X224987Y50759D01*
X224599Y49823D01*
X224467Y48819D01*
X224599Y47815D01*
X224987Y46879D01*
X225603Y46076D01*
X226407Y45459D01*
X227342Y45072D01*
X228346Y44939D01*
X229351Y45072D01*
X230286Y45459D01*
X231090Y46076D01*
X231706Y46879D01*
X232094Y47815D01*
X232226Y48819D01*
X232094Y49823D01*
X231706Y50759D01*
X231090Y51562D01*
X230286Y52179D01*
X229351Y52566D01*
X228346Y52698D01*
D02*
G37*
G36*
X193313Y25985D02*
Y22053D01*
X197245D01*
X197148Y22788D01*
X196710Y23845D01*
X196013Y24754D01*
X195105Y25450D01*
X194048Y25888D01*
X193313Y25985D01*
D02*
G37*
G36*
X192513D02*
X191779Y25888D01*
X190721Y25450D01*
X189813Y24754D01*
X189117Y23845D01*
X188679Y22788D01*
X188582Y22053D01*
X192513D01*
Y25985D01*
D02*
G37*
G36*
X183313D02*
Y22053D01*
X187245D01*
X187148Y22788D01*
X186710Y23845D01*
X186013Y24754D01*
X185105Y25450D01*
X184048Y25888D01*
X183313Y25985D01*
D02*
G37*
G36*
X182513D02*
X181779Y25888D01*
X180721Y25450D01*
X179814Y24754D01*
X179117Y23845D01*
X178679Y22788D01*
X178582Y22053D01*
X182513D01*
Y25985D01*
D02*
G37*
G36*
X212913Y25533D02*
X211909Y25401D01*
X210974Y25013D01*
X210170Y24397D01*
X209554Y23593D01*
X209166Y22658D01*
X209034Y21654D01*
X209166Y20649D01*
X209554Y19714D01*
X210170Y18910D01*
X210974Y18294D01*
X211909Y17906D01*
X212913Y17774D01*
X213917Y17906D01*
X214853Y18294D01*
X215657Y18910D01*
X216273Y19714D01*
X216661Y20649D01*
X216793Y21654D01*
X216661Y22658D01*
X216273Y23593D01*
X215657Y24397D01*
X214853Y25013D01*
X213917Y25401D01*
X212913Y25533D01*
D02*
G37*
G36*
X202913D02*
X201909Y25401D01*
X200974Y25013D01*
X200170Y24397D01*
X199554Y23593D01*
X199166Y22658D01*
X199034Y21654D01*
X199166Y20649D01*
X199554Y19714D01*
X200170Y18910D01*
X200974Y18294D01*
X201909Y17906D01*
X202913Y17774D01*
X203918Y17906D01*
X204853Y18294D01*
X205657Y18910D01*
X206273Y19714D01*
X206661Y20649D01*
X206793Y21654D01*
X206661Y22658D01*
X206273Y23593D01*
X205657Y24397D01*
X204853Y25013D01*
X203918Y25401D01*
X202913Y25533D01*
D02*
G37*
G36*
X172913D02*
X171909Y25401D01*
X170974Y25013D01*
X170170Y24397D01*
X169553Y23593D01*
X169166Y22658D01*
X169034Y21654D01*
X169166Y20649D01*
X169553Y19714D01*
X170170Y18910D01*
X170974Y18294D01*
X171909Y17906D01*
X172913Y17774D01*
X173917Y17906D01*
X174853Y18294D01*
X175657Y18910D01*
X176273Y19714D01*
X176661Y20649D01*
X176793Y21654D01*
X176661Y22658D01*
X176273Y23593D01*
X175657Y24397D01*
X174853Y25013D01*
X173917Y25401D01*
X172913Y25533D01*
D02*
G37*
G36*
X162913D02*
X161909Y25401D01*
X160974Y25013D01*
X160170Y24397D01*
X159554Y23593D01*
X159166Y22658D01*
X159034Y21654D01*
X159166Y20649D01*
X159554Y19714D01*
X160170Y18910D01*
X160974Y18294D01*
X161909Y17906D01*
X162913Y17774D01*
X163918Y17906D01*
X164853Y18294D01*
X165657Y18910D01*
X166273Y19714D01*
X166661Y20649D01*
X166793Y21654D01*
X166661Y22658D01*
X166273Y23593D01*
X165657Y24397D01*
X164853Y25013D01*
X163918Y25401D01*
X162913Y25533D01*
D02*
G37*
G36*
X197245Y21253D02*
X193313D01*
Y17322D01*
X194048Y17419D01*
X195105Y17857D01*
X196013Y18554D01*
X196710Y19462D01*
X197148Y20519D01*
X197245Y21253D01*
D02*
G37*
G36*
X192513D02*
X188582D01*
X188679Y20519D01*
X189117Y19462D01*
X189813Y18554D01*
X190721Y17857D01*
X191779Y17419D01*
X192513Y17322D01*
Y21253D01*
D02*
G37*
G36*
X187245D02*
X183313D01*
Y17322D01*
X184048Y17419D01*
X185105Y17857D01*
X186013Y18554D01*
X186710Y19462D01*
X187148Y20519D01*
X187245Y21253D01*
D02*
G37*
G36*
X182513D02*
X178582D01*
X178679Y20519D01*
X179117Y19462D01*
X179814Y18554D01*
X180721Y17857D01*
X181779Y17419D01*
X182513Y17322D01*
Y21253D01*
D02*
G37*
G36*
X240158Y28492D02*
X238164Y28335D01*
X236219Y27868D01*
X234372Y27103D01*
X232667Y26058D01*
X231146Y24759D01*
X229847Y23239D01*
X228802Y21534D01*
X228037Y19686D01*
X227570Y17742D01*
X227414Y15748D01*
X227570Y13754D01*
X228037Y11810D01*
X228802Y9962D01*
X229847Y8257D01*
X231146Y6737D01*
X232667Y5438D01*
X234372Y4393D01*
X236219Y3628D01*
X238164Y3161D01*
X240158Y3004D01*
X242151Y3161D01*
X244096Y3628D01*
X245943Y4393D01*
X247648Y5438D01*
X249169Y6737D01*
X250468Y8257D01*
X251513Y9962D01*
X252278Y11810D01*
X252745Y13754D01*
X252902Y15748D01*
X252745Y17742D01*
X252278Y19686D01*
X251513Y21534D01*
X250468Y23239D01*
X249169Y24759D01*
X247648Y26058D01*
X245943Y27103D01*
X244096Y27868D01*
X242151Y28335D01*
X240158Y28492D01*
D02*
G37*
%LPD*%
D48*
X73622Y89172D02*
X75550Y91100D01*
X73622Y74016D02*
Y89172D01*
X75550Y91100D02*
Y98000D01*
D50*
X15748Y122047D02*
D03*
Y15748D02*
D03*
X240158D02*
D03*
Y122047D02*
D03*
D51*
X212913Y21654D02*
D03*
X192913D02*
D03*
X202913D02*
D03*
X162913D02*
D03*
X182913D02*
D03*
X172913D02*
D03*
X228346Y58819D02*
D03*
Y48819D02*
D03*
X21654Y72992D02*
D03*
Y62992D02*
D03*
D52*
X192700Y16000D02*
D03*
X183250Y15750D02*
D03*
X220800Y71850D02*
D03*
X165700Y62750D02*
D03*
X170350Y62800D02*
D03*
X27750Y72950D02*
D03*
X57850Y111750D02*
D03*
X81700Y95650D02*
D03*
X40200Y62450D02*
D03*
X40400Y74350D02*
D03*
X82520Y125039D02*
D03*
X92520Y105039D02*
D03*
X82520Y45039D02*
D03*
X92520Y25039D02*
D03*
X82520Y5039D02*
D03*
X62520Y125039D02*
D03*
X72520Y25039D02*
D03*
X62520Y5039D02*
D03*
X42520Y125039D02*
D03*
X52520Y105039D02*
D03*
X42520Y85039D02*
D03*
X52520Y25039D02*
D03*
X42520Y5039D02*
D03*
X32520Y105039D02*
D03*
X22520Y85039D02*
D03*
X32520Y25039D02*
D03*
X222520Y125039D02*
D03*
X232520Y65039D02*
D03*
X222520Y5039D02*
D03*
X202520Y125039D02*
D03*
Y5039D02*
D03*
X182520Y125039D02*
D03*
X192520Y105039D02*
D03*
X182520Y85039D02*
D03*
X192520Y65039D02*
D03*
X182520Y5039D02*
D03*
X162520Y125039D02*
D03*
X172520Y105039D02*
D03*
X162520Y85039D02*
D03*
Y5039D02*
D03*
X75550Y98000D02*
D03*
X150100Y56500D02*
D03*
X94000Y56000D02*
D03*
X73622Y74016D02*
D03*
M02*
