G04*
G04 #@! TF.GenerationSoftware,Altium Limited,Altium Designer,18.1.11 (251)*
G04*
G04 Layer_Color=16711935*
%FSLAX25Y25*%
%MOIN*%
G70*
G01*
G75*
%ADD59R,0.04737X0.06115*%
%ADD71R,0.06509X0.05918*%
%ADD76C,0.24422*%
%ADD77C,0.20485*%
%ADD78C,0.12611*%
%ADD79C,0.08674*%
%ADD80C,0.07493*%
%ADD81C,0.13005*%
%ADD82C,0.10642*%
%ADD83C,0.22453*%
%ADD84C,0.14580*%
%ADD85C,0.02965*%
%ADD86C,0.05800*%
%ADD100O,0.01981X0.06115*%
D59*
X532575Y108839D02*
D03*
X525488D02*
D03*
X532575Y116339D02*
D03*
X525488D02*
D03*
X516929Y99606D02*
D03*
X509842D02*
D03*
X519618Y108839D02*
D03*
X512532D02*
D03*
X519575Y116339D02*
D03*
X512488D02*
D03*
X539764Y99606D02*
D03*
X546850D02*
D03*
X539764Y92126D02*
D03*
X546850D02*
D03*
D71*
X538976Y83071D02*
D03*
Y76772D02*
D03*
D76*
X531496Y216535D02*
D03*
X19685D02*
D03*
Y19685D02*
D03*
X531496D02*
D03*
X485630Y48031D02*
D03*
Y188189D02*
D03*
D77*
X455512Y18110D02*
D03*
X275590D02*
D03*
X95669D02*
D03*
X455512Y218110D02*
D03*
X275590D02*
D03*
X95669D02*
D03*
D78*
X485630Y88189D02*
D03*
Y118110D02*
D03*
Y148031D02*
D03*
X65551Y48031D02*
D03*
Y88189D02*
D03*
Y148031D02*
D03*
Y188189D02*
D03*
X348819Y47244D02*
D03*
X333071D02*
D03*
D79*
X86614Y73622D02*
D03*
Y53937D02*
D03*
X102362Y73622D02*
D03*
Y53937D02*
D03*
D80*
X32677Y138189D02*
D03*
X22677D02*
D03*
X149606Y57323D02*
D03*
Y67323D02*
D03*
X335039Y87638D02*
D03*
Y97638D02*
D03*
Y107638D02*
D03*
X147244Y105512D02*
D03*
Y95512D02*
D03*
X51968Y162047D02*
D03*
Y172047D02*
D03*
X422913Y182520D02*
D03*
X412913D02*
D03*
X402913D02*
D03*
X392913D02*
D03*
X382913D02*
D03*
Y192520D02*
D03*
X392913D02*
D03*
X402913D02*
D03*
X412913D02*
D03*
X422913D02*
D03*
X500787Y154016D02*
D03*
Y144016D02*
D03*
Y134016D02*
D03*
Y124016D02*
D03*
Y114016D02*
D03*
Y104016D02*
D03*
Y94016D02*
D03*
Y84016D02*
D03*
X149055Y180709D02*
D03*
X159055D02*
D03*
X118110D02*
D03*
X128110D02*
D03*
D81*
X353858Y200394D02*
D03*
X240158Y201575D02*
D03*
X318425Y200394D02*
D03*
D82*
X353858Y171653D02*
D03*
Y150000D02*
D03*
X240158Y172835D02*
D03*
Y151181D02*
D03*
X318425Y171653D02*
D03*
Y150000D02*
D03*
D83*
X308268Y18504D02*
D03*
X341142D02*
D03*
X391142D02*
D03*
X424016D02*
D03*
D84*
X90551Y105512D02*
D03*
Y125591D02*
D03*
Y141732D02*
D03*
Y161811D02*
D03*
D85*
X295276Y77014D02*
D03*
X287402D02*
D03*
X346457Y133858D02*
D03*
X444882Y125984D02*
D03*
X440945Y133858D02*
D03*
X536614Y116535D02*
D03*
Y108661D02*
D03*
X272835Y39764D02*
D03*
X543307Y228347D02*
D03*
X547244Y220473D02*
D03*
Y204725D02*
D03*
X543307Y196851D02*
D03*
X547244Y188977D02*
D03*
X543307Y70866D02*
D03*
X547244Y62992D02*
D03*
X543307Y55118D02*
D03*
X547244Y47244D02*
D03*
X543307Y39370D02*
D03*
X547244Y31496D02*
D03*
Y15748D02*
D03*
X543307Y7874D02*
D03*
X539370Y204725D02*
D03*
X535433Y196851D02*
D03*
X539370Y188977D02*
D03*
Y62992D02*
D03*
Y47244D02*
D03*
X535433Y39370D02*
D03*
X539370Y31496D02*
D03*
X527559Y196851D02*
D03*
X531496Y188977D02*
D03*
Y47244D02*
D03*
X527559Y39370D02*
D03*
X519685Y228347D02*
D03*
X523622Y204725D02*
D03*
X519685Y196851D02*
D03*
X523622Y188977D02*
D03*
X519685Y39370D02*
D03*
X523622Y31496D02*
D03*
X519685Y7874D02*
D03*
X511811Y228347D02*
D03*
X515748Y220473D02*
D03*
X511811Y212598D02*
D03*
X515748Y204725D02*
D03*
X511811Y196851D02*
D03*
X515748Y188977D02*
D03*
X511811Y39370D02*
D03*
X515748Y31496D02*
D03*
X511811Y23622D02*
D03*
X515748Y15748D02*
D03*
X511811Y7874D02*
D03*
X503937Y228347D02*
D03*
X507874Y220473D02*
D03*
X503937Y212598D02*
D03*
X507874Y204725D02*
D03*
X503937Y196851D02*
D03*
X507874Y188977D02*
D03*
X496063Y228347D02*
D03*
X500000Y220473D02*
D03*
X496063Y212598D02*
D03*
X500000Y204725D02*
D03*
X496063Y196851D02*
D03*
X488189Y228347D02*
D03*
X492126Y220473D02*
D03*
Y204725D02*
D03*
X480315Y228347D02*
D03*
X484252Y220473D02*
D03*
X480315Y212598D02*
D03*
X472441Y228347D02*
D03*
Y212598D02*
D03*
X476378Y204725D02*
D03*
X472441Y196851D02*
D03*
X464567Y228347D02*
D03*
X468504Y204725D02*
D03*
X464567Y196851D02*
D03*
X460630Y204725D02*
D03*
X448819Y228347D02*
D03*
Y196851D02*
D03*
Y133858D02*
D03*
X452756Y125984D02*
D03*
X440945Y228347D02*
D03*
Y212598D02*
D03*
X444882Y204725D02*
D03*
X440945Y196851D02*
D03*
X444882Y188977D02*
D03*
X433071Y228347D02*
D03*
X437008Y220473D02*
D03*
X433071Y212598D02*
D03*
X437008Y204725D02*
D03*
X433071Y196851D02*
D03*
X437008Y188977D02*
D03*
X433071Y118110D02*
D03*
X425197Y228347D02*
D03*
X429134Y220473D02*
D03*
X425197Y212598D02*
D03*
X429134Y204725D02*
D03*
Y188977D02*
D03*
Y125984D02*
D03*
X425197Y118110D02*
D03*
X417323Y228347D02*
D03*
X421260Y220473D02*
D03*
X417323Y212598D02*
D03*
X421260Y204725D02*
D03*
X417323Y196851D02*
D03*
Y133858D02*
D03*
X421260Y125984D02*
D03*
X417323Y118110D02*
D03*
X409449Y228347D02*
D03*
X413386Y220473D02*
D03*
X409449Y212598D02*
D03*
X413386Y204725D02*
D03*
X409449Y196851D02*
D03*
X413386Y125984D02*
D03*
X409449Y118110D02*
D03*
X401575Y228347D02*
D03*
X405512Y220473D02*
D03*
X401575Y212598D02*
D03*
X405512Y204725D02*
D03*
Y125984D02*
D03*
X401575Y118110D02*
D03*
X393701Y228347D02*
D03*
X397638Y220473D02*
D03*
X393701Y212598D02*
D03*
X397638Y204725D02*
D03*
Y188977D02*
D03*
Y125984D02*
D03*
X385827Y228347D02*
D03*
X389764Y220473D02*
D03*
X385827Y212598D02*
D03*
X389764Y204725D02*
D03*
X377953Y228347D02*
D03*
X381890Y220473D02*
D03*
X377953Y212598D02*
D03*
X381890Y204725D02*
D03*
X370079Y228347D02*
D03*
X374016Y220473D02*
D03*
X370079Y212598D02*
D03*
X374016Y204725D02*
D03*
Y78740D02*
D03*
X370079Y70866D02*
D03*
X362205Y228347D02*
D03*
X366142Y220473D02*
D03*
X362205Y212598D02*
D03*
X366142Y204725D02*
D03*
X362205Y70866D02*
D03*
X354331Y228347D02*
D03*
X358268Y220473D02*
D03*
X354331Y212598D02*
D03*
X358268Y157480D02*
D03*
Y125984D02*
D03*
X354331Y118110D02*
D03*
Y102362D02*
D03*
Y86614D02*
D03*
X346457Y228347D02*
D03*
X350394Y220473D02*
D03*
X346457Y212598D02*
D03*
Y196851D02*
D03*
X350394Y188977D02*
D03*
Y141732D02*
D03*
X346457Y102362D02*
D03*
Y86614D02*
D03*
X350394Y62992D02*
D03*
X338583Y228347D02*
D03*
X342520Y220473D02*
D03*
X338583Y212598D02*
D03*
X342520Y204725D02*
D03*
X338583Y196851D02*
D03*
X342520Y188977D02*
D03*
X338583Y181103D02*
D03*
X342520Y141732D02*
D03*
X338583Y133858D02*
D03*
X342520Y94488D02*
D03*
Y62992D02*
D03*
X330709Y228347D02*
D03*
X334646Y220473D02*
D03*
X330709Y212598D02*
D03*
X334646Y204725D02*
D03*
X330709Y196851D02*
D03*
X334646Y188977D02*
D03*
X330709Y181103D02*
D03*
X334646Y173228D02*
D03*
X330709Y133858D02*
D03*
X334646Y125984D02*
D03*
X330709Y118110D02*
D03*
Y102362D02*
D03*
X322835Y228347D02*
D03*
X326772Y220473D02*
D03*
X322835Y212598D02*
D03*
X326772Y204725D02*
D03*
Y188977D02*
D03*
X322835Y181103D02*
D03*
X326772Y173228D02*
D03*
X322835Y165354D02*
D03*
X326772Y125984D02*
D03*
X322835Y118110D02*
D03*
Y102362D02*
D03*
X326772Y94488D02*
D03*
X322835Y70866D02*
D03*
X326772Y62992D02*
D03*
X314961Y228347D02*
D03*
X318898Y220473D02*
D03*
X314961Y212598D02*
D03*
X318898Y188977D02*
D03*
X314961Y181103D02*
D03*
X318898Y157480D02*
D03*
X314961Y102362D02*
D03*
X318898Y94488D02*
D03*
X307087Y228347D02*
D03*
X311024Y220473D02*
D03*
X307087Y212598D02*
D03*
X311024Y204725D02*
D03*
X307087Y196851D02*
D03*
X311024Y188977D02*
D03*
X307087Y181103D02*
D03*
X311024Y173228D02*
D03*
X307087Y165354D02*
D03*
X311024Y157480D02*
D03*
X307087Y149606D02*
D03*
X311024Y141732D02*
D03*
X307087Y133858D02*
D03*
Y86614D02*
D03*
X311024Y62992D02*
D03*
X299213Y228347D02*
D03*
X303150Y220473D02*
D03*
X299213Y212598D02*
D03*
X303150Y204725D02*
D03*
Y188977D02*
D03*
Y173228D02*
D03*
Y141732D02*
D03*
X299213Y86614D02*
D03*
X291339Y228347D02*
D03*
X295276Y220473D02*
D03*
X291339Y212598D02*
D03*
Y165354D02*
D03*
Y149606D02*
D03*
Y133858D02*
D03*
X295276Y125984D02*
D03*
X291339Y118110D02*
D03*
Y70866D02*
D03*
X283465Y228347D02*
D03*
X287402Y220473D02*
D03*
Y173228D02*
D03*
X283465Y149606D02*
D03*
X287402Y15748D02*
D03*
X275591Y149606D02*
D03*
X279528Y141732D02*
D03*
X275591Y133858D02*
D03*
X279528Y125984D02*
D03*
X275591Y118110D02*
D03*
Y70866D02*
D03*
X279528Y62992D02*
D03*
Y31496D02*
D03*
X267717Y228347D02*
D03*
X271654Y204725D02*
D03*
X267717Y181103D02*
D03*
X271654Y173228D02*
D03*
X267717Y149606D02*
D03*
X271654Y141732D02*
D03*
X267717Y133858D02*
D03*
X259843Y228347D02*
D03*
X263780Y220473D02*
D03*
X259843Y212598D02*
D03*
X263780Y204725D02*
D03*
X259843Y196851D02*
D03*
Y181103D02*
D03*
X263780Y173228D02*
D03*
Y157480D02*
D03*
X259843Y149606D02*
D03*
X263780Y141732D02*
D03*
X259843Y133858D02*
D03*
Y70866D02*
D03*
X251969Y228347D02*
D03*
X255906Y220473D02*
D03*
X251969Y212598D02*
D03*
X255906Y204725D02*
D03*
X251969Y196851D02*
D03*
X255906Y188977D02*
D03*
X251969Y181103D02*
D03*
X255906Y173228D02*
D03*
Y157480D02*
D03*
X251969Y149606D02*
D03*
X255906Y141732D02*
D03*
X251969Y118110D02*
D03*
X255906Y62992D02*
D03*
X251969Y39370D02*
D03*
X255906Y31496D02*
D03*
X244095Y228347D02*
D03*
X248032Y220473D02*
D03*
X244095Y212598D02*
D03*
X248032Y204725D02*
D03*
X244095Y181103D02*
D03*
X248032Y173228D02*
D03*
Y157480D02*
D03*
X244095Y86614D02*
D03*
Y39370D02*
D03*
X236221Y228347D02*
D03*
X240158Y220473D02*
D03*
X236221Y212598D02*
D03*
X240158Y188977D02*
D03*
Y141732D02*
D03*
Y125984D02*
D03*
Y110236D02*
D03*
Y94488D02*
D03*
X228347Y228347D02*
D03*
X232284Y220473D02*
D03*
X228347Y212598D02*
D03*
X232284Y204725D02*
D03*
X228347Y196851D02*
D03*
X232284Y188977D02*
D03*
X228347Y181103D02*
D03*
Y133858D02*
D03*
X220473Y228347D02*
D03*
X224410Y220473D02*
D03*
X220473Y212598D02*
D03*
X224410Y204725D02*
D03*
X220473Y196851D02*
D03*
X224410Y188977D02*
D03*
X220473Y181103D02*
D03*
X224410Y173228D02*
D03*
Y157480D02*
D03*
X220473Y149606D02*
D03*
X224410Y141732D02*
D03*
X220473Y133858D02*
D03*
X224410Y125984D02*
D03*
X212598Y228347D02*
D03*
X216536Y220473D02*
D03*
X212598Y212598D02*
D03*
X216536Y204725D02*
D03*
X212598Y196851D02*
D03*
X216536Y188977D02*
D03*
X212598Y181103D02*
D03*
X216536Y173228D02*
D03*
Y157480D02*
D03*
X212598Y149606D02*
D03*
X216536Y141732D02*
D03*
X212598Y133858D02*
D03*
X216536Y125984D02*
D03*
X208662Y78740D02*
D03*
X196851Y23622D02*
D03*
X192913Y15748D02*
D03*
X181103Y181103D02*
D03*
Y149606D02*
D03*
Y133858D02*
D03*
Y118110D02*
D03*
Y102362D02*
D03*
X185039Y15748D02*
D03*
X181103Y7874D02*
D03*
X173228Y181103D02*
D03*
X177165Y173228D02*
D03*
Y157480D02*
D03*
X173228Y149606D02*
D03*
X177165Y141732D02*
D03*
Y125984D02*
D03*
Y110236D02*
D03*
Y94488D02*
D03*
Y15748D02*
D03*
X173228Y7874D02*
D03*
X165354Y196851D02*
D03*
X169291Y188977D02*
D03*
X165354Y181103D02*
D03*
X169291Y173228D02*
D03*
X165354Y165354D02*
D03*
X169291Y157480D02*
D03*
X165354Y149606D02*
D03*
X169291Y141732D02*
D03*
Y15748D02*
D03*
X165354Y7874D02*
D03*
X157480Y196851D02*
D03*
X161417Y188977D02*
D03*
Y173228D02*
D03*
X157480Y165354D02*
D03*
Y149606D02*
D03*
X161417Y141732D02*
D03*
Y15748D02*
D03*
X157480Y7874D02*
D03*
X149606Y196851D02*
D03*
X153543Y188977D02*
D03*
Y173228D02*
D03*
X149606Y165354D02*
D03*
X153543Y157480D02*
D03*
X149606Y149606D02*
D03*
X153543Y141732D02*
D03*
Y47244D02*
D03*
X149606Y39370D02*
D03*
Y23622D02*
D03*
X153543Y15748D02*
D03*
X149606Y7874D02*
D03*
X141732Y196851D02*
D03*
X145669Y188977D02*
D03*
X141732Y181103D02*
D03*
Y165354D02*
D03*
X145669Y157480D02*
D03*
X141732Y149606D02*
D03*
X145669Y141732D02*
D03*
X141732Y70866D02*
D03*
X145669Y62992D02*
D03*
X141732Y55118D02*
D03*
X145669Y47244D02*
D03*
X141732Y39370D02*
D03*
Y23622D02*
D03*
X145669Y15748D02*
D03*
X141732Y7874D02*
D03*
X133858Y196851D02*
D03*
X137795Y188977D02*
D03*
X133858Y181103D02*
D03*
Y165354D02*
D03*
Y149606D02*
D03*
Y39370D02*
D03*
Y23622D02*
D03*
X137795Y15748D02*
D03*
X133858Y7874D02*
D03*
X125984Y196851D02*
D03*
X129921Y188977D02*
D03*
Y173228D02*
D03*
X125984Y165354D02*
D03*
X129921Y157480D02*
D03*
X125984Y149606D02*
D03*
X129921Y141732D02*
D03*
X125984Y23622D02*
D03*
Y7874D02*
D03*
X118110Y196851D02*
D03*
X122047Y188977D02*
D03*
Y173228D02*
D03*
X118110Y165354D02*
D03*
X122047Y157480D02*
D03*
X118110Y149606D02*
D03*
X122047Y141732D02*
D03*
X118110Y23622D02*
D03*
Y7874D02*
D03*
X110236Y196851D02*
D03*
X114173Y188977D02*
D03*
X110236Y181103D02*
D03*
X114173Y173228D02*
D03*
X110236Y165354D02*
D03*
X114173Y157480D02*
D03*
X110236Y149606D02*
D03*
X114173Y141732D02*
D03*
X110236Y23622D02*
D03*
Y7874D02*
D03*
X102362Y196851D02*
D03*
X106299Y188977D02*
D03*
X102362Y181103D02*
D03*
X106299Y173228D02*
D03*
X102362Y165354D02*
D03*
X106299Y157480D02*
D03*
X102362Y149606D02*
D03*
X106299Y141732D02*
D03*
X102362Y39370D02*
D03*
X94488Y181103D02*
D03*
X98425Y173228D02*
D03*
Y157480D02*
D03*
X94488Y149606D02*
D03*
Y55118D02*
D03*
Y39370D02*
D03*
X86614Y196851D02*
D03*
X90551Y188977D02*
D03*
X86614Y181103D02*
D03*
X90551Y173228D02*
D03*
X86614Y149606D02*
D03*
Y133858D02*
D03*
X78740Y196851D02*
D03*
X82677Y188977D02*
D03*
X78740Y181103D02*
D03*
X82677Y173228D02*
D03*
Y157480D02*
D03*
X78740Y149606D02*
D03*
Y133858D02*
D03*
X70866Y196851D02*
D03*
X74803Y188977D02*
D03*
X70866Y181103D02*
D03*
X74803Y173228D02*
D03*
X62992Y181103D02*
D03*
X66929Y173228D02*
D03*
X55118Y196851D02*
D03*
Y181103D02*
D03*
X59055Y173228D02*
D03*
X51181Y188977D02*
D03*
X39370Y70866D02*
D03*
D86*
X261811Y96457D02*
D03*
X257874Y101575D02*
D03*
X261811Y106693D02*
D03*
X387402Y160236D02*
D03*
X528740Y72047D02*
D03*
X474409Y119685D02*
D03*
X382677Y110630D02*
D03*
X418504Y162992D02*
D03*
X214961D02*
D03*
X366929Y91870D02*
D03*
X529528Y59842D02*
D03*
X196850Y81496D02*
D03*
X119685Y116929D02*
D03*
X277559Y113779D02*
D03*
X261811Y121653D02*
D03*
X287402Y162992D02*
D03*
X366535Y114567D02*
D03*
X276449Y80655D02*
D03*
X116535Y46457D02*
D03*
X13386Y138189D02*
D03*
X24409Y108268D02*
D03*
X466929Y124409D02*
D03*
Y176772D02*
D03*
X163386Y38976D02*
D03*
X57874Y106299D02*
D03*
X17323Y117717D02*
D03*
X296417Y157283D02*
D03*
D100*
X533468Y83079D02*
D03*
X531500D02*
D03*
X529531D02*
D03*
X527563D02*
D03*
X525595D02*
D03*
X533468Y100598D02*
D03*
X531500D02*
D03*
X529531D02*
D03*
X527563D02*
D03*
X525595D02*
D03*
M02*
