G04*
G04 #@! TF.GenerationSoftware,Altium Limited,Altium Designer,18.1.11 (251)*
G04*
G04 Layer_Color=8388736*
%FSLAX25Y25*%
%MOIN*%
G70*
G01*
G75*
%ADD48O,0.03162X0.08280*%
%ADD49O,0.08280X0.03162*%
%ADD50R,0.06312X0.03162*%
%ADD51O,0.06312X0.02572*%
%ADD52O,0.01981X0.03950*%
%ADD53R,0.03359X0.04540*%
%ADD54O,0.08477X0.03162*%
%ADD55R,0.03162X0.04934*%
%ADD56R,0.25997X0.22650*%
%ADD57R,0.12611X0.04737*%
%ADD58R,0.06115X0.04737*%
%ADD59R,0.04737X0.06115*%
%ADD60R,0.04147X0.04343*%
%ADD61R,0.04343X0.04147*%
%ADD62R,0.22650X0.25997*%
%ADD63R,0.04737X0.12611*%
%ADD64R,0.03950X0.03950*%
%ADD65R,0.04737X0.05131*%
%ADD66R,0.03950X0.04737*%
%ADD67R,0.08871X0.10642*%
%ADD68R,0.02769X0.04343*%
%ADD69R,0.03950X0.03950*%
%ADD70R,0.22060X0.07296*%
%ADD71R,0.06509X0.05918*%
%ADD72R,0.07887X0.05918*%
%ADD73R,0.05918X0.07887*%
%ADD74R,0.04737X0.04934*%
%ADD75R,0.05918X0.06509*%
%ADD76C,0.24422*%
%ADD77C,0.20485*%
%ADD78C,0.12611*%
%ADD79C,0.08674*%
%ADD80C,0.07493*%
%ADD81C,0.13005*%
%ADD82C,0.10642*%
%ADD83C,0.22453*%
%ADD84C,0.14580*%
%ADD85C,0.02965*%
%ADD86C,0.05800*%
D48*
X377776Y144882D02*
D03*
X382776D02*
D03*
X387776D02*
D03*
X392776D02*
D03*
X397776D02*
D03*
X402776D02*
D03*
X407776D02*
D03*
X412776D02*
D03*
X377776Y168504D02*
D03*
X382776D02*
D03*
X387776D02*
D03*
X392776D02*
D03*
X397776D02*
D03*
X402776D02*
D03*
X407776D02*
D03*
X412776D02*
D03*
D49*
X245669Y126555D02*
D03*
Y121555D02*
D03*
Y116555D02*
D03*
Y111555D02*
D03*
Y106555D02*
D03*
Y101555D02*
D03*
Y96555D02*
D03*
Y91555D02*
D03*
X269291Y126555D02*
D03*
Y121555D02*
D03*
Y116555D02*
D03*
Y111555D02*
D03*
Y106555D02*
D03*
Y101555D02*
D03*
Y96555D02*
D03*
Y91555D02*
D03*
D50*
X207677Y152874D02*
D03*
Y162874D02*
D03*
X182087Y152874D02*
D03*
Y162874D02*
D03*
D51*
X8268Y110630D02*
D03*
Y108071D02*
D03*
Y105512D02*
D03*
Y102953D02*
D03*
Y100394D02*
D03*
Y97835D02*
D03*
Y95276D02*
D03*
Y92716D02*
D03*
X31496Y110630D02*
D03*
Y108071D02*
D03*
Y105512D02*
D03*
Y102953D02*
D03*
Y100394D02*
D03*
Y97835D02*
D03*
X8268Y113189D02*
D03*
Y90158D02*
D03*
X31496Y92716D02*
D03*
Y90158D02*
D03*
X31496Y113189D02*
D03*
Y95276D02*
D03*
D52*
X284055Y41732D02*
D03*
X286024D02*
D03*
X287992D02*
D03*
X289961D02*
D03*
X284055Y54331D02*
D03*
X286024D02*
D03*
X287992D02*
D03*
X289961D02*
D03*
D53*
X191398Y43504D02*
D03*
X195000Y34252D02*
D03*
X187795D02*
D03*
D54*
X202516Y57173D02*
D03*
Y52173D02*
D03*
Y47173D02*
D03*
Y42173D02*
D03*
X243854Y57173D02*
D03*
Y52173D02*
D03*
Y47173D02*
D03*
Y42173D02*
D03*
D55*
X301378Y59646D02*
D03*
X305118D02*
D03*
X308858D02*
D03*
Y70276D02*
D03*
X301378D02*
D03*
X305118D02*
D03*
D56*
X441535Y151181D02*
D03*
D57*
X466929Y160197D02*
D03*
Y142165D02*
D03*
D58*
X46457Y89370D02*
D03*
Y96457D02*
D03*
X38976Y89370D02*
D03*
Y96457D02*
D03*
X37795Y111811D02*
D03*
Y118898D02*
D03*
X175197Y70866D02*
D03*
Y63779D02*
D03*
X455512Y195276D02*
D03*
Y188189D02*
D03*
X95276Y188189D02*
D03*
Y195276D02*
D03*
X270079Y159843D02*
D03*
Y166929D02*
D03*
X503543Y181102D02*
D03*
Y188189D02*
D03*
X503150Y55118D02*
D03*
Y48031D02*
D03*
X164173Y98819D02*
D03*
Y91732D02*
D03*
X516142Y59449D02*
D03*
Y66535D02*
D03*
X520866Y182677D02*
D03*
Y175591D02*
D03*
X523622Y66535D02*
D03*
Y59449D02*
D03*
X265354Y44882D02*
D03*
Y51968D02*
D03*
D59*
X31102Y124016D02*
D03*
X24016D02*
D03*
X17279Y124080D02*
D03*
X10193D02*
D03*
X272835Y192913D02*
D03*
X265748D02*
D03*
X470079Y48031D02*
D03*
X462992D02*
D03*
X251642Y44173D02*
D03*
X258728D02*
D03*
X251642Y52173D02*
D03*
X258728D02*
D03*
X174409Y51968D02*
D03*
X181496D02*
D03*
X359842Y97638D02*
D03*
X366929D02*
D03*
X359842Y107874D02*
D03*
X366929D02*
D03*
D60*
X43799Y140945D02*
D03*
X49902D02*
D03*
D61*
X187402Y51870D02*
D03*
Y45768D02*
D03*
D62*
X287402Y192913D02*
D03*
D63*
X296417Y167520D02*
D03*
X278386D02*
D03*
D64*
X158661Y67323D02*
D03*
X164961D02*
D03*
X243307Y137008D02*
D03*
X237008D02*
D03*
X344882Y97638D02*
D03*
X351181D02*
D03*
X344882Y107874D02*
D03*
X351181D02*
D03*
D65*
X31693Y71260D02*
D03*
X43898D02*
D03*
Y132677D02*
D03*
X56102D02*
D03*
D66*
X53543Y88878D02*
D03*
Y75689D02*
D03*
D67*
X50394Y106299D02*
D03*
Y118898D02*
D03*
D68*
X158661Y49213D02*
D03*
Y57874D02*
D03*
D69*
X156299Y103543D02*
D03*
Y97244D02*
D03*
D70*
X120079Y17815D02*
D03*
Y38091D02*
D03*
X119685Y125492D02*
D03*
Y105217D02*
D03*
D71*
X31496Y77953D02*
D03*
Y84252D02*
D03*
X11811Y84252D02*
D03*
Y77953D02*
D03*
X201181Y27953D02*
D03*
Y34252D02*
D03*
X179921Y27953D02*
D03*
Y34252D02*
D03*
X286221Y59842D02*
D03*
Y66142D02*
D03*
X292913Y66142D02*
D03*
Y59842D02*
D03*
X485827Y213386D02*
D03*
Y207087D02*
D03*
X65748D02*
D03*
Y200787D02*
D03*
Y29134D02*
D03*
Y35433D02*
D03*
D72*
X19685Y84252D02*
D03*
Y73228D02*
D03*
X170866Y38976D02*
D03*
Y27953D02*
D03*
D73*
X43701Y147244D02*
D03*
X32677D02*
D03*
X255197Y73673D02*
D03*
X244173D02*
D03*
X203197D02*
D03*
X192173D02*
D03*
X466929Y131496D02*
D03*
X455905D02*
D03*
D74*
X277165Y39567D02*
D03*
Y45472D02*
D03*
X271654D02*
D03*
Y51378D02*
D03*
X277165D02*
D03*
Y57284D02*
D03*
X315354Y64370D02*
D03*
Y70276D02*
D03*
D75*
X290551Y36220D02*
D03*
X284252D02*
D03*
X244035Y65173D02*
D03*
X250335D02*
D03*
X196535D02*
D03*
X202835D02*
D03*
X469685Y18110D02*
D03*
X475984D02*
D03*
X460630Y170472D02*
D03*
X466929D02*
D03*
D76*
X531496Y216535D02*
D03*
X19685D02*
D03*
Y19685D02*
D03*
X531496D02*
D03*
X485630Y48031D02*
D03*
Y188189D02*
D03*
D77*
X455512Y18110D02*
D03*
X275590D02*
D03*
X95669D02*
D03*
X455512Y218110D02*
D03*
X275590D02*
D03*
X95669D02*
D03*
D78*
X485630Y88189D02*
D03*
Y118110D02*
D03*
Y148031D02*
D03*
X65551Y48031D02*
D03*
Y88189D02*
D03*
Y148031D02*
D03*
Y188189D02*
D03*
X348819Y47244D02*
D03*
X333071D02*
D03*
D79*
X86614Y73622D02*
D03*
Y53937D02*
D03*
X102362Y73622D02*
D03*
Y53937D02*
D03*
D80*
X32677Y138189D02*
D03*
X22677D02*
D03*
X149606Y57323D02*
D03*
Y67323D02*
D03*
X335039Y87638D02*
D03*
Y97638D02*
D03*
Y107638D02*
D03*
X147244Y105512D02*
D03*
Y95512D02*
D03*
X51968Y162047D02*
D03*
Y172047D02*
D03*
X422913Y182520D02*
D03*
X412913D02*
D03*
X402913D02*
D03*
X392913D02*
D03*
X382913D02*
D03*
Y192520D02*
D03*
X392913D02*
D03*
X402913D02*
D03*
X412913D02*
D03*
X422913D02*
D03*
X500787Y154016D02*
D03*
Y144016D02*
D03*
Y134016D02*
D03*
Y124016D02*
D03*
Y114016D02*
D03*
Y104016D02*
D03*
Y94016D02*
D03*
Y84016D02*
D03*
X149055Y180709D02*
D03*
X159055D02*
D03*
X118110D02*
D03*
X128110D02*
D03*
D81*
X353858Y200394D02*
D03*
X240158Y201575D02*
D03*
X318425Y200394D02*
D03*
D82*
X353858Y171653D02*
D03*
Y150000D02*
D03*
X240158Y172835D02*
D03*
Y151181D02*
D03*
X318425Y171653D02*
D03*
Y150000D02*
D03*
D83*
X308268Y18504D02*
D03*
X341142D02*
D03*
X391142D02*
D03*
X424016D02*
D03*
D84*
X90551Y105512D02*
D03*
Y125591D02*
D03*
Y141732D02*
D03*
Y161811D02*
D03*
D85*
X295276Y77014D02*
D03*
X287402D02*
D03*
X346457Y133858D02*
D03*
X444882Y125984D02*
D03*
X440945Y133858D02*
D03*
X536614Y116535D02*
D03*
Y108661D02*
D03*
X272835Y39764D02*
D03*
X543307Y228347D02*
D03*
X547244Y220473D02*
D03*
Y204725D02*
D03*
X543307Y196851D02*
D03*
X547244Y188977D02*
D03*
X543307Y70866D02*
D03*
X547244Y62992D02*
D03*
X543307Y55118D02*
D03*
X547244Y47244D02*
D03*
X543307Y39370D02*
D03*
X547244Y31496D02*
D03*
Y15748D02*
D03*
X543307Y7874D02*
D03*
X539370Y204725D02*
D03*
X535433Y196851D02*
D03*
X539370Y188977D02*
D03*
Y62992D02*
D03*
Y47244D02*
D03*
X535433Y39370D02*
D03*
X539370Y31496D02*
D03*
X527559Y196851D02*
D03*
X531496Y188977D02*
D03*
Y47244D02*
D03*
X527559Y39370D02*
D03*
X519685Y228347D02*
D03*
X523622Y204725D02*
D03*
X519685Y196851D02*
D03*
X523622Y188977D02*
D03*
X519685Y39370D02*
D03*
X523622Y31496D02*
D03*
X519685Y7874D02*
D03*
X511811Y228347D02*
D03*
X515748Y220473D02*
D03*
X511811Y212598D02*
D03*
X515748Y204725D02*
D03*
X511811Y196851D02*
D03*
X515748Y188977D02*
D03*
X511811Y39370D02*
D03*
X515748Y31496D02*
D03*
X511811Y23622D02*
D03*
X515748Y15748D02*
D03*
X511811Y7874D02*
D03*
X503937Y228347D02*
D03*
X507874Y220473D02*
D03*
X503937Y212598D02*
D03*
X507874Y204725D02*
D03*
X503937Y196851D02*
D03*
X507874Y188977D02*
D03*
X496063Y228347D02*
D03*
X500000Y220473D02*
D03*
X496063Y212598D02*
D03*
X500000Y204725D02*
D03*
X496063Y196851D02*
D03*
X488189Y228347D02*
D03*
X492126Y220473D02*
D03*
Y204725D02*
D03*
X480315Y228347D02*
D03*
X484252Y220473D02*
D03*
X480315Y212598D02*
D03*
X472441Y228347D02*
D03*
Y212598D02*
D03*
X476378Y204725D02*
D03*
X472441Y196851D02*
D03*
X464567Y228347D02*
D03*
X468504Y204725D02*
D03*
X464567Y196851D02*
D03*
X460630Y204725D02*
D03*
X448819Y228347D02*
D03*
Y196851D02*
D03*
Y133858D02*
D03*
X452756Y125984D02*
D03*
X440945Y228347D02*
D03*
Y212598D02*
D03*
X444882Y204725D02*
D03*
X440945Y196851D02*
D03*
X444882Y188977D02*
D03*
X433071Y228347D02*
D03*
X437008Y220473D02*
D03*
X433071Y212598D02*
D03*
X437008Y204725D02*
D03*
X433071Y196851D02*
D03*
X437008Y188977D02*
D03*
X433071Y118110D02*
D03*
X425197Y228347D02*
D03*
X429134Y220473D02*
D03*
X425197Y212598D02*
D03*
X429134Y204725D02*
D03*
Y188977D02*
D03*
Y125984D02*
D03*
X425197Y118110D02*
D03*
X417323Y228347D02*
D03*
X421260Y220473D02*
D03*
X417323Y212598D02*
D03*
X421260Y204725D02*
D03*
X417323Y196851D02*
D03*
Y133858D02*
D03*
X421260Y125984D02*
D03*
X417323Y118110D02*
D03*
X409449Y228347D02*
D03*
X413386Y220473D02*
D03*
X409449Y212598D02*
D03*
X413386Y204725D02*
D03*
X409449Y196851D02*
D03*
X413386Y125984D02*
D03*
X409449Y118110D02*
D03*
X401575Y228347D02*
D03*
X405512Y220473D02*
D03*
X401575Y212598D02*
D03*
X405512Y204725D02*
D03*
Y125984D02*
D03*
X401575Y118110D02*
D03*
X393701Y228347D02*
D03*
X397638Y220473D02*
D03*
X393701Y212598D02*
D03*
X397638Y204725D02*
D03*
Y188977D02*
D03*
Y125984D02*
D03*
X385827Y228347D02*
D03*
X389764Y220473D02*
D03*
X385827Y212598D02*
D03*
X389764Y204725D02*
D03*
X377953Y228347D02*
D03*
X381890Y220473D02*
D03*
X377953Y212598D02*
D03*
X381890Y204725D02*
D03*
X370079Y228347D02*
D03*
X374016Y220473D02*
D03*
X370079Y212598D02*
D03*
X374016Y204725D02*
D03*
Y78740D02*
D03*
X370079Y70866D02*
D03*
X362205Y228347D02*
D03*
X366142Y220473D02*
D03*
X362205Y212598D02*
D03*
X366142Y204725D02*
D03*
X362205Y70866D02*
D03*
X354331Y228347D02*
D03*
X358268Y220473D02*
D03*
X354331Y212598D02*
D03*
X358268Y157480D02*
D03*
Y125984D02*
D03*
X354331Y118110D02*
D03*
Y102362D02*
D03*
Y86614D02*
D03*
X346457Y228347D02*
D03*
X350394Y220473D02*
D03*
X346457Y212598D02*
D03*
Y196851D02*
D03*
X350394Y188977D02*
D03*
Y141732D02*
D03*
X346457Y102362D02*
D03*
Y86614D02*
D03*
X350394Y62992D02*
D03*
X338583Y228347D02*
D03*
X342520Y220473D02*
D03*
X338583Y212598D02*
D03*
X342520Y204725D02*
D03*
X338583Y196851D02*
D03*
X342520Y188977D02*
D03*
X338583Y181103D02*
D03*
X342520Y141732D02*
D03*
X338583Y133858D02*
D03*
X342520Y94488D02*
D03*
Y62992D02*
D03*
X330709Y228347D02*
D03*
X334646Y220473D02*
D03*
X330709Y212598D02*
D03*
X334646Y204725D02*
D03*
X330709Y196851D02*
D03*
X334646Y188977D02*
D03*
X330709Y181103D02*
D03*
X334646Y173228D02*
D03*
X330709Y133858D02*
D03*
X334646Y125984D02*
D03*
X330709Y118110D02*
D03*
Y102362D02*
D03*
X322835Y228347D02*
D03*
X326772Y220473D02*
D03*
X322835Y212598D02*
D03*
X326772Y204725D02*
D03*
Y188977D02*
D03*
X322835Y181103D02*
D03*
X326772Y173228D02*
D03*
X322835Y165354D02*
D03*
X326772Y125984D02*
D03*
X322835Y118110D02*
D03*
Y102362D02*
D03*
X326772Y94488D02*
D03*
X322835Y70866D02*
D03*
X326772Y62992D02*
D03*
X314961Y228347D02*
D03*
X318898Y220473D02*
D03*
X314961Y212598D02*
D03*
X318898Y188977D02*
D03*
X314961Y181103D02*
D03*
X318898Y157480D02*
D03*
X314961Y102362D02*
D03*
X318898Y94488D02*
D03*
X307087Y228347D02*
D03*
X311024Y220473D02*
D03*
X307087Y212598D02*
D03*
X311024Y204725D02*
D03*
X307087Y196851D02*
D03*
X311024Y188977D02*
D03*
X307087Y181103D02*
D03*
X311024Y173228D02*
D03*
X307087Y165354D02*
D03*
X311024Y157480D02*
D03*
X307087Y149606D02*
D03*
X311024Y141732D02*
D03*
X307087Y133858D02*
D03*
Y86614D02*
D03*
X311024Y62992D02*
D03*
X299213Y228347D02*
D03*
X303150Y220473D02*
D03*
X299213Y212598D02*
D03*
X303150Y204725D02*
D03*
Y188977D02*
D03*
Y173228D02*
D03*
Y141732D02*
D03*
X299213Y86614D02*
D03*
X291339Y228347D02*
D03*
X295276Y220473D02*
D03*
X291339Y212598D02*
D03*
Y165354D02*
D03*
Y149606D02*
D03*
Y133858D02*
D03*
X295276Y125984D02*
D03*
X291339Y118110D02*
D03*
Y70866D02*
D03*
X283465Y228347D02*
D03*
X287402Y220473D02*
D03*
Y173228D02*
D03*
X283465Y149606D02*
D03*
X287402Y15748D02*
D03*
X275591Y149606D02*
D03*
X279528Y141732D02*
D03*
X275591Y133858D02*
D03*
X279528Y125984D02*
D03*
X275591Y118110D02*
D03*
Y70866D02*
D03*
X279528Y62992D02*
D03*
Y31496D02*
D03*
X267717Y228347D02*
D03*
X271654Y204725D02*
D03*
X267717Y181103D02*
D03*
X271654Y173228D02*
D03*
X267717Y149606D02*
D03*
X271654Y141732D02*
D03*
X267717Y133858D02*
D03*
X259843Y228347D02*
D03*
X263780Y220473D02*
D03*
X259843Y212598D02*
D03*
X263780Y204725D02*
D03*
X259843Y196851D02*
D03*
Y181103D02*
D03*
X263780Y173228D02*
D03*
Y157480D02*
D03*
X259843Y149606D02*
D03*
X263780Y141732D02*
D03*
X259843Y133858D02*
D03*
Y70866D02*
D03*
X251969Y228347D02*
D03*
X255906Y220473D02*
D03*
X251969Y212598D02*
D03*
X255906Y204725D02*
D03*
X251969Y196851D02*
D03*
X255906Y188977D02*
D03*
X251969Y181103D02*
D03*
X255906Y173228D02*
D03*
Y157480D02*
D03*
X251969Y149606D02*
D03*
X255906Y141732D02*
D03*
X251969Y118110D02*
D03*
X255906Y62992D02*
D03*
X251969Y39370D02*
D03*
X255906Y31496D02*
D03*
X244095Y228347D02*
D03*
X248032Y220473D02*
D03*
X244095Y212598D02*
D03*
X248032Y204725D02*
D03*
X244095Y181103D02*
D03*
X248032Y173228D02*
D03*
Y157480D02*
D03*
X244095Y86614D02*
D03*
Y39370D02*
D03*
X236221Y228347D02*
D03*
X240158Y220473D02*
D03*
X236221Y212598D02*
D03*
X240158Y188977D02*
D03*
Y141732D02*
D03*
Y125984D02*
D03*
Y110236D02*
D03*
Y94488D02*
D03*
X228347Y228347D02*
D03*
X232284Y220473D02*
D03*
X228347Y212598D02*
D03*
X232284Y204725D02*
D03*
X228347Y196851D02*
D03*
X232284Y188977D02*
D03*
X228347Y181103D02*
D03*
Y133858D02*
D03*
X220473Y228347D02*
D03*
X224410Y220473D02*
D03*
X220473Y212598D02*
D03*
X224410Y204725D02*
D03*
X220473Y196851D02*
D03*
X224410Y188977D02*
D03*
X220473Y181103D02*
D03*
X224410Y173228D02*
D03*
Y157480D02*
D03*
X220473Y149606D02*
D03*
X224410Y141732D02*
D03*
X220473Y133858D02*
D03*
X224410Y125984D02*
D03*
X212598Y228347D02*
D03*
X216536Y220473D02*
D03*
X212598Y212598D02*
D03*
X216536Y204725D02*
D03*
X212598Y196851D02*
D03*
X216536Y188977D02*
D03*
X212598Y181103D02*
D03*
X216536Y173228D02*
D03*
Y157480D02*
D03*
X212598Y149606D02*
D03*
X216536Y141732D02*
D03*
X212598Y133858D02*
D03*
X216536Y125984D02*
D03*
X208662Y78740D02*
D03*
X196851Y23622D02*
D03*
X192913Y15748D02*
D03*
X181103Y181103D02*
D03*
Y149606D02*
D03*
Y133858D02*
D03*
Y118110D02*
D03*
Y102362D02*
D03*
X185039Y15748D02*
D03*
X181103Y7874D02*
D03*
X173228Y181103D02*
D03*
X177165Y173228D02*
D03*
Y157480D02*
D03*
X173228Y149606D02*
D03*
X177165Y141732D02*
D03*
Y125984D02*
D03*
Y110236D02*
D03*
Y94488D02*
D03*
Y15748D02*
D03*
X173228Y7874D02*
D03*
X165354Y196851D02*
D03*
X169291Y188977D02*
D03*
X165354Y181103D02*
D03*
X169291Y173228D02*
D03*
X165354Y165354D02*
D03*
X169291Y157480D02*
D03*
X165354Y149606D02*
D03*
X169291Y141732D02*
D03*
Y15748D02*
D03*
X165354Y7874D02*
D03*
X157480Y196851D02*
D03*
X161417Y188977D02*
D03*
Y173228D02*
D03*
X157480Y165354D02*
D03*
Y149606D02*
D03*
X161417Y141732D02*
D03*
Y15748D02*
D03*
X157480Y7874D02*
D03*
X149606Y196851D02*
D03*
X153543Y188977D02*
D03*
Y173228D02*
D03*
X149606Y165354D02*
D03*
X153543Y157480D02*
D03*
X149606Y149606D02*
D03*
X153543Y141732D02*
D03*
Y47244D02*
D03*
X149606Y39370D02*
D03*
Y23622D02*
D03*
X153543Y15748D02*
D03*
X149606Y7874D02*
D03*
X141732Y196851D02*
D03*
X145669Y188977D02*
D03*
X141732Y181103D02*
D03*
Y165354D02*
D03*
X145669Y157480D02*
D03*
X141732Y149606D02*
D03*
X145669Y141732D02*
D03*
X141732Y70866D02*
D03*
X145669Y62992D02*
D03*
X141732Y55118D02*
D03*
X145669Y47244D02*
D03*
X141732Y39370D02*
D03*
Y23622D02*
D03*
X145669Y15748D02*
D03*
X141732Y7874D02*
D03*
X133858Y196851D02*
D03*
X137795Y188977D02*
D03*
X133858Y181103D02*
D03*
Y165354D02*
D03*
Y149606D02*
D03*
Y39370D02*
D03*
Y23622D02*
D03*
X137795Y15748D02*
D03*
X133858Y7874D02*
D03*
X125984Y196851D02*
D03*
X129921Y188977D02*
D03*
Y173228D02*
D03*
X125984Y165354D02*
D03*
X129921Y157480D02*
D03*
X125984Y149606D02*
D03*
X129921Y141732D02*
D03*
X125984Y23622D02*
D03*
Y7874D02*
D03*
X118110Y196851D02*
D03*
X122047Y188977D02*
D03*
Y173228D02*
D03*
X118110Y165354D02*
D03*
X122047Y157480D02*
D03*
X118110Y149606D02*
D03*
X122047Y141732D02*
D03*
X118110Y23622D02*
D03*
Y7874D02*
D03*
X110236Y196851D02*
D03*
X114173Y188977D02*
D03*
X110236Y181103D02*
D03*
X114173Y173228D02*
D03*
X110236Y165354D02*
D03*
X114173Y157480D02*
D03*
X110236Y149606D02*
D03*
X114173Y141732D02*
D03*
X110236Y23622D02*
D03*
Y7874D02*
D03*
X102362Y196851D02*
D03*
X106299Y188977D02*
D03*
X102362Y181103D02*
D03*
X106299Y173228D02*
D03*
X102362Y165354D02*
D03*
X106299Y157480D02*
D03*
X102362Y149606D02*
D03*
X106299Y141732D02*
D03*
X102362Y39370D02*
D03*
X94488Y181103D02*
D03*
X98425Y173228D02*
D03*
Y157480D02*
D03*
X94488Y149606D02*
D03*
Y55118D02*
D03*
Y39370D02*
D03*
X86614Y196851D02*
D03*
X90551Y188977D02*
D03*
X86614Y181103D02*
D03*
X90551Y173228D02*
D03*
X86614Y149606D02*
D03*
Y133858D02*
D03*
X78740Y196851D02*
D03*
X82677Y188977D02*
D03*
X78740Y181103D02*
D03*
X82677Y173228D02*
D03*
Y157480D02*
D03*
X78740Y149606D02*
D03*
Y133858D02*
D03*
X70866Y196851D02*
D03*
X74803Y188977D02*
D03*
X70866Y181103D02*
D03*
X74803Y173228D02*
D03*
X62992Y181103D02*
D03*
X66929Y173228D02*
D03*
X55118Y196851D02*
D03*
Y181103D02*
D03*
X59055Y173228D02*
D03*
X51181Y188977D02*
D03*
X39370Y70866D02*
D03*
D86*
X261811Y96457D02*
D03*
X257874Y101575D02*
D03*
X261811Y106693D02*
D03*
X387402Y160236D02*
D03*
X528740Y72047D02*
D03*
X474409Y119685D02*
D03*
X382677Y110630D02*
D03*
X418504Y162992D02*
D03*
X214961D02*
D03*
X366929Y91870D02*
D03*
X529528Y59842D02*
D03*
X196850Y81496D02*
D03*
X119685Y116929D02*
D03*
X277559Y113779D02*
D03*
X261811Y121653D02*
D03*
X287402Y162992D02*
D03*
X366535Y114567D02*
D03*
X276449Y80655D02*
D03*
X116535Y46457D02*
D03*
X13386Y138189D02*
D03*
X24409Y108268D02*
D03*
X466929Y124409D02*
D03*
Y176772D02*
D03*
X163386Y38976D02*
D03*
X57874Y106299D02*
D03*
X17323Y117717D02*
D03*
X296417Y157283D02*
D03*
M02*
