G04*
G04 #@! TF.GenerationSoftware,Altium Limited,Altium Designer,18.1.11 (251)*
G04*
G04 Layer_Color=32896*
%FSLAX25Y25*%
%MOIN*%
G70*
G01*
G75*
%ADD10C,0.00984*%
%ADD11C,0.02362*%
%ADD12C,0.00787*%
%ADD17C,0.07874*%
D10*
X523331Y100598D02*
G03*
X523331Y100598I-492J0D01*
G01*
D11*
X528547Y92429D02*
G03*
X528547Y92429I-1181J0D01*
G01*
D12*
X535634Y87311D02*
Y96366D01*
X523429Y87311D02*
Y96366D01*
Y87311D02*
X535634D01*
X523429Y96366D02*
X535634D01*
X528638Y111102D02*
X529425D01*
X528638Y106575D02*
X529425D01*
X528638Y118602D02*
X529425D01*
X528638Y114075D02*
X529425D01*
X512992Y101870D02*
X513779D01*
X512992Y97342D02*
X513779D01*
X515681Y111102D02*
X516468D01*
X515681Y106575D02*
X516468D01*
X515638Y118602D02*
X516425D01*
X515638Y114075D02*
X516425D01*
X542913Y97342D02*
X543701D01*
X542913Y101870D02*
X543701D01*
X542913Y89862D02*
X543701D01*
X542913Y94390D02*
X543701D01*
X11154Y232677D02*
Y229397D01*
X10498Y228741D01*
X9186D01*
X8530Y229397D01*
Y232677D01*
X7218Y229397D02*
X6562Y228741D01*
X5250D01*
X4594Y229397D01*
Y232021D01*
X5250Y232677D01*
X6562D01*
X7218Y232021D01*
Y231365D01*
X6562Y230709D01*
X4594D01*
X54067Y220078D02*
Y216798D01*
X53411Y216142D01*
X52099D01*
X51443Y216798D01*
Y220078D01*
X50131Y219422D02*
X49475Y220078D01*
X48164D01*
X47508Y219422D01*
Y218766D01*
X48164Y218110D01*
X48820D01*
X48164D01*
X47508Y217454D01*
Y216798D01*
X48164Y216142D01*
X49475D01*
X50131Y216798D01*
X545864Y105906D02*
Y109842D01*
X543897D01*
X543241Y109186D01*
Y107874D01*
X543897Y107218D01*
X545864D01*
X544553D02*
X543241Y105906D01*
X541929D02*
X540617D01*
X541273D01*
Y109842D01*
X541929Y109186D01*
X538649Y109842D02*
X536025D01*
Y109186D01*
X538649Y106562D01*
Y105906D01*
X545864Y114174D02*
Y118110D01*
X543897D01*
X543241Y117454D01*
Y116142D01*
X543897Y115486D01*
X545864D01*
X544553D02*
X543241Y114174D01*
X541929D02*
X540617D01*
X541273D01*
Y118110D01*
X541929Y117454D01*
X536025Y118110D02*
X537337Y117454D01*
X538649Y116142D01*
Y114830D01*
X537993Y114174D01*
X536681D01*
X536025Y114830D01*
Y115486D01*
X536681Y116142D01*
X538649D01*
X516930Y93569D02*
X520210D01*
X520865Y92913D01*
Y91601D01*
X520210Y90945D01*
X516930D01*
X520865Y89633D02*
Y88321D01*
Y88977D01*
X516930D01*
X517586Y89633D01*
X505707Y97638D02*
Y101574D01*
X503739D01*
X503083Y100918D01*
Y99606D01*
X503739Y98950D01*
X505707D01*
X504395D02*
X503083Y97638D01*
X501771D02*
X500459D01*
X501115D01*
Y101574D01*
X501771Y100918D01*
X495868Y101574D02*
X498492D01*
Y99606D01*
X497180Y100262D01*
X496524D01*
X495868Y99606D01*
Y98294D01*
X496524Y97638D01*
X497836D01*
X498492Y98294D01*
X503345Y106693D02*
Y110629D01*
X501377D01*
X500721Y109973D01*
Y108661D01*
X501377Y108005D01*
X503345D01*
X502033D02*
X500721Y106693D01*
X499409D02*
X498097D01*
X498753D01*
Y110629D01*
X499409Y109973D01*
X494162Y106693D02*
Y110629D01*
X496129Y108661D01*
X493505D01*
X502492Y114174D02*
Y118110D01*
X500525D01*
X499869Y117454D01*
Y116142D01*
X500525Y115486D01*
X502492D01*
X501181D02*
X499869Y114174D01*
X495933Y118110D02*
X498557D01*
Y116142D01*
X497245Y116798D01*
X496589D01*
X495933Y116142D01*
Y114830D01*
X496589Y114174D01*
X497901D01*
X498557Y114830D01*
X556823Y97638D02*
Y101574D01*
X554855D01*
X554199Y100918D01*
Y99606D01*
X554855Y98950D01*
X556823D01*
X555511D02*
X554199Y97638D01*
X550919D02*
Y101574D01*
X552887Y99606D01*
X550264D01*
X562729Y90158D02*
Y94094D01*
X560761D01*
X560105Y93438D01*
Y92126D01*
X560761Y91470D01*
X562729D01*
X561417D02*
X560105Y90158D01*
X558793Y93438D02*
X558137Y94094D01*
X556825D01*
X556169Y93438D01*
Y92782D01*
X556825Y92126D01*
X557481D01*
X556825D01*
X556169Y91470D01*
Y90814D01*
X556825Y90158D01*
X558137D01*
X558793Y90814D01*
X544357Y80971D02*
X543701Y81627D01*
Y82939D01*
X544357Y83595D01*
X546981D01*
X547637Y82939D01*
Y81627D01*
X546981Y80971D01*
X547637Y77691D02*
X543701D01*
X545669Y79659D01*
Y77035D01*
D17*
X39370Y7874D02*
Y228346D01*
Y7874D02*
X511811D01*
Y228346D01*
X39370D02*
X511811D01*
M02*
