G04*
G04 #@! TF.GenerationSoftware,Altium Limited,Altium Designer,18.1.11 (251)*
G04*
G04 Layer_Physical_Order=2*
G04 Layer_Color=16711680*
%FSLAX25Y25*%
%MOIN*%
G70*
G01*
G75*
%ADD15C,0.01968*%
%ADD18C,0.01181*%
%ADD31R,0.03937X0.05315*%
%ADD43R,0.05709X0.05118*%
%ADD87C,0.03937*%
%ADD88C,0.23622*%
%ADD89C,0.19685*%
%ADD90C,0.11811*%
%ADD91C,0.07874*%
%ADD92C,0.06693*%
%ADD93C,0.12205*%
%ADD94C,0.09843*%
%ADD95C,0.21654*%
%ADD96C,0.13780*%
%ADD97C,0.02165*%
%ADD98C,0.05000*%
%ADD99O,0.01181X0.05315*%
G36*
X551181Y183480D02*
X551181Y183480D01*
X496983D01*
X496983Y183480D01*
X496676Y183419D01*
X496416Y183245D01*
X496242Y182984D01*
X496172Y182817D01*
X495202Y181234D01*
X493996Y179822D01*
X492585Y178617D01*
X491002Y177647D01*
X489286Y176936D01*
X487481Y176503D01*
X485630Y176357D01*
X483779Y176503D01*
X481974Y176936D01*
X480258Y177647D01*
X478675Y178617D01*
X477263Y179823D01*
X476058Y181234D01*
X475087Y182817D01*
X475018Y182984D01*
X475018Y182984D01*
X474844Y183245D01*
X474584Y183419D01*
X474277Y183480D01*
X427221D01*
X426941Y183599D01*
X426524Y184604D01*
X425862Y185468D01*
X424998Y186131D01*
X423992Y186547D01*
X422913Y186689D01*
X421834Y186547D01*
X420829Y186131D01*
X419965Y185468D01*
X419303Y184604D01*
X418886Y183599D01*
X418606Y183480D01*
X417221D01*
X416941Y183599D01*
X416524Y184604D01*
X415862Y185468D01*
X414998Y186131D01*
X413993Y186547D01*
X412913Y186689D01*
X411834Y186547D01*
X410829Y186131D01*
X409965Y185468D01*
X409303Y184604D01*
X408886Y183599D01*
X408606Y183480D01*
X407221D01*
X406941Y183599D01*
X406524Y184604D01*
X405862Y185468D01*
X404998Y186131D01*
X403993Y186547D01*
X402913Y186689D01*
X401834Y186547D01*
X400829Y186131D01*
X399965Y185468D01*
X399303Y184604D01*
X398886Y183599D01*
X398606Y183480D01*
X397221D01*
X396941Y183599D01*
X396524Y184604D01*
X395862Y185468D01*
X394998Y186131D01*
X393992Y186547D01*
X392913Y186689D01*
X391834Y186547D01*
X390829Y186131D01*
X389965Y185468D01*
X389302Y184604D01*
X388886Y183599D01*
X388606Y183480D01*
X387221D01*
X386941Y183599D01*
X386524Y184604D01*
X385862Y185468D01*
X384998Y186131D01*
X383993Y186547D01*
X382913Y186689D01*
X381834Y186547D01*
X380829Y186131D01*
X379965Y185468D01*
X379303Y184604D01*
X378886Y183599D01*
X378606Y183480D01*
X361811D01*
X361504Y183419D01*
X361243Y183245D01*
X361069Y182984D01*
X361008Y182677D01*
Y116373D01*
X316890D01*
X298224Y135040D01*
Y154526D01*
X298762Y154939D01*
X299289Y155626D01*
X299620Y156425D01*
X299733Y157283D01*
X299620Y158142D01*
X299289Y158941D01*
X298762Y159628D01*
X298075Y160155D01*
X297275Y160486D01*
X296417Y160599D01*
X295559Y160486D01*
X294759Y160155D01*
X294073Y159628D01*
X293546Y158941D01*
X293215Y158142D01*
X293102Y157283D01*
X293215Y156425D01*
X293546Y155626D01*
X294073Y154939D01*
X294611Y154526D01*
Y134291D01*
X294748Y133600D01*
X295140Y133014D01*
X314864Y113290D01*
X315451Y112898D01*
X316142Y112761D01*
X361008D01*
Y86221D01*
X361069Y85913D01*
X361243Y85653D01*
X361504Y85479D01*
X361811Y85418D01*
X393701D01*
X394008Y85479D01*
X394268Y85653D01*
X394443Y85913D01*
X394504Y86221D01*
Y150378D01*
X453422Y150378D01*
X453922Y150378D01*
Y103937D01*
X453983Y103630D01*
X454157Y103369D01*
X454157Y103369D01*
X478907Y78619D01*
X478907Y59757D01*
X478923Y59680D01*
Y59600D01*
X478953Y59527D01*
X478968Y59450D01*
X479012Y59384D01*
X479042Y59311D01*
X479047Y59013D01*
X479010Y58843D01*
X478975Y58751D01*
X478956Y58717D01*
X478202Y58255D01*
X476694Y56968D01*
X475406Y55460D01*
X474370Y53769D01*
X473611Y51937D01*
X473148Y50008D01*
X472993Y48031D01*
X473148Y46055D01*
X473611Y44126D01*
X474370Y42294D01*
X475406Y40603D01*
X476694Y39096D01*
X478202Y37808D01*
X479893Y36772D01*
X481725Y36013D01*
X483653Y35550D01*
X485630Y35394D01*
X487607Y35550D01*
X489535Y36013D01*
X491367Y36772D01*
X493058Y37808D01*
X494566Y39096D01*
X495854Y40603D01*
X496890Y42294D01*
X497649Y44126D01*
X498112Y46055D01*
X498267Y48031D01*
X498112Y50008D01*
X497649Y51937D01*
X497488Y52325D01*
X497766Y52741D01*
X500564D01*
Y25779D01*
X481702Y6917D01*
X427645D01*
X427585Y7417D01*
X427616Y7424D01*
X429305Y8124D01*
X430864Y9079D01*
X432254Y10266D01*
X433441Y11656D01*
X434396Y13215D01*
X435096Y14904D01*
X435522Y16681D01*
X435666Y18504D01*
X435522Y20326D01*
X435096Y22104D01*
X434396Y23793D01*
X433441Y25352D01*
X432254Y26742D01*
X430864Y27929D01*
X429305Y28884D01*
X427616Y29584D01*
X425838Y30011D01*
X424016Y30154D01*
X422193Y30011D01*
X420416Y29584D01*
X418727Y28884D01*
X417168Y27929D01*
X415778Y26742D01*
X414591Y25352D01*
X413635Y23793D01*
X412936Y22104D01*
X412509Y20326D01*
X412366Y18504D01*
X412509Y16681D01*
X412936Y14904D01*
X413635Y13215D01*
X414591Y11656D01*
X415778Y10266D01*
X417168Y9079D01*
X418727Y8124D01*
X420416Y7424D01*
X420446Y7417D01*
X420387Y6917D01*
X394771D01*
X394711Y7417D01*
X394742Y7424D01*
X396431Y8124D01*
X397990Y9079D01*
X399380Y10266D01*
X400567Y11656D01*
X401522Y13215D01*
X402222Y14904D01*
X402648Y16681D01*
X402792Y18504D01*
X402648Y20326D01*
X402222Y22104D01*
X401522Y23793D01*
X400567Y25352D01*
X399380Y26742D01*
X397990Y27929D01*
X396431Y28884D01*
X394742Y29584D01*
X392964Y30011D01*
X391142Y30154D01*
X389319Y30011D01*
X387542Y29584D01*
X385853Y28884D01*
X384294Y27929D01*
X382904Y26742D01*
X381717Y25352D01*
X380761Y23793D01*
X380062Y22104D01*
X379635Y20326D01*
X379492Y18504D01*
X379635Y16681D01*
X380062Y14904D01*
X380761Y13215D01*
X381717Y11656D01*
X382904Y10266D01*
X384294Y9079D01*
X385853Y8124D01*
X387542Y7424D01*
X387572Y7417D01*
X387513Y6917D01*
X376000D01*
Y58268D01*
X375939Y58575D01*
X375764Y58835D01*
X375504Y59009D01*
X375197Y59071D01*
X335851D01*
Y72047D01*
X335756Y72767D01*
X335478Y73437D01*
X335036Y74013D01*
X326428Y82621D01*
X325852Y83063D01*
X325182Y83340D01*
X324463Y83435D01*
X278226D01*
X278107Y83527D01*
X277307Y83858D01*
X276449Y83971D01*
X275590Y83858D01*
X274791Y83527D01*
X274104Y83000D01*
X273577Y82313D01*
X273246Y81514D01*
X273133Y80655D01*
X273246Y79797D01*
X273577Y78998D01*
X274104Y78311D01*
X274791Y77784D01*
X275590Y77453D01*
X276449Y77340D01*
X277307Y77453D01*
X278107Y77784D01*
X278226Y77876D01*
X323311D01*
X330291Y70896D01*
Y59071D01*
X292913D01*
X292606Y59009D01*
X292346Y58835D01*
X292172Y58575D01*
X292111Y58268D01*
Y6917D01*
X273005D01*
X272520Y7401D01*
X272774Y7854D01*
X273922Y7579D01*
X275590Y7447D01*
X277259Y7579D01*
X278886Y7969D01*
X280431Y8610D01*
X281858Y9484D01*
X283130Y10571D01*
X284217Y11843D01*
X285091Y13269D01*
X285732Y14815D01*
X286122Y16442D01*
X286253Y18110D01*
X286122Y19778D01*
X285732Y21405D01*
X285091Y22951D01*
X284217Y24378D01*
X283130Y25650D01*
X281858Y26737D01*
X280431Y27611D01*
X278886Y28251D01*
X277259Y28642D01*
X275590Y28773D01*
X273922Y28642D01*
X272296Y28251D01*
X270750Y27611D01*
X269323Y26737D01*
X268051Y25650D01*
X266964Y24378D01*
X266090Y22951D01*
X265450Y21405D01*
X265059Y19778D01*
X264928Y18110D01*
X265059Y16442D01*
X265335Y15294D01*
X264881Y15040D01*
X262822Y17099D01*
Y23828D01*
X270678Y31684D01*
X270983Y32140D01*
X271090Y32677D01*
Y98819D01*
X270983Y99357D01*
X270678Y99812D01*
X264909Y105582D01*
X265014Y105835D01*
X265127Y106693D01*
X265014Y107551D01*
X264683Y108351D01*
X264156Y109037D01*
X263469Y109564D01*
X262669Y109896D01*
X261811Y110009D01*
X260953Y109896D01*
X260153Y109564D01*
X259466Y109037D01*
X258940Y108351D01*
X258608Y107551D01*
X258495Y106693D01*
X258608Y105835D01*
X258855Y105240D01*
X258515Y104806D01*
X257874Y104890D01*
X257015Y104777D01*
X256216Y104446D01*
X255529Y103919D01*
X255002Y103233D01*
X254671Y102433D01*
X254558Y101575D01*
X254671Y100716D01*
X255002Y99917D01*
X255529Y99230D01*
X255894Y98949D01*
X255753Y98427D01*
X255553Y98402D01*
X253767Y100188D01*
Y111623D01*
X260700Y118555D01*
X260953Y118451D01*
X261811Y118338D01*
X262669Y118451D01*
X263469Y118782D01*
X264156Y119309D01*
X264683Y119996D01*
X265014Y120795D01*
X265127Y121653D01*
X265014Y122512D01*
X264683Y123311D01*
X264156Y123998D01*
X263469Y124525D01*
X262669Y124856D01*
X261811Y124969D01*
X260953Y124856D01*
X260153Y124525D01*
X259466Y123998D01*
X258940Y123311D01*
X258608Y122512D01*
X258495Y121653D01*
X258608Y120795D01*
X258713Y120542D01*
X251369Y113198D01*
X251064Y112742D01*
X250957Y112205D01*
Y99606D01*
X251064Y99069D01*
X251369Y98613D01*
X254125Y95857D01*
X254580Y95552D01*
X255118Y95445D01*
X258672D01*
X258940Y94799D01*
X259466Y94112D01*
X260153Y93585D01*
X260953Y93254D01*
X261811Y93141D01*
X262669Y93254D01*
X262922Y93359D01*
X264343Y91938D01*
Y34834D01*
X256487Y26978D01*
X256182Y26522D01*
X256075Y25984D01*
Y24499D01*
X255613Y24308D01*
X238976Y40945D01*
Y86614D01*
X227953Y97638D01*
X227953Y121390D01*
X208230Y121148D01*
X207874Y121500D01*
X207874Y236221D01*
X551181D01*
Y183480D01*
D02*
G37*
G36*
X551181Y79921D02*
X542618D01*
Y80118D01*
X536811D01*
X532905Y84024D01*
Y85146D01*
X532798Y85683D01*
X532493Y86139D01*
X532038Y86444D01*
X531500Y86551D01*
X530962Y86444D01*
X530677Y86253D01*
X529134Y87795D01*
X509449Y87795D01*
Y103352D01*
X509647Y103515D01*
X511427D01*
X512375Y102568D01*
Y96460D01*
X512481Y95922D01*
X512786Y95466D01*
X515939Y92314D01*
X516394Y92009D01*
X516932Y91902D01*
X529535D01*
X530073Y92009D01*
X530529Y92314D01*
X531500Y93285D01*
X533652Y91132D01*
X534108Y90828D01*
X534646Y90721D01*
X537008D01*
Y88681D01*
X542520D01*
Y95571D01*
X542520D01*
Y96161D01*
X542520D01*
Y103051D01*
X541169D01*
Y130709D01*
X541062Y131246D01*
X540757Y131702D01*
X508474Y163986D01*
X508018Y164290D01*
X507480Y164397D01*
X421480D01*
X421376Y164650D01*
X420849Y165337D01*
X420162Y165864D01*
X419362Y166195D01*
X418504Y166308D01*
X417646Y166195D01*
X416846Y165864D01*
X416159Y165337D01*
X415632Y164650D01*
X415301Y163850D01*
X415188Y162992D01*
X415301Y162134D01*
X415632Y161334D01*
X416159Y160647D01*
X416846Y160121D01*
X417646Y159789D01*
X418504Y159676D01*
X419362Y159789D01*
X420162Y160121D01*
X420849Y160647D01*
X421376Y161334D01*
X421480Y161587D01*
X506898D01*
X538359Y130127D01*
Y118566D01*
X537571Y118145D01*
X537344Y118297D01*
X536614Y118442D01*
X536118Y118343D01*
X535488Y118711D01*
X535331Y118874D01*
Y119783D01*
X529819D01*
Y114419D01*
X529032Y114093D01*
X528244Y114881D01*
Y119783D01*
X522732D01*
Y119783D01*
X522331D01*
Y119783D01*
X516819D01*
Y113053D01*
X516819Y112894D01*
X516819D01*
X516862Y112283D01*
X516862D01*
Y105394D01*
X522374D01*
Y105394D01*
X522732D01*
Y105394D01*
X524190D01*
Y102665D01*
Y98532D01*
X524244Y98255D01*
X523854Y97603D01*
X523701Y97468D01*
X520365D01*
X519685Y98148D01*
Y103051D01*
X515184D01*
Y103150D01*
X515077Y103687D01*
X514773Y104143D01*
X513003Y105913D01*
X512547Y106218D01*
X512009Y106325D01*
X510229D01*
X509673Y106881D01*
Y125984D01*
X509566Y126522D01*
X509449Y126697D01*
Y151181D01*
X504713D01*
X504365Y151887D01*
X504398Y151931D01*
X504815Y152937D01*
X504957Y154016D01*
X504815Y155095D01*
X504398Y156100D01*
X503736Y156964D01*
X502872Y157627D01*
X501867Y158043D01*
X500787Y158185D01*
X499708Y158043D01*
X498703Y157627D01*
X497839Y156964D01*
X497177Y156100D01*
X496760Y155095D01*
X496618Y154016D01*
X496760Y152937D01*
X497177Y151931D01*
X497210Y151887D01*
X496862Y151181D01*
X491535D01*
X491222Y151768D01*
X490385Y152787D01*
X489366Y153623D01*
X488204Y154245D01*
X486942Y154628D01*
X485630Y154757D01*
X484318Y154628D01*
X483056Y154245D01*
X481893Y153623D01*
X480874Y152787D01*
X480038Y151768D01*
X479724Y151181D01*
X393701Y151181D01*
Y86221D01*
X361811D01*
Y112761D01*
X363778D01*
X364191Y112222D01*
X364878Y111695D01*
X365677Y111364D01*
X366535Y111251D01*
X367394Y111364D01*
X368193Y111695D01*
X368880Y112222D01*
X369293Y112761D01*
X377992D01*
X379450Y111303D01*
X379361Y110630D01*
X379474Y109772D01*
X379806Y108972D01*
X380333Y108285D01*
X381019Y107758D01*
X381819Y107427D01*
X382677Y107314D01*
X383535Y107427D01*
X384335Y107758D01*
X385022Y108285D01*
X385549Y108972D01*
X385880Y109772D01*
X385993Y110630D01*
X385880Y111488D01*
X385549Y112288D01*
X385022Y112975D01*
X384335Y113502D01*
X383535Y113833D01*
X382677Y113946D01*
X382004Y113857D01*
X380017Y115844D01*
X379431Y116236D01*
X378740Y116373D01*
X369293D01*
X368880Y116911D01*
X368193Y117438D01*
X367394Y117770D01*
X366535Y117883D01*
X365677Y117770D01*
X364878Y117438D01*
X364191Y116911D01*
X363778Y116373D01*
X361811D01*
Y182677D01*
X378606D01*
X378744Y182520D01*
X378886Y181440D01*
X379303Y180435D01*
X379965Y179571D01*
X380829Y178909D01*
X381834Y178492D01*
X382913Y178350D01*
X383993Y178492D01*
X384998Y178909D01*
X385862Y179571D01*
X386524Y180435D01*
X386941Y181440D01*
X387083Y182520D01*
X387221Y182677D01*
X388606D01*
X388744Y182520D01*
X388886Y181440D01*
X389302Y180435D01*
X389965Y179571D01*
X390829Y178909D01*
X391834Y178492D01*
X392913Y178350D01*
X393992Y178492D01*
X394998Y178909D01*
X395862Y179571D01*
X396524Y180435D01*
X396941Y181440D01*
X397083Y182520D01*
X397221Y182677D01*
X398606D01*
X398744Y182520D01*
X398886Y181440D01*
X399303Y180435D01*
X399965Y179571D01*
X400829Y178909D01*
X401834Y178492D01*
X402913Y178350D01*
X403993Y178492D01*
X404998Y178909D01*
X405862Y179571D01*
X406524Y180435D01*
X406941Y181440D01*
X407083Y182520D01*
X407221Y182677D01*
X408606D01*
X408744Y182520D01*
X408886Y181440D01*
X409303Y180435D01*
X409965Y179571D01*
X410829Y178909D01*
X411834Y178492D01*
X412913Y178350D01*
X413993Y178492D01*
X414998Y178909D01*
X415862Y179571D01*
X416524Y180435D01*
X416941Y181440D01*
X417083Y182520D01*
X417221Y182677D01*
X418606D01*
X418744Y182520D01*
X418886Y181440D01*
X419303Y180435D01*
X419965Y179571D01*
X420829Y178909D01*
X421834Y178492D01*
X422913Y178350D01*
X423992Y178492D01*
X424998Y178909D01*
X425862Y179571D01*
X426524Y180435D01*
X426941Y181440D01*
X427083Y182520D01*
X427221Y182677D01*
X474277D01*
X474370Y182452D01*
X475406Y180761D01*
X476694Y179253D01*
X478202Y177965D01*
X479893Y176929D01*
X481725Y176170D01*
X483653Y175707D01*
X485630Y175552D01*
X487607Y175707D01*
X489535Y176170D01*
X491367Y176929D01*
X493058Y177965D01*
X494566Y179253D01*
X495854Y180761D01*
X496890Y182452D01*
X496983Y182677D01*
X551181D01*
X551181Y79921D01*
D02*
G37*
G36*
X501657Y157261D02*
X502467Y156925D01*
X503163Y156392D01*
X503697Y155696D01*
X504033Y154885D01*
X504147Y154016D01*
X504033Y153146D01*
X503657Y152238D01*
X503656Y152234D01*
X503605Y152145D01*
X503601Y152119D01*
X503589Y152095D01*
X503581Y151964D01*
X503564Y151835D01*
X503217Y151592D01*
X503163Y151563D01*
X503115Y151540D01*
X503063Y151529D01*
X502976Y151471D01*
X502882Y151424D01*
X502467Y151106D01*
X501657Y150770D01*
X500787Y150656D01*
X499918Y150770D01*
X499108Y151106D01*
X498693Y151424D01*
X498599Y151471D01*
X498511Y151529D01*
X498459Y151540D01*
X498412Y151563D01*
X498358Y151592D01*
X498011Y151835D01*
X497994Y151964D01*
X497986Y152095D01*
X497974Y152119D01*
X497970Y152145D01*
X497919Y152234D01*
X497918Y152238D01*
X497542Y153146D01*
X497428Y154016D01*
X497542Y154885D01*
X497878Y155696D01*
X498412Y156392D01*
X499108Y156925D01*
X499918Y157261D01*
X500787Y157376D01*
X501657Y157261D01*
D02*
G37*
G36*
X504073Y150722D02*
X504145Y150613D01*
X504168Y150599D01*
X504184Y150577D01*
X504297Y150512D01*
X504406Y150439D01*
X504432Y150434D01*
X504455Y150421D01*
X504585Y150404D01*
X504713Y150378D01*
X507087D01*
Y129806D01*
X506625Y129614D01*
X506112Y130127D01*
X505656Y130432D01*
X505118Y130539D01*
X503825D01*
X503664Y131012D01*
X503736Y131068D01*
X504398Y131931D01*
X504815Y132937D01*
X504957Y134016D01*
X504815Y135095D01*
X504398Y136100D01*
X503736Y136964D01*
X502872Y137627D01*
X501867Y138043D01*
X500787Y138185D01*
X499708Y138043D01*
X498703Y137627D01*
X497839Y136964D01*
X497177Y136100D01*
X496760Y135095D01*
X496618Y134016D01*
X496760Y132937D01*
X497177Y131931D01*
X497839Y131068D01*
X497911Y131012D01*
X497750Y130539D01*
X483858D01*
X483321Y130432D01*
X482865Y130127D01*
X475521Y122783D01*
X475268Y122888D01*
X474409Y123001D01*
X473551Y122888D01*
X472752Y122557D01*
X472065Y122030D01*
X471538Y121343D01*
X471207Y120543D01*
X471094Y119685D01*
X471207Y118827D01*
X471538Y118027D01*
X472065Y117340D01*
X472752Y116814D01*
X473551Y116482D01*
X474409Y116369D01*
X475268Y116482D01*
X476067Y116814D01*
X476754Y117340D01*
X477281Y118027D01*
X477612Y118827D01*
X477725Y119685D01*
X477612Y120543D01*
X477507Y120796D01*
X484440Y127729D01*
X498014D01*
X498184Y127229D01*
X497839Y126964D01*
X497177Y126101D01*
X496760Y125095D01*
X496618Y124016D01*
X496760Y122937D01*
X497177Y121931D01*
X497839Y121068D01*
X498703Y120405D01*
X499708Y119988D01*
X500787Y119846D01*
X501867Y119988D01*
X502872Y120405D01*
X503736Y121068D01*
X504398Y121931D01*
X504815Y122937D01*
X504957Y124016D01*
X504815Y125095D01*
X504398Y126101D01*
X503736Y126964D01*
X503391Y127229D01*
X503560Y127729D01*
X504536D01*
X506863Y125402D01*
Y106299D01*
X506970Y105762D01*
X507087Y105587D01*
Y90158D01*
X508646D01*
Y87795D01*
X508707Y87488D01*
X508881Y87228D01*
X509142Y87054D01*
X509449Y86992D01*
X525253Y86992D01*
X525302Y86492D01*
X525057Y86444D01*
X524601Y86139D01*
X524297Y85683D01*
X524190Y85146D01*
Y81012D01*
Y75193D01*
X524297Y74655D01*
X524601Y74199D01*
X525642Y73158D01*
X525537Y72905D01*
X525424Y72047D01*
X525537Y71189D01*
X525869Y70389D01*
X526396Y69703D01*
X527082Y69176D01*
X527882Y68844D01*
X528740Y68731D01*
X529598Y68844D01*
X530398Y69176D01*
X531085Y69703D01*
X531612Y70389D01*
X531943Y71189D01*
X532056Y72047D01*
X531943Y72905D01*
X531612Y73705D01*
X531085Y74392D01*
X530398Y74919D01*
X529598Y75250D01*
X528740Y75363D01*
X527882Y75250D01*
X527629Y75145D01*
X526999Y75775D01*
Y83079D01*
Y85146D01*
X526893Y85683D01*
X526588Y86139D01*
X526132Y86444D01*
X525887Y86492D01*
X525936Y86992D01*
X528801D01*
X530109Y85685D01*
X530174Y85641D01*
X530190Y85625D01*
X530095Y85146D01*
Y80475D01*
X530202Y79937D01*
X530507Y79481D01*
X533858Y76130D01*
X533858Y53543D01*
X509718D01*
Y76490D01*
X509611Y77028D01*
X509306Y77484D01*
X504533Y82257D01*
X504815Y82937D01*
X504957Y84016D01*
X504815Y85095D01*
X504398Y86101D01*
X503736Y86964D01*
X502872Y87627D01*
X501867Y88043D01*
X500787Y88185D01*
X499708Y88043D01*
X498703Y87627D01*
X498165Y87214D01*
X497665Y87461D01*
Y90571D01*
X498165Y90817D01*
X498703Y90405D01*
X499708Y89988D01*
X500787Y89846D01*
X501867Y89988D01*
X502872Y90405D01*
X503736Y91067D01*
X504398Y91931D01*
X504815Y92937D01*
X504957Y94016D01*
X504815Y95095D01*
X504398Y96100D01*
X503736Y96964D01*
X502872Y97627D01*
X501867Y98043D01*
X500787Y98185D01*
X499708Y98043D01*
X498703Y97627D01*
X498165Y97214D01*
X497665Y97461D01*
Y98906D01*
X499028Y100270D01*
X499708Y99988D01*
X500787Y99846D01*
X501867Y99988D01*
X502872Y100405D01*
X503736Y101067D01*
X504398Y101931D01*
X504815Y102937D01*
X504957Y104016D01*
X504815Y105095D01*
X504398Y106100D01*
X503736Y106964D01*
X502872Y107627D01*
X501867Y108043D01*
X500787Y108185D01*
X499708Y108043D01*
X498703Y107627D01*
X497839Y106964D01*
X497177Y106100D01*
X496760Y105095D01*
X496618Y104016D01*
X496760Y102937D01*
X497042Y102257D01*
X496355Y101570D01*
X495893Y101762D01*
Y107135D01*
X499028Y110270D01*
X499708Y109988D01*
X500787Y109846D01*
X501867Y109988D01*
X502872Y110405D01*
X503736Y111067D01*
X504398Y111931D01*
X504815Y112937D01*
X504957Y114016D01*
X504815Y115095D01*
X504398Y116101D01*
X503736Y116964D01*
X502872Y117627D01*
X501867Y118043D01*
X500787Y118185D01*
X499708Y118043D01*
X498703Y117627D01*
X497839Y116964D01*
X497177Y116101D01*
X496760Y115095D01*
X496618Y114016D01*
X496760Y112937D01*
X497042Y112257D01*
X493495Y108710D01*
X493190Y108254D01*
X493083Y107717D01*
Y80709D01*
X493190Y80171D01*
X493495Y79715D01*
X500564Y72646D01*
Y53543D01*
X496983D01*
X496890Y53769D01*
X495854Y55460D01*
X494566Y56968D01*
X493058Y58255D01*
X491367Y59291D01*
X489535Y60050D01*
X487607Y60513D01*
X485630Y60669D01*
X483653Y60513D01*
X481725Y60050D01*
X480210Y59423D01*
X479710Y59757D01*
X479710Y78951D01*
X454724Y103937D01*
Y150378D01*
X478928D01*
X479226Y149977D01*
X479034Y149344D01*
X478905Y148031D01*
X479034Y146720D01*
X479417Y145458D01*
X480038Y144295D01*
X480874Y143276D01*
X481893Y142440D01*
X483056Y141818D01*
X484318Y141435D01*
X485630Y141306D01*
X486942Y141435D01*
X488204Y141818D01*
X489366Y142440D01*
X490385Y143276D01*
X491222Y144295D01*
X491843Y145458D01*
X492226Y146720D01*
X492355Y148031D01*
X492226Y149344D01*
X492034Y149977D01*
X492332Y150378D01*
X496862D01*
X496990Y150404D01*
X497120Y150421D01*
X497143Y150434D01*
X497169Y150439D01*
X497278Y150512D01*
X497391Y150577D01*
X497407Y150599D01*
X497429Y150613D01*
X497502Y150722D01*
X497552Y150787D01*
X498204D01*
X498703Y150405D01*
X499708Y149988D01*
X500787Y149846D01*
X501867Y149988D01*
X502872Y150405D01*
X503371Y150787D01*
X504023D01*
X504073Y150722D01*
D02*
G37*
G36*
X486785Y153836D02*
X487895Y153500D01*
X488918Y152953D01*
X489815Y152216D01*
X490551Y151320D01*
X490827Y150803D01*
X490902Y150712D01*
X490968Y150613D01*
X491004Y150587D01*
X491026Y150560D01*
X491228Y150422D01*
X491235Y150055D01*
X491245Y149957D01*
X491240Y149859D01*
X491260Y149803D01*
X491266Y149744D01*
X491435Y149186D01*
X491548Y148031D01*
X491435Y146877D01*
X491098Y145767D01*
X490551Y144743D01*
X489815Y143846D01*
X488918Y143110D01*
X487895Y142563D01*
X486785Y142227D01*
X485630Y142113D01*
X484475Y142227D01*
X483365Y142563D01*
X482342Y143110D01*
X481445Y143846D01*
X480709Y144743D01*
X480162Y145767D01*
X479825Y146877D01*
X479711Y148031D01*
X479825Y149186D01*
X479994Y149744D01*
X480000Y149803D01*
X480020Y149859D01*
X480015Y149957D01*
X480025Y150055D01*
X480031Y150422D01*
X480234Y150560D01*
X480255Y150587D01*
X480292Y150613D01*
X480358Y150712D01*
X480432Y150803D01*
X480709Y151320D01*
X481445Y152217D01*
X482342Y152953D01*
X483365Y153500D01*
X484475Y153836D01*
X485630Y153950D01*
X486785Y153836D01*
D02*
G37*
G36*
X501657Y137261D02*
X502467Y136925D01*
X503163Y136391D01*
X503697Y135696D01*
X504033Y134885D01*
X504147Y134016D01*
X504033Y133146D01*
X503697Y132336D01*
X503153Y131626D01*
X503134Y131616D01*
X503055Y131512D01*
X502969Y131414D01*
X502960Y131388D01*
X502944Y131367D01*
X502910Y131241D01*
X502868Y131117D01*
X502870Y131090D01*
X502863Y131065D01*
X502866Y131039D01*
X502688Y130733D01*
X502550Y130587D01*
X502475Y130539D01*
X499100D01*
X499025Y130587D01*
X498887Y130733D01*
X498709Y131039D01*
X498712Y131065D01*
X498705Y131090D01*
X498707Y131117D01*
X498665Y131241D01*
X498631Y131367D01*
X498615Y131388D01*
X498606Y131414D01*
X498520Y131512D01*
X498440Y131616D01*
X498422Y131626D01*
X497878Y132336D01*
X497542Y133146D01*
X497428Y134016D01*
X497542Y134885D01*
X497878Y135696D01*
X498412Y136391D01*
X499108Y136925D01*
X499918Y137261D01*
X500787Y137375D01*
X501657Y137261D01*
D02*
G37*
G36*
X502267Y127703D02*
X502532Y127393D01*
X502596Y127229D01*
X502589Y127176D01*
X502596Y127151D01*
X502595Y127124D01*
X502637Y127000D01*
X502670Y126874D01*
X502687Y126853D01*
X502695Y126828D01*
X502781Y126729D01*
X502861Y126625D01*
X502884Y126612D01*
X502902Y126592D01*
X503163Y126391D01*
X503697Y125696D01*
X504033Y124885D01*
X504147Y124016D01*
X504033Y123146D01*
X503697Y122336D01*
X503163Y121640D01*
X502467Y121106D01*
X501657Y120771D01*
X500787Y120656D01*
X499918Y120771D01*
X499108Y121106D01*
X498412Y121640D01*
X497878Y122336D01*
X497542Y123146D01*
X497428Y124016D01*
X497542Y124885D01*
X497878Y125696D01*
X498412Y126391D01*
X498673Y126592D01*
X498691Y126612D01*
X498714Y126625D01*
X498793Y126729D01*
X498879Y126828D01*
X498888Y126853D01*
X498904Y126874D01*
X498938Y127000D01*
X498980Y127124D01*
X498979Y127151D01*
X498985Y127176D01*
X498979Y127229D01*
X499043Y127393D01*
X499308Y127703D01*
X499343Y127729D01*
X502232D01*
X502267Y127703D01*
D02*
G37*
G36*
X174016Y86614D02*
X196850Y86614D01*
X207480Y75984D01*
Y31496D01*
X157087D01*
Y78347D01*
X138583Y78347D01*
X138583Y42126D01*
X100335Y42126D01*
X99983Y42481D01*
X100049Y49333D01*
X100466Y49609D01*
X101129Y49334D01*
X102362Y49172D01*
X103595Y49334D01*
X104745Y49810D01*
X105732Y50568D01*
X106489Y51554D01*
X106965Y52704D01*
X107127Y53937D01*
X106965Y55170D01*
X106489Y56320D01*
X105732Y57306D01*
X104745Y58064D01*
X103595Y58540D01*
X102362Y58702D01*
X101129Y58540D01*
X100553Y58301D01*
X100138Y58581D01*
X100234Y68504D01*
X87764D01*
X87731Y69004D01*
X87848Y69019D01*
X88997Y69495D01*
X89984Y70253D01*
X90741Y71240D01*
X91217Y72389D01*
X91379Y73622D01*
X91217Y74855D01*
X90741Y76005D01*
X89984Y76991D01*
X88997Y77749D01*
X87848Y78225D01*
X86614Y78387D01*
X85381Y78225D01*
X84232Y77749D01*
X83245Y76991D01*
X82487Y76005D01*
X82011Y74855D01*
X81849Y73622D01*
X82011Y72389D01*
X82487Y71240D01*
X83245Y70253D01*
X84232Y69495D01*
X85381Y69019D01*
X85497Y69004D01*
X85464Y68504D01*
X50394D01*
Y132677D01*
X54138D01*
X60927Y125888D01*
X61514Y125496D01*
X62205Y125359D01*
X82860D01*
X82985Y124085D01*
X83424Y122638D01*
X84137Y121305D01*
X85096Y120136D01*
X86265Y119176D01*
X87599Y118463D01*
X89046Y118025D01*
X90551Y117876D01*
X92056Y118025D01*
X93503Y118463D01*
X94837Y119176D01*
X96006Y120136D01*
X96965Y121305D01*
X97678Y122638D01*
X98117Y124085D01*
X98265Y125591D01*
X98117Y127095D01*
X97678Y128543D01*
X96965Y129876D01*
X96006Y131045D01*
X94837Y132005D01*
X94486Y132192D01*
X94608Y132677D01*
X174016D01*
Y86614D01*
D02*
G37*
G36*
X534528Y118874D02*
X534557Y118728D01*
X534583Y118582D01*
X534587Y118575D01*
X534589Y118567D01*
X534671Y118443D01*
X534673Y118440D01*
X534534Y118070D01*
X534421Y117940D01*
X532772D01*
X532234Y117833D01*
X531778Y117529D01*
X531581Y117332D01*
X531277Y116876D01*
X531170Y116339D01*
X531277Y115801D01*
X531581Y115345D01*
X532037Y115041D01*
X532575Y114934D01*
X533112Y115041D01*
X533247Y115130D01*
X536614D01*
X537152Y115237D01*
X537608Y115542D01*
X537859Y115918D01*
X538213Y115888D01*
X538359Y115835D01*
Y109362D01*
X538213Y109309D01*
X537859Y109279D01*
X537608Y109655D01*
X537152Y109959D01*
X536614Y110066D01*
X533217D01*
X533112Y110137D01*
X532575Y110243D01*
X532037Y110137D01*
X531581Y109832D01*
X531277Y109376D01*
X531170Y108839D01*
X531277Y108301D01*
X531581Y107845D01*
X531758Y107668D01*
X532214Y107363D01*
X532752Y107256D01*
X536614D01*
X537152Y107363D01*
X537608Y107668D01*
X537859Y108044D01*
X538213Y108014D01*
X538359Y107961D01*
Y103051D01*
X537008D01*
Y101011D01*
X534873D01*
Y102665D01*
X534766Y103203D01*
X534462Y103659D01*
X534006Y103963D01*
X533468Y104070D01*
X532931Y103963D01*
X532484Y103665D01*
X532038Y103963D01*
X531500Y104070D01*
X530962Y103963D01*
X530516Y103665D01*
X530069Y103963D01*
X529916Y103994D01*
X529734Y104518D01*
X530038Y104974D01*
X530145Y105512D01*
Y112398D01*
X530038Y112935D01*
X529952Y113064D01*
X530126Y113678D01*
X530387Y113852D01*
X530561Y114112D01*
X530622Y114419D01*
Y118981D01*
X534528D01*
Y118874D01*
D02*
G37*
G36*
X182283Y182283D02*
Y87417D01*
X174819D01*
Y132677D01*
X174758Y132984D01*
X174583Y133245D01*
X174323Y133419D01*
X174016Y133480D01*
X94608D01*
X94550Y133468D01*
X94490Y133471D01*
X94397Y133438D01*
X94301Y133419D01*
X94251Y133386D01*
X94195Y133366D01*
X94122Y133300D01*
X94040Y133245D01*
X94007Y133195D01*
X93963Y133155D01*
X93921Y133066D01*
X93866Y132984D01*
X93864Y132972D01*
X93718Y132845D01*
X93707Y132838D01*
X93393Y132751D01*
X92056Y133157D01*
X90551Y133305D01*
X89046Y133157D01*
X87599Y132718D01*
X86265Y132005D01*
X85096Y131045D01*
X84137Y129876D01*
X83653Y128972D01*
X75590D01*
Y159449D01*
X55630D01*
X55456Y159802D01*
X55579Y159962D01*
X55996Y160968D01*
X56138Y162047D01*
X55996Y163126D01*
X55579Y164132D01*
X54917Y164996D01*
X54053Y165658D01*
X53048Y166075D01*
X51968Y166217D01*
X50889Y166075D01*
X49884Y165658D01*
X49020Y164996D01*
X48358Y164132D01*
X47941Y163126D01*
X47799Y162047D01*
X47941Y160968D01*
X48358Y159962D01*
X48481Y159802D01*
X48307Y159449D01*
X47244D01*
Y191339D01*
X61811Y205906D01*
X158661D01*
X182283Y182283D01*
D02*
G37*
G36*
X535335Y80046D02*
Y79724D01*
X536069D01*
X536243Y79550D01*
X536504Y79376D01*
X536811Y79315D01*
X542108D01*
X542311Y79180D01*
X542618Y79118D01*
X551181D01*
X551181Y79118D01*
Y0D01*
X484882D01*
X484730Y500D01*
X484852Y581D01*
X509306Y25036D01*
X509611Y25492D01*
X509718Y26030D01*
Y52741D01*
X533858D01*
X534165Y52802D01*
X534426Y52976D01*
X534600Y53236D01*
X534661Y53543D01*
X534661Y74965D01*
X535161Y75375D01*
X535203Y75367D01*
X538976D01*
X539514Y75474D01*
X539970Y75778D01*
X540274Y76234D01*
X540381Y76772D01*
X540274Y77309D01*
X539970Y77765D01*
X539514Y78070D01*
X538976Y78177D01*
X535785D01*
X534415Y79546D01*
X534462Y80018D01*
X534501Y80077D01*
X535138Y80193D01*
X535335Y80046D01*
D02*
G37*
G36*
X210236Y79134D02*
Y27953D01*
X182283Y0D01*
X108661D01*
X108661Y35039D01*
X91899Y35039D01*
Y62992D01*
X34252Y62992D01*
Y78740D01*
X49591D01*
Y68504D01*
X49652Y68197D01*
X49826Y67936D01*
X50086Y67762D01*
X50394Y67701D01*
X85464D01*
X85593Y67727D01*
X85722Y67744D01*
X85745Y67757D01*
X85772Y67762D01*
X85880Y67835D01*
X85994Y67900D01*
X86010Y67922D01*
X86032Y67936D01*
X86105Y68045D01*
X86184Y68149D01*
X86191Y68175D01*
X86206Y68197D01*
X86231Y68325D01*
X86265Y68451D01*
X86276Y68612D01*
X86580Y68861D01*
X86614Y68857D01*
X86648Y68861D01*
X86952Y68612D01*
X86963Y68451D01*
X86997Y68325D01*
X87022Y68197D01*
X87037Y68175D01*
X87044Y68149D01*
X87124Y68045D01*
X87196Y67936D01*
X87218Y67922D01*
X87235Y67900D01*
X87348Y67835D01*
X87457Y67762D01*
X87483Y67757D01*
X87506Y67744D01*
X87636Y67727D01*
X87764Y67701D01*
X99143D01*
X99420Y67421D01*
X99335Y58589D01*
X99351Y58509D01*
X99350Y58428D01*
X99379Y58357D01*
X99394Y58281D01*
X99438Y58213D01*
X99469Y58138D01*
X99493Y57816D01*
X99440Y57666D01*
X99420Y57634D01*
X98993Y57306D01*
X98235Y56320D01*
X97759Y55170D01*
X97597Y53937D01*
X97759Y52704D01*
X98235Y51554D01*
X98993Y50568D01*
X99352Y50292D01*
X99372Y50258D01*
X99420Y50109D01*
X99384Y49782D01*
X99354Y49711D01*
X99310Y49647D01*
X99294Y49568D01*
X99262Y49493D01*
X99262Y49416D01*
X99246Y49341D01*
X99180Y42489D01*
X99181Y42487D01*
X99180Y42485D01*
X99210Y42332D01*
X99239Y42181D01*
X99240Y42180D01*
X99240Y42178D01*
X99325Y42049D01*
X99410Y41919D01*
X99412Y41918D01*
X99413Y41916D01*
X99765Y41561D01*
X99766Y41560D01*
X99767Y41558D01*
X99897Y41472D01*
X100024Y41386D01*
X100026Y41385D01*
X100028Y41384D01*
X100179Y41354D01*
X100331Y41323D01*
X100333Y41324D01*
X100335Y41323D01*
X138583Y41323D01*
X138890Y41384D01*
X139150Y41558D01*
X139324Y41819D01*
X139385Y42126D01*
X139385Y77544D01*
X156284Y77544D01*
Y31496D01*
X156345Y31189D01*
X156519Y30928D01*
X156779Y30754D01*
X157087Y30693D01*
X207480D01*
X207787Y30754D01*
X208048Y30928D01*
X208222Y31189D01*
X208283Y31496D01*
Y75984D01*
X208283Y75984D01*
X208222Y76292D01*
X208048Y76552D01*
X208048Y76552D01*
X198349Y86250D01*
X198500Y86614D01*
X202756D01*
X210236Y79134D01*
D02*
G37*
G36*
X375197Y6917D02*
X345379D01*
X345280Y7417D01*
X346528Y7934D01*
X348115Y8906D01*
X349530Y10115D01*
X350739Y11531D01*
X351712Y13118D01*
X352424Y14838D01*
X352859Y16648D01*
X352966Y18004D01*
X329318D01*
X329424Y16648D01*
X329859Y14838D01*
X330571Y13118D01*
X331544Y11531D01*
X332753Y10115D01*
X334169Y8906D01*
X335756Y7934D01*
X337004Y7417D01*
X336904Y6917D01*
X312505D01*
X312406Y7417D01*
X313653Y7934D01*
X315241Y8906D01*
X316656Y10115D01*
X317865Y11531D01*
X318838Y13118D01*
X319550Y14838D01*
X319985Y16648D01*
X320092Y18004D01*
X296444D01*
X296550Y16648D01*
X296985Y14838D01*
X297697Y13118D01*
X298670Y11531D01*
X299879Y10115D01*
X301295Y8906D01*
X302882Y7934D01*
X304130Y7417D01*
X304030Y6917D01*
X292913D01*
Y58268D01*
X375197D01*
Y6917D01*
D02*
G37*
%LPC*%
G36*
X455512Y228773D02*
X453844Y228642D01*
X452217Y228251D01*
X450671Y227611D01*
X449244Y226737D01*
X447972Y225650D01*
X446885Y224378D01*
X446011Y222951D01*
X445371Y221405D01*
X444980Y219778D01*
X444849Y218110D01*
X444980Y216442D01*
X445371Y214815D01*
X446011Y213269D01*
X446885Y211843D01*
X447972Y210571D01*
X449244Y209484D01*
X450671Y208610D01*
X452217Y207969D01*
X453844Y207579D01*
X455512Y207447D01*
X457180Y207579D01*
X458807Y207969D01*
X460353Y208610D01*
X461779Y209484D01*
X463052Y210571D01*
X464138Y211843D01*
X465012Y213269D01*
X465653Y214815D01*
X466043Y216442D01*
X466175Y218110D01*
X466043Y219778D01*
X465653Y221405D01*
X465012Y222951D01*
X464138Y224378D01*
X463052Y225650D01*
X461779Y226737D01*
X460353Y227611D01*
X458807Y228251D01*
X457180Y228642D01*
X455512Y228773D01*
D02*
G37*
G36*
X275590D02*
X273922Y228642D01*
X272296Y228251D01*
X270750Y227611D01*
X269323Y226737D01*
X268051Y225650D01*
X266964Y224378D01*
X266090Y222951D01*
X265450Y221405D01*
X265059Y219778D01*
X264928Y218110D01*
X265059Y216442D01*
X265450Y214815D01*
X266090Y213269D01*
X266964Y211843D01*
X268051Y210571D01*
X269323Y209484D01*
X270750Y208610D01*
X272296Y207969D01*
X273922Y207579D01*
X275590Y207447D01*
X277259Y207579D01*
X278886Y207969D01*
X280431Y208610D01*
X281858Y209484D01*
X283130Y210571D01*
X284217Y211843D01*
X285091Y213269D01*
X285732Y214815D01*
X286122Y216442D01*
X286253Y218110D01*
X286122Y219778D01*
X285732Y221405D01*
X285091Y222951D01*
X284217Y224378D01*
X283130Y225650D01*
X281858Y226737D01*
X280431Y227611D01*
X278886Y228251D01*
X277259Y228642D01*
X275590Y228773D01*
D02*
G37*
G36*
X240158Y208498D02*
X238807Y208365D01*
X237508Y207971D01*
X236311Y207331D01*
X235262Y206470D01*
X234401Y205421D01*
X233761Y204224D01*
X233367Y202925D01*
X233234Y201575D01*
X233367Y200224D01*
X233761Y198925D01*
X234401Y197729D01*
X235262Y196679D01*
X236311Y195818D01*
X237508Y195179D01*
X238807Y194785D01*
X240158Y194652D01*
X241508Y194785D01*
X242807Y195179D01*
X244004Y195818D01*
X245053Y196679D01*
X245914Y197729D01*
X246554Y198925D01*
X246948Y200224D01*
X247081Y201575D01*
X246948Y202925D01*
X246554Y204224D01*
X245914Y205421D01*
X245053Y206470D01*
X244004Y207331D01*
X242807Y207971D01*
X241508Y208365D01*
X240158Y208498D01*
D02*
G37*
G36*
X353858Y207317D02*
X352508Y207184D01*
X351209Y206790D01*
X350012Y206150D01*
X348963Y205289D01*
X348102Y204240D01*
X347462Y203043D01*
X347068Y201744D01*
X346935Y200394D01*
X347068Y199043D01*
X347462Y197744D01*
X348102Y196547D01*
X348963Y195498D01*
X350012Y194637D01*
X351209Y193998D01*
X352508Y193604D01*
X353858Y193471D01*
X355209Y193604D01*
X356508Y193998D01*
X357704Y194637D01*
X358754Y195498D01*
X359615Y196547D01*
X360254Y197744D01*
X360648Y199043D01*
X360781Y200394D01*
X360648Y201744D01*
X360254Y203043D01*
X359615Y204240D01*
X358754Y205289D01*
X357704Y206150D01*
X356508Y206790D01*
X355209Y207184D01*
X353858Y207317D01*
D02*
G37*
G36*
X318425D02*
X317075Y207184D01*
X315776Y206790D01*
X314579Y206150D01*
X313530Y205289D01*
X312669Y204240D01*
X312029Y203043D01*
X311635Y201744D01*
X311502Y200394D01*
X311635Y199043D01*
X312029Y197744D01*
X312669Y196547D01*
X313530Y195498D01*
X314579Y194637D01*
X315776Y193998D01*
X317075Y193604D01*
X318425Y193471D01*
X319776Y193604D01*
X321075Y193998D01*
X322271Y194637D01*
X323321Y195498D01*
X324182Y196547D01*
X324821Y197744D01*
X325215Y199043D01*
X325348Y200394D01*
X325215Y201744D01*
X324821Y203043D01*
X324182Y204240D01*
X323321Y205289D01*
X322271Y206150D01*
X321075Y206790D01*
X319776Y207184D01*
X318425Y207317D01*
D02*
G37*
G36*
X402913Y196689D02*
X401834Y196547D01*
X400829Y196131D01*
X399965Y195468D01*
X399303Y194604D01*
X398886Y193599D01*
X398744Y192520D01*
X398886Y191440D01*
X399303Y190435D01*
X399965Y189571D01*
X400829Y188909D01*
X401834Y188492D01*
X402913Y188350D01*
X403993Y188492D01*
X404998Y188909D01*
X405862Y189571D01*
X406524Y190435D01*
X406941Y191440D01*
X407083Y192520D01*
X406941Y193599D01*
X406524Y194604D01*
X405862Y195468D01*
X404998Y196131D01*
X403993Y196547D01*
X402913Y196689D01*
D02*
G37*
G36*
X392913D02*
X391834Y196547D01*
X390829Y196131D01*
X389965Y195468D01*
X389302Y194604D01*
X388886Y193599D01*
X388744Y192520D01*
X388886Y191440D01*
X389302Y190435D01*
X389965Y189571D01*
X390829Y188909D01*
X391834Y188492D01*
X392913Y188350D01*
X393992Y188492D01*
X394998Y188909D01*
X395862Y189571D01*
X396524Y190435D01*
X396941Y191440D01*
X397083Y192520D01*
X396941Y193599D01*
X396524Y194604D01*
X395862Y195468D01*
X394998Y196131D01*
X393992Y196547D01*
X392913Y196689D01*
D02*
G37*
G36*
X382913D02*
X381834Y196547D01*
X380829Y196131D01*
X379965Y195468D01*
X379303Y194604D01*
X378886Y193599D01*
X378744Y192520D01*
X378886Y191440D01*
X379303Y190435D01*
X379965Y189571D01*
X380829Y188909D01*
X381834Y188492D01*
X382913Y188350D01*
X383993Y188492D01*
X384998Y188909D01*
X385862Y189571D01*
X386524Y190435D01*
X386941Y191440D01*
X387083Y192520D01*
X386941Y193599D01*
X386524Y194604D01*
X385862Y195468D01*
X384998Y196131D01*
X383993Y196547D01*
X382913Y196689D01*
D02*
G37*
G36*
X353858Y177411D02*
X352368Y177215D01*
X350979Y176640D01*
X349787Y175725D01*
X348872Y174532D01*
X348296Y173144D01*
X348100Y171653D01*
X348296Y170163D01*
X348872Y168775D01*
X349787Y167582D01*
X350979Y166667D01*
X352368Y166092D01*
X353858Y165896D01*
X355348Y166092D01*
X356737Y166667D01*
X357930Y167582D01*
X358845Y168775D01*
X359420Y170163D01*
X359616Y171653D01*
X359420Y173144D01*
X358845Y174532D01*
X357930Y175725D01*
X356737Y176640D01*
X355348Y177215D01*
X353858Y177411D01*
D02*
G37*
G36*
X318425D02*
X316935Y177215D01*
X315546Y176640D01*
X314354Y175725D01*
X313439Y174532D01*
X312863Y173144D01*
X312667Y171653D01*
X312863Y170163D01*
X313439Y168775D01*
X314354Y167582D01*
X315546Y166667D01*
X316935Y166092D01*
X318425Y165896D01*
X319916Y166092D01*
X321304Y166667D01*
X322497Y167582D01*
X323412Y168775D01*
X323987Y170163D01*
X324183Y171653D01*
X323987Y173144D01*
X323412Y174532D01*
X322497Y175725D01*
X321304Y176640D01*
X319916Y177215D01*
X318425Y177411D01*
D02*
G37*
G36*
X287402Y166308D02*
X286543Y166195D01*
X285744Y165864D01*
X285057Y165337D01*
X284530Y164650D01*
X284425Y164397D01*
X217937D01*
X217832Y164650D01*
X217305Y165337D01*
X216618Y165864D01*
X215819Y166195D01*
X214961Y166308D01*
X214102Y166195D01*
X213303Y165864D01*
X212616Y165337D01*
X212089Y164650D01*
X211758Y163850D01*
X211645Y162992D01*
X211758Y162134D01*
X212089Y161334D01*
X212616Y160647D01*
X213303Y160121D01*
X214102Y159789D01*
X214961Y159676D01*
X215819Y159789D01*
X216618Y160121D01*
X217305Y160647D01*
X217832Y161334D01*
X217937Y161587D01*
X284425D01*
X284530Y161334D01*
X285057Y160647D01*
X285744Y160121D01*
X285997Y160016D01*
Y124204D01*
X278670Y116877D01*
X278417Y116982D01*
X277559Y117095D01*
X276701Y116982D01*
X275901Y116651D01*
X275215Y116124D01*
X274688Y115437D01*
X274356Y114638D01*
X274243Y113779D01*
X274356Y112921D01*
X274688Y112122D01*
X275215Y111435D01*
X275901Y110908D01*
X276701Y110577D01*
X277559Y110464D01*
X278417Y110577D01*
X279217Y110908D01*
X279904Y111435D01*
X280431Y112122D01*
X280762Y112921D01*
X280875Y113779D01*
X280762Y114638D01*
X280657Y114891D01*
X288395Y122629D01*
X288700Y123084D01*
X288807Y123622D01*
Y160016D01*
X289059Y160121D01*
X289746Y160647D01*
X290273Y161334D01*
X290604Y162134D01*
X290717Y162992D01*
X290604Y163850D01*
X290273Y164650D01*
X289746Y165337D01*
X289059Y165864D01*
X288260Y166195D01*
X287402Y166308D01*
D02*
G37*
G36*
X353858Y152780D02*
X318425D01*
X317706Y152685D01*
X317035Y152407D01*
X316460Y151965D01*
X316018Y151390D01*
X315740Y150719D01*
X315646Y150000D01*
X315740Y149281D01*
X316018Y148610D01*
X316460Y148035D01*
X317035Y147593D01*
X317706Y147315D01*
X318425Y147220D01*
X353858D01*
X354578Y147315D01*
X355248Y147593D01*
X355824Y148035D01*
X356265Y148610D01*
X356543Y149281D01*
X356638Y150000D01*
X356543Y150719D01*
X356265Y151390D01*
X355824Y151965D01*
X355248Y152407D01*
X354578Y152685D01*
X353858Y152780D01*
D02*
G37*
G36*
X240158Y156939D02*
X238667Y156743D01*
X237279Y156168D01*
X236086Y155253D01*
X235171Y154060D01*
X234596Y152671D01*
X234400Y151181D01*
X234596Y149691D01*
X235171Y148302D01*
X236086Y147110D01*
X237279Y146195D01*
X238667Y145619D01*
X240158Y145423D01*
X241648Y145619D01*
X243036Y146195D01*
X244229Y147110D01*
X245144Y148302D01*
X245719Y149691D01*
X245915Y151181D01*
X245719Y152671D01*
X245144Y154060D01*
X244229Y155253D01*
X243036Y156168D01*
X241648Y156743D01*
X240158Y156939D01*
D02*
G37*
G36*
X335039Y111807D02*
X333960Y111665D01*
X332955Y111249D01*
X332091Y110586D01*
X331429Y109723D01*
X331012Y108717D01*
X330870Y107638D01*
X331012Y106559D01*
X331429Y105553D01*
X332091Y104690D01*
X332955Y104027D01*
X333960Y103610D01*
X335039Y103468D01*
X336119Y103610D01*
X337124Y104027D01*
X337988Y104690D01*
X338650Y105553D01*
X339067Y106559D01*
X339209Y107638D01*
X339067Y108717D01*
X338650Y109723D01*
X337988Y110586D01*
X337124Y111249D01*
X336119Y111665D01*
X335039Y111807D01*
D02*
G37*
G36*
Y101807D02*
X333960Y101665D01*
X332955Y101249D01*
X332091Y100586D01*
X331429Y99723D01*
X331012Y98717D01*
X330870Y97638D01*
X331012Y96559D01*
X331429Y95553D01*
X332091Y94690D01*
X332955Y94027D01*
X333960Y93610D01*
X335039Y93468D01*
X336119Y93610D01*
X337124Y94027D01*
X337988Y94690D01*
X338650Y95553D01*
X339067Y96559D01*
X339209Y97638D01*
X339067Y98717D01*
X338650Y99723D01*
X337988Y100586D01*
X337124Y101249D01*
X336119Y101665D01*
X335039Y101807D01*
D02*
G37*
G36*
X455512Y28773D02*
X453844Y28642D01*
X452217Y28251D01*
X450671Y27611D01*
X449244Y26737D01*
X447972Y25650D01*
X446885Y24378D01*
X446011Y22951D01*
X445371Y21405D01*
X444980Y19778D01*
X444849Y18110D01*
X444980Y16442D01*
X445371Y14815D01*
X446011Y13269D01*
X446885Y11843D01*
X447972Y10571D01*
X449244Y9484D01*
X450671Y8610D01*
X452217Y7969D01*
X453844Y7579D01*
X455512Y7447D01*
X457180Y7579D01*
X458807Y7969D01*
X460353Y8610D01*
X461779Y9484D01*
X463052Y10571D01*
X464138Y11843D01*
X465012Y13269D01*
X465653Y14815D01*
X466043Y16442D01*
X466175Y18110D01*
X466043Y19778D01*
X465653Y21405D01*
X465012Y22951D01*
X464138Y24378D01*
X463052Y25650D01*
X461779Y26737D01*
X460353Y27611D01*
X458807Y28251D01*
X457180Y28642D01*
X455512Y28773D01*
D02*
G37*
G36*
X485630Y124836D02*
X484318Y124706D01*
X483056Y124324D01*
X481893Y123702D01*
X480874Y122866D01*
X480038Y121847D01*
X479417Y120684D01*
X479034Y119422D01*
X478905Y118110D01*
X479034Y116798D01*
X479417Y115537D01*
X480038Y114374D01*
X480874Y113355D01*
X481893Y112518D01*
X483056Y111897D01*
X484318Y111514D01*
X485630Y111385D01*
X486942Y111514D01*
X488204Y111897D01*
X489366Y112518D01*
X490385Y113355D01*
X491222Y114374D01*
X491843Y115537D01*
X492226Y116798D01*
X492355Y118110D01*
X492226Y119422D01*
X491843Y120684D01*
X491222Y121847D01*
X490385Y122866D01*
X489366Y123702D01*
X488204Y124324D01*
X486942Y124706D01*
X485630Y124836D01*
D02*
G37*
G36*
X119685Y120245D02*
X118827Y120132D01*
X118027Y119801D01*
X117340Y119274D01*
X116814Y118587D01*
X116482Y117787D01*
X116369Y116929D01*
X116482Y116071D01*
X116814Y115271D01*
X117340Y114585D01*
X118027Y114058D01*
X118827Y113726D01*
X118976Y113707D01*
X129137Y103546D01*
X129712Y103104D01*
X130383Y102827D01*
X131102Y102732D01*
X144166D01*
X144296Y102564D01*
X145159Y101901D01*
X146165Y101484D01*
X147244Y101342D01*
X148323Y101484D01*
X149329Y101901D01*
X150192Y102564D01*
X150855Y103427D01*
X151271Y104433D01*
X151414Y105512D01*
X151271Y106591D01*
X150855Y107597D01*
X150192Y108460D01*
X149329Y109123D01*
X148323Y109539D01*
X147244Y109681D01*
X146165Y109539D01*
X145159Y109123D01*
X144296Y108460D01*
X144166Y108291D01*
X132254D01*
X122907Y117638D01*
X122888Y117787D01*
X122557Y118587D01*
X122030Y119274D01*
X121343Y119801D01*
X120543Y120132D01*
X119685Y120245D01*
D02*
G37*
G36*
X90551Y113226D02*
X89046Y113078D01*
X87599Y112639D01*
X86265Y111926D01*
X85096Y110967D01*
X84137Y109798D01*
X83424Y108464D01*
X82985Y107017D01*
X82837Y105512D01*
X82985Y104007D01*
X83424Y102560D01*
X84137Y101226D01*
X85096Y100057D01*
X86265Y99098D01*
X87599Y98385D01*
X89046Y97946D01*
X90551Y97798D01*
X92056Y97946D01*
X93503Y98385D01*
X94837Y99098D01*
X96006Y100057D01*
X96965Y101226D01*
X97678Y102560D01*
X98117Y104007D01*
X98265Y105512D01*
X98117Y107017D01*
X97678Y108464D01*
X96965Y109798D01*
X96006Y110967D01*
X94837Y111926D01*
X93503Y112639D01*
X92056Y113078D01*
X90551Y113226D01*
D02*
G37*
G36*
X147244Y99681D02*
X146165Y99539D01*
X145159Y99123D01*
X144296Y98460D01*
X143633Y97597D01*
X143217Y96591D01*
X143075Y95512D01*
X143217Y94433D01*
X143332Y94154D01*
X139173Y89995D01*
X71997D01*
X71764Y90763D01*
X71143Y91925D01*
X70307Y92945D01*
X69288Y93781D01*
X68125Y94402D01*
X66863Y94785D01*
X65551Y94914D01*
X64239Y94785D01*
X62977Y94402D01*
X61815Y93781D01*
X60796Y92945D01*
X59959Y91925D01*
X59338Y90763D01*
X58955Y89501D01*
X58826Y88189D01*
X58955Y86877D01*
X59338Y85615D01*
X59959Y84453D01*
X60796Y83434D01*
X61815Y82597D01*
X62977Y81976D01*
X64239Y81593D01*
X65551Y81464D01*
X66863Y81593D01*
X68125Y81976D01*
X69288Y82597D01*
X70307Y83434D01*
X71143Y84453D01*
X71764Y85615D01*
X71997Y86383D01*
X139921D01*
X140612Y86520D01*
X141199Y86912D01*
X145887Y91600D01*
X146165Y91484D01*
X147244Y91342D01*
X148323Y91484D01*
X149329Y91901D01*
X150192Y92563D01*
X150855Y93427D01*
X151271Y94433D01*
X151414Y95512D01*
X151271Y96591D01*
X150855Y97597D01*
X150192Y98460D01*
X149329Y99123D01*
X148323Y99539D01*
X147244Y99681D01*
D02*
G37*
%LPD*%
G36*
X120334Y119350D02*
X120938Y119099D01*
X121457Y118701D01*
X121855Y118182D01*
X122106Y117578D01*
X122112Y117533D01*
X122145Y117434D01*
X122166Y117331D01*
X122195Y117286D01*
X122212Y117236D01*
X122282Y117157D01*
X122340Y117070D01*
X131686Y107724D01*
X131947Y107550D01*
X132254Y107489D01*
X144166D01*
X144218Y107499D01*
X144271Y107495D01*
X144371Y107529D01*
X144474Y107550D01*
X144518Y107579D01*
X144568Y107596D01*
X144647Y107666D01*
X144734Y107724D01*
X144764Y107768D01*
X144803Y107803D01*
X144868Y107887D01*
X145564Y108422D01*
X146374Y108757D01*
X147244Y108872D01*
X148114Y108757D01*
X148924Y108421D01*
X149620Y107887D01*
X150154Y107192D01*
X150489Y106381D01*
X150604Y105512D01*
X150489Y104642D01*
X150154Y103832D01*
X149620Y103136D01*
X148924Y102602D01*
X148114Y102267D01*
X147244Y102152D01*
X146374Y102267D01*
X145564Y102602D01*
X144868Y103136D01*
X144803Y103221D01*
X144764Y103256D01*
X144734Y103300D01*
X144647Y103358D01*
X144568Y103427D01*
X144518Y103444D01*
X144474Y103474D01*
X144371Y103494D01*
X144271Y103528D01*
X144218Y103525D01*
X144166Y103535D01*
X131155D01*
X130593Y103609D01*
X130117Y103806D01*
X129667Y104151D01*
X119544Y114274D01*
X119457Y114333D01*
X119378Y114402D01*
X119328Y114419D01*
X119284Y114448D01*
X119181Y114469D01*
X119081Y114503D01*
X119036Y114508D01*
X118432Y114759D01*
X117913Y115157D01*
X117515Y115676D01*
X117264Y116280D01*
X117179Y116929D01*
X117264Y117578D01*
X117515Y118182D01*
X117913Y118701D01*
X118432Y119099D01*
X119036Y119350D01*
X119685Y119435D01*
X120334Y119350D01*
D02*
G37*
%LPC*%
G36*
X159055Y184878D02*
X157976Y184736D01*
X156970Y184320D01*
X156107Y183657D01*
X155444Y182793D01*
X155028Y181788D01*
X154886Y180709D01*
X155028Y179630D01*
X155444Y178624D01*
X156107Y177760D01*
X156970Y177098D01*
X157976Y176681D01*
X159055Y176539D01*
X160134Y176681D01*
X161140Y177098D01*
X162003Y177760D01*
X162666Y178624D01*
X163083Y179630D01*
X163225Y180709D01*
X163083Y181788D01*
X162666Y182793D01*
X162003Y183657D01*
X161140Y184320D01*
X160134Y184736D01*
X159055Y184878D01*
D02*
G37*
G36*
X149055D02*
X147976Y184736D01*
X146970Y184320D01*
X146107Y183657D01*
X145444Y182793D01*
X145028Y181788D01*
X144886Y180709D01*
X145028Y179630D01*
X145444Y178624D01*
X146107Y177760D01*
X146970Y177098D01*
X147976Y176681D01*
X149055Y176539D01*
X150134Y176681D01*
X151140Y177098D01*
X152003Y177760D01*
X152666Y178624D01*
X153083Y179630D01*
X153225Y180709D01*
X153083Y181788D01*
X152666Y182793D01*
X152003Y183657D01*
X151140Y184320D01*
X150134Y184736D01*
X149055Y184878D01*
D02*
G37*
G36*
X90551Y169525D02*
X89046Y169377D01*
X87599Y168938D01*
X86265Y168225D01*
X85096Y167266D01*
X84137Y166097D01*
X83424Y164763D01*
X82985Y163316D01*
X82837Y161811D01*
X82985Y160306D01*
X83424Y158859D01*
X84137Y157525D01*
X85096Y156356D01*
X86265Y155397D01*
X87599Y154684D01*
X89046Y154245D01*
X90551Y154097D01*
X92056Y154245D01*
X93503Y154684D01*
X94837Y155397D01*
X96006Y156356D01*
X96965Y157525D01*
X97678Y158859D01*
X98117Y160306D01*
X98265Y161811D01*
X98117Y163316D01*
X97678Y164763D01*
X96965Y166097D01*
X96006Y167266D01*
X94837Y168225D01*
X93503Y168938D01*
X92056Y169377D01*
X90551Y169525D01*
D02*
G37*
G36*
Y149447D02*
X89046Y149298D01*
X87599Y148859D01*
X86265Y148146D01*
X85096Y147187D01*
X84137Y146018D01*
X83424Y144684D01*
X82985Y143237D01*
X82837Y141732D01*
X82985Y140227D01*
X83424Y138780D01*
X84137Y137446D01*
X85096Y136277D01*
X86265Y135318D01*
X87599Y134605D01*
X89046Y134166D01*
X90551Y134018D01*
X92056Y134166D01*
X93503Y134605D01*
X94837Y135318D01*
X96006Y136277D01*
X96965Y137446D01*
X97678Y138780D01*
X98117Y140227D01*
X98265Y141732D01*
X98117Y143237D01*
X97678Y144684D01*
X96965Y146018D01*
X96006Y147187D01*
X94837Y148146D01*
X93503Y148859D01*
X92056Y149298D01*
X90551Y149447D01*
D02*
G37*
G36*
X149606Y71492D02*
X148527Y71350D01*
X147521Y70934D01*
X146658Y70271D01*
X145995Y69408D01*
X145579Y68402D01*
X145437Y67323D01*
X145579Y66244D01*
X145995Y65238D01*
X146658Y64375D01*
X147521Y63712D01*
X148527Y63295D01*
X149606Y63153D01*
X150685Y63295D01*
X151691Y63712D01*
X152555Y64375D01*
X153217Y65238D01*
X153634Y66244D01*
X153776Y67323D01*
X153634Y68402D01*
X153217Y69408D01*
X152555Y70271D01*
X151691Y70934D01*
X150685Y71350D01*
X149606Y71492D01*
D02*
G37*
G36*
X333571Y54134D02*
Y47744D01*
X339961D01*
X339877Y48598D01*
X339482Y49900D01*
X338840Y51099D01*
X337977Y52151D01*
X336926Y53014D01*
X335726Y53655D01*
X334425Y54050D01*
X333571Y54134D01*
D02*
G37*
G36*
X332571D02*
X331717Y54050D01*
X330416Y53655D01*
X329216Y53014D01*
X328164Y52151D01*
X327301Y51099D01*
X326660Y49900D01*
X326265Y48598D01*
X326181Y47744D01*
X332571D01*
Y54134D01*
D02*
G37*
G36*
X348819Y53969D02*
X347507Y53840D01*
X346245Y53457D01*
X345082Y52836D01*
X344063Y52000D01*
X343227Y50981D01*
X342605Y49818D01*
X342223Y48556D01*
X342094Y47244D01*
X342223Y45932D01*
X342605Y44670D01*
X343227Y43508D01*
X344063Y42489D01*
X345082Y41652D01*
X346245Y41031D01*
X347507Y40648D01*
X348819Y40519D01*
X350131Y40648D01*
X351393Y41031D01*
X352555Y41652D01*
X353574Y42489D01*
X354411Y43508D01*
X355032Y44670D01*
X355415Y45932D01*
X355544Y47244D01*
X355415Y48556D01*
X355032Y49818D01*
X354411Y50981D01*
X353574Y52000D01*
X352555Y52836D01*
X351393Y53457D01*
X350131Y53840D01*
X348819Y53969D01*
D02*
G37*
G36*
X339961Y46744D02*
X333571D01*
Y40354D01*
X334425Y40439D01*
X335726Y40833D01*
X336926Y41475D01*
X337977Y42338D01*
X338840Y43389D01*
X339482Y44589D01*
X339877Y45890D01*
X339961Y46744D01*
D02*
G37*
G36*
X332571D02*
X326181D01*
X326265Y45890D01*
X326660Y44589D01*
X327301Y43389D01*
X328164Y42338D01*
X329216Y41475D01*
X330416Y40833D01*
X331717Y40439D01*
X332571Y40354D01*
Y46744D01*
D02*
G37*
G36*
X341642Y30328D02*
Y19004D01*
X352966D01*
X352859Y20360D01*
X352424Y22170D01*
X351712Y23890D01*
X350739Y25477D01*
X349530Y26893D01*
X348115Y28102D01*
X346528Y29074D01*
X344808Y29787D01*
X342998Y30221D01*
X341642Y30328D01*
D02*
G37*
G36*
X340642D02*
X339286Y30221D01*
X337476Y29787D01*
X335756Y29074D01*
X334169Y28102D01*
X332753Y26893D01*
X331544Y25477D01*
X330571Y23890D01*
X329859Y22170D01*
X329424Y20360D01*
X329318Y19004D01*
X340642D01*
Y30328D01*
D02*
G37*
G36*
X308768D02*
Y19004D01*
X320092D01*
X319985Y20360D01*
X319550Y22170D01*
X318838Y23890D01*
X317865Y25477D01*
X316656Y26893D01*
X315241Y28102D01*
X313653Y29074D01*
X311934Y29787D01*
X310123Y30221D01*
X308768Y30328D01*
D02*
G37*
G36*
X307768D02*
X306412Y30221D01*
X304602Y29787D01*
X302882Y29074D01*
X301295Y28102D01*
X299879Y26893D01*
X298670Y25477D01*
X297697Y23890D01*
X296985Y22170D01*
X296550Y20360D01*
X296444Y19004D01*
X307768D01*
Y30328D01*
D02*
G37*
%LPD*%
G36*
X349974Y53049D02*
X351084Y52712D01*
X352107Y52165D01*
X353004Y51429D01*
X353740Y50532D01*
X354287Y49509D01*
X354624Y48399D01*
X354737Y47244D01*
X354624Y46089D01*
X354287Y44979D01*
X353740Y43956D01*
X353004Y43059D01*
X352107Y42323D01*
X351084Y41776D01*
X349974Y41439D01*
X348819Y41326D01*
X347664Y41439D01*
X346554Y41776D01*
X345531Y42323D01*
X344634Y43059D01*
X343898Y43956D01*
X343351Y44979D01*
X343014Y46089D01*
X342900Y47244D01*
X343014Y48399D01*
X343351Y49509D01*
X343898Y50532D01*
X344634Y51429D01*
X345531Y52165D01*
X346554Y52712D01*
X347664Y53049D01*
X348819Y53163D01*
X349974Y53049D01*
D02*
G37*
D15*
X366535Y114567D02*
X378740D01*
X382677Y110630D01*
X391142Y18504D02*
X391339Y18701D01*
X316142Y114567D02*
X366535D01*
X296417Y134291D02*
X316142Y114567D01*
X296417Y134291D02*
Y157283D01*
X88976Y127165D02*
X90551Y125591D01*
X62205Y127165D02*
X88976D01*
X19291Y144095D02*
X45276D01*
X62205Y127165D01*
X13386Y138189D02*
X19291Y144095D01*
X65551Y88189D02*
X139921D01*
X147244Y95512D01*
D18*
X261417Y96850D02*
X261811Y96457D01*
X255118Y96850D02*
X261417D01*
X261811Y96457D02*
X265748Y92520D01*
Y34252D02*
Y92520D01*
X252362Y99606D02*
Y112205D01*
Y99606D02*
X255118Y96850D01*
X263386Y101575D02*
X267717Y97244D01*
X257874Y101575D02*
X263386D01*
X267717Y33465D02*
Y97244D01*
X261811Y106693D02*
X269685Y98819D01*
Y32677D02*
Y98819D01*
X532575Y116339D02*
X532772Y116535D01*
X536614D01*
X532575Y108839D02*
X532752Y108661D01*
X536614D01*
X535203Y76772D02*
X538976D01*
X531500Y80475D02*
X535203Y76772D01*
X531500Y80475D02*
Y83079D01*
X525595Y75193D02*
Y83079D01*
X528740Y72047D02*
Y72047D01*
X525595Y75193D02*
X528740Y72047D01*
X494488Y107717D02*
X500787Y114016D01*
X474409Y119685D02*
X483858Y129134D01*
X505118D01*
X508268Y106299D02*
Y125984D01*
X505118Y129134D02*
X508268Y125984D01*
Y106299D02*
X509647Y104920D01*
X512009D01*
X507480Y162992D02*
X539764Y130709D01*
X418504Y162992D02*
X507480D01*
X539764Y99606D02*
Y130709D01*
X513779Y96460D02*
Y103150D01*
X512009Y104920D02*
X513779Y103150D01*
X529535Y93307D02*
X531500Y95272D01*
X513779Y96460D02*
X516932Y93307D01*
X529535D01*
X531500Y95272D02*
X531500D01*
X494488Y80709D02*
Y107717D01*
X496260Y81693D02*
X504093Y73860D01*
X496260Y81693D02*
Y99488D01*
X494488Y80709D02*
X501968Y73228D01*
X496260Y99488D02*
X500787Y104016D01*
X533468Y99606D02*
X539764D01*
X214961Y162992D02*
X287402D01*
X277559Y113779D02*
X277559D01*
X287402Y123622D02*
Y162992D01*
X277559Y113779D02*
X287402Y123622D01*
X484449Y49213D02*
X485630Y48031D01*
X527563Y100598D02*
Y104335D01*
X519783Y96063D02*
X527559D01*
X516929Y98917D02*
X519783Y96063D01*
X516929Y98917D02*
Y99606D01*
X528326Y96830D02*
X528367D01*
X529531Y97995D01*
Y100598D01*
X527559Y96063D02*
X528326Y96830D01*
X531500Y95272D02*
X534646Y92126D01*
X539764D01*
X531500Y95272D02*
Y100598D01*
X527563Y104335D02*
X528740Y105512D01*
Y112398D01*
X533468Y99606D02*
Y100598D01*
X525488Y108839D02*
X525595Y108732D01*
Y100598D02*
Y108732D01*
X519618Y108839D02*
X525488D01*
Y115650D02*
X528740Y112398D01*
X525488Y115650D02*
Y116339D01*
X519575D02*
X525488D01*
X539764Y92126D02*
Y92815D01*
X501968Y25197D02*
Y73228D01*
X482283Y5512D02*
X501968Y25197D01*
X504093Y24565D02*
Y73860D01*
X483071Y3543D02*
X504093Y24565D01*
X500787Y84016D02*
X508313Y76490D01*
Y26030D02*
Y76490D01*
X268898Y1575D02*
X483858D01*
X508313Y26030D01*
X269685Y3543D02*
X483071D01*
X270473Y5512D02*
X482283D01*
X257480Y12992D02*
X268898Y1575D01*
X257480Y25984D02*
X265748Y34252D01*
X257480Y12992D02*
Y25984D01*
X261417Y14567D02*
X270473Y5512D01*
X259449Y13780D02*
X269685Y3543D01*
X259449Y13780D02*
Y25197D01*
X261417Y24409D02*
X269685Y32677D01*
X261417Y14567D02*
Y24409D01*
X259449Y25197D02*
X267717Y33465D01*
X252362Y112205D02*
X261811Y121653D01*
X17323Y115354D02*
Y117717D01*
Y115354D02*
X24409Y108268D01*
X65551Y88189D02*
X66260Y88898D01*
D31*
X532575Y108839D02*
D03*
X525488D02*
D03*
X532575Y116339D02*
D03*
X525488D02*
D03*
X516929Y99606D02*
D03*
X509842D02*
D03*
X519618Y108839D02*
D03*
X512532D02*
D03*
X519575Y116339D02*
D03*
X512488D02*
D03*
X539764Y99606D02*
D03*
X546850D02*
D03*
X539764Y92126D02*
D03*
X546850D02*
D03*
D43*
X538976Y83071D02*
D03*
Y76772D02*
D03*
D87*
X276449Y80655D02*
X324463D01*
X333071Y72047D01*
Y47244D02*
Y72047D01*
X424213Y18504D02*
X425591Y19882D01*
X163386Y27953D02*
X163524Y27815D01*
X131102Y105512D02*
X147244D01*
X119685Y116929D02*
X131102Y105512D01*
X318425Y150000D02*
X353858D01*
D88*
X531496Y216535D02*
D03*
X19685D02*
D03*
Y19685D02*
D03*
X531496D02*
D03*
X485630Y48031D02*
D03*
Y188189D02*
D03*
D89*
X455512Y18110D02*
D03*
X275590D02*
D03*
X95669D02*
D03*
X455512Y218110D02*
D03*
X275590D02*
D03*
X95669D02*
D03*
D90*
X485630Y88189D02*
D03*
Y118110D02*
D03*
Y148031D02*
D03*
X65551Y48031D02*
D03*
Y88189D02*
D03*
Y148031D02*
D03*
Y188189D02*
D03*
X348819Y47244D02*
D03*
X333071D02*
D03*
D91*
X86614Y73622D02*
D03*
Y53937D02*
D03*
X102362Y73622D02*
D03*
Y53937D02*
D03*
D92*
X32677Y138189D02*
D03*
X22677D02*
D03*
X149606Y57323D02*
D03*
Y67323D02*
D03*
X335039Y87638D02*
D03*
Y97638D02*
D03*
Y107638D02*
D03*
X147244Y105512D02*
D03*
Y95512D02*
D03*
X51968Y162047D02*
D03*
Y172047D02*
D03*
X422913Y182520D02*
D03*
X412913D02*
D03*
X402913D02*
D03*
X392913D02*
D03*
X382913D02*
D03*
Y192520D02*
D03*
X392913D02*
D03*
X402913D02*
D03*
X412913D02*
D03*
X422913D02*
D03*
X500787Y154016D02*
D03*
Y144016D02*
D03*
Y134016D02*
D03*
Y124016D02*
D03*
Y114016D02*
D03*
Y104016D02*
D03*
Y94016D02*
D03*
Y84016D02*
D03*
X149055Y180709D02*
D03*
X159055D02*
D03*
X118110D02*
D03*
X128110D02*
D03*
D93*
X353858Y200394D02*
D03*
X240158Y201575D02*
D03*
X318425Y200394D02*
D03*
D94*
X353858Y171653D02*
D03*
Y150000D02*
D03*
X240158Y172835D02*
D03*
Y151181D02*
D03*
X318425Y171653D02*
D03*
Y150000D02*
D03*
D95*
X308268Y18504D02*
D03*
X341142D02*
D03*
X391142D02*
D03*
X424016D02*
D03*
D96*
X90551Y105512D02*
D03*
Y125591D02*
D03*
Y141732D02*
D03*
Y161811D02*
D03*
D97*
X295276Y77014D02*
D03*
X287402D02*
D03*
X346457Y133858D02*
D03*
X444882Y125984D02*
D03*
X440945Y133858D02*
D03*
X536614Y116535D02*
D03*
Y108661D02*
D03*
X272835Y39764D02*
D03*
X543307Y228347D02*
D03*
X547244Y220473D02*
D03*
Y204725D02*
D03*
X543307Y196851D02*
D03*
X547244Y188977D02*
D03*
X543307Y70866D02*
D03*
X547244Y62992D02*
D03*
X543307Y55118D02*
D03*
X547244Y47244D02*
D03*
X543307Y39370D02*
D03*
X547244Y31496D02*
D03*
Y15748D02*
D03*
X543307Y7874D02*
D03*
X539370Y204725D02*
D03*
X535433Y196851D02*
D03*
X539370Y188977D02*
D03*
Y62992D02*
D03*
Y47244D02*
D03*
X535433Y39370D02*
D03*
X539370Y31496D02*
D03*
X527559Y196851D02*
D03*
X531496Y188977D02*
D03*
Y47244D02*
D03*
X527559Y39370D02*
D03*
X519685Y228347D02*
D03*
X523622Y204725D02*
D03*
X519685Y196851D02*
D03*
X523622Y188977D02*
D03*
X519685Y39370D02*
D03*
X523622Y31496D02*
D03*
X519685Y7874D02*
D03*
X511811Y228347D02*
D03*
X515748Y220473D02*
D03*
X511811Y212598D02*
D03*
X515748Y204725D02*
D03*
X511811Y196851D02*
D03*
X515748Y188977D02*
D03*
X511811Y39370D02*
D03*
X515748Y31496D02*
D03*
X511811Y23622D02*
D03*
X515748Y15748D02*
D03*
X511811Y7874D02*
D03*
X503937Y228347D02*
D03*
X507874Y220473D02*
D03*
X503937Y212598D02*
D03*
X507874Y204725D02*
D03*
X503937Y196851D02*
D03*
X507874Y188977D02*
D03*
X496063Y228347D02*
D03*
X500000Y220473D02*
D03*
X496063Y212598D02*
D03*
X500000Y204725D02*
D03*
X496063Y196851D02*
D03*
X488189Y228347D02*
D03*
X492126Y220473D02*
D03*
Y204725D02*
D03*
X480315Y228347D02*
D03*
X484252Y220473D02*
D03*
X480315Y212598D02*
D03*
X472441Y228347D02*
D03*
Y212598D02*
D03*
X476378Y204725D02*
D03*
X472441Y196851D02*
D03*
X464567Y228347D02*
D03*
X468504Y204725D02*
D03*
X464567Y196851D02*
D03*
X460630Y204725D02*
D03*
X448819Y228347D02*
D03*
Y196851D02*
D03*
Y133858D02*
D03*
X452756Y125984D02*
D03*
X440945Y228347D02*
D03*
Y212598D02*
D03*
X444882Y204725D02*
D03*
X440945Y196851D02*
D03*
X444882Y188977D02*
D03*
X433071Y228347D02*
D03*
X437008Y220473D02*
D03*
X433071Y212598D02*
D03*
X437008Y204725D02*
D03*
X433071Y196851D02*
D03*
X437008Y188977D02*
D03*
X433071Y118110D02*
D03*
X425197Y228347D02*
D03*
X429134Y220473D02*
D03*
X425197Y212598D02*
D03*
X429134Y204725D02*
D03*
Y188977D02*
D03*
Y125984D02*
D03*
X425197Y118110D02*
D03*
X417323Y228347D02*
D03*
X421260Y220473D02*
D03*
X417323Y212598D02*
D03*
X421260Y204725D02*
D03*
X417323Y196851D02*
D03*
Y133858D02*
D03*
X421260Y125984D02*
D03*
X417323Y118110D02*
D03*
X409449Y228347D02*
D03*
X413386Y220473D02*
D03*
X409449Y212598D02*
D03*
X413386Y204725D02*
D03*
X409449Y196851D02*
D03*
X413386Y125984D02*
D03*
X409449Y118110D02*
D03*
X401575Y228347D02*
D03*
X405512Y220473D02*
D03*
X401575Y212598D02*
D03*
X405512Y204725D02*
D03*
Y125984D02*
D03*
X401575Y118110D02*
D03*
X393701Y228347D02*
D03*
X397638Y220473D02*
D03*
X393701Y212598D02*
D03*
X397638Y204725D02*
D03*
Y188977D02*
D03*
Y125984D02*
D03*
X385827Y228347D02*
D03*
X389764Y220473D02*
D03*
X385827Y212598D02*
D03*
X389764Y204725D02*
D03*
X377953Y228347D02*
D03*
X381890Y220473D02*
D03*
X377953Y212598D02*
D03*
X381890Y204725D02*
D03*
X370079Y228347D02*
D03*
X374016Y220473D02*
D03*
X370079Y212598D02*
D03*
X374016Y204725D02*
D03*
Y78740D02*
D03*
X370079Y70866D02*
D03*
X362205Y228347D02*
D03*
X366142Y220473D02*
D03*
X362205Y212598D02*
D03*
X366142Y204725D02*
D03*
X362205Y70866D02*
D03*
X354331Y228347D02*
D03*
X358268Y220473D02*
D03*
X354331Y212598D02*
D03*
X358268Y157480D02*
D03*
Y125984D02*
D03*
X354331Y118110D02*
D03*
Y102362D02*
D03*
Y86614D02*
D03*
X346457Y228347D02*
D03*
X350394Y220473D02*
D03*
X346457Y212598D02*
D03*
Y196851D02*
D03*
X350394Y188977D02*
D03*
Y141732D02*
D03*
X346457Y102362D02*
D03*
Y86614D02*
D03*
X350394Y62992D02*
D03*
X338583Y228347D02*
D03*
X342520Y220473D02*
D03*
X338583Y212598D02*
D03*
X342520Y204725D02*
D03*
X338583Y196851D02*
D03*
X342520Y188977D02*
D03*
X338583Y181103D02*
D03*
X342520Y141732D02*
D03*
X338583Y133858D02*
D03*
X342520Y94488D02*
D03*
Y62992D02*
D03*
X330709Y228347D02*
D03*
X334646Y220473D02*
D03*
X330709Y212598D02*
D03*
X334646Y204725D02*
D03*
X330709Y196851D02*
D03*
X334646Y188977D02*
D03*
X330709Y181103D02*
D03*
X334646Y173228D02*
D03*
X330709Y133858D02*
D03*
X334646Y125984D02*
D03*
X330709Y118110D02*
D03*
Y102362D02*
D03*
X322835Y228347D02*
D03*
X326772Y220473D02*
D03*
X322835Y212598D02*
D03*
X326772Y204725D02*
D03*
Y188977D02*
D03*
X322835Y181103D02*
D03*
X326772Y173228D02*
D03*
X322835Y165354D02*
D03*
X326772Y125984D02*
D03*
X322835Y118110D02*
D03*
Y102362D02*
D03*
X326772Y94488D02*
D03*
X322835Y70866D02*
D03*
X326772Y62992D02*
D03*
X314961Y228347D02*
D03*
X318898Y220473D02*
D03*
X314961Y212598D02*
D03*
X318898Y188977D02*
D03*
X314961Y181103D02*
D03*
X318898Y157480D02*
D03*
X314961Y102362D02*
D03*
X318898Y94488D02*
D03*
X307087Y228347D02*
D03*
X311024Y220473D02*
D03*
X307087Y212598D02*
D03*
X311024Y204725D02*
D03*
X307087Y196851D02*
D03*
X311024Y188977D02*
D03*
X307087Y181103D02*
D03*
X311024Y173228D02*
D03*
X307087Y165354D02*
D03*
X311024Y157480D02*
D03*
X307087Y149606D02*
D03*
X311024Y141732D02*
D03*
X307087Y133858D02*
D03*
Y86614D02*
D03*
X311024Y62992D02*
D03*
X299213Y228347D02*
D03*
X303150Y220473D02*
D03*
X299213Y212598D02*
D03*
X303150Y204725D02*
D03*
Y188977D02*
D03*
Y173228D02*
D03*
Y141732D02*
D03*
X299213Y86614D02*
D03*
X291339Y228347D02*
D03*
X295276Y220473D02*
D03*
X291339Y212598D02*
D03*
Y165354D02*
D03*
Y149606D02*
D03*
Y133858D02*
D03*
X295276Y125984D02*
D03*
X291339Y118110D02*
D03*
Y70866D02*
D03*
X283465Y228347D02*
D03*
X287402Y220473D02*
D03*
Y173228D02*
D03*
X283465Y149606D02*
D03*
X287402Y15748D02*
D03*
X275591Y149606D02*
D03*
X279528Y141732D02*
D03*
X275591Y133858D02*
D03*
X279528Y125984D02*
D03*
X275591Y118110D02*
D03*
Y70866D02*
D03*
X279528Y62992D02*
D03*
Y31496D02*
D03*
X267717Y228347D02*
D03*
X271654Y204725D02*
D03*
X267717Y181103D02*
D03*
X271654Y173228D02*
D03*
X267717Y149606D02*
D03*
X271654Y141732D02*
D03*
X267717Y133858D02*
D03*
X259843Y228347D02*
D03*
X263780Y220473D02*
D03*
X259843Y212598D02*
D03*
X263780Y204725D02*
D03*
X259843Y196851D02*
D03*
Y181103D02*
D03*
X263780Y173228D02*
D03*
Y157480D02*
D03*
X259843Y149606D02*
D03*
X263780Y141732D02*
D03*
X259843Y133858D02*
D03*
Y70866D02*
D03*
X251969Y228347D02*
D03*
X255906Y220473D02*
D03*
X251969Y212598D02*
D03*
X255906Y204725D02*
D03*
X251969Y196851D02*
D03*
X255906Y188977D02*
D03*
X251969Y181103D02*
D03*
X255906Y173228D02*
D03*
Y157480D02*
D03*
X251969Y149606D02*
D03*
X255906Y141732D02*
D03*
X251969Y118110D02*
D03*
X255906Y62992D02*
D03*
X251969Y39370D02*
D03*
X255906Y31496D02*
D03*
X244095Y228347D02*
D03*
X248032Y220473D02*
D03*
X244095Y212598D02*
D03*
X248032Y204725D02*
D03*
X244095Y181103D02*
D03*
X248032Y173228D02*
D03*
Y157480D02*
D03*
X244095Y86614D02*
D03*
Y39370D02*
D03*
X236221Y228347D02*
D03*
X240158Y220473D02*
D03*
X236221Y212598D02*
D03*
X240158Y188977D02*
D03*
Y141732D02*
D03*
Y125984D02*
D03*
Y110236D02*
D03*
Y94488D02*
D03*
X228347Y228347D02*
D03*
X232284Y220473D02*
D03*
X228347Y212598D02*
D03*
X232284Y204725D02*
D03*
X228347Y196851D02*
D03*
X232284Y188977D02*
D03*
X228347Y181103D02*
D03*
Y133858D02*
D03*
X220473Y228347D02*
D03*
X224410Y220473D02*
D03*
X220473Y212598D02*
D03*
X224410Y204725D02*
D03*
X220473Y196851D02*
D03*
X224410Y188977D02*
D03*
X220473Y181103D02*
D03*
X224410Y173228D02*
D03*
Y157480D02*
D03*
X220473Y149606D02*
D03*
X224410Y141732D02*
D03*
X220473Y133858D02*
D03*
X224410Y125984D02*
D03*
X212598Y228347D02*
D03*
X216536Y220473D02*
D03*
X212598Y212598D02*
D03*
X216536Y204725D02*
D03*
X212598Y196851D02*
D03*
X216536Y188977D02*
D03*
X212598Y181103D02*
D03*
X216536Y173228D02*
D03*
Y157480D02*
D03*
X212598Y149606D02*
D03*
X216536Y141732D02*
D03*
X212598Y133858D02*
D03*
X216536Y125984D02*
D03*
X208662Y78740D02*
D03*
X196851Y23622D02*
D03*
X192913Y15748D02*
D03*
X181103Y181103D02*
D03*
Y149606D02*
D03*
Y133858D02*
D03*
Y118110D02*
D03*
Y102362D02*
D03*
X185039Y15748D02*
D03*
X181103Y7874D02*
D03*
X173228Y181103D02*
D03*
X177165Y173228D02*
D03*
Y157480D02*
D03*
X173228Y149606D02*
D03*
X177165Y141732D02*
D03*
Y125984D02*
D03*
Y110236D02*
D03*
Y94488D02*
D03*
Y15748D02*
D03*
X173228Y7874D02*
D03*
X165354Y196851D02*
D03*
X169291Y188977D02*
D03*
X165354Y181103D02*
D03*
X169291Y173228D02*
D03*
X165354Y165354D02*
D03*
X169291Y157480D02*
D03*
X165354Y149606D02*
D03*
X169291Y141732D02*
D03*
Y15748D02*
D03*
X165354Y7874D02*
D03*
X157480Y196851D02*
D03*
X161417Y188977D02*
D03*
Y173228D02*
D03*
X157480Y165354D02*
D03*
Y149606D02*
D03*
X161417Y141732D02*
D03*
Y15748D02*
D03*
X157480Y7874D02*
D03*
X149606Y196851D02*
D03*
X153543Y188977D02*
D03*
Y173228D02*
D03*
X149606Y165354D02*
D03*
X153543Y157480D02*
D03*
X149606Y149606D02*
D03*
X153543Y141732D02*
D03*
Y47244D02*
D03*
X149606Y39370D02*
D03*
Y23622D02*
D03*
X153543Y15748D02*
D03*
X149606Y7874D02*
D03*
X141732Y196851D02*
D03*
X145669Y188977D02*
D03*
X141732Y181103D02*
D03*
Y165354D02*
D03*
X145669Y157480D02*
D03*
X141732Y149606D02*
D03*
X145669Y141732D02*
D03*
X141732Y70866D02*
D03*
X145669Y62992D02*
D03*
X141732Y55118D02*
D03*
X145669Y47244D02*
D03*
X141732Y39370D02*
D03*
Y23622D02*
D03*
X145669Y15748D02*
D03*
X141732Y7874D02*
D03*
X133858Y196851D02*
D03*
X137795Y188977D02*
D03*
X133858Y181103D02*
D03*
Y165354D02*
D03*
Y149606D02*
D03*
Y39370D02*
D03*
Y23622D02*
D03*
X137795Y15748D02*
D03*
X133858Y7874D02*
D03*
X125984Y196851D02*
D03*
X129921Y188977D02*
D03*
Y173228D02*
D03*
X125984Y165354D02*
D03*
X129921Y157480D02*
D03*
X125984Y149606D02*
D03*
X129921Y141732D02*
D03*
X125984Y23622D02*
D03*
Y7874D02*
D03*
X118110Y196851D02*
D03*
X122047Y188977D02*
D03*
Y173228D02*
D03*
X118110Y165354D02*
D03*
X122047Y157480D02*
D03*
X118110Y149606D02*
D03*
X122047Y141732D02*
D03*
X118110Y23622D02*
D03*
Y7874D02*
D03*
X110236Y196851D02*
D03*
X114173Y188977D02*
D03*
X110236Y181103D02*
D03*
X114173Y173228D02*
D03*
X110236Y165354D02*
D03*
X114173Y157480D02*
D03*
X110236Y149606D02*
D03*
X114173Y141732D02*
D03*
X110236Y23622D02*
D03*
Y7874D02*
D03*
X102362Y196851D02*
D03*
X106299Y188977D02*
D03*
X102362Y181103D02*
D03*
X106299Y173228D02*
D03*
X102362Y165354D02*
D03*
X106299Y157480D02*
D03*
X102362Y149606D02*
D03*
X106299Y141732D02*
D03*
X102362Y39370D02*
D03*
X94488Y181103D02*
D03*
X98425Y173228D02*
D03*
Y157480D02*
D03*
X94488Y149606D02*
D03*
Y55118D02*
D03*
Y39370D02*
D03*
X86614Y196851D02*
D03*
X90551Y188977D02*
D03*
X86614Y181103D02*
D03*
X90551Y173228D02*
D03*
X86614Y149606D02*
D03*
Y133858D02*
D03*
X78740Y196851D02*
D03*
X82677Y188977D02*
D03*
X78740Y181103D02*
D03*
X82677Y173228D02*
D03*
Y157480D02*
D03*
X78740Y149606D02*
D03*
Y133858D02*
D03*
X70866Y196851D02*
D03*
X74803Y188977D02*
D03*
X70866Y181103D02*
D03*
X74803Y173228D02*
D03*
X62992Y181103D02*
D03*
X66929Y173228D02*
D03*
X55118Y196851D02*
D03*
Y181103D02*
D03*
X59055Y173228D02*
D03*
X51181Y188977D02*
D03*
X39370Y70866D02*
D03*
D98*
X261811Y96457D02*
D03*
X257874Y101575D02*
D03*
X261811Y106693D02*
D03*
X387402Y160236D02*
D03*
X528740Y72047D02*
D03*
X474409Y119685D02*
D03*
X382677Y110630D02*
D03*
X418504Y162992D02*
D03*
X214961D02*
D03*
X366929Y91870D02*
D03*
X529528Y59842D02*
D03*
X196850Y81496D02*
D03*
X119685Y116929D02*
D03*
X277559Y113779D02*
D03*
X261811Y121653D02*
D03*
X287402Y162992D02*
D03*
X366535Y114567D02*
D03*
X276449Y80655D02*
D03*
X116535Y46457D02*
D03*
X13386Y138189D02*
D03*
X24409Y108268D02*
D03*
X466929Y124409D02*
D03*
Y176772D02*
D03*
X163386Y38976D02*
D03*
X57874Y106299D02*
D03*
X17323Y117717D02*
D03*
X296417Y157283D02*
D03*
D99*
X533468Y83079D02*
D03*
X531500D02*
D03*
X529531D02*
D03*
X527563D02*
D03*
X525595D02*
D03*
X533468Y100598D02*
D03*
X531500D02*
D03*
X529531D02*
D03*
X527563D02*
D03*
X525595D02*
D03*
M02*
