G04*
G04 #@! TF.GenerationSoftware,Altium Limited,Altium Designer,18.1.11 (251)*
G04*
G04 Layer_Color=65535*
%FSLAX25Y25*%
%MOIN*%
G70*
G01*
G75*
%ADD10C,0.00984*%
%ADD11C,0.02362*%
%ADD12C,0.00787*%
%ADD13C,0.00197*%
%ADD14C,0.01000*%
%ADD15C,0.00650*%
G36*
X101051Y130228D02*
X101148Y130214D01*
X101273D01*
X101398Y130186D01*
X101551Y130172D01*
X101870Y130117D01*
X102231Y130033D01*
X102620Y129922D01*
X103008Y129783D01*
X102911Y129520D01*
X102897D01*
X102869Y129534D01*
X102814Y129561D01*
X102731Y129575D01*
X102647Y129617D01*
X102536Y129645D01*
X102411Y129686D01*
X102272Y129714D01*
X101967Y129797D01*
X101620Y129867D01*
X101245Y129908D01*
X100857Y129936D01*
X100482D01*
X100357Y129922D01*
X100218D01*
X99899Y129894D01*
X99566Y129853D01*
X99205Y129783D01*
X98830Y129686D01*
X98816D01*
X98789Y129672D01*
X98733Y129659D01*
X98664Y129631D01*
X98580Y129603D01*
X98483Y129561D01*
X98233Y129464D01*
X97956Y129339D01*
X97650Y129187D01*
X97331Y129006D01*
X96998Y128798D01*
X96984D01*
X96956Y128770D01*
X96915Y128743D01*
X96859Y128687D01*
X96693Y128562D01*
X96498Y128382D01*
X96262Y128173D01*
X96013Y127910D01*
X95763Y127632D01*
X95513Y127313D01*
Y127299D01*
X95485Y127271D01*
X95457Y127230D01*
X95416Y127160D01*
X95360Y127077D01*
X95305Y126994D01*
X95235Y126883D01*
X95166Y126758D01*
X95013Y126480D01*
X94861Y126161D01*
X94708Y125814D01*
X94583Y125439D01*
Y125425D01*
X94569Y125397D01*
X94555Y125342D01*
X94541Y125259D01*
X94514Y125175D01*
X94486Y125064D01*
X94472Y124939D01*
X94444Y124801D01*
X94389Y124495D01*
X94347Y124162D01*
X94319Y123787D01*
Y123413D01*
Y123399D01*
Y123371D01*
Y123315D01*
X94333Y123246D01*
X94347Y123149D01*
Y123038D01*
X94361Y122913D01*
X94389Y122788D01*
X94430Y122483D01*
X94514Y122136D01*
X94597Y121789D01*
X94722Y121414D01*
Y121400D01*
X94736Y121372D01*
X94763Y121317D01*
X94791Y121247D01*
X94833Y121164D01*
X94874Y121053D01*
X94999Y120817D01*
X95138Y120539D01*
X95319Y120234D01*
X95541Y119915D01*
X95777Y119596D01*
X95541Y119429D01*
Y119415D01*
X95527Y119429D01*
X95513Y119457D01*
X95471Y119498D01*
X95430Y119568D01*
X95360Y119651D01*
X95291Y119748D01*
X95221Y119859D01*
X95138Y119984D01*
X94958Y120262D01*
X94777Y120581D01*
X94597Y120942D01*
X94444Y121317D01*
Y121331D01*
X94430Y121358D01*
X94416Y121414D01*
X94389Y121497D01*
X94361Y121580D01*
X94319Y121691D01*
X94292Y121816D01*
X94250Y121955D01*
X94180Y122274D01*
X94111Y122621D01*
X94055Y122996D01*
X94028Y123399D01*
Y123413D01*
Y123440D01*
Y123510D01*
Y123579D01*
Y123676D01*
X94042Y123787D01*
Y123926D01*
X94055Y124065D01*
X94083Y124384D01*
X94139Y124745D01*
X94208Y125134D01*
X94305Y125522D01*
Y125536D01*
X94319Y125564D01*
X94333Y125619D01*
X94361Y125703D01*
X94402Y125786D01*
X94430Y125897D01*
X94486Y126022D01*
X94541Y126161D01*
X94680Y126466D01*
X94833Y126799D01*
X95041Y127146D01*
X95263Y127493D01*
X95277Y127507D01*
X95291Y127535D01*
X95332Y127577D01*
X95388Y127646D01*
X95443Y127729D01*
X95527Y127813D01*
X95707Y128035D01*
X95943Y128271D01*
X96207Y128520D01*
X96512Y128784D01*
X96832Y129020D01*
X96845Y129034D01*
X96873Y129048D01*
X96929Y129076D01*
X96984Y129131D01*
X97067Y129173D01*
X97165Y129242D01*
X97290Y129312D01*
X97414Y129381D01*
X97692Y129534D01*
X98025Y129686D01*
X98372Y129839D01*
X98747Y129964D01*
X98761D01*
X98789Y129978D01*
X98844Y129992D01*
X98927Y130006D01*
X99025Y130033D01*
X99136Y130061D01*
X99260Y130089D01*
X99399Y130117D01*
X99719Y130172D01*
X100079Y130214D01*
X100468Y130242D01*
X100982D01*
X101051Y130228D01*
D02*
G37*
G36*
X131851Y121261D02*
X131212D01*
Y122760D01*
X129463D01*
Y121261D01*
X128811D01*
Y124801D01*
X129463D01*
Y123329D01*
X131212D01*
Y124801D01*
X131851D01*
Y121261D01*
D02*
G37*
G36*
X127479Y124787D02*
X127603Y124773D01*
X127728Y124745D01*
X127867Y124689D01*
X127992Y124634D01*
X128103Y124551D01*
X128117Y124537D01*
X128145Y124509D01*
X128186Y124440D01*
X128242Y124370D01*
X128297Y124259D01*
X128339Y124134D01*
X128367Y123982D01*
X128381Y123801D01*
Y123773D01*
Y123718D01*
X128367Y123607D01*
X128339Y123496D01*
X128284Y123357D01*
X128228Y123204D01*
X128131Y123066D01*
X128006Y122927D01*
X127992Y122913D01*
X127937Y122871D01*
X127853Y122816D01*
X127728Y122746D01*
X127576Y122677D01*
X127381Y122608D01*
X127159Y122538D01*
X126896Y122496D01*
X126798Y123066D01*
X126812D01*
X126868Y123079D01*
X126951Y123107D01*
X127048Y123135D01*
X127270Y123218D01*
X127367Y123274D01*
X127465Y123329D01*
X127479Y123343D01*
X127506Y123357D01*
X127534Y123399D01*
X127590Y123454D01*
X127659Y123593D01*
X127687Y123676D01*
X127701Y123773D01*
Y123787D01*
Y123815D01*
X127687Y123898D01*
X127659Y123995D01*
X127590Y124093D01*
X127576Y124107D01*
X127506Y124148D01*
X127409Y124190D01*
X127257Y124204D01*
X126368D01*
Y121261D01*
X125716D01*
Y124801D01*
X127381D01*
X127479Y124787D01*
D02*
G37*
G36*
X139596Y121261D02*
X138957D01*
X137083Y123884D01*
Y121261D01*
X136445D01*
Y124801D01*
X137111D01*
X138971Y122219D01*
Y124801D01*
X139596D01*
Y121261D01*
D02*
G37*
G36*
X150741D02*
X150131D01*
Y123732D01*
X149173Y121261D01*
X148618D01*
X147646Y123732D01*
Y121261D01*
X147036D01*
Y124801D01*
X147716D01*
X148909Y122122D01*
X150089Y124801D01*
X150741D01*
Y121261D01*
D02*
G37*
G36*
X123856D02*
X123259D01*
Y123732D01*
X122287Y121261D01*
X121732D01*
X120761Y123732D01*
Y121261D01*
X120150D01*
Y124801D01*
X120844D01*
X122024Y122122D01*
X123204Y124801D01*
X123856D01*
Y121261D01*
D02*
G37*
G36*
X142649Y124232D02*
X141650D01*
Y121261D01*
X140984D01*
Y124232D01*
X139971D01*
Y124801D01*
X142649D01*
Y124232D01*
D02*
G37*
G36*
X136029Y121261D02*
X135321D01*
X134918Y122219D01*
X133738D01*
X133974Y122788D01*
X134682D01*
X134127Y124120D01*
X132961Y121261D01*
X132295D01*
X133780Y124801D01*
X134488D01*
X136029Y121261D01*
D02*
G37*
G36*
X119734D02*
X119026D01*
X118623Y122219D01*
X117443D01*
X117665Y122788D01*
X118387D01*
X117832Y124120D01*
X116652Y121261D01*
X116000D01*
X117485Y124801D01*
X118193D01*
X119734Y121261D01*
D02*
G37*
G36*
X115667Y124232D02*
X113890D01*
Y123343D01*
X115569D01*
Y122760D01*
X113890D01*
Y121830D01*
X115694D01*
Y121261D01*
X113252D01*
Y124801D01*
X115667D01*
Y124232D01*
D02*
G37*
G36*
X112877D02*
X111850D01*
Y121261D01*
X111211D01*
Y124232D01*
X110198D01*
Y124801D01*
X112877D01*
Y124232D01*
D02*
G37*
G36*
X144967Y124787D02*
X145162Y124759D01*
X145370Y124703D01*
X145592Y124620D01*
X145800Y124509D01*
X145981Y124356D01*
X145994Y124343D01*
X146050Y124273D01*
X146119Y124176D01*
X146203Y124023D01*
X146286Y123843D01*
X146355Y123607D01*
X146411Y123343D01*
X146425Y123024D01*
Y123010D01*
Y122982D01*
Y122941D01*
Y122885D01*
X146397Y122719D01*
X146369Y122524D01*
X146314Y122302D01*
X146244Y122080D01*
X146133Y121872D01*
X145981Y121678D01*
X145967Y121664D01*
X145897Y121608D01*
X145800Y121539D01*
X145648Y121456D01*
X145467Y121372D01*
X145245Y121303D01*
X144981Y121247D01*
X144676Y121233D01*
X144593D01*
X144537Y121247D01*
X144384Y121261D01*
X144190Y121289D01*
X143982Y121344D01*
X143774Y121428D01*
X143565Y121525D01*
X143371Y121678D01*
X143357Y121705D01*
X143302Y121761D01*
X143232Y121872D01*
X143149Y122025D01*
X143066Y122205D01*
X142982Y122441D01*
X142927Y122705D01*
X142899Y123024D01*
Y123038D01*
Y123066D01*
Y123107D01*
X142913Y123177D01*
X142927Y123329D01*
X142955Y123524D01*
X143010Y123746D01*
X143094Y123968D01*
X143191Y124176D01*
X143343Y124356D01*
X143371Y124370D01*
X143427Y124426D01*
X143538Y124495D01*
X143676Y124592D01*
X143871Y124676D01*
X144093Y124745D01*
X144370Y124801D01*
X144676Y124814D01*
X144815D01*
X144967Y124787D01*
D02*
G37*
G36*
X105604Y127979D02*
X105618Y127951D01*
X105659Y127910D01*
X105715Y127854D01*
X105770Y127771D01*
X105840Y127674D01*
X105923Y127577D01*
X106006Y127452D01*
X106201Y127174D01*
X106381Y126869D01*
X106575Y126508D01*
X106742Y126133D01*
Y126119D01*
X106756Y126091D01*
X106783Y126036D01*
X106811Y125953D01*
X106839Y125855D01*
X106881Y125744D01*
X106922Y125619D01*
X106964Y125481D01*
X107047Y125161D01*
X107117Y124801D01*
X107186Y124412D01*
X107228Y123995D01*
Y123982D01*
Y123940D01*
Y123884D01*
Y123801D01*
Y123704D01*
Y123579D01*
Y123440D01*
X107214Y123288D01*
X107186Y122954D01*
X107144Y122580D01*
X107061Y122177D01*
X106964Y121775D01*
Y121761D01*
X106950Y121733D01*
X106936Y121664D01*
X106908Y121594D01*
X106867Y121497D01*
X106825Y121386D01*
X106783Y121261D01*
X106728Y121122D01*
X106589Y120817D01*
X106409Y120470D01*
X106214Y120123D01*
X105978Y119776D01*
X105965Y119762D01*
X105951Y119734D01*
X105909Y119693D01*
X105867Y119623D01*
X105798Y119554D01*
X105729Y119457D01*
X105534Y119249D01*
X105312Y118999D01*
X105035Y118735D01*
X104729Y118471D01*
X104396Y118221D01*
X104382Y118208D01*
X104355Y118194D01*
X104299Y118166D01*
X104230Y118110D01*
X104146Y118055D01*
X104049Y117999D01*
X103924Y117930D01*
X103799Y117861D01*
X103494Y117708D01*
X103161Y117555D01*
X102786Y117403D01*
X102383Y117278D01*
X102370D01*
X102314Y117264D01*
X102231Y117236D01*
X102120Y117208D01*
X101981Y117180D01*
X101828Y117153D01*
X101509Y117097D01*
X101495D01*
X101440Y117083D01*
X101342D01*
X101232Y117069D01*
X101107Y117055D01*
X100954D01*
X100621Y117042D01*
X100510D01*
X100385Y117055D01*
X100218D01*
X100024Y117069D01*
X99802Y117097D01*
X99580Y117125D01*
X99330Y117167D01*
X99302D01*
X99219Y117194D01*
X99094Y117222D01*
X98927Y117264D01*
X98733Y117319D01*
X98525Y117389D01*
X98081Y117555D01*
X98192Y117819D01*
X98206D01*
X98233Y117805D01*
X98289Y117777D01*
X98372Y117750D01*
X98469Y117722D01*
X98567Y117680D01*
X98691Y117639D01*
X98844Y117597D01*
X99150Y117514D01*
X99510Y117430D01*
X99885Y117375D01*
X100274Y117333D01*
X100787D01*
X100940Y117347D01*
X101245Y117361D01*
X101592Y117403D01*
X101967Y117472D01*
X102342Y117555D01*
X102356D01*
X102383Y117569D01*
X102439Y117583D01*
X102508Y117611D01*
X102606Y117639D01*
X102703Y117680D01*
X102953Y117777D01*
X103244Y117902D01*
X103563Y118055D01*
X103896Y118235D01*
X104230Y118444D01*
X104243Y118457D01*
X104271Y118471D01*
X104313Y118499D01*
X104382Y118555D01*
X104452Y118610D01*
X104535Y118679D01*
X104743Y118860D01*
X104993Y119082D01*
X105243Y119332D01*
X105507Y119623D01*
X105756Y119956D01*
X105770Y119970D01*
X105784Y119998D01*
X105812Y120040D01*
X105867Y120109D01*
X105909Y120192D01*
X105978Y120290D01*
X106048Y120401D01*
X106117Y120526D01*
X106270Y120817D01*
X106423Y121150D01*
X106575Y121511D01*
X106700Y121886D01*
Y121900D01*
X106714Y121927D01*
X106728Y121983D01*
X106742Y122066D01*
X106770Y122150D01*
X106783Y122260D01*
X106811Y122385D01*
X106839Y122524D01*
X106881Y122844D01*
X106922Y123190D01*
X106936Y123551D01*
Y123940D01*
Y123954D01*
Y123982D01*
Y124037D01*
X106922Y124120D01*
X106908Y124204D01*
Y124315D01*
X106881Y124440D01*
X106867Y124578D01*
X106811Y124884D01*
X106728Y125231D01*
X106631Y125592D01*
X106492Y125967D01*
Y125980D01*
X106478Y126008D01*
X106450Y126064D01*
X106423Y126133D01*
X106381Y126230D01*
X106325Y126327D01*
X106201Y126577D01*
X106048Y126855D01*
X105853Y127160D01*
X105631Y127479D01*
X105368Y127799D01*
X105590Y127993D01*
X105604Y127979D01*
D02*
G37*
G36*
X106756Y130949D02*
Y130922D01*
X106770Y130908D01*
Y130880D01*
X106756Y130866D01*
X106742Y130852D01*
X106700Y130811D01*
X106659Y130755D01*
X106520Y130602D01*
X106353Y130408D01*
X106145Y130186D01*
X105923Y129922D01*
X105673Y129659D01*
X105423Y129367D01*
X105409Y129353D01*
X105395Y129339D01*
X105354Y129298D01*
X105312Y129242D01*
X105173Y129089D01*
X104993Y128895D01*
X104799Y128659D01*
X104563Y128395D01*
X104313Y128132D01*
X104063Y127840D01*
X104049Y127826D01*
X104035Y127813D01*
X103994Y127771D01*
X103952Y127715D01*
X103813Y127563D01*
X103633Y127368D01*
X103425Y127132D01*
X103202Y126869D01*
X102953Y126591D01*
X102689Y126300D01*
X102675Y126286D01*
X102661Y126272D01*
X102620Y126230D01*
X102578Y126175D01*
X102439Y126022D01*
X102259Y125828D01*
X102050Y125592D01*
X101828Y125328D01*
X101578Y125064D01*
X101315Y124773D01*
X101329D01*
X101356Y124759D01*
X101398Y124745D01*
X101454Y124731D01*
X101523Y124717D01*
X101606Y124689D01*
X101814Y124634D01*
X102064Y124565D01*
X102328Y124495D01*
X102620Y124412D01*
X102925Y124329D01*
X102939D01*
X102966Y124315D01*
X103008D01*
X103064Y124287D01*
X103133Y124273D01*
X103216Y124245D01*
X103425Y124204D01*
X103674Y124134D01*
X103952Y124065D01*
X104243Y123982D01*
X104549Y123898D01*
X104535Y123884D01*
X104493Y123857D01*
X104424Y123801D01*
X104327Y123732D01*
X104202Y123649D01*
X104063Y123538D01*
X103910Y123426D01*
X103730Y123288D01*
X103536Y123149D01*
X103327Y122996D01*
X102883Y122663D01*
X102411Y122302D01*
X101926Y121927D01*
X101912Y121914D01*
X101870Y121886D01*
X101801Y121830D01*
X101703Y121761D01*
X101578Y121664D01*
X101440Y121566D01*
X101287Y121442D01*
X101107Y121317D01*
X100926Y121164D01*
X100718Y121011D01*
X100274Y120678D01*
X99802Y120331D01*
X99316Y119956D01*
X99302Y119943D01*
X99260Y119915D01*
X99191Y119859D01*
X99094Y119790D01*
X98983Y119707D01*
X98844Y119596D01*
X98678Y119484D01*
X98511Y119346D01*
X98317Y119207D01*
X98122Y119054D01*
X97678Y118721D01*
X97206Y118374D01*
X96720Y118013D01*
X96707Y117999D01*
X96665Y117972D01*
X96596Y117916D01*
X96498Y117847D01*
X96373Y117763D01*
X96235Y117652D01*
X96082Y117541D01*
X95902Y117403D01*
X95721Y117264D01*
X95513Y117111D01*
X95069Y116778D01*
X94611Y116431D01*
X94125Y116070D01*
X94111Y116084D01*
X94097Y116112D01*
Y116126D01*
Y116139D01*
X94111Y116153D01*
X94125Y116167D01*
X94167Y116209D01*
X94222Y116264D01*
X94347Y116417D01*
X94527Y116611D01*
X94736Y116833D01*
X94972Y117083D01*
X95221Y117347D01*
X95485Y117625D01*
X95499Y117639D01*
X95513Y117652D01*
X95555Y117694D01*
X95610Y117750D01*
X95735Y117902D01*
X95915Y118096D01*
X96124Y118319D01*
X96360Y118568D01*
X96609Y118832D01*
X96873Y119110D01*
X96887Y119124D01*
X96901Y119138D01*
X96943Y119179D01*
X96998Y119235D01*
X97137Y119387D01*
X97317Y119582D01*
X97526Y119804D01*
X97775Y120068D01*
X98025Y120345D01*
X98289Y120623D01*
X98303Y120637D01*
X98317Y120650D01*
X98358Y120692D01*
X98414Y120748D01*
X98553Y120900D01*
X98719Y121095D01*
X98941Y121317D01*
X99177Y121580D01*
X99427Y121858D01*
X99691Y122136D01*
X99677D01*
X99663Y122150D01*
X99580Y122177D01*
X99441Y122219D01*
X99274Y122274D01*
X99066Y122344D01*
X98844Y122427D01*
X98608Y122496D01*
X98358Y122580D01*
X98344D01*
X98331Y122594D01*
X98247Y122621D01*
X98122Y122663D01*
X97942Y122719D01*
X97748Y122788D01*
X97526Y122871D01*
X97276Y122954D01*
X97026Y123038D01*
X97040Y123052D01*
X97081Y123079D01*
X97151Y123135D01*
X97234Y123204D01*
X97345Y123301D01*
X97484Y123413D01*
X97637Y123524D01*
X97789Y123662D01*
X97970Y123815D01*
X98164Y123968D01*
X98580Y124301D01*
X99011Y124662D01*
X99469Y125037D01*
X99483Y125050D01*
X99524Y125078D01*
X99594Y125134D01*
X99677Y125203D01*
X99788Y125300D01*
X99913Y125397D01*
X100066Y125522D01*
X100232Y125647D01*
X100413Y125800D01*
X100593Y125953D01*
X101009Y126286D01*
X101454Y126647D01*
X101898Y127007D01*
X101912Y127021D01*
X101953Y127049D01*
X102023Y127105D01*
X102106Y127174D01*
X102217Y127271D01*
X102342Y127382D01*
X102495Y127493D01*
X102661Y127632D01*
X102842Y127771D01*
X103022Y127937D01*
X103438Y128271D01*
X103883Y128631D01*
X104327Y128992D01*
X104341Y129006D01*
X104382Y129034D01*
X104452Y129089D01*
X104535Y129159D01*
X104646Y129256D01*
X104771Y129353D01*
X104924Y129478D01*
X105076Y129603D01*
X105257Y129756D01*
X105451Y129908D01*
X105853Y130242D01*
X106298Y130602D01*
X106742Y130963D01*
X106756Y130949D01*
D02*
G37*
%LPC*%
G36*
X144676Y124259D02*
X144579D01*
X144482Y124245D01*
X144370Y124218D01*
X144232Y124176D01*
X144093Y124120D01*
X143954Y124051D01*
X143843Y123940D01*
X143829Y123926D01*
X143801Y123884D01*
X143760Y123815D01*
X143718Y123718D01*
X143663Y123579D01*
X143621Y123426D01*
X143593Y123246D01*
X143579Y123038D01*
Y123010D01*
Y122941D01*
X143593Y122830D01*
X143607Y122691D01*
X143649Y122552D01*
X143690Y122399D01*
X143760Y122247D01*
X143843Y122122D01*
X143857Y122108D01*
X143899Y122080D01*
X143954Y122025D01*
X144051Y121969D01*
X144162Y121914D01*
X144315Y121858D01*
X144482Y121830D01*
X144676Y121816D01*
X144759D01*
X144856Y121830D01*
X144967Y121858D01*
X145106Y121886D01*
X145231Y121941D01*
X145356Y122025D01*
X145467Y122122D01*
X145481Y122136D01*
X145509Y122177D01*
X145550Y122247D01*
X145606Y122358D01*
X145661Y122483D01*
X145703Y122635D01*
X145731Y122830D01*
X145745Y123038D01*
Y123052D01*
Y123066D01*
Y123135D01*
X145731Y123246D01*
X145717Y123371D01*
X145675Y123524D01*
X145634Y123676D01*
X145564Y123815D01*
X145467Y123940D01*
X145453Y123954D01*
X145412Y123995D01*
X145356Y124037D01*
X145273Y124107D01*
X145162Y124162D01*
X145023Y124204D01*
X144856Y124245D01*
X144676Y124259D01*
D02*
G37*
%LPD*%
D10*
X68194Y81653D02*
G03*
X68194Y81653I-492J0D01*
G01*
X89665Y63386D02*
G03*
X89665Y63386I-492J0D01*
G01*
X207187Y67238D02*
G03*
X207187Y67238I-492J0D01*
G01*
X112598Y69764D02*
G03*
X112598Y69764I-492J0D01*
G01*
X198998Y80821D02*
G03*
X198998Y80821I-492J0D01*
G01*
D11*
X122047Y65748D02*
G03*
X122047Y65748I-1181J0D01*
G01*
D12*
X54907Y81850D02*
X65143D01*
X54907D02*
Y85394D01*
Y99961D02*
X65143D01*
X54907Y96417D02*
Y99961D01*
X82087Y64173D02*
X85630D01*
X82087Y76772D02*
X85630D01*
Y64173D02*
Y76772D01*
X82087Y64173D02*
Y76772D01*
X84890Y84153D02*
X85677D01*
X84890Y79626D02*
X85677D01*
X40067Y43516D02*
X58965D01*
X40067Y55484D02*
X58965D01*
X206735Y56018D02*
Y59758D01*
X180357D02*
X206735D01*
X180357Y56018D02*
Y59758D01*
X51685Y58764D02*
X62315D01*
X51685Y79236D02*
X62315D01*
X116929Y53150D02*
Y69685D01*
X131890Y53150D02*
Y69685D01*
X116929D02*
X131890D01*
X116929Y53150D02*
X131890D01*
X224845Y88301D02*
Y92041D01*
X198467Y88301D02*
X224845D01*
X198467D02*
Y92041D01*
X84890Y87500D02*
X85677D01*
X84890Y92028D02*
X85677D01*
D13*
X59876Y110450D02*
Y113403D01*
X168729Y64934D02*
X171682D01*
D14*
X97500Y86500D02*
Y113000D01*
X147500Y1500D02*
Y109500D01*
X97500Y2000D02*
Y75000D01*
X124500Y61500D02*
Y90000D01*
Y31500D02*
Y61500D01*
X141500Y8150D02*
X147500Y10150D01*
X141500Y12150D02*
X147500Y10150D01*
X97500D02*
X103500Y12150D01*
X97500Y10150D02*
X103500Y8150D01*
X133580Y10150D02*
X147500D01*
X97500D02*
X108120D01*
X147500Y3000D02*
Y11150D01*
X97500Y3500D02*
Y11150D01*
X20000Y88100D02*
X23999D01*
X18150Y50099D02*
X22149D01*
X20149Y52099D02*
Y48100D01*
D15*
X107201Y43606D02*
Y38607D01*
X110534Y43606D02*
Y38607D01*
X107201Y41225D02*
X110534D01*
X111915Y43606D02*
X113819Y38607D01*
X115723Y43606D02*
X113819Y38607D01*
X130150Y43649D02*
Y38650D01*
X133007D01*
X133554Y43649D02*
X135458Y38650D01*
X137363Y43649D02*
X135458Y38650D01*
X111666Y118499D02*
Y115000D01*
X110500Y118499D02*
X112833D01*
X115582Y117999D02*
X115249Y118333D01*
X114749Y118499D01*
X114083D01*
X113583Y118333D01*
X113249Y117999D01*
Y117666D01*
X113416Y117333D01*
X113583Y117166D01*
X113916Y117000D01*
X114916Y116666D01*
X115249Y116500D01*
X115416Y116333D01*
X115582Y116000D01*
Y115500D01*
X115249Y115167D01*
X114749Y115000D01*
X114083D01*
X113583Y115167D01*
X113249Y115500D01*
X119032Y115000D02*
X117699Y118499D01*
X116365Y115000D01*
X116865Y116166D02*
X118532D01*
X119848Y118499D02*
Y115000D01*
X121848D01*
X124980Y118499D02*
Y115000D01*
Y118499D02*
X126480D01*
X126980Y118333D01*
X127146Y118166D01*
X127313Y117833D01*
Y117499D01*
X127146Y117166D01*
X126980Y117000D01*
X126480Y116833D01*
X124980D01*
X126147D02*
X127313Y115000D01*
X130262Y118499D02*
X128096D01*
Y115000D01*
X130262D01*
X128096Y116833D02*
X129429D01*
X130846Y118499D02*
X132179Y115000D01*
X133512Y118499D02*
X132179Y115000D01*
X136878Y117666D02*
Y117833D01*
X137044Y118166D01*
X137211Y118333D01*
X137544Y118499D01*
X138211D01*
X138544Y118333D01*
X138711Y118166D01*
X138877Y117833D01*
Y117499D01*
X138711Y117166D01*
X138377Y116666D01*
X136711Y115000D01*
X139044D01*
X109770Y7751D02*
X110936D01*
X110353D01*
Y11249D01*
X109770Y10666D01*
X115019Y7751D02*
X112686D01*
X115019Y10083D01*
Y10666D01*
X114435Y11249D01*
X113269D01*
X112686Y10666D01*
X116185Y7751D02*
Y8334D01*
X116768D01*
Y7751D01*
X116185D01*
X119101Y11249D02*
X121433D01*
Y10666D01*
X119101Y8334D01*
Y7751D01*
X122599Y10666D02*
X123183Y11249D01*
X124349D01*
X124932Y10666D01*
Y8334D01*
X124349Y7751D01*
X123183D01*
X122599Y8334D01*
Y10666D01*
X126098Y7751D02*
Y10083D01*
X126681D01*
X127265Y9500D01*
Y7751D01*
Y9500D01*
X127848Y10083D01*
X128431Y9500D01*
Y7751D01*
X129597D02*
Y10083D01*
X130180D01*
X130763Y9500D01*
Y7751D01*
Y9500D01*
X131347Y10083D01*
X131930Y9500D01*
Y7751D01*
X149717Y65471D02*
X152383D01*
X152883Y65304D01*
X153050Y65137D01*
X153216Y64804D01*
Y64471D01*
X153050Y64138D01*
X152883Y63971D01*
X152383Y63804D01*
X152050D01*
X151550Y66370D02*
Y67870D01*
X151383Y68370D01*
X151217Y68537D01*
X150884Y68703D01*
X150384D01*
X150050Y68537D01*
X149884Y68370D01*
X149717Y67870D01*
Y66370D01*
X153216D01*
X149717Y69820D02*
Y71653D01*
X151050Y70653D01*
Y71153D01*
X151217Y71486D01*
X151383Y71653D01*
X151883Y71819D01*
X152217D01*
X152717Y71653D01*
X153050Y71319D01*
X153216Y70819D01*
Y70320D01*
X153050Y69820D01*
X152883Y69653D01*
X152550Y69486D01*
X149717Y75352D02*
X153216Y76685D01*
X149717Y78018D02*
X153216Y76685D01*
X150550Y80967D02*
X150217Y80801D01*
X149884Y80467D01*
X149717Y80134D01*
Y79468D01*
X149884Y79134D01*
X150217Y78801D01*
X150550Y78635D01*
X151050Y78468D01*
X151883D01*
X152383Y78635D01*
X152717Y78801D01*
X153050Y79134D01*
X153216Y79468D01*
Y80134D01*
X153050Y80467D01*
X152717Y80801D01*
X152383Y80967D01*
X149717Y81950D02*
X152217D01*
X152717Y82117D01*
X153050Y82450D01*
X153216Y82950D01*
Y83284D01*
X153050Y83783D01*
X152717Y84117D01*
X152217Y84283D01*
X149717D01*
X154383Y85250D02*
Y87916D01*
X153216Y91032D02*
X149717Y89699D01*
X153216Y88366D01*
X152050Y88866D02*
Y90532D01*
X150550Y94348D02*
X150217Y94181D01*
X149884Y93848D01*
X149717Y93515D01*
Y92848D01*
X149884Y92515D01*
X150217Y92182D01*
X150550Y92015D01*
X151050Y91848D01*
X151883D01*
X152383Y92015D01*
X152717Y92182D01*
X153050Y92515D01*
X153216Y92848D01*
Y93515D01*
X153050Y93848D01*
X152717Y94181D01*
X152383Y94348D01*
X149717Y96497D02*
X153216D01*
X149717Y95331D02*
Y97664D01*
Y98080D02*
X153216D01*
X149717Y98813D02*
X153216Y100147D01*
X149717Y101480D02*
X153216Y100147D01*
X149717Y104096D02*
Y101929D01*
X153216D01*
Y104096D01*
X151383Y101929D02*
Y103263D01*
X185217Y88495D02*
X187883D01*
X188383Y88329D01*
X188550Y88162D01*
X188716Y87829D01*
Y87496D01*
X188550Y87162D01*
X188383Y86996D01*
X187883Y86829D01*
X187550D01*
X187050Y89395D02*
Y90895D01*
X186883Y91395D01*
X186717Y91561D01*
X186384Y91728D01*
X185884D01*
X185550Y91561D01*
X185384Y91395D01*
X185217Y90895D01*
Y89395D01*
X188716D01*
X185884Y92511D02*
X185717Y92844D01*
X185217Y93344D01*
X188716D01*
X186050Y100326D02*
X185717Y100160D01*
X185384Y99826D01*
X185217Y99493D01*
Y98826D01*
X185384Y98493D01*
X185717Y98160D01*
X186050Y97993D01*
X186550Y97827D01*
X187383D01*
X187883Y97993D01*
X188216Y98160D01*
X188550Y98493D01*
X188716Y98826D01*
Y99493D01*
X188550Y99826D01*
X188216Y100160D01*
X187883Y100326D01*
X187383D01*
Y99493D02*
Y100326D01*
X188716Y103792D02*
X185217Y102459D01*
X188716Y101126D01*
X187550Y101626D02*
Y103292D01*
X185217Y105775D02*
X188716D01*
X185217Y104609D02*
Y106941D01*
Y109524D02*
Y107358D01*
X188716D01*
Y109524D01*
X186883Y107358D02*
Y108691D01*
X189883Y110107D02*
Y112774D01*
X186050Y115723D02*
X185717Y115556D01*
X185384Y115223D01*
X185217Y114890D01*
Y114223D01*
X185384Y113890D01*
X185717Y113557D01*
X186050Y113390D01*
X186550Y113223D01*
X187383D01*
X187883Y113390D01*
X188216Y113557D01*
X188550Y113890D01*
X188716Y114223D01*
Y114890D01*
X188550Y115223D01*
X188216Y115556D01*
X187883Y115723D01*
X185217Y117872D02*
X188716D01*
X185217Y116706D02*
Y119039D01*
Y119455D02*
X188716D01*
X185217D02*
Y120955D01*
X185384Y121455D01*
X185550Y121622D01*
X185884Y121788D01*
X186217D01*
X186550Y121622D01*
X186717Y121455D01*
X186883Y120955D01*
Y119455D01*
Y120622D02*
X188716Y121788D01*
X185217Y122571D02*
X188716D01*
Y124571D01*
X151866Y29049D02*
Y26383D01*
X151700Y25883D01*
X151533Y25717D01*
X151200Y25550D01*
X150866D01*
X150533Y25717D01*
X150367Y25883D01*
X150200Y26383D01*
Y26716D01*
X152766Y28383D02*
X153099Y28549D01*
X153599Y29049D01*
Y25550D01*
X150516Y40949D02*
Y38283D01*
X150350Y37783D01*
X150183Y37617D01*
X149850Y37450D01*
X149516D01*
X149183Y37617D01*
X149017Y37783D01*
X148850Y38283D01*
Y38616D01*
X151416Y39116D02*
X152916D01*
X153416Y39283D01*
X153582Y39450D01*
X153749Y39783D01*
Y40283D01*
X153582Y40616D01*
X153416Y40783D01*
X152916Y40949D01*
X151416D01*
Y37450D01*
X156198Y40949D02*
X154532Y38616D01*
X157032D01*
X156198Y40949D02*
Y37450D01*
X160398Y40949D02*
Y37450D01*
X162397D01*
X162780Y40949D02*
X164113Y37450D01*
X165446Y40949D02*
X164113Y37450D01*
X165896Y36284D02*
X168562D01*
X171512Y40116D02*
X171345Y40449D01*
X171012Y40783D01*
X170679Y40949D01*
X170012D01*
X169679Y40783D01*
X169346Y40449D01*
X169179Y40116D01*
X169012Y39616D01*
Y38783D01*
X169179Y38283D01*
X169346Y37950D01*
X169679Y37617D01*
X170012Y37450D01*
X170679D01*
X171012Y37617D01*
X171345Y37950D01*
X171512Y38283D01*
Y38783D01*
X170679D02*
X171512D01*
X172312Y40949D02*
Y37450D01*
Y40949D02*
X174644Y37450D01*
Y40949D02*
Y37450D01*
X175611Y40949D02*
Y37450D01*
Y40949D02*
X176777D01*
X177277Y40783D01*
X177611Y40449D01*
X177777Y40116D01*
X177944Y39616D01*
Y38783D01*
X177777Y38283D01*
X177611Y37950D01*
X177277Y37617D01*
X176777Y37450D01*
X175611D01*
X92520Y82999D02*
Y79500D01*
Y82999D02*
X94019D01*
X94519Y82833D01*
X94686Y82666D01*
X94853Y82333D01*
Y81999D01*
X94686Y81666D01*
X94519Y81500D01*
X94019Y81333D01*
X92520D01*
X93686D02*
X94853Y79500D01*
X95802Y82166D02*
Y82333D01*
X95969Y82666D01*
X96136Y82833D01*
X96469Y82999D01*
X97135D01*
X97469Y82833D01*
X97635Y82666D01*
X97802Y82333D01*
Y81999D01*
X97635Y81666D01*
X97302Y81166D01*
X95636Y79500D01*
X97969D01*
X45450Y100349D02*
Y97850D01*
X45617Y97350D01*
X45950Y97017D01*
X46450Y96850D01*
X46783D01*
X47283Y97017D01*
X47616Y97350D01*
X47783Y97850D01*
Y100349D01*
X49082D02*
X50915D01*
X49916Y99016D01*
X50416D01*
X50749Y98850D01*
X50915Y98683D01*
X51082Y98183D01*
Y97850D01*
X50915Y97350D01*
X50582Y97017D01*
X50082Y96850D01*
X49582D01*
X49082Y97017D01*
X48916Y97183D01*
X48749Y97517D01*
X116703Y75393D02*
Y72893D01*
X116870Y72393D01*
X117203Y72060D01*
X117703Y71894D01*
X118036D01*
X118536Y72060D01*
X118870Y72393D01*
X119036Y72893D01*
Y75393D01*
X120169Y74560D02*
Y74726D01*
X120336Y75059D01*
X120503Y75226D01*
X120836Y75393D01*
X121502D01*
X121836Y75226D01*
X122002Y75059D01*
X122169Y74726D01*
Y74393D01*
X122002Y74060D01*
X121669Y73560D01*
X120003Y71894D01*
X122336D01*
X75500Y61849D02*
Y59350D01*
X75667Y58850D01*
X76000Y58517D01*
X76500Y58350D01*
X76833D01*
X77333Y58517D01*
X77666Y58850D01*
X77833Y59350D01*
Y61849D01*
X78799Y61183D02*
X79133Y61349D01*
X79632Y61849D01*
Y58350D01*
X72251Y115350D02*
X75750D01*
X72251D02*
Y116850D01*
X72417Y117350D01*
X72584Y117516D01*
X72917Y117683D01*
X73251D01*
X73584Y117516D01*
X73750Y117350D01*
X73917Y116850D01*
Y115350D01*
Y116516D02*
X75750Y117683D01*
X72251Y120799D02*
X75750Y119132D01*
X72251Y118466D02*
Y120799D01*
X165251Y83450D02*
X168750D01*
X165251D02*
Y84950D01*
X165417Y85450D01*
X165584Y85616D01*
X165917Y85783D01*
X166251D01*
X166584Y85616D01*
X166750Y85450D01*
X166917Y84950D01*
Y83450D01*
Y84616D02*
X168750Y85783D01*
X165751Y88566D02*
X165417Y88399D01*
X165251Y87899D01*
Y87566D01*
X165417Y87066D01*
X165917Y86733D01*
X166750Y86566D01*
X167584D01*
X168250Y86733D01*
X168583Y87066D01*
X168750Y87566D01*
Y87732D01*
X168583Y88232D01*
X168250Y88566D01*
X167750Y88732D01*
X167584D01*
X167084Y88566D01*
X166750Y88232D01*
X166584Y87732D01*
Y87566D01*
X166750Y87066D01*
X167084Y86733D01*
X167584Y86566D01*
X165050Y63399D02*
Y59900D01*
Y63399D02*
X166550D01*
X167050Y63233D01*
X167216Y63066D01*
X167383Y62733D01*
Y62400D01*
X167216Y62066D01*
X167050Y61900D01*
X166550Y61733D01*
X165050D01*
X166216D02*
X167383Y59900D01*
X170166Y63399D02*
X168499D01*
X168333Y61900D01*
X168499Y62066D01*
X168999Y62233D01*
X169499D01*
X169999Y62066D01*
X170332Y61733D01*
X170499Y61233D01*
Y60900D01*
X170332Y60400D01*
X169999Y60067D01*
X169499Y59900D01*
X168999D01*
X168499Y60067D01*
X168333Y60233D01*
X168166Y60567D01*
X156651Y83400D02*
X160150D01*
X156651D02*
Y84900D01*
X156817Y85400D01*
X156984Y85566D01*
X157317Y85733D01*
X157650D01*
X157984Y85566D01*
X158150Y85400D01*
X158317Y84900D01*
Y83400D01*
Y84566D02*
X160150Y85733D01*
X156651Y88182D02*
X158984Y86516D01*
Y89016D01*
X156651Y88182D02*
X160150D01*
X86200Y97849D02*
Y94350D01*
Y97849D02*
X87700D01*
X88200Y97683D01*
X88366Y97516D01*
X88533Y97183D01*
Y96850D01*
X88366Y96516D01*
X88200Y96350D01*
X87700Y96183D01*
X86200D01*
X87366D02*
X88533Y94350D01*
X89649Y97849D02*
X91482D01*
X90482Y96516D01*
X90982D01*
X91316Y96350D01*
X91482Y96183D01*
X91649Y95683D01*
Y95350D01*
X91482Y94850D01*
X91149Y94517D01*
X90649Y94350D01*
X90149D01*
X89649Y94517D01*
X89483Y94683D01*
X89316Y95016D01*
X213001Y62250D02*
X216500D01*
X213001D02*
Y63750D01*
X213167Y64250D01*
X213334Y64416D01*
X213667Y64583D01*
X214001D01*
X214334Y64416D01*
X214500Y64250D01*
X214667Y63750D01*
Y62250D01*
Y63416D02*
X216500Y64583D01*
X213667Y65366D02*
X213501Y65699D01*
X213001Y66199D01*
X216500D01*
X173150Y34649D02*
X172817Y34483D01*
X172483Y34149D01*
X172317Y33816D01*
X172150Y33316D01*
Y32483D01*
X172317Y31983D01*
X172483Y31650D01*
X172817Y31317D01*
X173150Y31150D01*
X173816D01*
X174150Y31317D01*
X174483Y31650D01*
X174650Y31983D01*
X174816Y32483D01*
Y33316D01*
X174650Y33816D01*
X174483Y34149D01*
X174150Y34483D01*
X173816Y34649D01*
X173150D01*
X173650Y31817D02*
X174650Y30817D01*
X175799Y33816D02*
Y33983D01*
X175966Y34316D01*
X176133Y34483D01*
X176466Y34649D01*
X177132D01*
X177465Y34483D01*
X177632Y34316D01*
X177799Y33983D01*
Y33650D01*
X177632Y33316D01*
X177299Y32816D01*
X175633Y31150D01*
X177965D01*
X195750Y124049D02*
X195416Y123883D01*
X195083Y123549D01*
X194917Y123216D01*
X194750Y122716D01*
Y121883D01*
X194917Y121383D01*
X195083Y121050D01*
X195416Y120717D01*
X195750Y120550D01*
X196416D01*
X196750Y120717D01*
X197083Y121050D01*
X197249Y121383D01*
X197416Y121883D01*
Y122716D01*
X197249Y123216D01*
X197083Y123549D01*
X196750Y123883D01*
X196416Y124049D01*
X195750D01*
X196250Y121216D02*
X197249Y120217D01*
X198233Y123383D02*
X198566Y123549D01*
X199066Y124049D01*
Y120550D01*
X81251Y102116D02*
X83917D01*
X84417Y101950D01*
X84583Y101783D01*
X84750Y101450D01*
Y101117D01*
X84583Y100783D01*
X84417Y100617D01*
X83917Y100450D01*
X83584D01*
X83084Y103016D02*
Y104516D01*
X82917Y105016D01*
X82750Y105182D01*
X82417Y105349D01*
X81917D01*
X81584Y105182D01*
X81417Y105016D01*
X81251Y104516D01*
Y103016D01*
X84750D01*
X81751Y108132D02*
X81417Y107965D01*
X81251Y107465D01*
Y107132D01*
X81417Y106632D01*
X81917Y106299D01*
X82750Y106132D01*
X83584D01*
X84250Y106299D01*
X84583Y106632D01*
X84750Y107132D01*
Y107299D01*
X84583Y107798D01*
X84250Y108132D01*
X83750Y108298D01*
X83584D01*
X83084Y108132D01*
X82750Y107798D01*
X82584Y107299D01*
Y107132D01*
X82750Y106632D01*
X83084Y106299D01*
X83584Y106132D01*
X81251Y111814D02*
X84750D01*
X81251D02*
Y112981D01*
X81417Y113480D01*
X81751Y113814D01*
X82084Y113980D01*
X82584Y114147D01*
X83417D01*
X83917Y113980D01*
X84250Y113814D01*
X84583Y113480D01*
X84750Y112981D01*
Y111814D01*
X81751Y116430D02*
X84750D01*
X83250Y114930D02*
Y117930D01*
X81251Y120962D02*
Y119296D01*
X82750Y119129D01*
X82584Y119296D01*
X82417Y119796D01*
Y120296D01*
X82584Y120796D01*
X82917Y121129D01*
X83417Y121295D01*
X83750D01*
X84250Y121129D01*
X84583Y120796D01*
X84750Y120296D01*
Y119796D01*
X84583Y119296D01*
X84417Y119129D01*
X84083Y118963D01*
X81251Y122079D02*
X84750Y123412D01*
X81251Y124745D02*
X84750Y123412D01*
X85916Y125195D02*
Y127861D01*
X81251Y129477D02*
X84750D01*
X81251Y128311D02*
Y130643D01*
X81751Y133393D02*
X81417Y133060D01*
X81251Y132560D01*
Y131893D01*
X81417Y131393D01*
X81751Y131060D01*
X82084D01*
X82417Y131227D01*
X82584Y131393D01*
X82750Y131727D01*
X83084Y132726D01*
X83250Y133060D01*
X83417Y133226D01*
X83750Y133393D01*
X84250D01*
X84583Y133060D01*
X84750Y132560D01*
Y131893D01*
X84583Y131393D01*
X84250Y131060D01*
X86801Y16016D02*
X89467D01*
X89967Y15850D01*
X90133Y15683D01*
X90300Y15350D01*
Y15017D01*
X90133Y14683D01*
X89967Y14517D01*
X89467Y14350D01*
X89134D01*
X88634Y16916D02*
Y18416D01*
X88467Y18916D01*
X88300Y19082D01*
X87967Y19249D01*
X87467D01*
X87134Y19082D01*
X86967Y18916D01*
X86801Y18416D01*
Y16916D01*
X90300D01*
X86801Y22032D02*
Y20365D01*
X88300Y20199D01*
X88134Y20365D01*
X87967Y20865D01*
Y21365D01*
X88134Y21865D01*
X88467Y22198D01*
X88967Y22365D01*
X89300D01*
X89800Y22198D01*
X90133Y21865D01*
X90300Y21365D01*
Y20865D01*
X90133Y20365D01*
X89967Y20199D01*
X89634Y20032D01*
X87634Y28397D02*
X87301Y28230D01*
X86967Y27897D01*
X86801Y27564D01*
Y26897D01*
X86967Y26564D01*
X87301Y26231D01*
X87634Y26064D01*
X88134Y25897D01*
X88967D01*
X89467Y26064D01*
X89800Y26231D01*
X90133Y26564D01*
X90300Y26897D01*
Y27564D01*
X90133Y27897D01*
X89800Y28230D01*
X89467Y28397D01*
X86801Y30380D02*
X86967Y30047D01*
X87301Y29713D01*
X87634Y29547D01*
X88134Y29380D01*
X88967D01*
X89467Y29547D01*
X89800Y29713D01*
X90133Y30047D01*
X90300Y30380D01*
Y31046D01*
X90133Y31380D01*
X89800Y31713D01*
X89467Y31880D01*
X88967Y32046D01*
X88134D01*
X87634Y31880D01*
X87301Y31713D01*
X86967Y31380D01*
X86801Y31046D01*
Y30380D01*
Y32863D02*
X90300D01*
X86801D02*
X90300Y34196D01*
X86801Y35529D02*
X90300Y34196D01*
X86801Y35529D02*
X90300D01*
X88634Y36529D02*
Y38028D01*
X88467Y38528D01*
X88300Y38695D01*
X87967Y38861D01*
X87467D01*
X87134Y38695D01*
X86967Y38528D01*
X86801Y38028D01*
Y36529D01*
X90300D01*
X91466Y39645D02*
Y42311D01*
X86801Y43760D02*
X86967Y43427D01*
X87301Y43094D01*
X87634Y42927D01*
X88134Y42761D01*
X88967D01*
X89467Y42927D01*
X89800Y43094D01*
X90133Y43427D01*
X90300Y43760D01*
Y44427D01*
X90133Y44760D01*
X89800Y45093D01*
X89467Y45260D01*
X88967Y45427D01*
X88134D01*
X87634Y45260D01*
X87301Y45093D01*
X86967Y44760D01*
X86801Y44427D01*
Y43760D01*
Y46243D02*
X89300D01*
X89800Y46410D01*
X90133Y46743D01*
X90300Y47243D01*
Y47576D01*
X90133Y48076D01*
X89800Y48409D01*
X89300Y48576D01*
X86801D01*
Y50709D02*
X90300D01*
X86801Y49542D02*
Y51875D01*
X219051Y37216D02*
X221717D01*
X222217Y37050D01*
X222383Y36883D01*
X222550Y36550D01*
Y36217D01*
X222383Y35883D01*
X222217Y35717D01*
X221717Y35550D01*
X221384D01*
X220884Y38116D02*
Y39616D01*
X220717Y40116D01*
X220550Y40282D01*
X220217Y40449D01*
X219717D01*
X219384Y40282D01*
X219217Y40116D01*
X219051Y39616D01*
Y38116D01*
X222550D01*
X219884Y41399D02*
X219717D01*
X219384Y41565D01*
X219217Y41732D01*
X219051Y42065D01*
Y42732D01*
X219217Y43065D01*
X219384Y43232D01*
X219717Y43398D01*
X220051D01*
X220384Y43232D01*
X220884Y42898D01*
X222550Y41232D01*
Y43565D01*
X219051Y47098D02*
X222550D01*
X219051D02*
Y48264D01*
X219217Y48764D01*
X219551Y49097D01*
X219884Y49264D01*
X220384Y49430D01*
X221217D01*
X221717Y49264D01*
X222050Y49097D01*
X222383Y48764D01*
X222550Y48264D01*
Y47098D01*
X219551Y51713D02*
X222550D01*
X221050Y50213D02*
Y53213D01*
X219051Y54246D02*
X222550D01*
Y56246D01*
X219051Y56629D02*
X222550Y57962D01*
X219051Y59295D02*
X222550Y57962D01*
X227621Y72393D02*
Y69727D01*
X227454Y69227D01*
X227288Y69060D01*
X226954Y68893D01*
X226621D01*
X226288Y69060D01*
X226121Y69227D01*
X225955Y69727D01*
Y70060D01*
X228854Y72393D02*
X230687D01*
X229687Y71060D01*
X230187D01*
X230520Y70893D01*
X230687Y70727D01*
X230854Y70227D01*
Y69893D01*
X230687Y69393D01*
X230354Y69060D01*
X229854Y68893D01*
X229354D01*
X228854Y69060D01*
X228687Y69227D01*
X228521Y69560D01*
X6632Y87393D02*
Y84727D01*
X6465Y84227D01*
X6299Y84060D01*
X5966Y83894D01*
X5632D01*
X5299Y84060D01*
X5133Y84227D01*
X4966Y84727D01*
Y85060D01*
X7699Y86560D02*
Y86726D01*
X7865Y87059D01*
X8032Y87226D01*
X8365Y87393D01*
X9032D01*
X9365Y87226D01*
X9532Y87059D01*
X9698Y86726D01*
Y86393D01*
X9532Y86060D01*
X9198Y85560D01*
X7532Y83894D01*
X9865D01*
X34000Y62318D02*
Y58819D01*
Y62318D02*
X36166D01*
X34000Y60652D02*
X35333D01*
X36566Y61652D02*
X36899Y61818D01*
X37399Y62318D01*
Y58819D01*
X45400Y120799D02*
Y117300D01*
Y120799D02*
X46566D01*
X47066Y120633D01*
X47400Y120299D01*
X47566Y119966D01*
X47733Y119466D01*
Y118633D01*
X47566Y118133D01*
X47400Y117800D01*
X47066Y117467D01*
X46566Y117300D01*
X45400D01*
X48683Y119966D02*
Y120133D01*
X48849Y120466D01*
X49016Y120633D01*
X49349Y120799D01*
X50016D01*
X50349Y120633D01*
X50516Y120466D01*
X50682Y120133D01*
Y119799D01*
X50516Y119466D01*
X50182Y118966D01*
X48516Y117300D01*
X50849D01*
X56381Y120799D02*
X54715D01*
X54548Y119300D01*
X54715Y119466D01*
X55215Y119633D01*
X55714D01*
X56214Y119466D01*
X56548Y119133D01*
X56714Y118633D01*
Y118300D01*
X56548Y117800D01*
X56214Y117467D01*
X55714Y117300D01*
X55215D01*
X54715Y117467D01*
X54548Y117633D01*
X54381Y117966D01*
X57497Y120799D02*
X58830Y117300D01*
X60163Y120799D02*
X58830Y117300D01*
X60613Y116134D02*
X63279D01*
X64896Y120799D02*
Y117300D01*
X63729Y120799D02*
X66062D01*
X68812Y120299D02*
X68478Y120633D01*
X67979Y120799D01*
X67312D01*
X66812Y120633D01*
X66479Y120299D01*
Y119966D01*
X66645Y119633D01*
X66812Y119466D01*
X67145Y119300D01*
X68145Y118966D01*
X68478Y118800D01*
X68645Y118633D01*
X68812Y118300D01*
Y117800D01*
X68478Y117467D01*
X67979Y117300D01*
X67312D01*
X66812Y117467D01*
X66479Y117800D01*
X174451Y71150D02*
X177950D01*
X174451D02*
Y72316D01*
X174617Y72816D01*
X174951Y73150D01*
X175284Y73316D01*
X175784Y73483D01*
X176617D01*
X177117Y73316D01*
X177450Y73150D01*
X177783Y72816D01*
X177950Y72316D01*
Y71150D01*
X175117Y74266D02*
X174951Y74599D01*
X174451Y75099D01*
X177950D01*
X175284Y82081D02*
X174951Y81914D01*
X174617Y81581D01*
X174451Y81248D01*
Y80581D01*
X174617Y80248D01*
X174951Y79915D01*
X175284Y79748D01*
X175784Y79581D01*
X176617D01*
X177117Y79748D01*
X177450Y79915D01*
X177783Y80248D01*
X177950Y80581D01*
Y81248D01*
X177783Y81581D01*
X177450Y81914D01*
X177117Y82081D01*
X176617D01*
Y81248D02*
Y82081D01*
X177950Y85547D02*
X174451Y84214D01*
X177950Y82881D01*
X176784Y83381D02*
Y85047D01*
X174451Y87530D02*
X177950D01*
X174451Y86363D02*
Y88696D01*
Y91279D02*
Y89113D01*
X177950D01*
Y91279D01*
X176117Y89113D02*
Y90446D01*
X179116Y91862D02*
Y94528D01*
X175284Y97478D02*
X174951Y97311D01*
X174617Y96978D01*
X174451Y96645D01*
Y95978D01*
X174617Y95645D01*
X174951Y95311D01*
X175284Y95145D01*
X175784Y94978D01*
X176617D01*
X177117Y95145D01*
X177450Y95311D01*
X177783Y95645D01*
X177950Y95978D01*
Y96645D01*
X177783Y96978D01*
X177450Y97311D01*
X177117Y97478D01*
X174451Y99627D02*
X177950D01*
X174451Y98461D02*
Y100794D01*
Y101210D02*
X177950D01*
X174451D02*
Y102710D01*
X174617Y103210D01*
X174784Y103376D01*
X175117Y103543D01*
X175451D01*
X175784Y103376D01*
X175950Y103210D01*
X176117Y102710D01*
Y101210D01*
Y102377D02*
X177950Y103543D01*
X174451Y104326D02*
X177950D01*
Y106326D01*
X36999Y80166D02*
X36833Y80499D01*
X36500Y80833D01*
X36166Y80999D01*
X35500D01*
X35166Y80833D01*
X34833Y80499D01*
X34667Y80166D01*
X34500Y79666D01*
Y78833D01*
X34667Y78333D01*
X34833Y78000D01*
X35166Y77667D01*
X35500Y77500D01*
X36166D01*
X36500Y77667D01*
X36833Y78000D01*
X36999Y78333D01*
X37983Y80333D02*
X38316Y80499D01*
X38816Y80999D01*
Y77500D01*
X52399Y110016D02*
X52233Y110349D01*
X51900Y110683D01*
X51566Y110849D01*
X50900D01*
X50567Y110683D01*
X50233Y110349D01*
X50067Y110016D01*
X49900Y109516D01*
Y108683D01*
X50067Y108183D01*
X50233Y107850D01*
X50567Y107517D01*
X50900Y107350D01*
X51566D01*
X51900Y107517D01*
X52233Y107850D01*
X52399Y108183D01*
X53549Y110016D02*
Y110183D01*
X53716Y110516D01*
X53882Y110683D01*
X54216Y110849D01*
X54882D01*
X55216Y110683D01*
X55382Y110516D01*
X55549Y110183D01*
Y109850D01*
X55382Y109516D01*
X55049Y109016D01*
X53383Y107350D01*
X55715D01*
M02*
