M48
;Layer_Color=9474304
;FILE_FORMAT=2:5
INCH,LZ
;TYPE=PLATED
T1F00S00C0.01772
T2F00S00C0.04370
T3F00S00C0.16535
%
T01
X004252Y0005039
X006252
X008252
X009252Y0025039
X007252
X005252
X003252
X00402Y006245
X00404Y007435
X004252Y0085039
X002252
X002775Y007295
X003252Y0105039
X005252
X005785Y011175
X006252Y0125039
X008252
X009252Y0105039
X00817Y009565
X007555Y0098
X0073622Y0074016
X008252Y0045039
X0094Y0056
X01501Y00565
X004252Y0125039
X016252
X018252
X020252
X022252
X019252Y0105039
X017252
X018252Y0085039
X016252
X01657Y006275
X017035Y00628
X019252Y0065039
X02208Y007185
X023252Y0065039
X022252Y0005039
X020252
X018252
X018325Y001575
X01927Y0016
X016252Y0005039
T02
X0021654Y0062992
Y0072992
X0162913Y0021654
X0172913
X0182913
X0192913
X0202913
X0212913
X0228346Y0048819
Y0058819
T03
X0015748Y0015748
Y0122047
X0240158
Y0015748
M30
