G04*
G04 #@! TF.GenerationSoftware,Altium Limited,Altium Designer,18.1.11 (251)*
G04*
G04 Layer_Color=65535*
%FSLAX25Y25*%
%MOIN*%
G70*
G01*
G75*
%ADD10C,0.00984*%
%ADD11C,0.00197*%
%ADD12C,0.00787*%
%ADD13C,0.00650*%
G36*
X41402Y108916D02*
X41499Y108902D01*
X41624D01*
X41749Y108875D01*
X41902Y108861D01*
X42221Y108805D01*
X42582Y108722D01*
X42971Y108611D01*
X43359Y108472D01*
X43262Y108208D01*
X43248D01*
X43220Y108222D01*
X43165Y108250D01*
X43082Y108264D01*
X42998Y108306D01*
X42887Y108333D01*
X42763Y108375D01*
X42624Y108403D01*
X42318Y108486D01*
X41971Y108555D01*
X41596Y108597D01*
X41208Y108625D01*
X40833D01*
X40708Y108611D01*
X40569D01*
X40250Y108583D01*
X39917Y108542D01*
X39556Y108472D01*
X39181Y108375D01*
X39167D01*
X39140Y108361D01*
X39084Y108347D01*
X39015Y108319D01*
X38932Y108292D01*
X38834Y108250D01*
X38585Y108153D01*
X38307Y108028D01*
X38002Y107875D01*
X37682Y107695D01*
X37349Y107487D01*
X37335D01*
X37308Y107459D01*
X37266Y107431D01*
X37211Y107376D01*
X37044Y107251D01*
X36850Y107070D01*
X36614Y106862D01*
X36364Y106598D01*
X36114Y106321D01*
X35864Y106001D01*
Y105988D01*
X35836Y105960D01*
X35809Y105918D01*
X35767Y105849D01*
X35711Y105765D01*
X35656Y105682D01*
X35587Y105571D01*
X35517Y105446D01*
X35364Y105169D01*
X35212Y104849D01*
X35059Y104502D01*
X34934Y104128D01*
Y104114D01*
X34920Y104086D01*
X34906Y104031D01*
X34892Y103947D01*
X34865Y103864D01*
X34837Y103753D01*
X34823Y103628D01*
X34795Y103489D01*
X34740Y103184D01*
X34698Y102851D01*
X34670Y102476D01*
Y102101D01*
Y102087D01*
Y102059D01*
Y102004D01*
X34684Y101935D01*
X34698Y101837D01*
Y101726D01*
X34712Y101602D01*
X34740Y101477D01*
X34782Y101171D01*
X34865Y100824D01*
X34948Y100477D01*
X35073Y100102D01*
Y100089D01*
X35087Y100061D01*
X35115Y100005D01*
X35142Y99936D01*
X35184Y99853D01*
X35226Y99742D01*
X35350Y99506D01*
X35489Y99228D01*
X35670Y98923D01*
X35892Y98603D01*
X36128Y98284D01*
X35892Y98118D01*
Y98104D01*
X35878Y98118D01*
X35864Y98145D01*
X35822Y98187D01*
X35781Y98256D01*
X35711Y98340D01*
X35642Y98437D01*
X35573Y98548D01*
X35489Y98673D01*
X35309Y98950D01*
X35129Y99270D01*
X34948Y99630D01*
X34795Y100005D01*
Y100019D01*
X34782Y100047D01*
X34768Y100102D01*
X34740Y100186D01*
X34712Y100269D01*
X34670Y100380D01*
X34643Y100505D01*
X34601Y100644D01*
X34532Y100963D01*
X34462Y101310D01*
X34407Y101685D01*
X34379Y102087D01*
Y102101D01*
Y102129D01*
Y102198D01*
Y102268D01*
Y102365D01*
X34393Y102476D01*
Y102615D01*
X34407Y102753D01*
X34435Y103073D01*
X34490Y103434D01*
X34559Y103822D01*
X34657Y104211D01*
Y104225D01*
X34670Y104253D01*
X34684Y104308D01*
X34712Y104391D01*
X34754Y104475D01*
X34782Y104586D01*
X34837Y104711D01*
X34892Y104849D01*
X35031Y105155D01*
X35184Y105488D01*
X35392Y105835D01*
X35614Y106182D01*
X35628Y106196D01*
X35642Y106223D01*
X35684Y106265D01*
X35739Y106334D01*
X35795Y106418D01*
X35878Y106501D01*
X36058Y106723D01*
X36294Y106959D01*
X36558Y107209D01*
X36863Y107473D01*
X37183Y107709D01*
X37197Y107722D01*
X37224Y107736D01*
X37280Y107764D01*
X37335Y107820D01*
X37419Y107861D01*
X37516Y107931D01*
X37641Y108000D01*
X37766Y108070D01*
X38043Y108222D01*
X38376Y108375D01*
X38723Y108528D01*
X39098Y108652D01*
X39112D01*
X39140Y108666D01*
X39195Y108680D01*
X39279Y108694D01*
X39376Y108722D01*
X39487Y108750D01*
X39612Y108777D01*
X39750Y108805D01*
X40070Y108861D01*
X40431Y108902D01*
X40819Y108930D01*
X41333D01*
X41402Y108916D01*
D02*
G37*
G36*
X72202Y99950D02*
X71564D01*
Y101449D01*
X69815D01*
Y99950D01*
X69162D01*
Y103489D01*
X69815D01*
Y102018D01*
X71564D01*
Y103489D01*
X72202D01*
Y99950D01*
D02*
G37*
G36*
X67830Y103475D02*
X67955Y103461D01*
X68080Y103434D01*
X68218Y103378D01*
X68343Y103323D01*
X68454Y103239D01*
X68468Y103225D01*
X68496Y103198D01*
X68538Y103128D01*
X68593Y103059D01*
X68649Y102948D01*
X68690Y102823D01*
X68718Y102670D01*
X68732Y102490D01*
Y102462D01*
Y102407D01*
X68718Y102295D01*
X68690Y102184D01*
X68635Y102046D01*
X68579Y101893D01*
X68482Y101754D01*
X68357Y101615D01*
X68343Y101602D01*
X68288Y101560D01*
X68204Y101504D01*
X68080Y101435D01*
X67927Y101365D01*
X67733Y101296D01*
X67510Y101227D01*
X67247Y101185D01*
X67150Y101754D01*
X67163D01*
X67219Y101768D01*
X67302Y101796D01*
X67400Y101823D01*
X67621Y101907D01*
X67719Y101962D01*
X67816Y102018D01*
X67830Y102032D01*
X67857Y102046D01*
X67885Y102087D01*
X67941Y102143D01*
X68010Y102282D01*
X68038Y102365D01*
X68052Y102462D01*
Y102476D01*
Y102504D01*
X68038Y102587D01*
X68010Y102684D01*
X67941Y102781D01*
X67927Y102795D01*
X67857Y102837D01*
X67760Y102878D01*
X67608Y102892D01*
X66719D01*
Y99950D01*
X66067D01*
Y103489D01*
X67733D01*
X67830Y103475D01*
D02*
G37*
G36*
X79947Y99950D02*
X79308D01*
X77435Y102573D01*
Y99950D01*
X76796D01*
Y103489D01*
X77463D01*
X79322Y100908D01*
Y103489D01*
X79947D01*
Y99950D01*
D02*
G37*
G36*
X91093D02*
X90482D01*
Y102420D01*
X89524Y99950D01*
X88969D01*
X87997Y102420D01*
Y99950D01*
X87387D01*
Y103489D01*
X88067D01*
X89261Y100810D01*
X90440Y103489D01*
X91093D01*
Y99950D01*
D02*
G37*
G36*
X64207D02*
X63610D01*
Y102420D01*
X62639Y99950D01*
X62083D01*
X61112Y102420D01*
Y99950D01*
X60501D01*
Y103489D01*
X61195D01*
X62375Y100810D01*
X63555Y103489D01*
X64207D01*
Y99950D01*
D02*
G37*
G36*
X83001Y102920D02*
X82001D01*
Y99950D01*
X81335D01*
Y102920D01*
X80322D01*
Y103489D01*
X83001D01*
Y102920D01*
D02*
G37*
G36*
X76380Y99950D02*
X75672D01*
X75269Y100908D01*
X74090D01*
X74326Y101477D01*
X75033D01*
X74478Y102809D01*
X73312Y99950D01*
X72646D01*
X74131Y103489D01*
X74839D01*
X76380Y99950D01*
D02*
G37*
G36*
X60085D02*
X59377D01*
X58974Y100908D01*
X57794D01*
X58017Y101477D01*
X58738D01*
X58183Y102809D01*
X57003Y99950D01*
X56351D01*
X57836Y103489D01*
X58544D01*
X60085Y99950D01*
D02*
G37*
G36*
X56018Y102920D02*
X54241D01*
Y102032D01*
X55921D01*
Y101449D01*
X54241D01*
Y100519D01*
X56046D01*
Y99950D01*
X53603D01*
Y103489D01*
X56018D01*
Y102920D01*
D02*
G37*
G36*
X53228D02*
X52201D01*
Y99950D01*
X51562D01*
Y102920D01*
X50549D01*
Y103489D01*
X53228D01*
Y102920D01*
D02*
G37*
G36*
X85318Y103475D02*
X85513Y103447D01*
X85721Y103392D01*
X85943Y103309D01*
X86151Y103198D01*
X86332Y103045D01*
X86346Y103031D01*
X86401Y102962D01*
X86471Y102865D01*
X86554Y102712D01*
X86637Y102531D01*
X86707Y102295D01*
X86762Y102032D01*
X86776Y101713D01*
Y101699D01*
Y101671D01*
Y101629D01*
Y101574D01*
X86748Y101407D01*
X86720Y101213D01*
X86665Y100991D01*
X86595Y100769D01*
X86484Y100560D01*
X86332Y100366D01*
X86318Y100352D01*
X86248Y100297D01*
X86151Y100227D01*
X85999Y100144D01*
X85818Y100061D01*
X85596Y99991D01*
X85332Y99936D01*
X85027Y99922D01*
X84944D01*
X84888Y99936D01*
X84736Y99950D01*
X84541Y99977D01*
X84333Y100033D01*
X84125Y100116D01*
X83917Y100214D01*
X83722Y100366D01*
X83709Y100394D01*
X83653Y100449D01*
X83583Y100560D01*
X83500Y100713D01*
X83417Y100894D01*
X83334Y101129D01*
X83278Y101393D01*
X83250Y101713D01*
Y101726D01*
Y101754D01*
Y101796D01*
X83264Y101865D01*
X83278Y102018D01*
X83306Y102212D01*
X83362Y102434D01*
X83445Y102656D01*
X83542Y102865D01*
X83695Y103045D01*
X83722Y103059D01*
X83778Y103114D01*
X83889Y103184D01*
X84028Y103281D01*
X84222Y103364D01*
X84444Y103434D01*
X84722Y103489D01*
X85027Y103503D01*
X85166D01*
X85318Y103475D01*
D02*
G37*
G36*
X45955Y106668D02*
X45969Y106640D01*
X46010Y106598D01*
X46066Y106543D01*
X46121Y106459D01*
X46191Y106362D01*
X46274Y106265D01*
X46357Y106140D01*
X46552Y105863D01*
X46732Y105557D01*
X46927Y105196D01*
X47093Y104822D01*
Y104808D01*
X47107Y104780D01*
X47135Y104725D01*
X47162Y104641D01*
X47190Y104544D01*
X47232Y104433D01*
X47273Y104308D01*
X47315Y104169D01*
X47398Y103850D01*
X47468Y103489D01*
X47537Y103101D01*
X47579Y102684D01*
Y102670D01*
Y102629D01*
Y102573D01*
Y102490D01*
Y102393D01*
Y102268D01*
Y102129D01*
X47565Y101976D01*
X47537Y101643D01*
X47495Y101268D01*
X47412Y100866D01*
X47315Y100463D01*
Y100449D01*
X47301Y100422D01*
X47287Y100352D01*
X47260Y100283D01*
X47218Y100186D01*
X47176Y100075D01*
X47135Y99950D01*
X47079Y99811D01*
X46940Y99506D01*
X46760Y99159D01*
X46566Y98812D01*
X46330Y98465D01*
X46316Y98451D01*
X46302Y98423D01*
X46260Y98381D01*
X46219Y98312D01*
X46149Y98242D01*
X46080Y98145D01*
X45886Y97937D01*
X45663Y97687D01*
X45386Y97424D01*
X45080Y97160D01*
X44747Y96910D01*
X44733Y96896D01*
X44706Y96882D01*
X44650Y96855D01*
X44581Y96799D01*
X44497Y96744D01*
X44400Y96688D01*
X44275Y96618D01*
X44151Y96549D01*
X43845Y96396D01*
X43512Y96244D01*
X43137Y96091D01*
X42735Y95966D01*
X42721D01*
X42665Y95952D01*
X42582Y95925D01*
X42471Y95897D01*
X42332Y95869D01*
X42180Y95841D01*
X41860Y95786D01*
X41846D01*
X41791Y95772D01*
X41694D01*
X41583Y95758D01*
X41458Y95744D01*
X41305D01*
X40972Y95730D01*
X40861D01*
X40736Y95744D01*
X40569D01*
X40375Y95758D01*
X40153Y95786D01*
X39931Y95814D01*
X39681Y95855D01*
X39653D01*
X39570Y95883D01*
X39445Y95911D01*
X39279Y95952D01*
X39084Y96008D01*
X38876Y96077D01*
X38432Y96244D01*
X38543Y96508D01*
X38557D01*
X38585Y96494D01*
X38640Y96466D01*
X38723Y96438D01*
X38820Y96410D01*
X38918Y96369D01*
X39043Y96327D01*
X39195Y96285D01*
X39501Y96202D01*
X39862Y96119D01*
X40236Y96063D01*
X40625Y96022D01*
X41138D01*
X41291Y96036D01*
X41596Y96049D01*
X41943Y96091D01*
X42318Y96161D01*
X42693Y96244D01*
X42707D01*
X42735Y96258D01*
X42790Y96272D01*
X42860Y96299D01*
X42957Y96327D01*
X43054Y96369D01*
X43304Y96466D01*
X43595Y96591D01*
X43914Y96744D01*
X44248Y96924D01*
X44581Y97132D01*
X44595Y97146D01*
X44622Y97160D01*
X44664Y97188D01*
X44733Y97243D01*
X44803Y97299D01*
X44886Y97368D01*
X45094Y97549D01*
X45344Y97771D01*
X45594Y98020D01*
X45858Y98312D01*
X46108Y98645D01*
X46121Y98659D01*
X46135Y98687D01*
X46163Y98728D01*
X46219Y98798D01*
X46260Y98881D01*
X46330Y98978D01*
X46399Y99089D01*
X46468Y99214D01*
X46621Y99506D01*
X46774Y99839D01*
X46927Y100200D01*
X47051Y100574D01*
Y100588D01*
X47065Y100616D01*
X47079Y100672D01*
X47093Y100755D01*
X47121Y100838D01*
X47135Y100949D01*
X47162Y101074D01*
X47190Y101213D01*
X47232Y101532D01*
X47273Y101879D01*
X47287Y102240D01*
Y102629D01*
Y102643D01*
Y102670D01*
Y102726D01*
X47273Y102809D01*
X47260Y102892D01*
Y103003D01*
X47232Y103128D01*
X47218Y103267D01*
X47162Y103572D01*
X47079Y103919D01*
X46982Y104280D01*
X46843Y104655D01*
Y104669D01*
X46829Y104697D01*
X46801Y104752D01*
X46774Y104822D01*
X46732Y104919D01*
X46677Y105016D01*
X46552Y105266D01*
X46399Y105543D01*
X46205Y105849D01*
X45983Y106168D01*
X45719Y106487D01*
X45941Y106682D01*
X45955Y106668D01*
D02*
G37*
G36*
X47107Y109638D02*
Y109610D01*
X47121Y109596D01*
Y109569D01*
X47107Y109555D01*
X47093Y109541D01*
X47051Y109499D01*
X47010Y109444D01*
X46871Y109291D01*
X46704Y109097D01*
X46496Y108875D01*
X46274Y108611D01*
X46024Y108347D01*
X45774Y108056D01*
X45761Y108042D01*
X45747Y108028D01*
X45705Y107986D01*
X45663Y107931D01*
X45525Y107778D01*
X45344Y107584D01*
X45150Y107348D01*
X44914Y107084D01*
X44664Y106820D01*
X44414Y106529D01*
X44400Y106515D01*
X44386Y106501D01*
X44345Y106459D01*
X44303Y106404D01*
X44164Y106251D01*
X43984Y106057D01*
X43776Y105821D01*
X43554Y105557D01*
X43304Y105280D01*
X43040Y104988D01*
X43026Y104974D01*
X43012Y104960D01*
X42971Y104919D01*
X42929Y104863D01*
X42790Y104711D01*
X42610Y104516D01*
X42402Y104280D01*
X42180Y104017D01*
X41930Y103753D01*
X41666Y103461D01*
X41680D01*
X41708Y103447D01*
X41749Y103434D01*
X41805Y103420D01*
X41874Y103406D01*
X41957Y103378D01*
X42166Y103323D01*
X42415Y103253D01*
X42679Y103184D01*
X42971Y103101D01*
X43276Y103017D01*
X43290D01*
X43318Y103003D01*
X43359D01*
X43415Y102976D01*
X43484Y102962D01*
X43567Y102934D01*
X43776Y102892D01*
X44025Y102823D01*
X44303Y102753D01*
X44595Y102670D01*
X44900Y102587D01*
X44886Y102573D01*
X44844Y102545D01*
X44775Y102490D01*
X44678Y102420D01*
X44553Y102337D01*
X44414Y102226D01*
X44262Y102115D01*
X44081Y101976D01*
X43887Y101837D01*
X43679Y101685D01*
X43234Y101352D01*
X42763Y100991D01*
X42277Y100616D01*
X42263Y100602D01*
X42221Y100574D01*
X42152Y100519D01*
X42055Y100449D01*
X41930Y100352D01*
X41791Y100255D01*
X41638Y100130D01*
X41458Y100005D01*
X41277Y99853D01*
X41069Y99700D01*
X40625Y99367D01*
X40153Y99020D01*
X39667Y98645D01*
X39653Y98631D01*
X39612Y98603D01*
X39542Y98548D01*
X39445Y98479D01*
X39334Y98395D01*
X39195Y98284D01*
X39029Y98173D01*
X38862Y98034D01*
X38668Y97895D01*
X38473Y97743D01*
X38029Y97410D01*
X37558Y97063D01*
X37072Y96702D01*
X37058Y96688D01*
X37016Y96660D01*
X36947Y96605D01*
X36850Y96535D01*
X36725Y96452D01*
X36586Y96341D01*
X36433Y96230D01*
X36253Y96091D01*
X36072Y95952D01*
X35864Y95800D01*
X35420Y95467D01*
X34962Y95120D01*
X34476Y94759D01*
X34462Y94772D01*
X34448Y94800D01*
Y94814D01*
Y94828D01*
X34462Y94842D01*
X34476Y94856D01*
X34518Y94897D01*
X34573Y94953D01*
X34698Y95106D01*
X34879Y95300D01*
X35087Y95522D01*
X35323Y95772D01*
X35573Y96036D01*
X35836Y96313D01*
X35850Y96327D01*
X35864Y96341D01*
X35906Y96383D01*
X35961Y96438D01*
X36086Y96591D01*
X36267Y96785D01*
X36475Y97007D01*
X36711Y97257D01*
X36961Y97521D01*
X37224Y97798D01*
X37238Y97812D01*
X37252Y97826D01*
X37294Y97868D01*
X37349Y97923D01*
X37488Y98076D01*
X37668Y98270D01*
X37877Y98492D01*
X38127Y98756D01*
X38376Y99034D01*
X38640Y99311D01*
X38654Y99325D01*
X38668Y99339D01*
X38710Y99381D01*
X38765Y99436D01*
X38904Y99589D01*
X39070Y99783D01*
X39292Y100005D01*
X39528Y100269D01*
X39778Y100547D01*
X40042Y100824D01*
X40028D01*
X40014Y100838D01*
X39931Y100866D01*
X39792Y100908D01*
X39626Y100963D01*
X39417Y101032D01*
X39195Y101116D01*
X38959Y101185D01*
X38710Y101268D01*
X38696D01*
X38682Y101282D01*
X38598Y101310D01*
X38473Y101352D01*
X38293Y101407D01*
X38099Y101477D01*
X37877Y101560D01*
X37627Y101643D01*
X37377Y101726D01*
X37391Y101740D01*
X37433Y101768D01*
X37502Y101823D01*
X37585Y101893D01*
X37696Y101990D01*
X37835Y102101D01*
X37988Y102212D01*
X38140Y102351D01*
X38321Y102504D01*
X38515Y102656D01*
X38932Y102989D01*
X39362Y103350D01*
X39820Y103725D01*
X39834Y103739D01*
X39875Y103767D01*
X39945Y103822D01*
X40028Y103892D01*
X40139Y103989D01*
X40264Y104086D01*
X40417Y104211D01*
X40583Y104336D01*
X40764Y104489D01*
X40944Y104641D01*
X41361Y104974D01*
X41805Y105335D01*
X42249Y105696D01*
X42263Y105710D01*
X42304Y105738D01*
X42374Y105793D01*
X42457Y105863D01*
X42568Y105960D01*
X42693Y106071D01*
X42846Y106182D01*
X43012Y106321D01*
X43193Y106459D01*
X43373Y106626D01*
X43790Y106959D01*
X44234Y107320D01*
X44678Y107681D01*
X44692Y107695D01*
X44733Y107722D01*
X44803Y107778D01*
X44886Y107847D01*
X44997Y107945D01*
X45122Y108042D01*
X45275Y108167D01*
X45427Y108292D01*
X45608Y108444D01*
X45802Y108597D01*
X46205Y108930D01*
X46649Y109291D01*
X47093Y109652D01*
X47107Y109638D01*
D02*
G37*
%LPC*%
G36*
X85027Y102948D02*
X84930D01*
X84833Y102934D01*
X84722Y102906D01*
X84583Y102865D01*
X84444Y102809D01*
X84305Y102740D01*
X84194Y102629D01*
X84180Y102615D01*
X84153Y102573D01*
X84111Y102504D01*
X84069Y102407D01*
X84014Y102268D01*
X83972Y102115D01*
X83944Y101935D01*
X83930Y101726D01*
Y101699D01*
Y101629D01*
X83944Y101518D01*
X83958Y101379D01*
X84000Y101241D01*
X84042Y101088D01*
X84111Y100935D01*
X84194Y100810D01*
X84208Y100796D01*
X84250Y100769D01*
X84305Y100713D01*
X84403Y100658D01*
X84513Y100602D01*
X84666Y100547D01*
X84833Y100519D01*
X85027Y100505D01*
X85110D01*
X85207Y100519D01*
X85318Y100547D01*
X85457Y100574D01*
X85582Y100630D01*
X85707Y100713D01*
X85818Y100810D01*
X85832Y100824D01*
X85860Y100866D01*
X85901Y100935D01*
X85957Y101046D01*
X86013Y101171D01*
X86054Y101324D01*
X86082Y101518D01*
X86096Y101726D01*
Y101740D01*
Y101754D01*
Y101823D01*
X86082Y101935D01*
X86068Y102059D01*
X86026Y102212D01*
X85985Y102365D01*
X85915Y102504D01*
X85818Y102629D01*
X85804Y102643D01*
X85763Y102684D01*
X85707Y102726D01*
X85624Y102795D01*
X85513Y102851D01*
X85374Y102892D01*
X85207Y102934D01*
X85027Y102948D01*
D02*
G37*
%LPD*%
D10*
X71240Y37396D02*
G03*
X71240Y37396I-492J0D01*
G01*
X101839Y69630D02*
G03*
X101839Y69630I-492J0D01*
G01*
D11*
X87264Y13524D02*
Y16476D01*
D12*
X82063Y19736D02*
X82850D01*
X82063Y24264D02*
X82850D01*
X70945Y39955D02*
Y50191D01*
X74488D01*
X89055Y39955D02*
Y50191D01*
X85512D02*
X89055D01*
X100559Y62543D02*
Y66087D01*
X87961Y62543D02*
Y66087D01*
X100559D01*
X87961Y62543D02*
X100559D01*
X37551Y56016D02*
X56449D01*
X37551Y67984D02*
X56449D01*
X49547Y52236D02*
X60177D01*
X49547Y31764D02*
X60177D01*
X76264Y65150D02*
Y65937D01*
X71736Y65150D02*
Y65937D01*
X79736Y65150D02*
Y65937D01*
X84264Y65150D02*
Y65937D01*
D13*
X18150Y38150D02*
X22149D01*
X18367Y76665D02*
X22365D01*
X20366Y78664D02*
Y74666D01*
X53217Y94039D02*
X51884Y97538D01*
X50551Y94039D01*
X51051Y95205D02*
X52717D01*
X54034Y97538D02*
Y94039D01*
X54767Y97538D02*
Y94039D01*
X56766D01*
X59899Y97538D02*
Y94039D01*
Y97538D02*
X61399D01*
X61899Y97371D01*
X62065Y97205D01*
X62232Y96871D01*
Y96538D01*
X62065Y96205D01*
X61899Y96038D01*
X61399Y95872D01*
X59899D01*
X61066D02*
X62232Y94039D01*
X65181Y97538D02*
X63015D01*
Y94039D01*
X65181D01*
X63015Y95872D02*
X64348D01*
X65765Y97538D02*
X67098Y94039D01*
X68431Y97538D02*
X67098Y94039D01*
X71797Y96705D02*
Y96871D01*
X71963Y97205D01*
X72130Y97371D01*
X72463Y97538D01*
X73130D01*
X73463Y97371D01*
X73630Y97205D01*
X73796Y96871D01*
Y96538D01*
X73630Y96205D01*
X73296Y95705D01*
X71630Y94039D01*
X73963D01*
X99257Y11781D02*
Y10615D01*
Y11198D01*
X102173D01*
X102756Y10615D01*
Y10032D01*
X102173Y9449D01*
X102756Y12948D02*
X99257D01*
Y14697D01*
X99840Y15280D01*
X101006D01*
X101590Y14697D01*
Y12948D01*
X102756Y18779D02*
Y16447D01*
X100423Y18779D01*
X99840D01*
X99257Y18196D01*
Y17030D01*
X99840Y16447D01*
X99257Y23444D02*
X102756D01*
Y25194D01*
X102173Y25777D01*
X99840D01*
X99257Y25194D01*
Y23444D01*
X101006Y26943D02*
Y29276D01*
X99840Y28109D02*
X102173D01*
X99257Y32775D02*
Y30442D01*
X101006D01*
X100423Y31608D01*
Y32192D01*
X101006Y32775D01*
X102173D01*
X102756Y32192D01*
Y31025D01*
X102173Y30442D01*
X99257Y33941D02*
X101590D01*
X102756Y35107D01*
X101590Y36274D01*
X99257D01*
X103339Y37440D02*
Y39772D01*
X99257Y40939D02*
Y43271D01*
Y42105D01*
X102756D01*
X99840Y46770D02*
X99257Y46187D01*
Y45021D01*
X99840Y44438D01*
X100423D01*
X101006Y45021D01*
Y46187D01*
X101590Y46770D01*
X102173D01*
X102756Y46187D01*
Y45021D01*
X102173Y44438D01*
X99650Y76469D02*
X102316D01*
X102816Y76303D01*
X102983Y76136D01*
X103150Y75803D01*
Y75470D01*
X102983Y75136D01*
X102816Y74970D01*
X102316Y74803D01*
X101983D01*
X101483Y77369D02*
Y78869D01*
X101317Y79369D01*
X101150Y79536D01*
X100817Y79702D01*
X100317D01*
X99984Y79536D01*
X99817Y79369D01*
X99650Y78869D01*
Y77369D01*
X103150D01*
X100317Y80485D02*
X100150Y80818D01*
X99650Y81318D01*
X103150D01*
X99650Y85801D02*
X103150D01*
X99650Y88134D02*
X103150D01*
X101317Y85801D02*
Y88134D01*
X99650Y89100D02*
X103150D01*
X100484Y92333D02*
X100150Y92166D01*
X99817Y91833D01*
X99650Y91500D01*
Y90833D01*
X99817Y90500D01*
X100150Y90166D01*
X100484Y90000D01*
X100983Y89833D01*
X101817D01*
X102316Y90000D01*
X102650Y90166D01*
X102983Y90500D01*
X103150Y90833D01*
Y91500D01*
X102983Y91833D01*
X102650Y92166D01*
X102316Y92333D01*
X101817D01*
Y91500D02*
Y92333D01*
X99650Y93133D02*
X103150D01*
X99650Y95465D02*
X103150D01*
X101317Y93133D02*
Y95465D01*
X104316Y96432D02*
Y99098D01*
X99650Y100548D02*
X99817Y100214D01*
X100150Y99881D01*
X100484Y99714D01*
X100983Y99548D01*
X101817D01*
X102316Y99714D01*
X102650Y99881D01*
X102983Y100214D01*
X103150Y100548D01*
Y101214D01*
X102983Y101547D01*
X102650Y101881D01*
X102316Y102047D01*
X101817Y102214D01*
X100983D01*
X100484Y102047D01*
X100150Y101881D01*
X99817Y101547D01*
X99650Y101214D01*
Y100548D01*
Y103030D02*
X102150D01*
X102650Y103197D01*
X102983Y103530D01*
X103150Y104030D01*
Y104364D01*
X102983Y104863D01*
X102650Y105197D01*
X102150Y105363D01*
X99650D01*
Y107496D02*
X103150D01*
X99650Y106330D02*
Y108663D01*
X90520Y44152D02*
Y41237D01*
X91103Y40653D01*
X92269D01*
X92852Y41237D01*
Y44152D01*
X96351Y40653D02*
X94019D01*
X96351Y42986D01*
Y43569D01*
X95768Y44152D01*
X94602D01*
X94019Y43569D01*
X89020Y74410D02*
X91520D01*
X92020Y74576D01*
X92353Y74909D01*
X92520Y75409D01*
Y75743D01*
X92353Y76242D01*
X92020Y76576D01*
X91520Y76742D01*
X89020D01*
X89687Y77709D02*
X89520Y78042D01*
X89020Y78542D01*
X92520D01*
X90450Y20800D02*
Y24299D01*
X92199D01*
X92783Y23716D01*
Y22549D01*
X92199Y21966D01*
X90450D01*
X91616D02*
X92783Y20800D01*
X95698D02*
Y24299D01*
X93949Y22549D01*
X96281D01*
X83937Y73164D02*
X80438D01*
Y74914D01*
X81021Y75497D01*
X82188D01*
X82771Y74914D01*
Y73164D01*
Y74331D02*
X83937Y75497D01*
X81021Y76663D02*
X80438Y77246D01*
Y78413D01*
X81021Y78996D01*
X81604D01*
X82188Y78413D01*
Y77830D01*
Y78413D01*
X82771Y78996D01*
X83354D01*
X83937Y78413D01*
Y77246D01*
X83354Y76663D01*
X108567Y64056D02*
X112066D01*
X108567D02*
Y65555D01*
X108733Y66055D01*
X108900Y66222D01*
X109233Y66389D01*
X109567D01*
X109900Y66222D01*
X110067Y66055D01*
X110233Y65555D01*
Y64056D01*
Y65222D02*
X112066Y66389D01*
X109400Y67338D02*
X109233D01*
X108900Y67505D01*
X108733Y67672D01*
X108567Y68005D01*
Y68672D01*
X108733Y69005D01*
X108900Y69171D01*
X109233Y69338D01*
X109567D01*
X109900Y69171D01*
X110400Y68838D01*
X112066Y67172D01*
Y69505D01*
X76063Y73164D02*
X72564D01*
Y74914D01*
X73147Y75497D01*
X74314D01*
X74897Y74914D01*
Y73164D01*
Y74331D02*
X76063Y75497D01*
Y76663D02*
Y77830D01*
Y77246D01*
X72564D01*
X73147Y76663D01*
X8983Y77429D02*
X7816D01*
X8399D01*
Y74514D01*
X7816Y73930D01*
X7233D01*
X6650Y74514D01*
X12481Y73930D02*
X10149D01*
X12481Y76263D01*
Y76846D01*
X11898Y77429D01*
X10732D01*
X10149Y76846D01*
X131073Y76727D02*
X129906D01*
X130490D01*
Y73812D01*
X129906Y73228D01*
X129323D01*
X128740Y73812D01*
X132239Y73228D02*
X133405D01*
X132822D01*
Y76727D01*
X132239Y76144D01*
X50433Y74449D02*
X48100D01*
Y72699D01*
X49266D01*
X48100D01*
Y70950D01*
X51599D02*
X52765D01*
X52182D01*
Y74449D01*
X51599Y73866D01*
X89600Y16999D02*
Y13500D01*
X91349D01*
X91933Y14083D01*
Y16416D01*
X91349Y16999D01*
X89600D01*
X93099Y13500D02*
X94265D01*
X93682D01*
Y16999D01*
X93099Y16416D01*
X93483Y31866D02*
X92899Y32449D01*
X91733D01*
X91150Y31866D01*
Y29533D01*
X91733Y28950D01*
X92899D01*
X93483Y29533D01*
X96981Y28950D02*
X94649D01*
X96981Y31283D01*
Y31866D01*
X96398Y32449D01*
X95232D01*
X94649Y31866D01*
X51633Y28416D02*
X51049Y28999D01*
X49883D01*
X49300Y28416D01*
Y26083D01*
X49883Y25500D01*
X51049D01*
X51633Y26083D01*
X52799Y25500D02*
X53965D01*
X53382D01*
Y28999D01*
X52799Y28416D01*
M02*
