G04*
G04 #@! TF.GenerationSoftware,Altium Limited,Altium Designer,18.1.11 (251)*
G04*
G04 Layer_Physical_Order=1*
G04 Layer_Color=255*
%FSLAX25Y25*%
%MOIN*%
G70*
G01*
G75*
%ADD12R,0.05512X0.04921*%
%ADD20C,0.01575*%
%ADD21C,0.11811*%
%ADD22C,0.06299*%
%ADD23C,0.16535*%
%ADD24C,0.92520*%
%ADD25C,0.06000*%
%ADD26C,0.05984*%
G36*
X284039Y127261D02*
Y122622D01*
Y120087D01*
X287795D01*
X291551D01*
Y122835D01*
X297819D01*
Y120087D01*
X301575D01*
X305331D01*
Y122835D01*
X308661D01*
Y112598D01*
X183071D01*
Y153543D01*
X193236D01*
X193524Y153043D01*
X193201Y152264D01*
X193059Y151181D01*
X193201Y150098D01*
X193619Y149088D01*
X194285Y148222D01*
X195151Y147556D01*
X196161Y147138D01*
X197244Y146996D01*
X198327Y147138D01*
X199337Y147556D01*
X200204Y148222D01*
X200869Y149088D01*
X201287Y150098D01*
X201430Y151181D01*
X201287Y152264D01*
X201175Y152535D01*
X202184Y153543D01*
X205047D01*
X205335Y153043D01*
X205012Y152264D01*
X204870Y151181D01*
X205012Y150098D01*
X205431Y149088D01*
X206096Y148222D01*
X206962Y147556D01*
X207972Y147138D01*
X209055Y146996D01*
X210138Y147138D01*
X211148Y147556D01*
X212015Y148222D01*
X212680Y149088D01*
X213098Y150098D01*
X213241Y151181D01*
X213098Y152264D01*
X212986Y152535D01*
X213995Y153543D01*
X243592D01*
X243691Y153043D01*
X243258Y152864D01*
X242423Y152223D01*
X241782Y151387D01*
X241378Y150414D01*
X241307Y149870D01*
X249244D01*
X249173Y150414D01*
X248770Y151387D01*
X248128Y152223D01*
X247293Y152864D01*
X246860Y153043D01*
X246960Y153543D01*
X257757D01*
X284039Y127261D01*
D02*
G37*
%LPC*%
G36*
X249244Y148870D02*
X245776D01*
Y145401D01*
X246320Y145473D01*
X247293Y145876D01*
X248128Y146517D01*
X248770Y147353D01*
X249173Y148326D01*
X249244Y148870D01*
D02*
G37*
G36*
X244776D02*
X241307D01*
X241378Y148326D01*
X241782Y147353D01*
X242423Y146517D01*
X243258Y145876D01*
X244231Y145473D01*
X244776Y145401D01*
Y148870D01*
D02*
G37*
G36*
X197744Y143490D02*
Y139870D01*
X201364D01*
X201287Y140453D01*
X200869Y141463D01*
X200204Y142330D01*
X199337Y142995D01*
X198327Y143413D01*
X197744Y143490D01*
D02*
G37*
G36*
X196744D02*
X196161Y143413D01*
X195151Y142995D01*
X194285Y142330D01*
X193619Y141463D01*
X193201Y140453D01*
X193124Y139870D01*
X196744D01*
Y143490D01*
D02*
G37*
G36*
X201364Y138870D02*
X197744D01*
Y135250D01*
X198327Y135327D01*
X199337Y135745D01*
X200204Y136410D01*
X200869Y137277D01*
X201287Y138287D01*
X201364Y138870D01*
D02*
G37*
G36*
X196744D02*
X193124D01*
X193201Y138287D01*
X193619Y137277D01*
X194285Y136410D01*
X195151Y135745D01*
X196161Y135327D01*
X196744Y135250D01*
Y138870D01*
D02*
G37*
G36*
X209055Y143555D02*
X207972Y143413D01*
X206962Y142995D01*
X206096Y142330D01*
X205431Y141463D01*
X205012Y140453D01*
X204870Y139370D01*
X205012Y138287D01*
X205431Y137277D01*
X206096Y136410D01*
X206962Y135745D01*
X207972Y135327D01*
X209055Y135185D01*
X210138Y135327D01*
X211148Y135745D01*
X212015Y136410D01*
X212680Y137277D01*
X212792Y137548D01*
X241709D01*
X241789Y137357D01*
X242428Y136523D01*
X243262Y135883D01*
X244233Y135481D01*
X245276Y135344D01*
X246318Y135481D01*
X247289Y135883D01*
X248123Y136523D01*
X248763Y137357D01*
X248842Y137548D01*
X259974D01*
X270260Y127261D01*
Y122622D01*
Y120087D01*
X274016D01*
X277772D01*
Y122622D01*
Y129543D01*
X273132D01*
X262017Y140659D01*
X261426Y141054D01*
X260728Y141192D01*
X260728Y141192D01*
X248842D01*
X248763Y141383D01*
X248123Y142217D01*
X247289Y142857D01*
X246318Y143259D01*
X245276Y143397D01*
X244233Y143259D01*
X243262Y142857D01*
X242428Y142217D01*
X241789Y141383D01*
X241709Y141192D01*
X212792D01*
X212680Y141463D01*
X212015Y142330D01*
X211148Y142995D01*
X210138Y143413D01*
X209055Y143555D01*
D02*
G37*
G36*
X305331Y119087D02*
X302075D01*
Y116126D01*
X305331D01*
Y119087D01*
D02*
G37*
G36*
X301075D02*
X297819D01*
Y116126D01*
X301075D01*
Y119087D01*
D02*
G37*
G36*
X291551D02*
X288295D01*
Y116126D01*
X291551D01*
Y119087D01*
D02*
G37*
G36*
X287295D02*
X284039D01*
Y116126D01*
X287295D01*
Y119087D01*
D02*
G37*
G36*
X277772D02*
X274516D01*
Y116126D01*
X277772D01*
Y119087D01*
D02*
G37*
G36*
X273516D02*
X270260D01*
Y116126D01*
X273516D01*
Y119087D01*
D02*
G37*
G36*
X203150Y130567D02*
X201564Y130411D01*
X200040Y129948D01*
X198635Y129197D01*
X197404Y128187D01*
X196393Y126955D01*
X195642Y125550D01*
X195180Y124026D01*
X195024Y122441D01*
X195180Y120856D01*
X195642Y119331D01*
X196393Y117927D01*
X197404Y116695D01*
X198635Y115685D01*
X200040Y114934D01*
X201564Y114471D01*
X203150Y114315D01*
X204735Y114471D01*
X206259Y114934D01*
X207664Y115685D01*
X208895Y116695D01*
X209906Y117927D01*
X210657Y119331D01*
X211119Y120856D01*
X211275Y122441D01*
X211119Y124026D01*
X210657Y125550D01*
X209906Y126955D01*
X208895Y128187D01*
X207664Y129197D01*
X206259Y129948D01*
X204735Y130411D01*
X203150Y130567D01*
D02*
G37*
%LPD*%
D12*
X274016Y119587D02*
D03*
Y126083D02*
D03*
X287795Y119587D02*
D03*
Y126083D02*
D03*
X301575Y119587D02*
D03*
Y126083D02*
D03*
D20*
X258287Y169370D02*
X301575Y126083D01*
X245276Y169370D02*
X258287D01*
X254508Y159370D02*
X287795Y126083D01*
X245276Y159370D02*
X254508D01*
X245276Y139370D02*
X260728D01*
X274016Y126083D01*
X215433Y169370D02*
X245276D01*
X197244Y151181D02*
X215433Y169370D01*
X217244Y159370D02*
X245276D01*
X209055Y151181D02*
X217244Y159370D01*
X209055Y140157D02*
X209842Y139370D01*
X245276D01*
D21*
X203150Y122441D02*
D03*
D22*
X197244Y151181D02*
D03*
X209055D02*
D03*
X197244Y139370D02*
D03*
X209055D02*
D03*
D23*
X180315Y296850D02*
D03*
Y166929D02*
D03*
X310236Y296850D02*
D03*
Y166929D02*
D03*
D24*
X245276Y232362D02*
D03*
D25*
Y169370D02*
D03*
Y159370D02*
D03*
Y149370D02*
D03*
D26*
Y139370D02*
D03*
M02*
