G04*
G04 #@! TF.GenerationSoftware,Altium Limited,Altium Designer,18.1.11 (251)*
G04*
G04 Layer_Color=32896*
%FSLAX25Y25*%
%MOIN*%
G70*
G01*
G75*
%ADD27C,0.00787*%
G36*
X186719Y204829D02*
X186760Y204823D01*
X186823Y204806D01*
X186899Y204788D01*
X186986Y204759D01*
X187096Y204719D01*
X187200Y204672D01*
X187310Y204609D01*
X187328Y204603D01*
X187363Y204580D01*
X187421Y204545D01*
X187496Y204493D01*
X187589Y204423D01*
X187687Y204336D01*
X187797Y204249D01*
X187983Y204064D01*
X188029Y204006D01*
X188087Y203936D01*
X188151Y203861D01*
X188273Y203693D01*
X188279Y203687D01*
X188302Y203652D01*
X188331Y203600D01*
X188366Y203542D01*
X188412Y203461D01*
X188453Y203374D01*
X188546Y203176D01*
X188551Y203159D01*
X188569Y203130D01*
X188592Y203072D01*
X188621Y202997D01*
X188644Y202904D01*
X188673Y202805D01*
X188702Y202695D01*
X188719Y202573D01*
Y202562D01*
X188725Y202521D01*
X188731Y202457D01*
X188737Y202371D01*
Y202266D01*
X188731Y202156D01*
X188725Y202034D01*
X188714Y201907D01*
X188719Y201912D01*
X188748Y201930D01*
X188795Y201953D01*
X188847Y201982D01*
X188917Y202017D01*
X188992Y202046D01*
X189148Y202098D01*
X189160D01*
X189183Y202110D01*
X189224Y202115D01*
X189282Y202127D01*
X189346Y202133D01*
X189421Y202127D01*
X189502D01*
X189583Y202115D01*
X189595D01*
X189618Y202104D01*
X189664Y202092D01*
X189723Y202069D01*
X189798Y202040D01*
X189879Y202005D01*
X189960Y201959D01*
X190053Y201901D01*
X190065Y201889D01*
X190094Y201872D01*
X190146Y201843D01*
X190210Y201791D01*
X190291Y201733D01*
X190378Y201657D01*
X190476Y201570D01*
X190656Y201391D01*
X190691Y201344D01*
X190731Y201292D01*
X190784Y201240D01*
X190830Y201170D01*
X190946Y201020D01*
X191050Y200846D01*
X191155Y200660D01*
X191236Y200463D01*
X191242Y200457D01*
X191247Y200440D01*
X191253Y200411D01*
X191271Y200370D01*
X191282Y200324D01*
X191294Y200266D01*
X191323Y200121D01*
X191352Y199953D01*
X191375Y199756D01*
Y199547D01*
X191358Y199321D01*
X191375Y199303D01*
X191798Y199993D01*
X193526Y198265D01*
X190082Y192525D01*
X188372Y194236D01*
X190639Y198033D01*
X190644Y198039D01*
Y198051D01*
X190673Y198091D01*
X190702Y198155D01*
X190737Y198236D01*
X190778Y198335D01*
X190801Y198439D01*
X190818Y198549D01*
Y198665D01*
Y198677D01*
X190813Y198718D01*
X190795Y198770D01*
X190778Y198845D01*
X190743Y198926D01*
X190691Y199013D01*
X190627Y199112D01*
X190546Y199205D01*
X190505Y199245D01*
X190459Y199280D01*
X190395Y199321D01*
X190320Y199361D01*
X190239Y199396D01*
X190163Y199413D01*
X190076Y199408D01*
X190065D01*
X190041Y199396D01*
X189995Y199373D01*
X189943Y199344D01*
X189879Y199292D01*
X189804Y199216D01*
X189734Y199124D01*
X189659Y199002D01*
X187386Y195221D01*
X185675Y196932D01*
X187948Y200724D01*
X187954Y200730D01*
Y200741D01*
X187983Y200782D01*
X188012Y200846D01*
X188041Y200933D01*
X188082Y201031D01*
X188105Y201135D01*
X188122Y201246D01*
Y201362D01*
Y201373D01*
X188116Y201414D01*
X188099Y201466D01*
X188076Y201547D01*
X188041Y201628D01*
X187983Y201721D01*
X187919Y201820D01*
X187832Y201918D01*
X187792Y201959D01*
X187745Y201994D01*
X187681Y202034D01*
X187606Y202075D01*
X187531Y202104D01*
X187450Y202127D01*
X187368Y202115D01*
X187357D01*
X187334Y202104D01*
X187287Y202081D01*
X187235Y202052D01*
X187171Y201999D01*
X187102Y201930D01*
X187026Y201843D01*
X186951Y201721D01*
X184678Y197929D01*
X183878Y198729D01*
X183855Y198764D01*
X183820Y198799D01*
X183785Y198845D01*
X183704Y198961D01*
X183623Y199100D01*
X183536Y199268D01*
X183466Y199454D01*
X183420Y199663D01*
Y199674D01*
X183414Y199692D01*
Y199715D01*
X183408Y199756D01*
X183402Y199866D01*
Y200005D01*
X183414Y200167D01*
X183449Y200341D01*
X183507Y200515D01*
X183588Y200689D01*
X185554Y203977D01*
X185559Y203982D01*
X185565Y204000D01*
X185582Y204017D01*
X185606Y204052D01*
X185658Y204127D01*
X185728Y204232D01*
X185814Y204342D01*
X185907Y204446D01*
X186012Y204551D01*
X186122Y204638D01*
X186128Y204643D01*
X186133Y204649D01*
X186168Y204672D01*
X186232Y204701D01*
X186307Y204742D01*
X186389Y204777D01*
X186487Y204806D01*
X186597Y204823D01*
X186707Y204829D01*
X186719D01*
D02*
G37*
G36*
X205372Y189226D02*
X201719Y183103D01*
X201713Y183097D01*
X201708Y183080D01*
X201690Y183062D01*
X201667Y183027D01*
X201621Y182946D01*
X201545Y182848D01*
X201464Y182732D01*
X201377Y182622D01*
X201278Y182511D01*
X201180Y182424D01*
X201168Y182413D01*
X201133Y182390D01*
X201081Y182361D01*
X201012Y182326D01*
X200936Y182297D01*
X200844Y182274D01*
X200751Y182262D01*
X200652Y182268D01*
X200641D01*
X200606Y182280D01*
X200559Y182291D01*
X200490Y182314D01*
X200409Y182349D01*
X200310Y182390D01*
X200206Y182448D01*
X200090Y182517D01*
X200078Y182529D01*
X200038Y182558D01*
X199968Y182604D01*
X199887Y182674D01*
X199777Y182761D01*
X199661Y182865D01*
X199527Y182987D01*
X199243Y183271D01*
X199179Y183346D01*
X199011Y183514D01*
X198930Y183607D01*
X198890Y183648D01*
X198843Y183706D01*
X198779Y183770D01*
X198710Y183851D01*
X198635Y183938D01*
X198547Y184036D01*
X198455Y184141D01*
X199220Y185416D01*
X199580Y185057D01*
X199632Y185016D01*
X199696Y184976D01*
X199759Y184935D01*
X199823Y184918D01*
X199893Y184906D01*
X199904D01*
X199922Y184912D01*
X199957Y184924D01*
X199997Y184941D01*
X200049Y184970D01*
X200096Y185016D01*
X200154Y185074D01*
X200206Y185150D01*
X201847Y187881D01*
X201128Y188600D01*
X201905Y189887D01*
X202624Y189168D01*
X203656Y190942D01*
X205372Y189226D01*
D02*
G37*
G36*
X196083Y195708D02*
X193810Y191905D01*
X193805Y191899D01*
Y191887D01*
X193775Y191847D01*
X193746Y191783D01*
X193712Y191702D01*
X193677Y191597D01*
X193648Y191487D01*
X193631Y191377D01*
Y191261D01*
Y191249D01*
X193636Y191209D01*
X193648Y191151D01*
X193671Y191081D01*
X193706Y191000D01*
X193752Y190907D01*
X193816Y190809D01*
X193903Y190710D01*
X193944Y190670D01*
X193990Y190635D01*
X194048Y190600D01*
X194123Y190559D01*
X194199Y190530D01*
X194280Y190519D01*
X194367Y190525D01*
X194378D01*
X194407Y190542D01*
X194448Y190559D01*
X194500Y190600D01*
X194570Y190646D01*
X194639Y190716D01*
X194709Y190809D01*
X194790Y190925D01*
X197069Y194723D01*
X198779Y193012D01*
X196170Y188663D01*
X196164Y188658D01*
X196159Y188640D01*
X196141Y188623D01*
X196124Y188594D01*
X196066Y188513D01*
X196002Y188414D01*
X195915Y188304D01*
X195822Y188199D01*
X195724Y188101D01*
X195614Y188014D01*
X195602Y188002D01*
X195561Y187985D01*
X195509Y187956D01*
X195428Y187921D01*
X195341Y187892D01*
X195248Y187869D01*
X195138Y187863D01*
X195028Y187869D01*
X195016D01*
X194976Y187875D01*
X194918Y187886D01*
X194848Y187898D01*
X194755Y187921D01*
X194657Y187950D01*
X194553Y187997D01*
X194442Y188049D01*
X194431Y188060D01*
X194390Y188078D01*
X194338Y188118D01*
X194263Y188171D01*
X194176Y188234D01*
X194071Y188315D01*
X193967Y188408D01*
X193775Y188600D01*
X193746Y188640D01*
X193700Y188698D01*
X193648Y188750D01*
X193602Y188820D01*
X193491Y188965D01*
X193381Y189133D01*
X193283Y189313D01*
X193201Y189510D01*
X193196Y189516D01*
X193190Y189533D01*
X193184Y189562D01*
X193167Y189603D01*
X193155Y189649D01*
X193143Y189707D01*
X193109Y189846D01*
X193080Y190014D01*
X193062Y190206D01*
X193056Y190409D01*
X193068Y190629D01*
X193045Y190652D01*
X192627Y189968D01*
X190923Y191673D01*
X194373Y197419D01*
X196083Y195708D01*
D02*
G37*
G36*
X201273Y190519D02*
X197823Y184773D01*
X196112Y186483D01*
X199556Y192235D01*
X201273Y190519D01*
D02*
G37*
G36*
X207958Y186767D02*
X203418Y179177D01*
X201702Y180894D01*
X206248Y188478D01*
X207958Y186767D01*
D02*
G37*
G36*
X211118Y183607D02*
X211136Y183578D01*
X211199Y183514D01*
X211269Y183422D01*
X211350Y183317D01*
X211437Y183196D01*
X211524Y183062D01*
X211605Y182923D01*
X211611Y182917D01*
Y182906D01*
X211623Y182882D01*
X211634Y182859D01*
X211675Y182784D01*
X211715Y182685D01*
X211768Y182564D01*
X211814Y182424D01*
X211860Y182285D01*
X211901Y182129D01*
X211907Y182111D01*
X211912Y182059D01*
X211924Y181978D01*
X211947Y181874D01*
X211959Y181746D01*
X211970Y181607D01*
X211982Y181456D01*
Y181294D01*
Y181271D01*
Y181224D01*
X211970Y181143D01*
X211965Y181033D01*
X211947Y180911D01*
X211924Y180760D01*
X211901Y180610D01*
X211860Y180453D01*
X209605Y172991D01*
X207639Y174968D01*
X208225Y176481D01*
X206752Y177954D01*
X205755Y176841D01*
X203778Y178818D01*
X210069Y184657D01*
X211118Y183607D01*
D02*
G37*
G36*
X273543Y294563D02*
X272471Y291821D01*
X275244Y292862D01*
X275718Y292388D01*
X273203Y289872D01*
X272780Y290295D01*
X274522Y292037D01*
X272079Y290996D01*
X271687Y291388D01*
X272728Y293831D01*
X270986Y292089D01*
X270564Y292512D01*
X273079Y295027D01*
X273543Y294563D01*
D02*
G37*
G36*
X269027Y289656D02*
X269048D01*
X269141Y289646D01*
X269213Y289615D01*
X269275Y289594D01*
X269285Y289584D01*
X269368Y289543D01*
X269440Y289491D01*
X269553Y289378D01*
X269594Y289316D01*
X269615Y289275D01*
X269625Y289264D01*
X269667Y289202D01*
X269687Y289140D01*
X269708Y289099D01*
Y289079D01*
X269728Y289017D01*
Y288955D01*
Y288914D01*
Y288893D01*
X269708Y288790D01*
X269697Y288759D01*
Y288738D01*
X269667Y288666D01*
Y288646D01*
X269656Y288635D01*
X269615Y288573D01*
X269605Y288563D01*
X269594Y288553D01*
X269564Y288501D01*
X269543Y288460D01*
X269512Y288408D01*
X269502Y288398D01*
X269440Y288336D01*
X269378Y288274D01*
X269326Y288223D01*
X269316Y288213D01*
X269306Y288202D01*
X269213Y288109D01*
X269151Y288048D01*
X269100Y287996D01*
X269089Y287986D01*
X269027Y287945D01*
X268976Y287914D01*
X268945Y287903D01*
X268935Y287893D01*
X268904Y287862D01*
X268893Y287852D01*
X268883Y287841D01*
X268852Y287831D01*
X268831D01*
X268811Y287810D01*
X268801Y287800D01*
X268770Y287790D01*
X268749D01*
X268646Y287769D01*
X268605D01*
X268594Y287759D01*
X268471Y287780D01*
X268429D01*
X268409D01*
X268337Y287810D01*
X268275Y287831D01*
X268234Y287852D01*
X268223Y287862D01*
X268161Y287903D01*
X268099Y287945D01*
X267996Y288048D01*
X267945Y288120D01*
X267914Y288171D01*
X267904Y288182D01*
X267862Y288264D01*
X267842Y288347D01*
X267821Y288388D01*
Y288408D01*
X267831Y288501D01*
X267842Y288573D01*
X267852Y288625D01*
Y288646D01*
X267883Y288738D01*
X267914Y288831D01*
X267945Y288883D01*
X267955Y288914D01*
X268203Y288666D01*
X268161Y288563D01*
Y288481D01*
Y288419D01*
Y288398D01*
X268192Y288326D01*
X268234Y288264D01*
X268254Y288223D01*
X268337Y288140D01*
X268409Y288109D01*
X268429D01*
X268440Y288099D01*
X268481Y288078D01*
X268502D01*
X268564D01*
X268584D01*
X268656Y288089D01*
X268687Y288099D01*
X268739Y288130D01*
X268759Y288151D01*
X268801Y288171D01*
X268842Y288213D01*
X268883Y288233D01*
X268893Y288244D01*
X268955Y288305D01*
X269017Y288367D01*
X269058Y288408D01*
X269079Y288429D01*
X269141Y288491D01*
X269192Y288543D01*
X269234Y288584D01*
X269244Y288594D01*
X269285Y288656D01*
X269326Y288697D01*
Y288718D01*
X269337Y288728D01*
X269368Y288780D01*
X269388Y288800D01*
X269398Y288872D01*
X269409Y288903D01*
X269398Y288955D01*
Y288976D01*
Y289037D01*
Y289058D01*
X269357Y289120D01*
X269337Y289140D01*
X269306Y289192D01*
X269295Y289223D01*
X269223Y289275D01*
X269192Y289285D01*
X269182Y289295D01*
X269100Y289336D01*
X269069Y289347D01*
X269048D01*
X268955Y289336D01*
X268935D01*
X268924Y289326D01*
X268852Y289295D01*
X268821Y289285D01*
X268811Y289275D01*
X268564Y289522D01*
X268646Y289563D01*
X268728Y289584D01*
X268780Y289615D01*
X268801D01*
X268893Y289646D01*
X268966Y289656D01*
X269027D01*
D02*
G37*
G36*
X270945Y287780D02*
X270966D01*
X271100Y287749D01*
X271141Y287728D01*
X271151Y287718D01*
X271213Y287677D01*
X271285Y287625D01*
X271894Y287017D01*
X270471Y285594D01*
X270254Y285810D01*
X270863Y286419D01*
X270595Y286687D01*
X269677Y286388D01*
X269429Y286635D01*
X270378Y286945D01*
X270337Y287068D01*
X270326Y287182D01*
Y287264D01*
Y287285D01*
X270368Y287408D01*
X270429Y287511D01*
X270491Y287594D01*
X270502Y287604D01*
X270512Y287615D01*
X270595Y287677D01*
X270656Y287718D01*
X270708Y287749D01*
X270728D01*
X270811Y287769D01*
X270883Y287780D01*
X270945D01*
D02*
G37*
G36*
X276172Y291316D02*
X276409Y291305D01*
X276646Y291233D01*
X276852Y291130D01*
X277048Y291017D01*
X277203Y290903D01*
X277337Y290811D01*
X277440Y290707D01*
X277646Y290481D01*
X277801Y290244D01*
X277914Y290027D01*
X277987Y289831D01*
X278028Y289666D01*
X278048Y289543D01*
X278059Y289450D01*
Y289429D01*
X278028Y289192D01*
X277956Y288955D01*
X277852Y288749D01*
X277739Y288553D01*
X277615Y288388D01*
X277512Y288264D01*
X277481Y288213D01*
X277450Y288182D01*
X277430Y288161D01*
X277419Y288151D01*
X277182Y287955D01*
X276945Y287800D01*
X276718Y287697D01*
X276522Y287625D01*
X276358Y287563D01*
X276234Y287543D01*
X276151D01*
X276120Y287532D01*
X275883Y287563D01*
X275657Y287625D01*
X275450Y287728D01*
X275254Y287841D01*
X275100Y287955D01*
X274986Y288048D01*
X274935Y288078D01*
X274873Y288140D01*
X274667Y288367D01*
X274512Y288604D01*
X274399Y288821D01*
X274337Y289006D01*
X274285Y289161D01*
X274265Y289285D01*
X274254Y289378D01*
Y289398D01*
X274285Y289635D01*
X274358Y289872D01*
X274471Y290089D01*
X274584Y290285D01*
X274698Y290439D01*
X274791Y290574D01*
X274832Y290615D01*
X274863Y290646D01*
X274883Y290666D01*
X274894Y290677D01*
X275131Y290893D01*
X275368Y291048D01*
X275584Y291161D01*
X275770Y291244D01*
X275935Y291285D01*
X276059Y291305D01*
X276151Y291316D01*
X276172D01*
D02*
G37*
G36*
X270564Y288347D02*
X269141Y286924D01*
X268924Y287140D01*
X270347Y288563D01*
X270564Y288347D01*
D02*
G37*
G36*
X280780Y287326D02*
X280378Y286924D01*
X279646Y287656D01*
X277533Y285542D01*
X277069Y286006D01*
X279182Y288120D01*
X278461Y288842D01*
X278863Y289244D01*
X280780Y287326D01*
D02*
G37*
G36*
X273141Y285769D02*
X272955Y285584D01*
X272564Y285975D01*
X271326Y284738D01*
X271110Y284955D01*
X272347Y286192D01*
X271955Y286584D01*
X272141Y286769D01*
X273141Y285769D01*
D02*
G37*
G36*
X273296Y285388D02*
X273316D01*
X273409Y285377D01*
X273481Y285347D01*
X273533Y285336D01*
X273553Y285316D01*
X273636Y285274D01*
X273698Y285233D01*
X273821Y285109D01*
X273863Y285048D01*
X273893Y284996D01*
X273904Y284986D01*
X273945Y284924D01*
X273966Y284862D01*
X273976Y284831D01*
Y284810D01*
X273997Y284687D01*
Y284645D01*
Y284625D01*
X273986Y284511D01*
X273976Y284481D01*
Y284460D01*
X273935Y284398D01*
Y284377D01*
X273924Y284367D01*
X273883Y284305D01*
Y284285D01*
X273873Y284274D01*
X273842Y284223D01*
X273811Y284192D01*
X273770Y284151D01*
X273760Y284140D01*
X273698Y284078D01*
X273636Y284017D01*
X273584Y283965D01*
X273574Y283955D01*
X273564Y283944D01*
X273471Y283852D01*
X273409Y283790D01*
X273357Y283738D01*
X273347Y283728D01*
X273296Y283676D01*
X273244Y283645D01*
X273223Y283625D01*
X273213Y283614D01*
X273182Y283584D01*
X273172Y283573D01*
X273162Y283563D01*
X273131Y283553D01*
X273110D01*
X273079Y283542D01*
X273069Y283532D01*
X273038Y283522D01*
X273027Y283511D01*
X272914Y283501D01*
X272883Y283491D01*
X272863D01*
X272739Y283511D01*
X272698D01*
X272677D01*
X272553Y283553D01*
X272512Y283573D01*
X272502Y283584D01*
X272440Y283625D01*
X272368Y283676D01*
X272254Y283790D01*
X272213Y283852D01*
X272182Y283903D01*
X272172Y283913D01*
X272131Y283996D01*
X272120Y284068D01*
X272100Y284109D01*
Y284130D01*
Y284233D01*
Y284315D01*
X272110Y284367D01*
Y284388D01*
X272141Y284481D01*
X272182Y284563D01*
X272213Y284614D01*
X272234Y284635D01*
X272461Y284408D01*
X272419Y284305D01*
Y284223D01*
Y284161D01*
Y284140D01*
X272450Y284068D01*
X272491Y284006D01*
X272522Y283955D01*
X272615Y283862D01*
X272677Y283841D01*
X272698D01*
X272749Y283810D01*
X272770D01*
X272832D01*
X272852D01*
X272863Y283800D01*
X272924Y283821D01*
X272955Y283831D01*
X273007Y283862D01*
X273038Y283872D01*
X273079Y283893D01*
X273120Y283934D01*
X273151Y283965D01*
X273162Y283975D01*
X273223Y284037D01*
X273285Y284099D01*
X273326Y284140D01*
X273347Y284161D01*
X273409Y284223D01*
X273461Y284274D01*
X273502Y284315D01*
X273512Y284326D01*
X273564Y284377D01*
X273594Y284429D01*
X273605Y284439D01*
X273615Y284450D01*
X273646Y284501D01*
X273656Y284532D01*
X273677Y284594D01*
X273687Y284625D01*
X273667Y284687D01*
Y284707D01*
Y284769D01*
X273656Y284800D01*
X273636Y284841D01*
X273615Y284862D01*
X273574Y284924D01*
X273564Y284955D01*
X273553Y284965D01*
X273481Y285017D01*
X273450Y285027D01*
X273440Y285037D01*
X273368Y285068D01*
X273337Y285079D01*
X273326Y285068D01*
X273223D01*
X273203D01*
X273193Y285058D01*
X273110Y285037D01*
X273079Y285027D01*
X273069Y285017D01*
X272842Y285243D01*
X272924Y285285D01*
X272997Y285316D01*
X273048Y285347D01*
X273069D01*
X273162Y285377D01*
X273234Y285388D01*
X273296D01*
D02*
G37*
G36*
X275440Y283470D02*
X274017Y282047D01*
X273100Y282965D01*
X273306Y283171D01*
X274007Y282470D01*
X274419Y282882D01*
X273821Y283481D01*
X274017Y283676D01*
X274615Y283078D01*
X275028Y283491D01*
X274326Y284192D01*
X274522Y284388D01*
X275440Y283470D01*
D02*
G37*
G36*
X281492Y286615D02*
X279657Y284780D01*
X282832Y285274D01*
X283296Y284810D01*
X280780Y282295D01*
X280327Y282749D01*
X282193Y284614D01*
X278997Y284078D01*
X278523Y284553D01*
X281038Y287068D01*
X281492Y286615D01*
D02*
G37*
G36*
X276657Y282254D02*
X275234Y280831D01*
X274316Y281749D01*
X274522Y281955D01*
X275223Y281254D01*
X276440Y282470D01*
X276657Y282254D01*
D02*
G37*
G36*
X277873Y281037D02*
X276450Y279614D01*
X275543Y280522D01*
X275749Y280728D01*
X276440Y280037D01*
X276852Y280449D01*
X276254Y281047D01*
X276450Y281243D01*
X277048Y280645D01*
X277461Y281058D01*
X276770Y281749D01*
X276966Y281944D01*
X277873Y281037D01*
D02*
G37*
G36*
X285203Y282903D02*
X283760Y279315D01*
X283286Y279790D01*
X284492Y282666D01*
X283131Y282109D01*
X283636Y281604D01*
X283399Y281037D01*
X282564Y281872D01*
X281585Y281491D01*
X281090Y281986D01*
X284698Y283408D01*
X285203Y282903D01*
D02*
G37*
G36*
X279677Y279233D02*
X278255Y277810D01*
X277347Y278717D01*
X277553Y278924D01*
X278244Y278233D01*
X278657Y278645D01*
X278059Y279243D01*
X278255Y279439D01*
X278852Y278841D01*
X279265Y279254D01*
X278574Y279944D01*
X278770Y280140D01*
X279677Y279233D01*
D02*
G37*
G36*
X287049Y281058D02*
X286007Y280016D01*
X287255Y278769D01*
X288296Y279810D01*
X288770Y279336D01*
X286255Y276820D01*
X285781Y277295D01*
X286853Y278367D01*
X285605Y279614D01*
X284533Y278542D01*
X284069Y279006D01*
X286585Y281522D01*
X287049Y281058D01*
D02*
G37*
G36*
X281368Y277377D02*
X281461Y277346D01*
X281523Y277305D01*
X281543D01*
X281554Y277295D01*
X281657Y277233D01*
X281760Y277171D01*
X281925Y277006D01*
X281976Y276934D01*
X282017Y276872D01*
Y276851D01*
X282048Y276779D01*
X282079Y276707D01*
X282090Y276656D01*
Y276635D01*
X282079Y276542D01*
X282069Y276470D01*
X282048Y276429D01*
Y276408D01*
X281997Y276336D01*
X281956Y276274D01*
X281914Y276233D01*
X281894Y276212D01*
X281842Y276161D01*
X281780Y276119D01*
X281739Y276099D01*
X281729Y276089D01*
X281667Y276068D01*
X281605Y276047D01*
X281564D01*
X281543D01*
X281471Y276037D01*
X281399Y276047D01*
X281347Y276058D01*
X281327D01*
X281255Y276089D01*
X281182Y276140D01*
X281131Y276171D01*
X281121Y276181D01*
X281048Y276233D01*
X281017Y276243D01*
X280914Y276346D01*
X280832Y276387D01*
X280760Y276418D01*
X280718D01*
X280698D01*
X280636Y276398D01*
X280574Y276377D01*
X280543Y276346D01*
X280533Y276336D01*
X280471Y276253D01*
X280450Y276192D01*
Y276130D01*
Y276109D01*
X280492Y276027D01*
X280543Y275954D01*
X280595Y275882D01*
X280615Y275862D01*
X280708Y275789D01*
X280791Y275728D01*
X280853Y275686D01*
X280873Y275666D01*
X280966Y275635D01*
X281069Y275614D01*
X281141Y275604D01*
X281162D01*
X281141Y275295D01*
X280986Y275305D01*
X280863Y275346D01*
X280770Y275377D01*
X280749D01*
X280739Y275387D01*
X280615Y275470D01*
X280512Y275552D01*
X280461Y275583D01*
X280316Y275728D01*
X280255Y275831D01*
X280203Y275903D01*
X280172Y275975D01*
X280152Y276037D01*
X280131Y276078D01*
X280141Y276109D01*
X280131Y276119D01*
Y276202D01*
X280152Y276284D01*
X280213Y276429D01*
X280255Y276470D01*
X280286Y276521D01*
X280306Y276542D01*
X280316Y276552D01*
X280368Y276604D01*
X280419Y276635D01*
X280461Y276656D01*
X280471Y276666D01*
X280543Y276697D01*
X280605Y276717D01*
X280657Y276728D01*
X280677D01*
X280760D01*
X280822D01*
X280873Y276697D01*
X280894D01*
X280986Y276666D01*
X281048Y276625D01*
X281100Y276594D01*
X281213Y276480D01*
X281265Y276449D01*
X281286D01*
X281296Y276439D01*
X281347Y276408D01*
X281378Y276377D01*
X281409Y276367D01*
X281419Y276357D01*
X281492Y276346D01*
X281512D01*
X281585Y276377D01*
X281605D01*
X281657Y276408D01*
X281677Y276429D01*
X281729Y276501D01*
X281739Y276511D01*
X281750Y276521D01*
X281760Y276573D01*
X281770Y276604D01*
Y276645D01*
X281739Y276717D01*
Y276738D01*
X281729Y276748D01*
X281677Y276841D01*
X281646Y276872D01*
X281574Y276923D01*
X281502Y276975D01*
X281451Y277006D01*
X281430D01*
X281347Y277047D01*
X281255Y277078D01*
X281193Y277099D01*
X281172D01*
X281244Y277398D01*
X281368Y277377D01*
D02*
G37*
G36*
X280626Y278284D02*
X279729Y276336D01*
X279492Y276573D01*
X279698Y276985D01*
X279151Y277532D01*
X278739Y277326D01*
X278502Y277563D01*
X280450Y278460D01*
X280626Y278284D01*
D02*
G37*
G36*
X289059Y278656D02*
X289080D01*
X289224Y278635D01*
X289358Y278583D01*
X289492Y278532D01*
X289605Y278460D01*
X289698Y278387D01*
X289781Y278326D01*
X290977Y277130D01*
X288461Y274614D01*
X287997Y275078D01*
X290100Y277181D01*
X289461Y277820D01*
X289358Y277903D01*
X289255Y277944D01*
X289172Y277965D01*
X289152D01*
X289038Y277955D01*
X288935Y277893D01*
X288863Y277841D01*
X288853Y277831D01*
X288843Y277820D01*
X288781Y277738D01*
X288729Y277666D01*
X288688Y277501D01*
X288678Y277429D01*
X288667Y277377D01*
X288678Y277346D01*
Y277326D01*
X288698Y277222D01*
X288729Y277109D01*
X288843Y276893D01*
X288884Y276810D01*
X288935Y276738D01*
X288966Y276686D01*
X288977Y276676D01*
X288492Y276315D01*
X288348Y276542D01*
X288224Y276748D01*
X288131Y276944D01*
X288080Y277119D01*
X288038Y277243D01*
X288018Y277346D01*
X288007Y277418D01*
Y277439D01*
Y277625D01*
X288049Y277790D01*
X288100Y277944D01*
X288172Y278078D01*
X288234Y278181D01*
X288296Y278264D01*
X288337Y278305D01*
X288358Y278326D01*
X288492Y278439D01*
X288616Y278521D01*
X288739Y278583D01*
X288843Y278625D01*
X288946Y278645D01*
X289018Y278656D01*
X289059D01*
D02*
G37*
G36*
X283791Y275119D02*
X282894Y273171D01*
X282657Y273408D01*
X282863Y273820D01*
X282316Y274367D01*
X281904Y274161D01*
X281667Y274398D01*
X283615Y275295D01*
X283791Y275119D01*
D02*
G37*
G36*
X285378Y273532D02*
X283956Y272109D01*
X283038Y273026D01*
X283244Y273233D01*
X283956Y272521D01*
X285172Y273738D01*
X285378Y273532D01*
D02*
G37*
G36*
X285976Y272934D02*
X285059Y272016D01*
X285007Y271965D01*
X284976Y271913D01*
X284966Y271882D01*
X284956Y271872D01*
X284925Y271758D01*
X284914Y271727D01*
Y271707D01*
X284935Y271604D01*
Y271563D01*
X284945Y271552D01*
X285007Y271470D01*
X285100Y271377D01*
X285152Y271346D01*
X285183Y271315D01*
X285275Y271305D01*
X285306Y271294D01*
X285327D01*
X285399Y271305D01*
X285451Y271315D01*
X285492D01*
X285502Y271325D01*
X285605Y271387D01*
X285636Y271418D01*
X285647Y271428D01*
X286564Y272346D01*
X286781Y272130D01*
X285832Y271181D01*
X285750Y271119D01*
X285677Y271068D01*
X285626Y271037D01*
X285605Y271016D01*
X285502Y270995D01*
X285420D01*
X285348Y270985D01*
X285327D01*
X285234Y270995D01*
X285141Y271006D01*
X285090Y271037D01*
X285069D01*
X284976Y271088D01*
X284904Y271140D01*
X284832Y271212D01*
X284770Y271294D01*
X284719Y271367D01*
X284688Y271418D01*
X284667Y271439D01*
X284636Y271532D01*
X284615Y271614D01*
Y271676D01*
Y271697D01*
Y271800D01*
X284626Y271892D01*
X284657Y271944D01*
Y271965D01*
X284708Y272057D01*
X284750Y272140D01*
X284791Y272181D01*
X284811Y272202D01*
X285760Y273150D01*
X285976Y272934D01*
D02*
G37*
G36*
X292770Y275336D02*
X291709Y272583D01*
X294461Y273645D01*
X294956Y273150D01*
X292441Y270635D01*
X292007Y271068D01*
X293750Y272810D01*
X291306Y271769D01*
X290904Y272171D01*
X291966Y274594D01*
X290224Y272851D01*
X289791Y273284D01*
X292306Y275800D01*
X292770Y275336D01*
D02*
G37*
G36*
X288760Y269985D02*
X288843Y269965D01*
X288915Y269934D01*
X288956Y269913D01*
X288966Y269903D01*
X289028Y269862D01*
X289090Y269820D01*
X289708Y269202D01*
X288286Y267779D01*
X288069Y267995D01*
X288678Y268604D01*
X288389Y268892D01*
X287492Y268573D01*
X287224Y268841D01*
X288193Y269129D01*
X288141Y269264D01*
X288131Y269377D01*
Y269459D01*
Y269480D01*
X288172Y269604D01*
X288234Y269707D01*
X288296Y269789D01*
X288306Y269800D01*
X288317Y269810D01*
X288399Y269872D01*
X288461Y269913D01*
X288513Y269944D01*
X288533D01*
X288616Y269965D01*
X288688Y269975D01*
X288739Y269985D01*
X288760D01*
D02*
G37*
G36*
X287358Y271552D02*
X286832Y270222D01*
X288172Y270738D01*
X288379Y270532D01*
X286956Y269109D01*
X286739Y269325D01*
X287626Y270212D01*
X287616Y270222D01*
X286636Y269841D01*
X286451Y270026D01*
X286842Y270995D01*
X286832Y271006D01*
X285946Y270119D01*
X285729Y270336D01*
X287152Y271758D01*
X287358Y271552D01*
D02*
G37*
G36*
X296863Y271243D02*
X295420Y267655D01*
X294946Y268129D01*
X296142Y271016D01*
X294791Y270449D01*
X295307Y269934D01*
X295059Y269377D01*
X294214Y270222D01*
X293255Y269820D01*
X292740Y270336D01*
X296358Y271748D01*
X296863Y271243D01*
D02*
G37*
G36*
X299905Y268202D02*
X297389Y265686D01*
X295637Y267439D01*
X296039Y267841D01*
X297338Y266542D01*
X297997Y267202D01*
X296771Y268428D01*
X297183Y268841D01*
X298389Y267635D01*
X299028Y268274D01*
X297771Y269532D01*
X298173Y269934D01*
X299905Y268202D01*
D02*
G37*
G36*
X308833Y266201D02*
X308895Y265604D01*
X308946Y265057D01*
X308977Y264799D01*
X309008Y264562D01*
X309029Y264335D01*
X309039Y264140D01*
X309070Y263964D01*
X309080Y263810D01*
X309091Y263696D01*
X309101Y263603D01*
X309111Y263552D01*
Y263531D01*
X309163Y262923D01*
X309225Y262325D01*
X309286Y261768D01*
X309297Y261511D01*
X309328Y261274D01*
X309348Y261047D01*
X309369Y260841D01*
X309379Y260665D01*
X309400Y260521D01*
Y260397D01*
X309410Y260304D01*
X309420Y260253D01*
Y260232D01*
X309482Y259614D01*
X309544Y259016D01*
X309606Y258459D01*
X309637Y258201D01*
X309658Y257975D01*
X309678Y257748D01*
X309699Y257541D01*
X309730Y257366D01*
X309740Y257211D01*
X309750Y257098D01*
X309761Y257005D01*
X309771Y256954D01*
Y256933D01*
X309833Y256315D01*
X309895Y255717D01*
X309957Y255160D01*
X309977Y254892D01*
X310008Y254655D01*
X310029Y254428D01*
X310049Y254222D01*
X310070Y254036D01*
X310091Y253892D01*
Y253768D01*
X310101Y253675D01*
X310111Y253624D01*
Y253603D01*
X309864Y253727D01*
X309616Y253851D01*
X309389Y253954D01*
X309194Y254047D01*
X309018Y254139D01*
X308895Y254201D01*
X308812Y254242D01*
X308792D01*
X308781Y254253D01*
X308534Y254376D01*
X308307Y254500D01*
X308080Y254603D01*
X307874Y254706D01*
X307709Y254789D01*
X307575Y254861D01*
X307493Y254902D01*
X307472D01*
X307462Y254912D01*
X307431Y254655D01*
X307410Y254428D01*
X307400Y254335D01*
Y254273D01*
Y254232D01*
Y254211D01*
Y253964D01*
X307389Y253768D01*
X307379Y253675D01*
Y253613D01*
Y253572D01*
Y253552D01*
X307369Y253232D01*
X307359Y252912D01*
Y252624D01*
X307348Y252366D01*
X307338Y252150D01*
X307328Y251974D01*
Y251871D01*
X307338Y251840D01*
X307328Y251830D01*
X307317Y251510D01*
X307307Y251191D01*
X307297Y250892D01*
X307286Y250634D01*
X307276Y250417D01*
X307266Y250242D01*
Y250139D01*
X307276Y250108D01*
X307266Y250098D01*
X307255Y249778D01*
X307235Y249469D01*
Y249180D01*
X307224Y248923D01*
X307214Y248706D01*
X307204Y248531D01*
Y248428D01*
X307214Y248397D01*
X307204Y248387D01*
X307194Y248067D01*
X307183Y247747D01*
X307173Y247448D01*
X307163Y247191D01*
X307152Y246974D01*
X307142Y246799D01*
Y246696D01*
X307152Y246665D01*
X307142Y246655D01*
X307152Y246582D01*
Y246520D01*
X307173Y246459D01*
Y246438D01*
Y246356D01*
X307152Y246314D01*
X307111Y246294D01*
X307101Y246283D01*
X307080D01*
X307060D01*
X307039Y246325D01*
X307018Y246366D01*
Y246387D01*
X307008Y246479D01*
Y246562D01*
Y246603D01*
Y246624D01*
X306915Y247211D01*
X306833Y247789D01*
X306750Y248325D01*
X306719Y248582D01*
X306678Y248809D01*
X306647Y249026D01*
X306627Y249211D01*
X306606Y249397D01*
X306585Y249541D01*
X306565Y249644D01*
X306554Y249737D01*
X306544Y249789D01*
Y249809D01*
X306462Y250407D01*
X306379Y250985D01*
X306307Y251510D01*
X306266Y251758D01*
X306235Y251995D01*
X306204Y252211D01*
X306173Y252407D01*
X306152Y252572D01*
X306132Y252717D01*
X306121Y252830D01*
X306101Y252912D01*
X306090Y252964D01*
Y252985D01*
X306008Y253583D01*
X305925Y254160D01*
X305853Y254706D01*
X305812Y254954D01*
X305791Y255181D01*
X305761Y255397D01*
X305730Y255593D01*
X305709Y255758D01*
X305688Y255902D01*
X305668Y256005D01*
X305658Y256098D01*
X305647Y256150D01*
Y256170D01*
X305565Y256768D01*
X305482Y257346D01*
X305410Y257892D01*
X305369Y258139D01*
X305338Y258377D01*
X305307Y258593D01*
X305276Y258789D01*
X305245Y258964D01*
X305224Y259108D01*
X305204Y259212D01*
X305193Y259304D01*
X305183Y259356D01*
Y259377D01*
X305173Y259469D01*
Y259552D01*
X305163Y259603D01*
Y259624D01*
X305152Y259717D01*
X305132Y259799D01*
X305121Y259871D01*
Y259892D01*
X305410Y259727D01*
X305699Y259562D01*
X305956Y259407D01*
X306183Y259284D01*
X306369Y259160D01*
X306462Y259108D01*
X306523Y259067D01*
X306585Y259047D01*
X306616Y259016D01*
X306647Y259005D01*
X306658Y258995D01*
X306946Y258830D01*
X307224Y258676D01*
X307472Y258531D01*
X307709Y258397D01*
X307905Y258284D01*
X307998Y258232D01*
X308060Y258191D01*
X308111Y258160D01*
X308152Y258139D01*
X308183Y258129D01*
X308194Y258119D01*
X308214Y258531D01*
X308235Y258923D01*
X308256Y259294D01*
X308276Y259624D01*
X308286Y259902D01*
X308297Y260119D01*
X308307Y260191D01*
Y260253D01*
Y260274D01*
Y260294D01*
X308328Y260706D01*
X308348Y261098D01*
X308369Y261469D01*
X308389Y261799D01*
X308400Y262078D01*
X308410Y262294D01*
X308420Y262366D01*
Y262428D01*
Y262449D01*
Y262470D01*
X308451Y262872D01*
X308472Y263263D01*
X308493Y263634D01*
X308524Y263954D01*
X308534Y264232D01*
X308544Y264449D01*
X308555Y264521D01*
Y264583D01*
Y264603D01*
Y264624D01*
X308575Y265037D01*
X308596Y265428D01*
X308627Y265789D01*
X308647Y266119D01*
X308658Y266397D01*
X308668Y266614D01*
X308678Y266686D01*
Y266748D01*
Y266769D01*
Y266789D01*
X308699D01*
X308719D01*
X308761Y266810D01*
X308771Y266820D01*
X308833Y266201D01*
D02*
G37*
G36*
X290038Y268583D02*
X290162D01*
X290203Y268562D01*
X290224D01*
X290296Y268552D01*
X290348Y268521D01*
X290389Y268501D01*
X290399Y268490D01*
X290461Y268449D01*
X290523Y268408D01*
X290636Y268294D01*
X290667Y268243D01*
X290698Y268191D01*
X290708Y268181D01*
X290750Y268119D01*
X290770Y268057D01*
X290781Y268026D01*
Y268006D01*
X290801Y267944D01*
Y267882D01*
Y267841D01*
Y267820D01*
X290781Y267717D01*
Y267676D01*
X290770Y267666D01*
X290739Y267593D01*
Y267573D01*
X290729Y267562D01*
X290688Y267501D01*
Y267480D01*
X290678Y267470D01*
X290636Y267428D01*
X290605Y267397D01*
X290575Y267346D01*
X290564Y267336D01*
X290513Y267263D01*
X290451Y267202D01*
X290399Y267150D01*
X290389Y267140D01*
X290379Y267129D01*
X290286Y267037D01*
X290214Y266985D01*
X290162Y266933D01*
X290152Y266923D01*
X290090Y266882D01*
X290049Y266841D01*
X290028Y266820D01*
X290018Y266810D01*
X289977Y266789D01*
X289966Y266779D01*
X289956Y266769D01*
X289925Y266758D01*
X289915Y266748D01*
X289884Y266738D01*
X289873Y266727D01*
X289843Y266717D01*
X289822D01*
X289719Y266696D01*
X289688Y266686D01*
X289667D01*
X289544Y266707D01*
X289502D01*
X289482D01*
X289358Y266748D01*
X289317Y266769D01*
X289306Y266779D01*
X289245Y266820D01*
X289183Y266861D01*
X289069Y266975D01*
X289028Y267037D01*
X289007Y267078D01*
X288997Y267088D01*
X288966Y267160D01*
X288935Y267212D01*
Y267253D01*
X288925Y267263D01*
X288915Y267336D01*
Y267397D01*
X288904Y267428D01*
Y267449D01*
X288915Y267562D01*
X288925Y267593D01*
X288935Y267604D01*
X288956Y267666D01*
X288966Y267696D01*
X289007Y267779D01*
Y267799D01*
X289018Y267810D01*
X289059Y267851D01*
X289100Y267892D01*
X289131Y267923D01*
X289141Y267934D01*
X289203Y268016D01*
X289276Y268088D01*
X289327Y268140D01*
X289337Y268150D01*
X289348Y268160D01*
X289430Y268243D01*
X289492Y268305D01*
X289544Y268336D01*
X289554Y268346D01*
X289605Y268397D01*
X289647Y268439D01*
X289667Y268459D01*
X289678Y268470D01*
X289750Y268501D01*
X289781Y268511D01*
X289853Y268542D01*
X289884Y268552D01*
X289987Y268573D01*
X290018Y268583D01*
X290038D01*
D02*
G37*
G36*
X292203Y266707D02*
X290781Y265284D01*
X290564Y265500D01*
X291172Y266109D01*
X290575Y266707D01*
X290770Y266903D01*
X291368Y266305D01*
X291791Y266727D01*
X291100Y267418D01*
X291296Y267614D01*
X292203Y266707D01*
D02*
G37*
G36*
X302090Y266016D02*
X301688Y265614D01*
X300956Y266346D01*
X298843Y264232D01*
X298379Y264696D01*
X300492Y266810D01*
X299760Y267542D01*
X300162Y267944D01*
X302090Y266016D01*
D02*
G37*
G36*
X307400Y263738D02*
X307420Y263408D01*
X306987Y263366D01*
X306575Y263304D01*
X306204Y263222D01*
X305884Y263129D01*
X305606Y263036D01*
X305492Y263006D01*
X305389Y262964D01*
X305317Y262933D01*
X305255Y262913D01*
X305224Y262902D01*
X305214Y262892D01*
X304833Y262717D01*
X304482Y262511D01*
X304163Y262315D01*
X303894Y262129D01*
X303781Y262036D01*
X303668Y261964D01*
X303585Y261882D01*
X303503Y261820D01*
X303431Y261768D01*
X303389Y261727D01*
X303369Y261707D01*
X303358Y261696D01*
X303070Y261408D01*
X302812Y261129D01*
X302575Y260830D01*
X302379Y260573D01*
X302296Y260449D01*
X302224Y260335D01*
X302163Y260232D01*
X302111Y260139D01*
X302059Y260067D01*
X302028Y260016D01*
X302018Y259985D01*
X302008Y259975D01*
X301812Y259593D01*
X301657Y259232D01*
X301534Y258861D01*
X301431Y258531D01*
X301389Y258387D01*
X301358Y258253D01*
X301317Y258129D01*
X301296Y258026D01*
X301286Y257954D01*
X301276Y257882D01*
X301266Y257851D01*
Y257830D01*
X301204Y257397D01*
X301183Y256985D01*
X301193Y256603D01*
X301204Y256263D01*
X301224Y255974D01*
X301245Y255851D01*
X301255Y255758D01*
X301266Y255665D01*
X301276Y255614D01*
X301286Y255583D01*
Y255562D01*
X301379Y255160D01*
X301482Y254768D01*
X301606Y254418D01*
X301729Y254108D01*
X301843Y253851D01*
X301884Y253748D01*
X301936Y253655D01*
X301967Y253583D01*
X301997Y253531D01*
X302008Y253500D01*
X302018Y253490D01*
X302224Y253139D01*
X302462Y252820D01*
X302699Y252521D01*
X302905Y252273D01*
X303400Y251778D01*
X303730Y251510D01*
X304049Y251273D01*
X304379Y251067D01*
X304688Y250902D01*
X304822Y250830D01*
X304946Y250768D01*
X305049Y250706D01*
X305152Y250665D01*
X305235Y250624D01*
X305297Y250603D01*
X305328Y250593D01*
X305338Y250583D01*
X305204Y250284D01*
X304740Y250500D01*
X304534Y250603D01*
X304348Y250706D01*
X304193Y250799D01*
X304080Y250871D01*
X303998Y250912D01*
X303977Y250933D01*
X303761Y251088D01*
X303565Y251242D01*
X303389Y251376D01*
X303224Y251521D01*
X303101Y251644D01*
X302998Y251727D01*
X302915Y251809D01*
X302678Y252067D01*
X302565Y252181D01*
X302482Y252284D01*
X302410Y252376D01*
X302338Y252449D01*
X302307Y252500D01*
X302296Y252510D01*
X302090Y252799D01*
X302008Y252923D01*
X301925Y253046D01*
X301864Y253150D01*
X301812Y253242D01*
X301781Y253294D01*
X301771Y253304D01*
X301565Y253696D01*
X301400Y254088D01*
X301255Y254459D01*
X301142Y254799D01*
X301101Y254943D01*
X301059Y255088D01*
X301039Y255211D01*
X301018Y255315D01*
X300997Y255397D01*
X300977Y255459D01*
Y255500D01*
X300967Y255510D01*
X300894Y255954D01*
X300874Y256387D01*
X300864Y256789D01*
X300874Y257150D01*
X300894Y257438D01*
X300905Y257572D01*
X300925Y257676D01*
X300936Y257768D01*
Y257830D01*
X300946Y257861D01*
Y257882D01*
X301028Y258315D01*
X301152Y258727D01*
X301276Y259098D01*
X301400Y259428D01*
X301461Y259573D01*
X301534Y259706D01*
X301585Y259820D01*
X301626Y259923D01*
X301657Y259995D01*
X301699Y260057D01*
X301709Y260088D01*
X301719Y260098D01*
X301956Y260480D01*
X302193Y260841D01*
X302441Y261150D01*
X302668Y261418D01*
X302771Y261542D01*
X302874Y261645D01*
X302967Y261737D01*
X303039Y261810D01*
X303101Y261872D01*
X303142Y261913D01*
X303173Y261944D01*
X303183Y261954D01*
X303523Y262232D01*
X303864Y262490D01*
X304193Y262696D01*
X304492Y262872D01*
X304637Y262954D01*
X304761Y263016D01*
X304874Y263067D01*
X304967Y263119D01*
X305049Y263160D01*
X305111Y263181D01*
X305142Y263191D01*
X305152Y263201D01*
X305554Y263356D01*
X305967Y263480D01*
X306338Y263583D01*
X306688Y263645D01*
X306833Y263665D01*
X306977Y263686D01*
X307101Y263707D01*
X307194Y263717D01*
X307286Y263727D01*
X307348D01*
X307379Y263738D01*
X307400D01*
D02*
G37*
G36*
X293379Y265531D02*
X292461Y264614D01*
X292410Y264562D01*
X292379Y264511D01*
X292368Y264480D01*
X292358Y264470D01*
X292337Y264408D01*
X292327Y264356D01*
Y264315D01*
Y264294D01*
X292348Y264191D01*
Y264150D01*
X292358Y264140D01*
X292379Y264098D01*
X292502Y263975D01*
X292554Y263944D01*
X292585Y263913D01*
X292688Y263892D01*
X292719Y263882D01*
X292740D01*
X292853Y263913D01*
X292894D01*
X292904Y263923D01*
X293008Y263985D01*
X293039Y264016D01*
X293049Y264026D01*
X293966Y264944D01*
X294183Y264727D01*
X293234Y263779D01*
X293152Y263717D01*
X293080Y263665D01*
X293028Y263634D01*
X293008Y263614D01*
X292904Y263593D01*
X292822D01*
X292750Y263583D01*
X292729D01*
X292636Y263593D01*
X292544Y263603D01*
X292492Y263634D01*
X292472D01*
X292379Y263686D01*
X292306Y263738D01*
X292245Y263799D01*
X292173Y263892D01*
X292121Y263964D01*
X292090Y264016D01*
X292069Y264036D01*
X292038Y264129D01*
X292018Y264212D01*
Y264274D01*
Y264294D01*
Y264397D01*
X292028Y264490D01*
X292059Y264542D01*
Y264562D01*
X292111Y264655D01*
X292152Y264738D01*
X292193Y264779D01*
X292214Y264799D01*
X293162Y265748D01*
X293379Y265531D01*
D02*
G37*
G36*
X295338Y263573D02*
X293915Y262150D01*
X293698Y262366D01*
X294307Y262975D01*
X293709Y263573D01*
X293904Y263769D01*
X294502Y263171D01*
X294925Y263593D01*
X294224Y264294D01*
X294420Y264490D01*
X295338Y263573D01*
D02*
G37*
G36*
X295698Y263047D02*
X295791Y263016D01*
X295853Y262975D01*
X295874D01*
X295884Y262964D01*
X295997Y262892D01*
X296100Y262830D01*
X296265Y262665D01*
X296317Y262593D01*
X296348Y262542D01*
X296358Y262511D01*
X296389Y262439D01*
X296410Y262377D01*
X296420Y262325D01*
Y262304D01*
X296410Y262212D01*
X296399Y262140D01*
X296389Y262088D01*
Y262067D01*
X296348Y261985D01*
X296307Y261923D01*
X296265Y261882D01*
X296245Y261861D01*
X296183Y261820D01*
X296121Y261779D01*
X296080Y261758D01*
X296070Y261748D01*
X296008Y261727D01*
X295936Y261717D01*
X295905Y261707D01*
X295884D01*
X295801D01*
X295729Y261717D01*
X295678Y261727D01*
X295657D01*
X295585Y261758D01*
X295523Y261799D01*
X295472Y261830D01*
X295461Y261841D01*
X295410Y261872D01*
X295379Y261902D01*
X295348Y261913D01*
X295245Y262016D01*
X295162Y262057D01*
X295100Y262078D01*
X295059D01*
X295039D01*
X294966Y262067D01*
X294915Y262036D01*
X294874Y262016D01*
X294863Y262005D01*
X294801Y261923D01*
X294781Y261861D01*
Y261799D01*
Y261779D01*
X294822Y261696D01*
X294874Y261624D01*
X294925Y261552D01*
X294946Y261531D01*
X295039Y261459D01*
X295121Y261397D01*
X295183Y261356D01*
X295203Y261335D01*
X295307Y261294D01*
X295399Y261284D01*
X295472Y261274D01*
X295492D01*
X295482Y260954D01*
X295317Y260975D01*
X295193Y261016D01*
X295100Y261047D01*
X295080D01*
X295070Y261057D01*
X294946Y261139D01*
X294843Y261222D01*
X294791Y261253D01*
X294647Y261397D01*
X294595Y261490D01*
X294544Y261562D01*
X294513Y261634D01*
X294492Y261696D01*
X294472Y261737D01*
X294482Y261768D01*
X294472Y261779D01*
Y261861D01*
X294492Y261944D01*
X294554Y262088D01*
X294585Y262140D01*
X294616Y262191D01*
X294637Y262212D01*
X294647Y262222D01*
X294698Y262274D01*
X294750Y262304D01*
X294791Y262325D01*
X294801Y262335D01*
X294874Y262366D01*
X294935Y262387D01*
X294987Y262397D01*
X295008D01*
X295090D01*
X295152D01*
X295203Y262366D01*
X295224D01*
X295317Y262335D01*
X295379Y262294D01*
X295430Y262263D01*
X295544Y262150D01*
X295595Y262119D01*
X295616D01*
X295626Y262109D01*
X295678Y262078D01*
X295709Y262047D01*
X295740Y262036D01*
X295750Y262026D01*
X295822Y262016D01*
X295843D01*
X295925Y262036D01*
X295946D01*
X295997Y262067D01*
X296018Y262088D01*
X296070Y262160D01*
Y262181D01*
X296080Y262191D01*
X296090Y262243D01*
X296100Y262274D01*
Y262315D01*
X296070Y262387D01*
Y262408D01*
X296059Y262418D01*
X296018Y262500D01*
X295987Y262531D01*
X295905Y262593D01*
X295843Y262634D01*
X295791Y262665D01*
X295760Y262676D01*
X295678Y262717D01*
X295585Y262748D01*
X295523Y262768D01*
X295502D01*
X295575Y263067D01*
X295698Y263047D01*
D02*
G37*
G36*
X299059Y261851D02*
X298843Y261634D01*
X268718Y291759D01*
X268935Y291976D01*
X299059Y261851D01*
D02*
G37*
G36*
X311080Y262964D02*
X311441Y262748D01*
X311771Y262542D01*
X312049Y262325D01*
X312173Y262243D01*
X312286Y262150D01*
X312379Y262078D01*
X312452Y262005D01*
X312524Y261954D01*
X312915Y261562D01*
X313183Y261253D01*
X313421Y260954D01*
X313627Y260686D01*
X313720Y260552D01*
X313792Y260438D01*
X313854Y260335D01*
X313905Y260243D01*
X313957Y260170D01*
X313988Y260119D01*
X313998Y260088D01*
X314008Y260078D01*
X314194Y259706D01*
X314349Y259325D01*
X314472Y258975D01*
X314575Y258645D01*
X314616Y258500D01*
X314647Y258366D01*
X314689Y258243D01*
X314709Y258139D01*
X314720Y258067D01*
X314740Y258005D01*
X314751Y257975D01*
Y257954D01*
X314802Y257531D01*
X314833Y257108D01*
Y256717D01*
X314812Y256366D01*
X314792Y256057D01*
Y255933D01*
X314771Y255830D01*
X314761Y255737D01*
Y255675D01*
X314751Y255644D01*
Y255624D01*
X314658Y255201D01*
X314555Y254789D01*
X314421Y254428D01*
X314297Y254098D01*
X314235Y253954D01*
X314183Y253820D01*
X314122Y253717D01*
X314091Y253624D01*
X314050Y253541D01*
X314019Y253490D01*
X314008Y253459D01*
X313998Y253449D01*
X313781Y253088D01*
X313555Y252737D01*
X313328Y252428D01*
X313101Y252160D01*
X313008Y252046D01*
X312905Y251943D01*
X312833Y251851D01*
X312761Y251778D01*
X312699Y251716D01*
X312658Y251675D01*
X312627Y251644D01*
X312616Y251634D01*
X312297Y251356D01*
X311977Y251119D01*
X311658Y250902D01*
X311359Y250727D01*
X311235Y250644D01*
X311111Y250583D01*
X311008Y250521D01*
X310915Y250490D01*
X310843Y250438D01*
X310781Y250417D01*
X310750Y250407D01*
X310740Y250397D01*
X310348Y250232D01*
X309946Y250098D01*
X309565Y249985D01*
X309214Y249902D01*
X309060Y249871D01*
X308926Y249840D01*
X308802Y249820D01*
X308688Y249809D01*
X308606Y249789D01*
X308544D01*
X308513Y249778D01*
X308493D01*
X308472Y250108D01*
X308884Y250170D01*
X309286Y250242D01*
X309647Y250335D01*
X309957Y250438D01*
X310225Y250521D01*
X310338Y250572D01*
X310431Y250603D01*
X310503Y250634D01*
X310565Y250655D01*
X310596Y250665D01*
X310606Y250675D01*
X310977Y250861D01*
X311307Y251067D01*
X311627Y251263D01*
X311884Y251459D01*
X311998Y251531D01*
X312101Y251613D01*
X312183Y251696D01*
X312266Y251758D01*
X312328Y251799D01*
X312369Y251840D01*
X312390Y251861D01*
X312400Y251871D01*
X312689Y252160D01*
X312936Y252449D01*
X313163Y252737D01*
X313348Y253005D01*
X313431Y253129D01*
X313513Y253232D01*
X313575Y253335D01*
X313616Y253418D01*
X313668Y253490D01*
X313699Y253541D01*
X313709Y253572D01*
X313720Y253583D01*
X313905Y253954D01*
X314050Y254325D01*
X314173Y254675D01*
X314266Y254995D01*
X314307Y255139D01*
X314338Y255273D01*
X314369Y255387D01*
X314390Y255490D01*
X314410Y255572D01*
X314421Y255624D01*
Y255665D01*
X314431Y255675D01*
X314482Y256098D01*
X314513Y256500D01*
X314524Y256882D01*
X314503Y257211D01*
X314482Y257500D01*
X314472Y257614D01*
X314462Y257706D01*
X314452Y257799D01*
X314441Y257851D01*
Y257892D01*
X314431Y257902D01*
X314338Y258304D01*
X314235Y258676D01*
X314122Y259016D01*
X313998Y259325D01*
X313895Y259573D01*
X313843Y259686D01*
X313802Y259768D01*
X313771Y259840D01*
X313740Y259892D01*
X313730Y259923D01*
X313720Y259933D01*
X313513Y260284D01*
X313297Y260603D01*
X313070Y260892D01*
X312864Y261139D01*
X312771Y261253D01*
X312689Y261356D01*
X312400Y261645D01*
X312091Y261913D01*
X311781Y262160D01*
X311462Y262377D01*
X311173Y262542D01*
X311049Y262624D01*
X310926Y262686D01*
X310823Y262748D01*
X310730Y262779D01*
X310658Y262830D01*
X310596Y262851D01*
X310565Y262861D01*
X310555Y262872D01*
X310688Y263150D01*
X311080Y262964D01*
D02*
G37*
%LPC*%
G36*
X210231Y181850D02*
X207848Y179177D01*
X208874Y178151D01*
X210231Y181850D01*
D02*
G37*
G36*
X270945Y287511D02*
X270863Y287491D01*
X270842D01*
X270832Y287481D01*
X270749Y287439D01*
X270728Y287419D01*
X270718Y287408D01*
X270656Y287347D01*
X270646Y287316D01*
X270636Y287305D01*
X270605Y287233D01*
Y287213D01*
Y287192D01*
X270615Y287099D01*
X270625Y287068D01*
X270636Y287058D01*
X270687Y286986D01*
X271058Y286615D01*
X271491Y287048D01*
X271089Y287450D01*
X271069D01*
X271058Y287460D01*
X270976Y287501D01*
X270955D01*
X270945Y287511D01*
D02*
G37*
G36*
X276244Y290646D02*
X276090Y290615D01*
X275935Y290563D01*
X275801Y290491D01*
X275667Y290419D01*
X275553Y290326D01*
X275471Y290264D01*
X275419Y290213D01*
X275399Y290192D01*
X275254Y290027D01*
X275141Y289872D01*
X275059Y289728D01*
X274997Y289604D01*
X274966Y289491D01*
X274945Y289408D01*
X274935Y289357D01*
Y289336D01*
Y289192D01*
X274966Y289037D01*
X275017Y288903D01*
X275089Y288790D01*
X275151Y288687D01*
X275213Y288604D01*
X275275Y288543D01*
X275419Y288419D01*
X275564Y288316D01*
X275708Y288254D01*
X275832Y288213D01*
X275935Y288192D01*
X276017D01*
X276069Y288182D01*
X276090D01*
X276244Y288213D01*
X276399Y288264D01*
X276543Y288347D01*
X276677Y288419D01*
X276790Y288512D01*
X276873Y288573D01*
X276925Y288625D01*
X276945Y288646D01*
X277090Y288810D01*
X277203Y288965D01*
X277275Y289099D01*
X277327Y289233D01*
X277368Y289336D01*
X277389Y289419D01*
X277399Y289470D01*
Y289491D01*
X277389Y289646D01*
X277347Y289790D01*
X277296Y289924D01*
X277213Y290048D01*
X277151Y290151D01*
X277090Y290233D01*
X277028Y290295D01*
X276883Y290419D01*
X276749Y290512D01*
X276605Y290574D01*
X276502Y290615D01*
X276399Y290635D01*
X276306Y290646D01*
X276265D01*
X276244D01*
D02*
G37*
G36*
X280255Y278078D02*
X279419Y277656D01*
X279832Y277243D01*
X280255Y278078D01*
D02*
G37*
G36*
X283409Y274923D02*
X282574Y274501D01*
X282997Y274078D01*
X283409Y274923D01*
D02*
G37*
G36*
X288708Y269707D02*
X288667Y269686D01*
X288647D01*
X288636Y269676D01*
X288554Y269635D01*
X288533Y269614D01*
X288523Y269604D01*
X288471Y269532D01*
X288461Y269501D01*
X288451Y269490D01*
X288420Y269418D01*
Y269397D01*
Y269377D01*
Y269336D01*
Y269294D01*
X288430Y269264D01*
X288440Y269253D01*
X288502Y269171D01*
X288873Y268800D01*
X289306Y269233D01*
X288894Y269645D01*
X288873D01*
X288863Y269655D01*
X288822Y269676D01*
X288791Y269686D01*
X288760Y269696D01*
X288708Y269707D01*
D02*
G37*
G36*
X290049Y268264D02*
X289987Y268243D01*
X289966D01*
X289956Y268232D01*
X289894Y268212D01*
X289873D01*
X289863Y268202D01*
X289832Y268171D01*
X289791Y268129D01*
X289760Y268098D01*
X289750Y268088D01*
X289688Y268047D01*
X289626Y267985D01*
X289595Y267954D01*
X289574Y267934D01*
X289502Y267861D01*
X289440Y267799D01*
X289409Y267748D01*
X289399Y267738D01*
X289348Y267686D01*
X289317Y267655D01*
X289296Y267635D01*
X289286Y267624D01*
X289265Y267562D01*
Y267542D01*
X289255Y267531D01*
X289234Y267470D01*
Y267449D01*
X289224Y267439D01*
X289214Y267387D01*
Y267367D01*
X289234Y267325D01*
Y267305D01*
X289245Y267294D01*
X289265Y267232D01*
Y267212D01*
X289420Y267057D01*
X289482Y267037D01*
X289513Y267026D01*
X289564Y266995D01*
X289585D01*
X289636Y267006D01*
X289657D01*
X289729Y267016D01*
X289760Y267026D01*
X289812Y267057D01*
X289843Y267068D01*
X289873Y267098D01*
X289915Y267140D01*
X289956Y267160D01*
X289966Y267171D01*
X290028Y267232D01*
X290090Y267294D01*
X290131Y267336D01*
X290152Y267356D01*
X290214Y267418D01*
X290265Y267470D01*
X290306Y267511D01*
X290317Y267521D01*
X290358Y267583D01*
X290399Y267624D01*
X290409Y267635D01*
X290420Y267645D01*
X290451Y267696D01*
X290461Y267727D01*
X290471Y267799D01*
X290482Y267830D01*
Y267872D01*
Y267892D01*
Y267954D01*
X290471Y267985D01*
X290441Y268037D01*
X290420Y268057D01*
X290379Y268119D01*
X290368Y268150D01*
X290306Y268191D01*
X290276Y268202D01*
X290224Y268253D01*
X290203D01*
X290131Y268264D01*
X290111D01*
X290069D01*
X290049D01*
D02*
G37*
%LPD*%
D27*
X213124Y286401D02*
X213780Y287057D01*
X215092D01*
X215748Y286401D01*
Y283777D01*
X215092Y283121D01*
X213780D01*
X213124Y283777D01*
X211812Y285745D02*
Y283777D01*
X211156Y283121D01*
X209189D01*
Y285745D01*
X207876D02*
Y283121D01*
Y284433D01*
X207221Y285089D01*
X206565Y285745D01*
X205909D01*
X203941D02*
Y283121D01*
Y284433D01*
X203285Y285089D01*
X202629Y285745D01*
X201973D01*
X198037Y283121D02*
X199349D01*
X200005Y283777D01*
Y285089D01*
X199349Y285745D01*
X198037D01*
X197381Y285089D01*
Y284433D01*
X200005D01*
X196069Y283121D02*
Y285745D01*
X194102D01*
X193446Y285089D01*
Y283121D01*
X191478Y286401D02*
Y285745D01*
X192134D01*
X190822D01*
X191478D01*
Y283777D01*
X190822Y283121D01*
X215748Y279133D02*
Y276509D01*
Y277821D01*
X215092Y278477D01*
X214436Y279133D01*
X213780D01*
X211156D02*
X209844D01*
X209189Y278477D01*
Y276509D01*
X211156D01*
X211812Y277165D01*
X211156Y277821D01*
X209189D01*
X207876Y276509D02*
Y279133D01*
X205909D01*
X205253Y278477D01*
Y276509D01*
X202629Y275197D02*
X201973D01*
X201317Y275853D01*
Y279133D01*
X203285D01*
X203941Y278477D01*
Y277165D01*
X203285Y276509D01*
X201317D01*
X198037D02*
X199349D01*
X200005Y277165D01*
Y278477D01*
X199349Y279133D01*
X198037D01*
X197381Y278477D01*
Y277821D01*
X200005D01*
X192134Y278477D02*
X189510D01*
X190822Y279788D02*
Y277165D01*
X188198Y278477D02*
X185574D01*
X184262Y279788D02*
X183606Y280445D01*
X182294D01*
X181638Y279788D01*
Y279133D01*
X182294Y278477D01*
X182950D01*
X182294D01*
X181638Y277821D01*
Y277165D01*
X182294Y276509D01*
X183606D01*
X184262Y277165D01*
X180326Y279788D02*
X179670Y280445D01*
X178358D01*
X177702Y279788D01*
Y277165D01*
X178358Y276509D01*
X179670D01*
X180326Y277165D01*
Y279788D01*
X176391D02*
X175735Y280445D01*
X174423D01*
X173767Y279788D01*
Y277165D01*
X174423Y276509D01*
X175735D01*
X176391Y277165D01*
Y279788D01*
X172455Y276509D02*
Y279133D01*
X171143Y280445D01*
X169831Y279133D01*
Y276509D01*
Y278477D01*
X172455D01*
X312993Y143605D02*
X314305D01*
X314961Y144261D01*
Y145573D01*
X314305Y146229D01*
X312993D01*
X312337Y145573D01*
Y144917D01*
X314961D01*
X311025Y146229D02*
X308401Y143605D01*
X309713Y144917D01*
X308401Y146229D01*
X311025Y143605D01*
X307089Y142293D02*
Y146229D01*
X305121D01*
X304465Y145573D01*
Y144261D01*
X305121Y143605D01*
X307089D01*
X301185D02*
X302497D01*
X303153Y144261D01*
Y145573D01*
X302497Y146229D01*
X301185D01*
X300530Y145573D01*
Y144917D01*
X303153D01*
X296594Y146229D02*
X298562D01*
X299218Y145573D01*
Y144261D01*
X298562Y143605D01*
X296594D01*
X294626Y146885D02*
Y146229D01*
X295282D01*
X293970D01*
X294626D01*
Y144261D01*
X293970Y143605D01*
X290034D02*
X291346D01*
X292002Y144261D01*
Y145573D01*
X291346Y146229D01*
X290034D01*
X289378Y145573D01*
Y144917D01*
X292002D01*
X285443Y147541D02*
Y143605D01*
X287410D01*
X288066Y144261D01*
Y145573D01*
X287410Y146229D01*
X285443D01*
X314961Y138304D02*
X313649Y135680D01*
X312337Y138304D01*
X310369Y135680D02*
X309057D01*
X308401Y136336D01*
Y137648D01*
X309057Y138304D01*
X310369D01*
X311025Y137648D01*
Y136336D01*
X310369Y135680D01*
X307089D02*
X305777D01*
X306433D01*
Y139616D01*
X307089D01*
X303153Y138960D02*
Y138304D01*
X303809D01*
X302498D01*
X303153D01*
Y136336D01*
X302498Y135680D01*
X299874Y138304D02*
X298562D01*
X297906Y137648D01*
Y135680D01*
X299874D01*
X300530Y136336D01*
X299874Y136992D01*
X297906D01*
X295282Y134369D02*
X294626D01*
X293970Y135024D01*
Y138304D01*
X295938D01*
X296594Y137648D01*
Y136336D01*
X295938Y135680D01*
X293970D01*
X290690D02*
X292002D01*
X292658Y136336D01*
Y137648D01*
X292002Y138304D01*
X290690D01*
X290034Y137648D01*
Y136992D01*
X292658D01*
X284131Y138304D02*
X282819D01*
X282163Y137648D01*
Y135680D01*
X284131D01*
X284787Y136336D01*
X284131Y136992D01*
X282163D01*
X280195Y138960D02*
Y138304D01*
X280851D01*
X279539D01*
X280195D01*
Y136336D01*
X279539Y135680D01*
X314961Y131036D02*
X314305Y131692D01*
X312993D01*
X312337Y131036D01*
Y128412D01*
X312993Y127756D01*
X314305D01*
X314961Y128412D01*
Y131036D01*
X311025Y127756D02*
Y130380D01*
X309713Y131692D01*
X308401Y130380D01*
Y127756D01*
Y129724D01*
X311025D01*
X303153Y127756D02*
X301841D01*
X302497D01*
Y130380D01*
X303153D01*
X299874Y127756D02*
X297906D01*
X297250Y128412D01*
X297906Y129068D01*
X299218D01*
X299874Y129724D01*
X299218Y130380D01*
X297250D01*
X289378Y127756D02*
X292002D01*
X289378Y130380D01*
Y131036D01*
X290034Y131692D01*
X291346D01*
X292002Y131036D01*
X288066Y127756D02*
Y128412D01*
X287410D01*
Y127756D01*
X288066D01*
X282163Y131692D02*
X284787D01*
Y129724D01*
X283475Y130380D01*
X282819D01*
X282163Y129724D01*
Y128412D01*
X282819Y127756D01*
X284131D01*
X284787Y128412D01*
X280851Y131692D02*
Y129068D01*
X279539Y127756D01*
X278227Y129068D01*
Y131692D01*
X189109Y140827D02*
X189764Y141483D01*
X191076D01*
X191732Y140827D01*
Y138204D01*
X191076Y137548D01*
X189764D01*
X189109Y138204D01*
Y139515D01*
X190420D01*
X187796Y137548D02*
Y141483D01*
X185173Y137548D01*
Y141483D01*
X183861D02*
Y137548D01*
X181893D01*
X181237Y138204D01*
Y140827D01*
X181893Y141483D01*
X183861D01*
X258006Y150918D02*
X258662Y151574D01*
X259974D01*
X260630Y150918D01*
Y148294D01*
X259974Y147638D01*
X258662D01*
X258006Y148294D01*
Y149606D01*
X259318D01*
X256694Y147638D02*
Y151574D01*
X254070Y147638D01*
Y151574D01*
X252758D02*
Y147638D01*
X250791D01*
X250135Y148294D01*
Y150918D01*
X250791Y151574D01*
X252758D01*
X192520Y153306D02*
Y150682D01*
X191208Y149370D01*
X189896Y150682D01*
Y153306D01*
X188584Y149370D02*
Y153306D01*
X186616D01*
X185960Y152650D01*
Y151338D01*
X186616Y150682D01*
X188584D01*
X187272D02*
X185960Y149370D01*
X182024Y153306D02*
X184648D01*
Y149370D01*
X182024D01*
X184648Y151338D02*
X183336D01*
X178089Y153306D02*
X180712D01*
Y151338D01*
X179401D01*
X180712D01*
Y149370D01*
X263276Y171259D02*
Y168635D01*
X261964Y167323D01*
X260652Y168635D01*
Y171259D01*
X259340Y167323D02*
Y171259D01*
X257372D01*
X256716Y170603D01*
Y169291D01*
X257372Y168635D01*
X259340D01*
X258028D02*
X256716Y167323D01*
X252780Y171259D02*
X255404D01*
Y167323D01*
X252780D01*
X255404Y169291D02*
X254092D01*
X248845Y171259D02*
X251468D01*
Y169291D01*
X250156D01*
X251468D01*
Y167323D01*
X258006Y161022D02*
X259317D01*
X259974Y160366D01*
Y157743D01*
X259317Y157087D01*
X258006D01*
X257350Y157743D01*
Y160366D01*
X258006Y161022D01*
X256038D02*
Y157743D01*
X255382Y157087D01*
X254070D01*
X253414Y157743D01*
Y161022D01*
X252102D02*
X249478D01*
X250790D01*
Y157087D01*
X222048Y152755D02*
X223360D01*
X224016Y152099D01*
Y149475D01*
X223360Y148819D01*
X222048D01*
X221392Y149475D01*
Y152099D01*
X222048Y152755D01*
X220080D02*
Y149475D01*
X219424Y148819D01*
X218112D01*
X217456Y149475D01*
Y152755D01*
X216144D02*
X213520D01*
X214832D01*
Y148819D01*
X218242Y141213D02*
X220866D01*
Y139245D01*
X219554Y139901D01*
X218898D01*
X218242Y139245D01*
Y137933D01*
X218898Y137277D01*
X220210D01*
X220866Y137933D01*
X216930Y141213D02*
Y138589D01*
X215618Y137277D01*
X214307Y138589D01*
Y141213D01*
X254856Y141293D02*
X257480D01*
Y139325D01*
X256168Y139981D01*
X255512D01*
X254856Y139325D01*
Y138013D01*
X255512Y137357D01*
X256824D01*
X257480Y138013D01*
X253545Y141293D02*
Y138669D01*
X252233Y137357D01*
X250921Y138669D01*
Y141293D01*
X262992Y299605D02*
Y295669D01*
Y297637D01*
X260368D01*
Y299605D01*
Y295669D01*
X259056Y299605D02*
X256433D01*
X257745D01*
Y295669D01*
X252497Y299605D02*
X255121D01*
Y297637D01*
X253809D01*
X255121D01*
Y295669D01*
X248561Y298949D02*
X249217Y299605D01*
X250529D01*
X251185Y298949D01*
Y298293D01*
X250529Y297637D01*
X249217D01*
X248561Y296981D01*
Y296325D01*
X249217Y295669D01*
X250529D01*
X251185Y296325D01*
X247249Y297637D02*
X244625D01*
X240690Y295669D02*
X243313D01*
X240690Y298293D01*
Y298949D01*
X241346Y299605D01*
X242657D01*
X243313Y298949D01*
X239378D02*
X238722Y299605D01*
X237410D01*
X236754Y298949D01*
Y296325D01*
X237410Y295669D01*
X238722D01*
X239378Y296325D01*
Y298949D01*
X235442D02*
X234786Y299605D01*
X233474D01*
X232818Y298949D01*
Y296325D01*
X233474Y295669D01*
X234786D01*
X235442Y296325D01*
Y298949D01*
X231506Y297637D02*
X228882D01*
X227571Y295669D02*
Y299605D01*
X225603D01*
X224947Y298949D01*
Y297637D01*
X225603Y296981D01*
X227571D01*
X274935Y306036D02*
X275591Y306692D01*
X276903D01*
X277559Y306036D01*
Y303412D01*
X276903Y302756D01*
X275591D01*
X274935Y303412D01*
X273623Y305380D02*
Y303412D01*
X272967Y302756D01*
X271000D01*
Y305380D01*
X269688D02*
Y302756D01*
Y304068D01*
X269032Y304724D01*
X268376Y305380D01*
X267720D01*
X265752D02*
Y302756D01*
Y304068D01*
X265096Y304724D01*
X264440Y305380D01*
X263784D01*
X259848Y302756D02*
X261160D01*
X261816Y303412D01*
Y304724D01*
X261160Y305380D01*
X259848D01*
X259192Y304724D01*
Y304068D01*
X261816D01*
X257880Y302756D02*
Y305380D01*
X255912D01*
X255257Y304724D01*
Y302756D01*
X253289Y306036D02*
Y305380D01*
X253945D01*
X252633D01*
X253289D01*
Y303412D01*
X252633Y302756D01*
X246729Y306692D02*
X244105D01*
X245417D01*
Y302756D01*
X242793Y305380D02*
Y302756D01*
Y304068D01*
X242137Y304724D01*
X241481Y305380D01*
X240826D01*
X238202D02*
X236890D01*
X236234Y304724D01*
Y302756D01*
X238202D01*
X238858Y303412D01*
X238202Y304068D01*
X236234D01*
X234922Y302756D02*
Y305380D01*
X232954D01*
X232298Y304724D01*
Y302756D01*
X230986D02*
X229018D01*
X228362Y303412D01*
X229018Y304068D01*
X230330D01*
X230986Y304724D01*
X230330Y305380D01*
X228362D01*
X224427Y306692D02*
Y302756D01*
X226394D01*
X227050Y303412D01*
Y304724D01*
X226394Y305380D01*
X224427D01*
X223115D02*
Y303412D01*
X222459Y302756D01*
X220491D01*
Y305380D01*
X216555D02*
X218523D01*
X219179Y304724D01*
Y303412D01*
X218523Y302756D01*
X216555D01*
X213275D02*
X214587D01*
X215243Y303412D01*
Y304724D01*
X214587Y305380D01*
X213275D01*
X212619Y304724D01*
Y304068D01*
X215243D01*
X211307Y305380D02*
Y302756D01*
Y304068D01*
X210651Y304724D01*
X209996Y305380D01*
X209340D01*
M02*
