M48
;Layer_Color=9474304
;FILE_FORMAT=2:5
INCH,LZ
;TYPE=PLATED
T1F00S00C0.00984
T2F00S00C0.02800
T3F00S00C0.04370
T4F00S00C0.04528
T5F00S00C0.04724
T6F00S00C0.07283
T7F00S00C0.08661
T8F00S00C0.09449
T9F00S00C0.10236
T10F00S00C0.12205
T11F00S00C0.13386
T12F00S00C0.15945
T13F00S00C0.16535
T14F00S00C0.19685
%
T01
X003937Y0070866
X0094488Y0055118
Y003937
X0102362
X0110236Y0023622
X011811
X0125984
X0133858
X0141732
X0149606
X0153543Y0015748
X0145669
X0137795
X0141732Y0007874
X0149606
X0133858
X0125984
X011811
X0110236
X0133858Y003937
X0141732
X0149606
X0153543Y0047244
X0145669
X0141732Y0055118
X0145669Y0062992
X0141732Y0070866
X0145669Y0141732
X0153543
X0149606Y0149606
X0141732
X0133858
X0125984
X011811
X0110236
X0102362
X0094488
X0086614
X007874
Y0133858
X0086614
X0106299Y0141732
X0114173
X0122047
X0129921
X0161417
X0169291
X0177165
X0181103Y0149606
X0173228
X0165354
X015748
X0181103Y0133858
X0177165Y0125984
X0181103Y011811
X0177165Y0110236
X0181103Y0102362
X0177165Y0094488
X0208662Y007874
X0244095Y0086614
X0240158Y0094488
Y0110236
Y0125984
Y0141732
X0255906
X026378
X0271654
X0279528
X0283465Y0149606
X0291339
X0307087
X0311024Y0141732
X030315
X0307087Y0133858
X0291339
X0295276Y0125984
X0291339Y011811
X0275591
X0279528Y0125984
X0275591Y0133858
X0267717
X0259843
Y0149606
X0267717
X0275591
X0251969
Y011811
X022441Y0125984
X0216536
X0220473Y0133858
X0228347
X022441Y0141732
X0216536
X0220473Y0149606
X0212598
Y0133858
X0259843Y0070866
X0255906Y0062992
X0279528
X0275591Y0070866
X0291339
X0295276Y0077014
X0287402
X0299213Y0086614
X0307087
X0311024Y0062992
X0272835Y0039764
X0279528Y0031496
X0287402Y0015748
X0255906Y0031496
X0251969Y003937
X0244095
X0196851Y0023622
X0192913Y0015748
X0185039
X0177165
X0169291
X0161417
X0165354Y0007874
X0173228
X0181103
X015748
X0326772Y0062992
X0322835Y0070866
X034252Y0062992
X0350394
X0362205Y0070866
X0370079
X0374016Y007874
X0354331Y0086614
X0346457
X034252Y0094488
X0346457Y0102362
X0354331
Y011811
X0358268Y0125984
X0346457Y0133858
X0338583
X0330709
X0334646Y0125984
X0326772
X0330709Y011811
X0322835
Y0102362
X0330709
X0326772Y0094488
X0318898
X0314961Y0102362
X034252Y0141732
X0350394
X0397638Y0125984
X0405512
X0413386
X042126
X0429134
X0433071Y011811
X0425197
X0417323
X0409449
X0401575
X0417323Y0133858
X0440945
X0448819
X0444882Y0125984
X0452756
X0536614Y0116535
Y0108661
X0543307Y0070866
X0547244Y0062992
X053937
X0543307Y0055118
X0547244Y0047244
X053937
X0531496
X0535433Y003937
X0543307
X0547244Y0031496
X053937
X0523622
X0515748
X0519685Y003937
X0527559
X0511811
Y0023622
X0515748Y0015748
X0519685Y0007874
X0511811
X0543307
X0547244Y0015748
Y0188977
X053937
X0531496
X0523622
X0515748
X0507874
X0511811Y0196851
X0519685
X0527559
X0535433
X0543307
X0547244Y0204725
X053937
X0523622
X0515748
X0507874
X05
X0492126
X0496063Y0212598
X0503937
X0511811
X0515748Y0220473
X0507874
X05
X0492126
X0484252
X0488189Y0228347
X0496063
X0503937
X0511811
X0519685
X0543307
X0547244Y0220473
X0503937Y0196851
X0496063
X0472441
X0476378Y0204725
X0480315Y0212598
X0472441
Y0228347
X0480315
X0464567
X0448819
X0440945
X0433071
X0425197
X0417323
X0409449
X0401575
X0393701
X0385827
X0377953
X0370079
X0362205
X0354331
X0346457
X0338583
X0330709
X0322835
X0314961
X0318898Y0220473
X0326772
X0334646
X034252
X0350394
X0358268
X0366142
X0374016
X038189
X0389764
X0397638
X0405512
X0413386
X042126
X0429134
X0437008
X0440945Y0212598
X0433071
X0425197
X0417323
X0409449
X0401575
X0393701
X0385827
X0377953
X0370079
X0362205
X0354331
X0346457
X0338583
X0330709
X0322835
X0314961
X0326772Y0204725
X0334646
X034252
X0346457Y0196851
X0338583
X0330709
X0334646Y0188977
X034252
X0350394
X0338583Y0181103
X0330709
X0322835
X0314961
X0318898Y0188977
X0326772
Y0173228
X0334646
X0322835Y0165354
X0318898Y015748
X0358268
X0366142Y0204725
X0374016
X038189
X0389764
X0397638
X0405512
X0413386
X042126
X0429134
X0437008
X0444882
X0448819Y0196851
X0440945
X0433071
X0437008Y0188977
X0444882
X0429134
X0417323Y0196851
X0409449
X0397638Y0188977
X0464567Y0196851
X0468504Y0204725
X046063
X0311024
X030315
X0307087Y0212598
X0299213
X0291339
X0295276Y0220473
X030315
X0311024
X0307087Y0228347
X0299213
X0291339
X0283465
X0287402Y0220473
X026378
X0255906
X0248032
X0240158
X0232284
X022441
X0216536
X0220473Y0228347
X0228347
X0236221
X0244095
X0251969
X0259843
X0267717
X0259843Y0212598
X0251969
X0244095
X0236221
X0228347
X0220473
X0212598
X0216536Y0204725
X022441
X0232284
X0228347Y0196851
X0220473
X0212598
X0216536Y0188977
X022441
X0232284
X0240158
X0244095Y0181103
X0251969
X0259843
X0267717
X0271654Y0173228
X026378
X0255906
X0248032
Y015748
X0255906
X026378
X0291339Y0165354
X0287402Y0173228
X030315
X0311024
X0307087Y0181103
X0311024Y0188977
X030315
X0307087Y0196851
Y0165354
X0311024Y015748
X0271654Y0204725
X026378
X0255906
X0248032
X0251969Y0196851
X0259843
X0255906Y0188977
X0228347Y0181103
X0220473
X0212598
X0216536Y0173228
X022441
Y015748
X0216536
X0177165
X0169291
X0165354Y0165354
X015748
X0161417Y0173228
X0169291
X0177165
X0181103Y0181103
X0173228
X0165354
X0169291Y0188977
X0161417
X0165354Y0196851
X015748
X0212598Y0228347
X0149606Y0196851
X0141732
X0133858
X0125984
X011811
X0110236
X0102362
X0106299Y0188977
X0114173
X0122047
X0129921
X0137795
X0145669
X0153543
Y0173228
X0149606Y0165354
X0141732
X0133858
X0125984
X011811
X0110236
X0102362
X0106299Y0173228
X0114173
X0122047
X0129921
X0133858Y0181103
X0141732
X0145669Y015748
X0153543
X0129921
X0122047
X0114173
X0106299
X0098425
Y0173228
X0090551
X0082677
X0074803
X0066929
X0059055
X0062992Y0181103
X0070866
X007874
X0086614
X0094488
X0102362
X0110236
X0090551Y0188977
X0082677
X0074803
X007874Y0196851
X0086614
X0070866
X0055118
X0051181Y0188977
X0055118Y0181103
X0082677Y015748
T02
X0024409Y0108268
X0017323Y0117717
X0013386Y0138189
X0057874Y0106299
X0119685Y0116929
X0116535Y0046457
X0163386Y0038976
X019685Y0081496
X0261811Y0096457
X0257874Y0101575
X0261811Y0106693
Y0121653
X0277559Y0113779
X0276449Y0080655
X0366929Y009187
X0366535Y0114567
X0382677Y011063
X0466929Y0124409
X0474409Y0119685
X052874Y0072047
X0529528Y0059842
X0466929Y0176772
X0418504Y0162992
X0387402Y0160236
X0296417Y0157283
X0287402Y0162992
X0214961
T03
X0500787Y0084016
Y0094016
Y0104016
Y0114016
Y0124016
Y0134016
Y0144016
Y0154016
X0422913Y018252
X0412913
X0402913
X0392913
X0382913
Y019252
X0392913
X0402913
X0412913
X0422913
X0159055Y0180709
X0149055
X012811
X011811
X0051968Y0172047
Y0162047
T04
X0022677Y0138189
X0032677
X0147244Y0105512
Y0095512
X0149606Y0067323
Y0057323
X0335039Y0087638
Y0097638
Y0107638
T05
X0086614Y0053937
X0102362
Y0073622
X0086614
T06
X0240158Y0151181
X0318425Y015
X0353858
Y0171653
X0318425
X0240158Y0172835
T07
X0333071Y0047244
X0348819
T08
X0065551Y0048031
Y0088189
Y0148031
X048563
Y011811
Y0088189
X0065551Y0188189
T09
X0090551Y0105512
Y0125591
Y0141732
Y0161811
T10
X0318425Y0200394
X0353858
X0240158Y0201575
T11
X0095669Y001811
X027559
X0455512
Y021811
X027559
X0095669
T12
X0308268Y0018504
X0341142
X0391142
X0424016
T13
X0019685Y0019685
X0531496
Y0216535
X0019685
T14
X048563Y0048031
Y0188189
M30
