M48
;Layer_Color=9474304
;FILE_FORMAT=2:5
INCH,LZ
;TYPE=PLATED
T1F00S00C0.01772
T2F00S00C0.04370
T3F00S00C0.16535
%
T01
X004Y002
X003Y004
X0012062Y005148
X006Y002
X00736Y0026146
X0085Y0010214
X01Y002
X011Y004
X013
X0123789Y0052
X013Y008
X009
X009426Y0075095
X007Y008
X008Y01
X01
X006
X0082Y0056693
X005Y008
X003
X004Y01
T02
X002Y005148
X0116142Y0052
Y0062
X002Y006148
T03
X0016Y0016
X0121795
Y010211
X0016
M30
