M48
;Layer_Color=9474304
;FILE_FORMAT=2:5
INCH,LZ
;TYPE=PLATED
T1F00S00C0.01772
T2F00S00C0.04370
T3F00S00C0.16535
%
T01
X004Y002
X0038Y00375
X003Y004
X0038Y0048037
X0023251Y0050102
X006Y002
X0085135Y0010239
X01Y002
X011Y004
X0113898Y0050102
X013Y004
Y008
X009
X009426Y0074803
X007Y008
X008Y01
X01
X006
X0081898Y0056484
X005Y008
X003
X004Y01
T02
X00175Y0054424
X0120079Y0054339
Y0064339
X00175Y0064424
T03
X0016Y0016
X0121795
Y010211
X0016
M30
