M48
;Layer_Color=9474304
;FILE_FORMAT=2:5
INCH,LZ
;TYPE=PLATED
T1F00S00C0.01772
T2F00S00C0.04370
T3F00S00C0.16535
%
T01
X004Y002
X003Y004
X011
X013
X015
X017
X019
X021
X02Y002
X018
X016
X014
X012
X01
X022
X023Y004
X025
X024Y006
X022
Y01
X024
X025Y008
X021
X019
X017
X015
X013
X011
X012Y01
X014
X016
X018
X02
X021Y012
X019
X017
X015
X013
X011
X009
X007
X008Y01
X01
X006
X007Y008
X012Y006
X014
X016
X018
X02
X005Y008
X003
X004Y01
X002
X005Y012
T02
X0229Y007
Y008
X002Y0076
Y0066
T03
X0016Y0016
X024
Y0122
X0016
M30
