M48
;Layer_Color=9474304
;FILE_FORMAT=2:5
INCH,LZ
;TYPE=PLATED
T1F00S00C0.01772
T2F00S00C0.04370
T3F00S00C0.16535
%
T01
X004Y002
X003Y004
X0032Y0052
X002
X0059Y0026
X0071
X01Y002
X012
X014
X016
X018
X02
X021Y004
X019
X017
X015
X013
X011
X009205Y00522
X023Y004
X025
X022Y002
Y006
X024
X025Y008
X024Y01
X022
X02
X018
X016
X014
X012
X01
X008
X006
X007Y012
X009
X011
X013
X015
X017
X019
X021
Y008
X019
X017
X015
X013
X011
X01164Y007
X012Y006
X014
X016
X018
X02
X007Y008
X005
X003
X004Y01
X002
X005Y012
T02
X0229Y007
Y008
X002Y0076
Y0066
T03
X0016Y0016
X024
Y0122
X0016
M30
