M48
;Layer_Color=9474304
;FILE_FORMAT=2:5
INCH,LZ
;TYPE=PLATED
T1F00S00C0.01772
T2F00S00C0.04370
T3F00S00C0.16535
%
T01
X004212Y0005089
X006212
X008212
X009212Y0025089
X007212
X0066Y00365
X008212Y0045089
X0094Y0056
X0073622Y0074016
X0074Y01045
X009212Y0105089
X008212Y0125089
X004212
X001212Y0105089
X002212Y0085089
X001212Y0065089
X0027Y00365
X004
X003212Y0025089
X005212
X01501Y00565
X021085Y003935
X022185
T02
X0021654Y0062992
Y0072992
X0162913Y0021654
X0172913
X0182913
X0192913
X0202913
X0212913
X0228346Y0048819
Y0058819
T03
X0015748Y0015748
Y0122047
X0240158
Y0015748
M30
