M48
;Layer_Color=9474304
;FILE_FORMAT=2:5
INCH,LZ
;TYPE=PLATED
T1F00S00C0.01772
T2F00S00C0.04370
T3F00S00C0.16535
%
T01
X004252Y0005039
X006252
X008252
X009252Y0025039
X007252
X0066Y00365
X005252Y0025039
X003252
X0027Y00365
X004
X008252Y0045039
X0094Y0056
X0073622Y0074016
X0074Y01045
X009252Y0105039
X008252Y0125039
X004252
X001252Y0105039
X002252Y0085039
X001252Y0065039
X01505Y0043
X016252Y0005039
X018252
X020252
X022252
Y0045039
X02195Y00585
X02085
X020252Y0045039
Y0085039
X022252
X023252Y0105039
X022252Y0125039
X020252
X018252
X016252
X017252Y0105039
T02
X0021654Y0062992
Y0072992
X0162913Y0021654
X0172913
X0182913
X0192913
X0202913
X0212913
X0228346Y0048819
Y0058819
T03
X0015748Y0015748
Y0122047
X0240158
Y0015748
M30
