G04*
G04 #@! TF.GenerationSoftware,Altium Limited,Altium Designer,18.1.11 (251)*
G04*
G04 Layer_Color=8421504*
%FSLAX25Y25*%
%MOIN*%
G70*
G01*
G75*
%ADD13C,0.00197*%
%ADD15C,0.00650*%
%ADD16C,0.03000*%
%ADD17C,0.00394*%
%ADD18R,0.04134X0.02362*%
%ADD19R,0.03937X0.05315*%
%ADD20R,0.03543X0.03347*%
%ADD21R,0.03150X0.03150*%
%ADD22R,0.10197X0.12756*%
%ADD23R,0.11811X0.03937*%
%ADD24R,0.25197X0.21850*%
%ADD25R,0.06496X0.21260*%
%ADD26R,0.05118X0.05709*%
%ADD27O,0.06496X0.02362*%
%ADD28R,0.03150X0.03150*%
%ADD29R,0.03937X0.11811*%
%ADD30R,0.21850X0.25197*%
%ADD31R,0.03347X0.03543*%
D13*
X75590Y77756D02*
X92126D01*
X75590Y63189D02*
X92126D01*
X75590D02*
Y77756D01*
X92126Y63189D02*
Y77756D01*
X91780Y78150D02*
Y85630D01*
X78787Y78150D02*
Y85630D01*
Y78150D02*
X91780D01*
X78787Y85630D02*
X91780D01*
X74756Y111343D02*
Y122760D01*
X69244Y111343D02*
Y122760D01*
X74756D01*
X69244Y111343D02*
X74756D01*
X57142Y118441D02*
X68362D01*
X68559D02*
Y123559D01*
X57142D02*
X68362D01*
X57142Y118441D02*
Y123559D01*
X27468Y42020D02*
Y56980D01*
X71563Y42020D02*
Y56980D01*
X27468D02*
X71563D01*
X27468Y42020D02*
X71563D01*
X25984Y109941D02*
X71653D01*
X25984Y81398D02*
X71653D01*
X25984D02*
Y109941D01*
X71653Y81398D02*
Y109941D01*
X42630Y80614D02*
X71370D01*
X42630Y57386D02*
X71370D01*
X42630D02*
Y80614D01*
X71370Y57386D02*
Y80614D01*
X55118Y110236D02*
X68504D01*
X55118Y118110D02*
X68504D01*
Y110236D02*
Y118110D01*
X55118Y110236D02*
Y118110D01*
X107874Y52165D02*
X140945D01*
X107874Y70669D02*
X140945D01*
Y52165D02*
Y70669D01*
X107874Y52165D02*
Y70669D01*
X160433Y51378D02*
X165551D01*
X160433D02*
Y62598D01*
Y62795D02*
X165551D01*
Y51378D02*
Y62598D01*
X217028Y76378D02*
Y122047D01*
X188484Y76378D02*
Y122047D01*
X217028D01*
X188484Y76378D02*
X217028D01*
X170374Y30512D02*
Y76181D01*
X198917Y30512D02*
Y76181D01*
X170374Y30512D02*
X198917D01*
X170374Y76181D02*
X198917D01*
X200000Y55807D02*
Y67224D01*
X205512Y55807D02*
Y67224D01*
X200000Y55807D02*
X205512D01*
X200000Y67224D02*
X205512D01*
X78787Y86024D02*
Y93504D01*
X91780Y86024D02*
Y93504D01*
X78787D02*
X91780D01*
X78787Y86024D02*
X91780D01*
X153937Y57284D02*
Y68701D01*
X148425Y57284D02*
Y68701D01*
X153937D01*
X148425Y57284D02*
X153937D01*
X160039Y51181D02*
Y56693D01*
X148622Y51181D02*
Y56693D01*
Y51181D02*
X160039D01*
X148622Y56693D02*
X160039D01*
X154331Y68799D02*
X159843D01*
X154331Y57382D02*
X159843D01*
Y68799D01*
X154331Y57382D02*
Y68799D01*
D15*
X225385Y30878D02*
Y27379D01*
Y30878D02*
X226718Y27379D01*
X228051Y30878D02*
X226718Y27379D01*
X228051Y30878D02*
Y27379D01*
X229051Y30878D02*
Y27379D01*
X231383Y30878D02*
Y27379D01*
X229051Y29212D02*
X231383D01*
X234016Y30878D02*
X232350Y28545D01*
X234849D01*
X234016Y30878D02*
Y27379D01*
X224380Y135393D02*
Y131894D01*
Y135393D02*
X225713Y131894D01*
X227046Y135393D02*
X225713Y131894D01*
X227046Y135393D02*
Y131894D01*
X228046Y135393D02*
Y131894D01*
X230379Y135393D02*
Y131894D01*
X228046Y133727D02*
X230379D01*
X231678Y135393D02*
X233511D01*
X232511Y134060D01*
X233011D01*
X233345Y133893D01*
X233511Y133727D01*
X233678Y133227D01*
Y132893D01*
X233511Y132393D01*
X233178Y132060D01*
X232678Y131894D01*
X232178D01*
X231678Y132060D01*
X231512Y132227D01*
X231345Y132560D01*
X4891Y32873D02*
Y29374D01*
Y32873D02*
X6224Y29374D01*
X7557Y32873D02*
X6224Y29374D01*
X7557Y32873D02*
Y29374D01*
X8557Y32873D02*
Y29374D01*
X10890Y32873D02*
Y29374D01*
X8557Y31207D02*
X10890D01*
X12023Y32040D02*
Y32207D01*
X12190Y32540D01*
X12356Y32707D01*
X12689Y32873D01*
X13356D01*
X13689Y32707D01*
X13856Y32540D01*
X14023Y32207D01*
Y31874D01*
X13856Y31540D01*
X13523Y31040D01*
X11856Y29374D01*
X14189D01*
X29097Y133873D02*
Y130374D01*
Y133873D02*
X30430Y130374D01*
X31763Y133873D02*
X30430Y130374D01*
X31763Y133873D02*
Y130374D01*
X32763Y133873D02*
Y130374D01*
X35096Y133873D02*
Y130374D01*
X32763Y132207D02*
X35096D01*
X36062Y133207D02*
X36395Y133373D01*
X36895Y133873D01*
Y130374D01*
D16*
X0Y137795D02*
X255906D01*
X0Y0D02*
Y137795D01*
X255906Y0D02*
Y137795D01*
X0Y0D02*
X255906D01*
D17*
X120866Y66142D02*
G03*
X120866Y66142I-1969J0D01*
G01*
X80610Y76673D02*
X87106D01*
X80610Y64272D02*
X87106D01*
X80610D02*
Y76673D01*
X87106Y64272D02*
Y76673D01*
X89417Y79232D02*
Y84547D01*
X81150Y79232D02*
Y84547D01*
Y79232D02*
X89417D01*
X81150Y84547D02*
X89417D01*
X73772Y113705D02*
Y120398D01*
X70228Y113705D02*
Y120398D01*
X73772D01*
X70228Y113705D02*
X73772D01*
X29831Y43201D02*
Y55799D01*
X69201Y43201D02*
Y55799D01*
X29831D02*
X69201D01*
X29831Y43201D02*
X69201D01*
X34252Y108957D02*
X58661D01*
X34252Y82382D02*
X58661D01*
X34252D02*
Y108957D01*
X58661Y82382D02*
Y108957D01*
X44992Y79630D02*
X69008D01*
X44992Y58370D02*
X69008D01*
X44992D02*
Y79630D01*
X69008Y58370D02*
Y79630D01*
X57480Y111319D02*
X66142D01*
X57480Y117028D02*
X66142D01*
Y111319D02*
Y117028D01*
X57480Y111319D02*
Y117028D01*
X115354Y53150D02*
X133465D01*
X115354Y69685D02*
X133465D01*
Y53150D02*
Y69685D01*
X115354Y53150D02*
Y69685D01*
X216043Y89370D02*
Y113779D01*
X189469Y89370D02*
Y113779D01*
X216043D01*
X189469Y89370D02*
X216043D01*
X171358Y38780D02*
Y63189D01*
X197933Y38780D02*
Y63189D01*
X171358Y38780D02*
X197933D01*
X171358Y63189D02*
X197933D01*
X200984Y58169D02*
Y64862D01*
X204527Y58169D02*
Y64862D01*
X200984Y58169D02*
X204527D01*
X200984Y64862D02*
X204527D01*
X81150Y87106D02*
Y92421D01*
X89417Y87106D02*
Y92421D01*
X81150D02*
X89417D01*
X81150Y87106D02*
X89417D01*
X152953Y59646D02*
Y66339D01*
X149409Y59646D02*
Y66339D01*
X152953D01*
X149409Y59646D02*
X152953D01*
X157677Y52165D02*
Y55709D01*
X150984Y52165D02*
Y55709D01*
Y52165D02*
X157677D01*
X150984Y55709D02*
X157677D01*
X155315Y66437D02*
X158858D01*
X155315Y59744D02*
X158858D01*
Y66437D01*
X155315Y59744D02*
Y66437D01*
X83858Y68504D02*
Y72441D01*
X81890Y70472D02*
X85827D01*
X83315Y81890D02*
X87252D01*
X85283Y79921D02*
Y83858D01*
X70228Y117051D02*
X73772D01*
X72000Y115279D02*
Y118823D01*
X47547Y49500D02*
X51484D01*
X49516Y47532D02*
Y51468D01*
X48819Y93701D02*
Y97638D01*
X46850Y95669D02*
X50787D01*
X57000Y67032D02*
Y70969D01*
X55032Y69000D02*
X58969D01*
X61811Y112205D02*
Y116142D01*
X59842Y114173D02*
X63779D01*
X124409Y59449D02*
Y63386D01*
X122441Y61417D02*
X126378D01*
X200787Y99213D02*
X204724D01*
X202756Y97244D02*
Y101181D01*
X182677Y53347D02*
X186614D01*
X184646Y51378D02*
Y55315D01*
X200984Y61516D02*
X204527D01*
X202756Y59744D02*
Y63287D01*
X83315Y89764D02*
X87252D01*
X85283Y87795D02*
Y91732D01*
X149409Y62992D02*
X152953D01*
X151181Y61221D02*
Y64764D01*
X152559Y53937D02*
X156102D01*
X154331Y52165D02*
Y55709D01*
X157087Y61319D02*
Y64862D01*
X155315Y63090D02*
X158858D01*
D18*
X78543Y66732D02*
D03*
Y74213D02*
D03*
X89173D02*
D03*
Y70472D02*
D03*
Y66732D02*
D03*
D19*
X88827Y81890D02*
D03*
X81740D02*
D03*
X81740Y89764D02*
D03*
X88827D02*
D03*
D20*
X72000Y120102D02*
D03*
Y114000D02*
D03*
X202756Y58465D02*
D03*
Y64567D02*
D03*
X151181Y66043D02*
D03*
Y59941D02*
D03*
X157087Y66142D02*
D03*
Y60039D02*
D03*
D21*
X59701Y121000D02*
D03*
X66000D02*
D03*
D22*
X33531Y49500D02*
D03*
X65500D02*
D03*
D23*
X64961Y104685D02*
D03*
Y86654D02*
D03*
D24*
X39567Y95669D02*
D03*
D25*
X46862Y69000D02*
D03*
X67138D02*
D03*
D26*
X64961Y114173D02*
D03*
X58661D02*
D03*
D27*
X136713Y66417D02*
D03*
X112106Y56417D02*
D03*
Y66417D02*
D03*
X136713Y56417D02*
D03*
D28*
X162992Y60236D02*
D03*
Y53937D02*
D03*
D29*
X193740Y83071D02*
D03*
X211772D02*
D03*
X193661Y69488D02*
D03*
X175630D02*
D03*
D30*
X202756Y108465D02*
D03*
X184646Y44094D02*
D03*
D31*
X151279Y53937D02*
D03*
X157382D02*
D03*
M02*
