G04*
G04 #@! TF.GenerationSoftware,Altium Limited,Altium Designer,18.1.11 (251)*
G04*
G04 Layer_Physical_Order=1*
G04 Layer_Color=255*
%FSLAX25Y25*%
%MOIN*%
G70*
G01*
G75*
%ADD13C,0.00197*%
%ADD15C,0.00650*%
%ADD16C,0.03000*%
%ADD17C,0.00394*%
%ADD18R,0.04134X0.02362*%
%ADD19R,0.03937X0.05315*%
%ADD20R,0.03543X0.03347*%
%ADD21R,0.03150X0.03150*%
%ADD22R,0.10197X0.12756*%
%ADD23R,0.11811X0.03937*%
%ADD24R,0.25197X0.21850*%
%ADD25R,0.06496X0.21260*%
%ADD26R,0.05118X0.05709*%
%ADD27O,0.06496X0.02362*%
%ADD28R,0.03150X0.03150*%
%ADD29R,0.03937X0.11811*%
%ADD30R,0.21850X0.25197*%
%ADD31R,0.03347X0.03543*%
%ADD48C,0.03200*%
%ADD49C,0.01600*%
%ADD50C,0.24410*%
%ADD51C,0.06693*%
%ADD52C,0.02953*%
G36*
X97097Y67889D02*
X92475D01*
X92240Y68291D01*
Y70073D01*
X89173D01*
X86106D01*
Y68291D01*
X86606D01*
Y65051D01*
X91740D01*
Y65238D01*
X97097D01*
Y57743D01*
X94624D01*
X94116Y57642D01*
X93686Y57355D01*
X93572Y57240D01*
X93493Y57225D01*
X93063Y56937D01*
X92775Y56507D01*
X92674Y56000D01*
X92775Y55493D01*
X93063Y55063D01*
X93493Y54775D01*
X94000Y54675D01*
X94206D01*
X94713Y54775D01*
X95144Y55063D01*
X95173Y55092D01*
X97097D01*
Y2039D01*
X2039D01*
Y135756D01*
X97097D01*
Y67889D01*
D02*
G37*
G36*
X253866Y2039D02*
X148179D01*
Y41756D01*
X150092D01*
X150500Y41675D01*
X151007Y41775D01*
X151437Y42063D01*
X151725Y42493D01*
X151825Y43000D01*
X151725Y43507D01*
X151437Y43937D01*
X151356Y44018D01*
X150926Y44306D01*
X150419Y44407D01*
X148179D01*
Y65092D01*
X148909D01*
Y63870D01*
X153453D01*
Y64816D01*
X154815D01*
Y63968D01*
X159358D01*
Y68315D01*
X158412D01*
Y76223D01*
X163935Y81745D01*
X191272D01*
Y76665D01*
X192375D01*
Y75894D01*
X191193D01*
Y63083D01*
X196130D01*
Y68163D01*
X200829D01*
X201430Y67561D01*
Y66740D01*
X200484D01*
Y62394D01*
X205028D01*
Y66740D01*
X204081D01*
Y68110D01*
X203980Y68617D01*
X203693Y69047D01*
X202315Y70425D01*
X201885Y70713D01*
X201378Y70814D01*
X196130D01*
Y75894D01*
X195026D01*
Y76665D01*
X196209D01*
Y89476D01*
X191272D01*
Y84396D01*
X163386D01*
X162879Y84295D01*
X162449Y84008D01*
X156149Y77709D01*
X155862Y77279D01*
X155761Y76772D01*
Y68315D01*
X154815D01*
Y67467D01*
X153453D01*
Y68217D01*
X148909D01*
Y67743D01*
X148179D01*
Y135756D01*
X253866D01*
Y2039D01*
D02*
G37*
%LPC*%
G36*
X62276Y123575D02*
X60101D01*
Y121400D01*
X62276D01*
Y123575D01*
D02*
G37*
G36*
X59301D02*
X57126D01*
Y121400D01*
X59301D01*
Y123575D01*
D02*
G37*
G36*
X68075Y123075D02*
X63925D01*
Y118925D01*
X68075D01*
Y119675D01*
X69728D01*
Y117929D01*
X74272D01*
Y122276D01*
X71255D01*
X71127Y122301D01*
X70098D01*
X69975Y122326D01*
X68075D01*
Y123075D01*
D02*
G37*
G36*
X62276Y120600D02*
X57126D01*
Y118528D01*
X57126Y118425D01*
X56879Y118028D01*
X55102D01*
Y114573D01*
X58661D01*
Y114173D01*
X59061D01*
Y110319D01*
X62221D01*
Y110819D01*
X63635D01*
Y107153D01*
X58555D01*
Y102216D01*
X71366D01*
Y103267D01*
X72447D01*
X72575Y103075D01*
X73229Y102638D01*
X74000Y102485D01*
X74771Y102638D01*
X75425Y103075D01*
X75862Y103729D01*
X76015Y104500D01*
X75862Y105271D01*
X75425Y105925D01*
X74771Y106362D01*
X74000Y106515D01*
X73229Y106362D01*
X72575Y105925D01*
X72571Y105918D01*
X71366D01*
Y107153D01*
X66286D01*
Y110819D01*
X68020D01*
Y112674D01*
X69728D01*
Y111827D01*
X74272D01*
Y116173D01*
X69728D01*
Y115325D01*
X68020D01*
Y117528D01*
X62574D01*
X62334Y117768D01*
X62230Y118028D01*
X62276Y118425D01*
X62276Y118505D01*
Y120600D01*
D02*
G37*
G36*
X58261Y113773D02*
X55102D01*
Y110319D01*
X58261D01*
Y113773D01*
D02*
G37*
G36*
X15748Y134791D02*
X13754Y134634D01*
X11810Y134168D01*
X9962Y133402D01*
X8257Y132357D01*
X6737Y131059D01*
X5438Y129538D01*
X4393Y127833D01*
X3628Y125985D01*
X3161Y124041D01*
X3004Y122047D01*
X3161Y120054D01*
X3628Y118109D01*
X4393Y116262D01*
X5438Y114557D01*
X6737Y113036D01*
X8257Y111737D01*
X9962Y110692D01*
X11810Y109927D01*
X13754Y109460D01*
X15748Y109303D01*
X17742Y109460D01*
X19686Y109927D01*
X21534Y110692D01*
X23239Y111737D01*
X24759Y113036D01*
X26058Y114557D01*
X27103Y116262D01*
X27868Y118109D01*
X28335Y120054D01*
X28492Y122047D01*
X28335Y124041D01*
X27868Y125985D01*
X27103Y127833D01*
X26058Y129538D01*
X24759Y131059D01*
X23239Y132357D01*
X21534Y133402D01*
X19686Y134168D01*
X17742Y134634D01*
X15748Y134791D01*
D02*
G37*
G36*
X53165Y107595D02*
X39967D01*
Y96069D01*
X53165D01*
Y107595D01*
D02*
G37*
G36*
X39167D02*
X25969D01*
Y96069D01*
X39167D01*
Y107595D01*
D02*
G37*
G36*
X84709Y93421D02*
X82140D01*
Y90164D01*
X84709D01*
Y93421D01*
D02*
G37*
G36*
X81340D02*
X78772D01*
Y90164D01*
X81340D01*
Y93421D01*
D02*
G37*
G36*
X84709Y89364D02*
X82140D01*
Y86106D01*
X84709D01*
Y89364D01*
D02*
G37*
G36*
X81340D02*
X78772D01*
Y86106D01*
X81340D01*
Y89364D01*
D02*
G37*
G36*
X53165Y95269D02*
X39967D01*
Y83744D01*
X53165D01*
Y95269D01*
D02*
G37*
G36*
X39167D02*
X25969D01*
Y83744D01*
X39167D01*
Y95269D01*
D02*
G37*
G36*
X71366Y89122D02*
X58555D01*
Y84185D01*
X64997D01*
Y80130D01*
X63390D01*
Y57870D01*
X64997D01*
Y56378D01*
X59902D01*
Y42622D01*
X63359D01*
Y37206D01*
X63522Y36387D01*
X63986Y35692D01*
X64071Y35608D01*
X64486Y34986D01*
X65181Y34522D01*
X66000Y34359D01*
X66819Y34522D01*
X67514Y34986D01*
X67978Y35681D01*
X68141Y36500D01*
Y36706D01*
X67978Y37526D01*
X67641Y38030D01*
Y42622D01*
X71098D01*
Y56378D01*
X69279D01*
Y57870D01*
X70886D01*
Y80130D01*
X69279D01*
Y84185D01*
X71366D01*
Y84512D01*
X73085D01*
X76217Y81381D01*
X76911Y80917D01*
X77731Y80753D01*
X79272D01*
Y78732D01*
X84209D01*
Y85047D01*
X79272D01*
Y85036D01*
X78618D01*
X75486Y88168D01*
X74791Y88632D01*
X73972Y88795D01*
X71366D01*
Y89122D01*
D02*
G37*
G36*
X22053Y77323D02*
Y73392D01*
X25985D01*
X25888Y74127D01*
X25450Y75184D01*
X24754Y76092D01*
X23845Y76789D01*
X22788Y77227D01*
X22053Y77323D01*
D02*
G37*
G36*
X21253D02*
X20519Y77227D01*
X19462Y76789D01*
X18554Y76092D01*
X17857Y75184D01*
X17419Y74127D01*
X17322Y73392D01*
X21253D01*
Y77323D01*
D02*
G37*
G36*
X91295Y92921D02*
X86358D01*
Y86606D01*
X87501D01*
Y85047D01*
X86358D01*
Y78732D01*
X87674D01*
Y75894D01*
X86606D01*
Y72654D01*
X86106D01*
Y70872D01*
X89173D01*
X92240D01*
Y72654D01*
X91740D01*
Y75894D01*
X90325D01*
Y78732D01*
X91295D01*
Y85047D01*
X90152D01*
Y86606D01*
X91295D01*
Y92921D01*
D02*
G37*
G36*
X51110Y80630D02*
X47262D01*
Y69400D01*
X51110D01*
Y80630D01*
D02*
G37*
G36*
X46462D02*
X42614D01*
Y69400D01*
X46462D01*
Y80630D01*
D02*
G37*
G36*
X25985Y72592D02*
X21654D01*
X17322D01*
X17419Y71858D01*
X17857Y70800D01*
X18554Y69892D01*
X19462Y69195D01*
X19834Y69041D01*
X19735Y68541D01*
X18000D01*
X18000Y68541D01*
X17617Y68383D01*
Y68383D01*
X15617Y66383D01*
X15459Y66000D01*
X15459Y66000D01*
Y60000D01*
X15617Y59617D01*
X18617Y56617D01*
X19000Y56459D01*
X19000Y56459D01*
X23959Y56459D01*
Y35000D01*
X23959Y35000D01*
X24117Y34617D01*
X24117Y34617D01*
X25624Y33111D01*
X25627Y33110D01*
X25629Y33106D01*
X25818Y33031D01*
X26006Y32952D01*
X26010Y32954D01*
X26013Y32952D01*
X39507Y33125D01*
X39626Y33177D01*
X39755Y33189D01*
X42255Y34523D01*
X42307Y34586D01*
X42383Y34617D01*
X42434Y34740D01*
X42518Y34842D01*
X42510Y34924D01*
X42541Y35000D01*
Y56900D01*
X42560Y57022D01*
X42650Y57129D01*
X42932Y57370D01*
X46462D01*
Y68600D01*
X42614D01*
Y57846D01*
X42114Y57620D01*
X29858Y68406D01*
X29677Y68468D01*
X29500Y68541D01*
X23572D01*
X23473Y69041D01*
X23845Y69195D01*
X24754Y69892D01*
X25450Y70800D01*
X25888Y71858D01*
X25985Y72592D01*
D02*
G37*
G36*
X73622Y76031D02*
X72851Y75877D01*
X72197Y75441D01*
X71760Y74787D01*
X71607Y74016D01*
X71760Y73245D01*
X72197Y72591D01*
X72851Y72154D01*
X73622Y72001D01*
X74393Y72154D01*
X75047Y72591D01*
X75179Y72789D01*
X75976D01*
Y72531D01*
X77218D01*
Y68413D01*
X75976D01*
Y65051D01*
X81110D01*
Y68413D01*
X79869D01*
Y72531D01*
X81110D01*
Y75894D01*
X75976D01*
Y75440D01*
X75048D01*
X75047Y75441D01*
X74393Y75877D01*
X73622Y76031D01*
D02*
G37*
G36*
X51110Y68600D02*
X47262D01*
Y57370D01*
X51110D01*
Y68600D01*
D02*
G37*
G36*
X15748Y28492D02*
X13754Y28335D01*
X11810Y27868D01*
X9962Y27103D01*
X8257Y26058D01*
X6737Y24759D01*
X5438Y23239D01*
X4393Y21534D01*
X3628Y19686D01*
X3161Y17742D01*
X3004Y15748D01*
X3161Y13754D01*
X3628Y11810D01*
X4393Y9962D01*
X5438Y8257D01*
X6737Y6737D01*
X8257Y5438D01*
X9962Y4393D01*
X11810Y3628D01*
X13754Y3161D01*
X15748Y3004D01*
X17742Y3161D01*
X19686Y3628D01*
X21534Y4393D01*
X23239Y5438D01*
X24759Y6737D01*
X26058Y8257D01*
X27103Y9962D01*
X27868Y11810D01*
X28335Y13754D01*
X28492Y15748D01*
X28335Y17742D01*
X27868Y19686D01*
X27103Y21534D01*
X26058Y23239D01*
X24759Y24759D01*
X23239Y26058D01*
X21534Y27103D01*
X19686Y27868D01*
X17742Y28335D01*
X15748Y28492D01*
D02*
G37*
%LPD*%
G36*
X42000Y57000D02*
Y35000D01*
X39500Y33667D01*
X26006Y33494D01*
X24500Y35000D01*
Y57000D01*
X19000Y57000D01*
X16000Y60000D01*
Y66000D01*
X18000Y68000D01*
X29500D01*
X42000Y57000D01*
D02*
G37*
%LPC*%
G36*
X22053Y67323D02*
Y63392D01*
X25985D01*
X25888Y64127D01*
X25450Y65184D01*
X24754Y66092D01*
X23845Y66789D01*
X22788Y67227D01*
X22053Y67323D01*
D02*
G37*
G36*
X21253D02*
X20519Y67227D01*
X19462Y66789D01*
X18554Y66092D01*
X17857Y65184D01*
X17419Y64127D01*
X17322Y63392D01*
X21253D01*
Y67323D01*
D02*
G37*
G36*
Y62592D02*
X17322D01*
X17419Y61857D01*
X17857Y60800D01*
X18554Y59892D01*
X19462Y59196D01*
X20519Y58758D01*
X21253Y58661D01*
Y62592D01*
D02*
G37*
G36*
X25985D02*
X22053D01*
Y58661D01*
X22788Y58758D01*
X23845Y59196D01*
X24754Y59892D01*
X25450Y60800D01*
X25888Y61857D01*
X25985Y62592D01*
D02*
G37*
G36*
X39630Y56878D02*
X33931D01*
Y49900D01*
X39630D01*
Y56878D01*
D02*
G37*
G36*
X33132D02*
X27433D01*
Y49900D01*
X33132D01*
Y56878D01*
D02*
G37*
G36*
X39630Y49100D02*
X33931D01*
Y42122D01*
X39630D01*
Y49100D01*
D02*
G37*
G36*
X33132D02*
X27433D01*
Y42122D01*
X33132D01*
Y49100D01*
D02*
G37*
G36*
X240158Y134791D02*
X238164Y134634D01*
X236219Y134168D01*
X234372Y133402D01*
X232667Y132357D01*
X231146Y131059D01*
X229847Y129538D01*
X228802Y127833D01*
X228037Y125985D01*
X227570Y124041D01*
X227414Y122047D01*
X227570Y120054D01*
X228037Y118109D01*
X228802Y116262D01*
X229847Y114557D01*
X231146Y113036D01*
X232667Y111737D01*
X234372Y110692D01*
X236219Y109927D01*
X238164Y109460D01*
X240158Y109303D01*
X242151Y109460D01*
X244096Y109927D01*
X245943Y110692D01*
X247648Y111737D01*
X249169Y113036D01*
X250468Y114557D01*
X251513Y116262D01*
X252278Y118109D01*
X252745Y120054D01*
X252902Y122047D01*
X252745Y124041D01*
X252278Y125985D01*
X251513Y127833D01*
X250468Y129538D01*
X249169Y131059D01*
X247648Y132357D01*
X245943Y133402D01*
X244096Y134168D01*
X242151Y134634D01*
X240158Y134791D01*
D02*
G37*
G36*
X214740Y89976D02*
X212172D01*
Y83471D01*
X214740D01*
Y89976D01*
D02*
G37*
G36*
X211372D02*
X208803D01*
Y83471D01*
X211372D01*
Y89976D01*
D02*
G37*
G36*
X214740Y82671D02*
X212172D01*
Y76165D01*
X214740D01*
Y82671D01*
D02*
G37*
G36*
X211372D02*
X208803D01*
Y76165D01*
X211372D01*
Y82671D01*
D02*
G37*
G36*
X230500Y64541D02*
X230500Y64541D01*
X221897Y64541D01*
X221852Y64523D01*
X221804Y64533D01*
X205884Y61782D01*
X205867Y61771D01*
X205847Y61774D01*
X205398Y61663D01*
X205280Y61576D01*
X205145Y61520D01*
X205119Y61458D01*
X205064Y61418D01*
X205042Y61273D01*
X204986Y61138D01*
X204986Y61138D01*
Y60638D01*
X200484D01*
X200061Y60824D01*
X199824Y60962D01*
X199752Y60972D01*
X199695Y61016D01*
X199554Y60998D01*
X199413Y61017D01*
X199355Y60973D01*
X199284Y60964D01*
X195914Y59041D01*
X172000D01*
X171617Y58883D01*
X171459Y58500D01*
X171459Y30000D01*
X171459Y30000D01*
X171617Y29617D01*
X171617Y29617D01*
X172582Y28653D01*
X172582Y28653D01*
X172965Y28494D01*
X172965Y28494D01*
X177203Y28494D01*
Y22371D01*
X176703Y22338D01*
X176661Y22658D01*
X176273Y23593D01*
X175657Y24397D01*
X174853Y25013D01*
X173917Y25401D01*
X172913Y25533D01*
X171909Y25401D01*
X170974Y25013D01*
X170170Y24397D01*
X169553Y23593D01*
X169166Y22658D01*
X169034Y21654D01*
X169166Y20649D01*
X169553Y19714D01*
X170170Y18910D01*
X170974Y18294D01*
X171509Y18072D01*
Y14722D01*
X169923Y13137D01*
X158029D01*
X156325Y14840D01*
Y45000D01*
X156225Y45507D01*
X155937Y45937D01*
X152605Y49270D01*
Y51665D01*
X153453D01*
Y56209D01*
X152556D01*
Y57768D01*
X153453D01*
Y62114D01*
X148909D01*
Y57768D01*
X149905D01*
Y56209D01*
X149106D01*
Y51665D01*
X149954D01*
Y48720D01*
X150055Y48213D01*
X150342Y47783D01*
X153674Y44451D01*
Y14291D01*
X153775Y13784D01*
X154063Y13354D01*
X156543Y10874D01*
X156973Y10586D01*
X157480Y10486D01*
X170472D01*
X170980Y10587D01*
X171410Y10874D01*
X173772Y13236D01*
X174059Y13666D01*
X174160Y14173D01*
Y18007D01*
X174853Y18294D01*
X175657Y18910D01*
X176273Y19714D01*
X176661Y20649D01*
X176703Y20969D01*
X177203Y20936D01*
Y18535D01*
X177203Y18535D01*
X177361Y18153D01*
X177361Y18153D01*
X179361Y16153D01*
X179744Y15994D01*
X179744Y15994D01*
X185744D01*
X185744Y15994D01*
X186127Y16153D01*
X188383Y18409D01*
X188541Y18791D01*
X188541Y18791D01*
Y19545D01*
X189041Y19644D01*
X189117Y19462D01*
X189813Y18554D01*
X190721Y17857D01*
X191779Y17419D01*
X192513Y17322D01*
Y21654D01*
Y25985D01*
X191779Y25888D01*
X190721Y25450D01*
X189813Y24754D01*
X189117Y23845D01*
X189041Y23663D01*
X188541Y23763D01*
Y28067D01*
X189433Y28959D01*
X198744D01*
X199127Y29117D01*
X199285Y29500D01*
X199285Y49832D01*
X202021Y52959D01*
X225781D01*
X225950Y52459D01*
X225247Y51919D01*
X224550Y51011D01*
X224112Y49954D01*
X224015Y49219D01*
X228346D01*
X232678D01*
X232581Y49954D01*
X232143Y51011D01*
X231446Y51919D01*
X230743Y52459D01*
X230765Y52524D01*
X231000Y52959D01*
X231383Y53117D01*
X231383Y53117D01*
X233883Y55617D01*
X234041Y56000D01*
X234041Y56000D01*
X234041Y61000D01*
X233883Y61383D01*
X230883Y64383D01*
Y64383D01*
X230500Y64541D01*
D02*
G37*
G36*
X178098Y75894D02*
X173161D01*
Y70814D01*
X169988D01*
X169481Y70713D01*
X169051Y70425D01*
X167063Y68437D01*
X166775Y68007D01*
X166674Y67500D01*
Y47549D01*
X162063Y42937D01*
X161775Y42507D01*
X161674Y42000D01*
Y25304D01*
X160974Y25013D01*
X160170Y24397D01*
X159554Y23593D01*
X159166Y22658D01*
X159034Y21654D01*
X159166Y20649D01*
X159554Y19714D01*
X160170Y18910D01*
X160974Y18294D01*
X161909Y17906D01*
X162913Y17774D01*
X163918Y17906D01*
X164853Y18294D01*
X165657Y18910D01*
X166273Y19714D01*
X166661Y20649D01*
X166793Y21654D01*
X166661Y22658D01*
X166273Y23593D01*
X165657Y24397D01*
X164853Y25013D01*
X164325Y25232D01*
Y41451D01*
X168937Y46063D01*
X169225Y46493D01*
X169325Y47000D01*
Y66951D01*
X170537Y68163D01*
X173161D01*
Y63083D01*
X178098D01*
Y75894D01*
D02*
G37*
G36*
X165067Y62311D02*
X160917D01*
Y61463D01*
X159358D01*
Y62213D01*
X154815D01*
Y57866D01*
X159358D01*
Y58812D01*
X160917D01*
Y58161D01*
X165067D01*
Y62311D01*
D02*
G37*
G36*
X163392Y56512D02*
Y54337D01*
X165567D01*
Y56512D01*
X163392D01*
D02*
G37*
G36*
X156982Y56709D02*
X154709D01*
Y54337D01*
X156982D01*
Y56709D01*
D02*
G37*
G36*
X165567Y53537D02*
X163392D01*
Y51362D01*
X165567D01*
Y53537D01*
D02*
G37*
G36*
X156982D02*
X154709D01*
Y51165D01*
X156982D01*
Y53537D01*
D02*
G37*
G36*
X160055Y56709D02*
X159999Y56709D01*
X157782D01*
Y53937D01*
X157382D01*
D01*
X157782D01*
Y51165D01*
X159999D01*
X160055Y51165D01*
X160474Y51362D01*
X160555Y51362D01*
X162592D01*
Y53937D01*
Y56512D01*
X160474Y56512D01*
X160055Y56709D01*
D02*
G37*
G36*
X227946Y48419D02*
X224015D01*
X224112Y47684D01*
X224550Y46627D01*
X225247Y45719D01*
X226154Y45022D01*
X227212Y44584D01*
X227946Y44488D01*
Y48419D01*
D02*
G37*
G36*
X232678D02*
X228746D01*
Y44488D01*
X229481Y44584D01*
X230538Y45022D01*
X231446Y45719D01*
X232143Y46627D01*
X232581Y47684D01*
X232678Y48419D01*
D02*
G37*
G36*
X203313Y25985D02*
Y22053D01*
X207245D01*
X207148Y22788D01*
X206710Y23845D01*
X206013Y24754D01*
X205105Y25450D01*
X204048Y25888D01*
X203313Y25985D01*
D02*
G37*
G36*
X202513D02*
X201779Y25888D01*
X200721Y25450D01*
X199813Y24754D01*
X199117Y23845D01*
X198679Y22788D01*
X198582Y22053D01*
X202513D01*
Y25985D01*
D02*
G37*
G36*
X193313D02*
Y22053D01*
X197245D01*
X197148Y22788D01*
X196710Y23845D01*
X196013Y24754D01*
X195105Y25450D01*
X194048Y25888D01*
X193313Y25985D01*
D02*
G37*
G36*
X214181Y121563D02*
X191331D01*
Y95366D01*
X214181D01*
Y107139D01*
X220986D01*
X237674Y90451D01*
Y37549D01*
X234951Y34826D01*
X217000D01*
X216493Y34725D01*
X216063Y34437D01*
X211976Y30351D01*
X211689Y29921D01*
X211588Y29413D01*
Y25268D01*
X210974Y25013D01*
X210170Y24397D01*
X209554Y23593D01*
X209166Y22658D01*
X209034Y21654D01*
X209166Y20649D01*
X209554Y19714D01*
X210170Y18910D01*
X210974Y18294D01*
X211909Y17906D01*
X212913Y17774D01*
X213917Y17906D01*
X214853Y18294D01*
X215657Y18910D01*
X216273Y19714D01*
X216661Y20649D01*
X216793Y21654D01*
X216661Y22658D01*
X216273Y23593D01*
X215657Y24397D01*
X214853Y25013D01*
X214239Y25268D01*
Y28864D01*
X217549Y32175D01*
X235500D01*
X236007Y32275D01*
X236437Y32563D01*
X239937Y36063D01*
X240225Y36493D01*
X240325Y37000D01*
Y91000D01*
X240225Y91507D01*
X239937Y91937D01*
X222473Y109402D01*
X222043Y109689D01*
X221535Y109790D01*
X214181D01*
Y121563D01*
D02*
G37*
G36*
X207245Y21253D02*
X203313D01*
Y17322D01*
X204048Y17419D01*
X205105Y17857D01*
X206013Y18554D01*
X206710Y19462D01*
X207148Y20519D01*
X207245Y21253D01*
D02*
G37*
G36*
X202513D02*
X198582D01*
X198679Y20519D01*
X199117Y19462D01*
X199813Y18554D01*
X200721Y17857D01*
X201779Y17419D01*
X202513Y17322D01*
Y21253D01*
D02*
G37*
G36*
X197245D02*
X193313D01*
Y17322D01*
X194048Y17419D01*
X195105Y17857D01*
X196013Y18554D01*
X196710Y19462D01*
X197148Y20519D01*
X197245Y21253D01*
D02*
G37*
G36*
X240158Y28492D02*
X238164Y28335D01*
X236219Y27868D01*
X234372Y27103D01*
X232667Y26058D01*
X231146Y24759D01*
X229847Y23239D01*
X228802Y21534D01*
X228037Y19686D01*
X227570Y17742D01*
X227414Y15748D01*
X227570Y13754D01*
X228037Y11810D01*
X228802Y9962D01*
X229847Y8257D01*
X231146Y6737D01*
X232667Y5438D01*
X234372Y4393D01*
X236219Y3628D01*
X238164Y3161D01*
X240158Y3004D01*
X242151Y3161D01*
X244096Y3628D01*
X245943Y4393D01*
X247648Y5438D01*
X249169Y6737D01*
X250468Y8257D01*
X251513Y9962D01*
X252278Y11810D01*
X252745Y13754D01*
X252902Y15748D01*
X252745Y17742D01*
X252278Y19686D01*
X251513Y21534D01*
X250468Y23239D01*
X249169Y24759D01*
X247648Y26058D01*
X245943Y27103D01*
X244096Y27868D01*
X242151Y28335D01*
X240158Y28492D01*
D02*
G37*
%LPD*%
G36*
X230500Y64000D02*
X233500Y61000D01*
X233500Y56000D01*
X231000Y53500D01*
X201776D01*
X198744Y50035D01*
X198744Y29500D01*
X189209D01*
X188000Y28291D01*
Y18791D01*
X185744Y16535D01*
X179744D01*
X177744Y18535D01*
Y29035D01*
X172965Y29035D01*
X172000Y30000D01*
X172000Y58500D01*
X196058D01*
X199552Y60494D01*
X199984Y60243D01*
Y58865D01*
X205528D01*
Y61138D01*
X205528Y61138D01*
X205976Y61248D01*
X221897Y64000D01*
X230500Y64000D01*
D02*
G37*
%LPC*%
G36*
X228746Y63150D02*
Y59219D01*
X232678D01*
X232581Y59953D01*
X232143Y61011D01*
X231446Y61919D01*
X230538Y62616D01*
X229481Y63054D01*
X228746Y63150D01*
D02*
G37*
G36*
X227946D02*
X227212Y63054D01*
X226154Y62616D01*
X225247Y61919D01*
X224550Y61011D01*
X224112Y59953D01*
X224015Y59219D01*
X227946D01*
Y63150D01*
D02*
G37*
G36*
X205528Y58065D02*
X203156D01*
Y55791D01*
X205528D01*
Y58065D01*
D02*
G37*
G36*
X202356D02*
X199984D01*
Y55791D01*
X202356D01*
Y58065D01*
D02*
G37*
G36*
X227946Y58419D02*
X224015D01*
X224112Y57684D01*
X224550Y56627D01*
X225247Y55719D01*
X226154Y55022D01*
X227212Y54584D01*
X227946Y54488D01*
Y58419D01*
D02*
G37*
G36*
X232678D02*
X228746D01*
Y54488D01*
X229481Y54584D01*
X230538Y55022D01*
X231446Y55719D01*
X232143Y56627D01*
X232581Y57684D01*
X232678Y58419D01*
D02*
G37*
G36*
X196571Y57693D02*
X185046D01*
Y44495D01*
X196571D01*
Y57693D01*
D02*
G37*
G36*
X184246D02*
X172721D01*
Y44495D01*
X184246D01*
Y57693D01*
D02*
G37*
G36*
X196571Y43694D02*
X185046D01*
Y30496D01*
X196571D01*
Y43694D01*
D02*
G37*
G36*
X184246D02*
X172721D01*
Y30496D01*
X184246D01*
Y43694D01*
D02*
G37*
G36*
X183313Y25985D02*
Y22053D01*
X187245D01*
X187148Y22788D01*
X186710Y23845D01*
X186013Y24754D01*
X185105Y25450D01*
X184048Y25888D01*
X183313Y25985D01*
D02*
G37*
G36*
X182513D02*
X181779Y25888D01*
X180721Y25450D01*
X179814Y24754D01*
X179117Y23845D01*
X178679Y22788D01*
X178582Y22053D01*
X182513D01*
Y25985D01*
D02*
G37*
G36*
X187245Y21253D02*
X183313D01*
Y17322D01*
X184048Y17419D01*
X185105Y17857D01*
X186013Y18554D01*
X186710Y19462D01*
X187148Y20519D01*
X187245Y21253D01*
D02*
G37*
G36*
X182513D02*
X178582D01*
X178679Y20519D01*
X179117Y19462D01*
X179814Y18554D01*
X180721Y17857D01*
X181779Y17419D01*
X182513Y17322D01*
Y21253D01*
D02*
G37*
%LPD*%
D13*
X75590Y77756D02*
X92126D01*
X75590Y63189D02*
X92126D01*
X75590D02*
Y77756D01*
X92126Y63189D02*
Y77756D01*
X91780Y78150D02*
Y85630D01*
X78787Y78150D02*
Y85630D01*
Y78150D02*
X91780D01*
X78787Y85630D02*
X91780D01*
X74756Y111343D02*
Y122760D01*
X69244Y111343D02*
Y122760D01*
X74756D01*
X69244Y111343D02*
X74756D01*
X57142Y118441D02*
X68362D01*
X68559D02*
Y123559D01*
X57142D02*
X68362D01*
X57142Y118441D02*
Y123559D01*
X27468Y42020D02*
Y56980D01*
X71563Y42020D02*
Y56980D01*
X27468D02*
X71563D01*
X27468Y42020D02*
X71563D01*
X25984Y109941D02*
X71653D01*
X25984Y81398D02*
X71653D01*
X25984D02*
Y109941D01*
X71653Y81398D02*
Y109941D01*
X42630Y80614D02*
X71370D01*
X42630Y57386D02*
X71370D01*
X42630D02*
Y80614D01*
X71370Y57386D02*
Y80614D01*
X55118Y110236D02*
X68504D01*
X55118Y118110D02*
X68504D01*
Y110236D02*
Y118110D01*
X55118Y110236D02*
Y118110D01*
X107874Y52165D02*
X140945D01*
X107874Y70669D02*
X140945D01*
Y52165D02*
Y70669D01*
X107874Y52165D02*
Y70669D01*
X160433Y51378D02*
X165551D01*
X160433D02*
Y62598D01*
Y62795D02*
X165551D01*
Y51378D02*
Y62598D01*
X217028Y76378D02*
Y122047D01*
X188484Y76378D02*
Y122047D01*
X217028D01*
X188484Y76378D02*
X217028D01*
X170374Y30512D02*
Y76181D01*
X198917Y30512D02*
Y76181D01*
X170374Y30512D02*
X198917D01*
X170374Y76181D02*
X198917D01*
X200000Y55807D02*
Y67224D01*
X205512Y55807D02*
Y67224D01*
X200000Y55807D02*
X205512D01*
X200000Y67224D02*
X205512D01*
X78787Y86024D02*
Y93504D01*
X91780Y86024D02*
Y93504D01*
X78787D02*
X91780D01*
X78787Y86024D02*
X91780D01*
X153937Y57284D02*
Y68701D01*
X148425Y57284D02*
Y68701D01*
X153937D01*
X148425Y57284D02*
X153937D01*
X160039Y51181D02*
Y56693D01*
X148622Y51181D02*
Y56693D01*
Y51181D02*
X160039D01*
X148622Y56693D02*
X160039D01*
X154331Y68799D02*
X159843D01*
X154331Y57382D02*
X159843D01*
Y68799D01*
X154331Y57382D02*
Y68799D01*
D15*
X225385Y30878D02*
Y27379D01*
Y30878D02*
X226718Y27379D01*
X228051Y30878D02*
X226718Y27379D01*
X228051Y30878D02*
Y27379D01*
X229051Y30878D02*
Y27379D01*
X231383Y30878D02*
Y27379D01*
X229051Y29212D02*
X231383D01*
X234016Y30878D02*
X232350Y28545D01*
X234849D01*
X234016Y30878D02*
Y27379D01*
X224380Y135393D02*
Y131894D01*
Y135393D02*
X225713Y131894D01*
X227046Y135393D02*
X225713Y131894D01*
X227046Y135393D02*
Y131894D01*
X228046Y135393D02*
Y131894D01*
X230379Y135393D02*
Y131894D01*
X228046Y133727D02*
X230379D01*
X231678Y135393D02*
X233511D01*
X232511Y134060D01*
X233011D01*
X233345Y133893D01*
X233511Y133727D01*
X233678Y133227D01*
Y132893D01*
X233511Y132393D01*
X233178Y132060D01*
X232678Y131894D01*
X232178D01*
X231678Y132060D01*
X231512Y132227D01*
X231345Y132560D01*
X4891Y32873D02*
Y29374D01*
Y32873D02*
X6224Y29374D01*
X7557Y32873D02*
X6224Y29374D01*
X7557Y32873D02*
Y29374D01*
X8557Y32873D02*
Y29374D01*
X10890Y32873D02*
Y29374D01*
X8557Y31207D02*
X10890D01*
X12023Y32040D02*
Y32207D01*
X12190Y32540D01*
X12356Y32707D01*
X12689Y32873D01*
X13356D01*
X13689Y32707D01*
X13856Y32540D01*
X14023Y32207D01*
Y31874D01*
X13856Y31540D01*
X13523Y31040D01*
X11856Y29374D01*
X14189D01*
X29097Y133873D02*
Y130374D01*
Y133873D02*
X30430Y130374D01*
X31763Y133873D02*
X30430Y130374D01*
X31763Y133873D02*
Y130374D01*
X32763Y133873D02*
Y130374D01*
X35096Y133873D02*
Y130374D01*
X32763Y132207D02*
X35096D01*
X36062Y133207D02*
X36395Y133373D01*
X36895Y133873D01*
Y130374D01*
D16*
X0Y137795D02*
X255906D01*
X0Y0D02*
Y137795D01*
X255906Y0D02*
Y137795D01*
X0Y0D02*
X255906D01*
D17*
X120866Y66142D02*
G03*
X120866Y66142I-1969J0D01*
G01*
X80610Y76673D02*
X87106D01*
X80610Y64272D02*
X87106D01*
X80610D02*
Y76673D01*
X87106Y64272D02*
Y76673D01*
X89417Y79232D02*
Y84547D01*
X81150Y79232D02*
Y84547D01*
Y79232D02*
X89417D01*
X81150Y84547D02*
X89417D01*
X73772Y113705D02*
Y120398D01*
X70228Y113705D02*
Y120398D01*
X73772D01*
X70228Y113705D02*
X73772D01*
X29831Y43201D02*
Y55799D01*
X69201Y43201D02*
Y55799D01*
X29831D02*
X69201D01*
X29831Y43201D02*
X69201D01*
X34252Y108957D02*
X58661D01*
X34252Y82382D02*
X58661D01*
X34252D02*
Y108957D01*
X58661Y82382D02*
Y108957D01*
X44992Y79630D02*
X69008D01*
X44992Y58370D02*
X69008D01*
X44992D02*
Y79630D01*
X69008Y58370D02*
Y79630D01*
X57480Y111319D02*
X66142D01*
X57480Y117028D02*
X66142D01*
Y111319D02*
Y117028D01*
X57480Y111319D02*
Y117028D01*
X115354Y53150D02*
X133465D01*
X115354Y69685D02*
X133465D01*
Y53150D02*
Y69685D01*
X115354Y53150D02*
Y69685D01*
X216043Y89370D02*
Y113779D01*
X189469Y89370D02*
Y113779D01*
X216043D01*
X189469Y89370D02*
X216043D01*
X171358Y38780D02*
Y63189D01*
X197933Y38780D02*
Y63189D01*
X171358Y38780D02*
X197933D01*
X171358Y63189D02*
X197933D01*
X200984Y58169D02*
Y64862D01*
X204527Y58169D02*
Y64862D01*
X200984Y58169D02*
X204527D01*
X200984Y64862D02*
X204527D01*
X81150Y87106D02*
Y92421D01*
X89417Y87106D02*
Y92421D01*
X81150D02*
X89417D01*
X81150Y87106D02*
X89417D01*
X152953Y59646D02*
Y66339D01*
X149409Y59646D02*
Y66339D01*
X152953D01*
X149409Y59646D02*
X152953D01*
X157677Y52165D02*
Y55709D01*
X150984Y52165D02*
Y55709D01*
Y52165D02*
X157677D01*
X150984Y55709D02*
X157677D01*
X155315Y66437D02*
X158858D01*
X155315Y59744D02*
X158858D01*
Y66437D01*
X155315Y59744D02*
Y66437D01*
X83858Y68504D02*
Y72441D01*
X81890Y70472D02*
X85827D01*
X83315Y81890D02*
X87252D01*
X85283Y79921D02*
Y83858D01*
X70228Y117051D02*
X73772D01*
X72000Y115279D02*
Y118823D01*
X47547Y49500D02*
X51484D01*
X49516Y47532D02*
Y51468D01*
X48819Y93701D02*
Y97638D01*
X46850Y95669D02*
X50787D01*
X57000Y67032D02*
Y70969D01*
X55032Y69000D02*
X58969D01*
X61811Y112205D02*
Y116142D01*
X59842Y114173D02*
X63779D01*
X124409Y59449D02*
Y63386D01*
X122441Y61417D02*
X126378D01*
X200787Y99213D02*
X204724D01*
X202756Y97244D02*
Y101181D01*
X182677Y53347D02*
X186614D01*
X184646Y51378D02*
Y55315D01*
X200984Y61516D02*
X204527D01*
X202756Y59744D02*
Y63287D01*
X83315Y89764D02*
X87252D01*
X85283Y87795D02*
Y91732D01*
X149409Y62992D02*
X152953D01*
X151181Y61221D02*
Y64764D01*
X152559Y53937D02*
X156102D01*
X154331Y52165D02*
Y55709D01*
X157087Y61319D02*
Y64862D01*
X155315Y63090D02*
X158858D01*
D18*
X78543Y66732D02*
D03*
Y74213D02*
D03*
X89173D02*
D03*
Y70472D02*
D03*
Y66732D02*
D03*
D19*
X88827Y81890D02*
D03*
X81740D02*
D03*
X81740Y89764D02*
D03*
X88827D02*
D03*
D20*
X72000Y120102D02*
D03*
Y114000D02*
D03*
X202756Y58465D02*
D03*
Y64567D02*
D03*
X151181Y66043D02*
D03*
Y59941D02*
D03*
X157087Y66142D02*
D03*
Y60039D02*
D03*
D21*
X59701Y121000D02*
D03*
X66000D02*
D03*
D22*
X33531Y49500D02*
D03*
X65500D02*
D03*
D23*
X64961Y104685D02*
D03*
Y86654D02*
D03*
D24*
X39567Y95669D02*
D03*
D25*
X46862Y69000D02*
D03*
X67138D02*
D03*
D26*
X64961Y114173D02*
D03*
X58661D02*
D03*
D27*
X136713Y66417D02*
D03*
X112106Y56417D02*
D03*
Y66417D02*
D03*
X136713Y56417D02*
D03*
D28*
X162992Y60236D02*
D03*
Y53937D02*
D03*
D29*
X193740Y83071D02*
D03*
X211772D02*
D03*
X193661Y69488D02*
D03*
X175630D02*
D03*
D30*
X202756Y108465D02*
D03*
X184646Y44094D02*
D03*
D31*
X151279Y53937D02*
D03*
X157382D02*
D03*
D48*
X66000Y36500D02*
Y36706D01*
X65500Y37206D02*
X66000Y36706D01*
X65500Y37206D02*
Y49500D01*
X64961Y86654D02*
X73972D01*
X77731Y82895D02*
X81372D01*
X73972Y86654D02*
X77731Y82895D01*
X81372D02*
X81740Y82526D01*
Y81890D02*
Y82526D01*
X67138Y69000D02*
Y85485D01*
X65969Y86654D02*
X67138Y85485D01*
X65500Y49500D02*
X67138Y51138D01*
Y69000D01*
D49*
X202756Y108465D02*
X221535D01*
X239000Y91000D01*
Y37000D02*
Y91000D01*
X235500Y33500D02*
X239000Y37000D01*
X217000Y33500D02*
X235500D01*
X212913Y29413D02*
X217000Y33500D01*
X212913Y21654D02*
Y29413D01*
X162992Y53937D02*
X162996Y53933D01*
X211772Y83071D02*
X211842Y83000D01*
X141583Y56417D02*
X144500Y53500D01*
X136713Y56417D02*
X141583D01*
X144500Y45500D02*
Y53500D01*
Y45500D02*
X146919Y43081D01*
X150419D01*
X150500Y43000D01*
X168000Y67500D02*
X169988Y69488D01*
X175630D01*
X162913Y21654D02*
X163000Y21740D01*
Y42000D02*
X168000Y47000D01*
Y67500D01*
X163000Y21740D02*
Y42000D01*
X64961Y104685D02*
X65053Y104593D01*
X73908D01*
X74000Y104500D01*
X94624Y56417D02*
X112106D01*
X94206Y56000D02*
X94624Y56417D01*
X94000Y56000D02*
X94206D01*
X58488Y114000D02*
X58661Y114173D01*
X89173Y66732D02*
X89342Y66563D01*
X111960D01*
X112106Y66417D01*
X88827Y81890D02*
X89000Y81717D01*
Y74386D02*
Y81717D01*
Y74386D02*
X89173Y74213D01*
X88827Y81890D02*
X88827Y81890D01*
Y89764D01*
X78543Y66732D02*
Y74213D01*
X78445Y74114D02*
X78543Y74213D01*
X73721Y74114D02*
X78445D01*
X73622Y74016D02*
X73721Y74114D01*
X71127Y120976D02*
X72000Y120102D01*
X69999Y120976D02*
X71127D01*
X69975Y121000D02*
X69999Y120976D01*
X66000Y121000D02*
X69975D01*
X64961Y114173D02*
X65134Y114000D01*
X72000D01*
X64961Y104685D02*
Y114173D01*
X155000Y14291D02*
Y45000D01*
X151279Y48720D02*
Y53937D01*
Y48720D02*
X155000Y45000D01*
Y14291D02*
X157480Y11811D01*
X172835Y21575D02*
X172913Y21654D01*
X172835Y14173D02*
Y21575D01*
X157480Y11811D02*
X170472D01*
X172835Y14173D01*
X151181Y59941D02*
X151230Y59892D01*
Y53986D02*
Y59892D01*
Y53986D02*
X151279Y53937D01*
X157087Y60039D02*
X157185Y60138D01*
X162894D01*
X162992Y60236D01*
X202756Y64567D02*
X202756Y64567D01*
Y68110D01*
X193661Y69488D02*
X201378D01*
X202756Y68110D01*
X193701Y83031D02*
X193740Y83071D01*
X193701Y69528D02*
Y83031D01*
X193661Y69488D02*
X193701Y69528D01*
X163386Y83071D02*
X193740D01*
X157087Y76772D02*
X163386Y83071D01*
X157087Y66142D02*
Y76772D01*
X151279Y66142D02*
X157087D01*
X151181Y66043D02*
X151279Y66142D01*
X136713Y66417D02*
X150807D01*
X151181Y66043D01*
D50*
X15748Y122047D02*
D03*
Y15748D02*
D03*
X240158D02*
D03*
Y122047D02*
D03*
D51*
X172913Y21654D02*
D03*
X182913D02*
D03*
X162913D02*
D03*
X202913D02*
D03*
X192913D02*
D03*
X212913D02*
D03*
X228346Y58819D02*
D03*
Y48819D02*
D03*
X21654Y62992D02*
D03*
Y72992D02*
D03*
D52*
X232520Y105039D02*
D03*
X162520Y125039D02*
D03*
X182520D02*
D03*
X202520D02*
D03*
X222520Y85039D02*
D03*
X202520D02*
D03*
X162520Y5039D02*
D03*
X222520Y125039D02*
D03*
X182520Y5039D02*
D03*
X172520Y105039D02*
D03*
X222520Y45039D02*
D03*
X202520Y5039D02*
D03*
X222520D02*
D03*
X202520Y45039D02*
D03*
X82520Y125039D02*
D03*
X92520Y105039D02*
D03*
X82520Y45039D02*
D03*
X92520Y25039D02*
D03*
X82520Y5039D02*
D03*
X72520Y25039D02*
D03*
X62520Y5039D02*
D03*
X42520Y125039D02*
D03*
X52520Y25039D02*
D03*
X42520Y5039D02*
D03*
X22520Y85039D02*
D03*
X32520Y25039D02*
D03*
X12520Y105039D02*
D03*
Y65039D02*
D03*
X27000Y36500D02*
D03*
X40000D02*
D03*
X66000D02*
D03*
X150500Y43000D02*
D03*
X74000Y104500D02*
D03*
X208500Y58500D02*
D03*
X219500D02*
D03*
X94000Y56000D02*
D03*
X73622Y74016D02*
D03*
M02*
