G04*
G04 #@! TF.GenerationSoftware,Altium Limited,Altium Designer,18.1.11 (251)*
G04*
G04 Layer_Color=65535*
%FSLAX25Y25*%
%MOIN*%
G70*
G01*
G75*
%ADD10C,0.00984*%
%ADD11C,0.02362*%
%ADD12C,0.00787*%
%ADD13C,0.00197*%
%ADD14C,0.01000*%
%ADD15C,0.00650*%
%ADD16C,0.03000*%
%ADD17C,0.00394*%
G36*
X101051Y130228D02*
X101148Y130214D01*
X101273D01*
X101398Y130186D01*
X101551Y130172D01*
X101870Y130117D01*
X102231Y130033D01*
X102620Y129922D01*
X103008Y129783D01*
X102911Y129520D01*
X102897D01*
X102869Y129534D01*
X102814Y129561D01*
X102731Y129575D01*
X102647Y129617D01*
X102536Y129645D01*
X102411Y129686D01*
X102272Y129714D01*
X101967Y129797D01*
X101620Y129867D01*
X101245Y129908D01*
X100857Y129936D01*
X100482D01*
X100357Y129922D01*
X100218D01*
X99899Y129894D01*
X99566Y129853D01*
X99205Y129783D01*
X98830Y129686D01*
X98816D01*
X98789Y129672D01*
X98733Y129659D01*
X98664Y129631D01*
X98580Y129603D01*
X98483Y129561D01*
X98233Y129464D01*
X97956Y129339D01*
X97650Y129187D01*
X97331Y129006D01*
X96998Y128798D01*
X96984D01*
X96956Y128770D01*
X96915Y128743D01*
X96859Y128687D01*
X96693Y128562D01*
X96498Y128382D01*
X96262Y128173D01*
X96013Y127910D01*
X95763Y127632D01*
X95513Y127313D01*
Y127299D01*
X95485Y127271D01*
X95457Y127230D01*
X95416Y127160D01*
X95360Y127077D01*
X95305Y126994D01*
X95235Y126883D01*
X95166Y126758D01*
X95013Y126480D01*
X94861Y126161D01*
X94708Y125814D01*
X94583Y125439D01*
Y125425D01*
X94569Y125397D01*
X94555Y125342D01*
X94541Y125259D01*
X94514Y125175D01*
X94486Y125064D01*
X94472Y124939D01*
X94444Y124801D01*
X94389Y124495D01*
X94347Y124162D01*
X94319Y123787D01*
Y123413D01*
Y123399D01*
Y123371D01*
Y123315D01*
X94333Y123246D01*
X94347Y123149D01*
Y123038D01*
X94361Y122913D01*
X94389Y122788D01*
X94430Y122483D01*
X94514Y122136D01*
X94597Y121789D01*
X94722Y121414D01*
Y121400D01*
X94736Y121372D01*
X94763Y121317D01*
X94791Y121247D01*
X94833Y121164D01*
X94874Y121053D01*
X94999Y120817D01*
X95138Y120539D01*
X95319Y120234D01*
X95541Y119915D01*
X95777Y119596D01*
X95541Y119429D01*
Y119415D01*
X95527Y119429D01*
X95513Y119457D01*
X95471Y119498D01*
X95430Y119568D01*
X95360Y119651D01*
X95291Y119748D01*
X95221Y119859D01*
X95138Y119984D01*
X94958Y120262D01*
X94777Y120581D01*
X94597Y120942D01*
X94444Y121317D01*
Y121331D01*
X94430Y121358D01*
X94416Y121414D01*
X94389Y121497D01*
X94361Y121580D01*
X94319Y121691D01*
X94292Y121816D01*
X94250Y121955D01*
X94180Y122274D01*
X94111Y122621D01*
X94055Y122996D01*
X94028Y123399D01*
Y123413D01*
Y123440D01*
Y123510D01*
Y123579D01*
Y123676D01*
X94042Y123787D01*
Y123926D01*
X94055Y124065D01*
X94083Y124384D01*
X94139Y124745D01*
X94208Y125134D01*
X94305Y125522D01*
Y125536D01*
X94319Y125564D01*
X94333Y125619D01*
X94361Y125703D01*
X94402Y125786D01*
X94430Y125897D01*
X94486Y126022D01*
X94541Y126161D01*
X94680Y126466D01*
X94833Y126799D01*
X95041Y127146D01*
X95263Y127493D01*
X95277Y127507D01*
X95291Y127535D01*
X95332Y127577D01*
X95388Y127646D01*
X95443Y127729D01*
X95527Y127813D01*
X95707Y128035D01*
X95943Y128271D01*
X96207Y128520D01*
X96512Y128784D01*
X96832Y129020D01*
X96845Y129034D01*
X96873Y129048D01*
X96929Y129076D01*
X96984Y129131D01*
X97067Y129173D01*
X97165Y129242D01*
X97290Y129312D01*
X97414Y129381D01*
X97692Y129534D01*
X98025Y129686D01*
X98372Y129839D01*
X98747Y129964D01*
X98761D01*
X98789Y129978D01*
X98844Y129992D01*
X98927Y130006D01*
X99025Y130033D01*
X99136Y130061D01*
X99260Y130089D01*
X99399Y130117D01*
X99719Y130172D01*
X100079Y130214D01*
X100468Y130242D01*
X100982D01*
X101051Y130228D01*
D02*
G37*
G36*
X131851Y121261D02*
X131212D01*
Y122760D01*
X129463D01*
Y121261D01*
X128811D01*
Y124801D01*
X129463D01*
Y123329D01*
X131212D01*
Y124801D01*
X131851D01*
Y121261D01*
D02*
G37*
G36*
X127479Y124787D02*
X127603Y124773D01*
X127728Y124745D01*
X127867Y124689D01*
X127992Y124634D01*
X128103Y124551D01*
X128117Y124537D01*
X128145Y124509D01*
X128186Y124440D01*
X128242Y124370D01*
X128297Y124259D01*
X128339Y124134D01*
X128367Y123982D01*
X128381Y123801D01*
Y123773D01*
Y123718D01*
X128367Y123607D01*
X128339Y123496D01*
X128284Y123357D01*
X128228Y123204D01*
X128131Y123066D01*
X128006Y122927D01*
X127992Y122913D01*
X127937Y122871D01*
X127853Y122816D01*
X127728Y122746D01*
X127576Y122677D01*
X127381Y122608D01*
X127159Y122538D01*
X126896Y122496D01*
X126798Y123066D01*
X126812D01*
X126868Y123079D01*
X126951Y123107D01*
X127048Y123135D01*
X127270Y123218D01*
X127367Y123274D01*
X127465Y123329D01*
X127479Y123343D01*
X127506Y123357D01*
X127534Y123399D01*
X127590Y123454D01*
X127659Y123593D01*
X127687Y123676D01*
X127701Y123773D01*
Y123787D01*
Y123815D01*
X127687Y123898D01*
X127659Y123995D01*
X127590Y124093D01*
X127576Y124107D01*
X127506Y124148D01*
X127409Y124190D01*
X127257Y124204D01*
X126368D01*
Y121261D01*
X125716D01*
Y124801D01*
X127381D01*
X127479Y124787D01*
D02*
G37*
G36*
X139596Y121261D02*
X138957D01*
X137083Y123884D01*
Y121261D01*
X136445D01*
Y124801D01*
X137111D01*
X138971Y122219D01*
Y124801D01*
X139596D01*
Y121261D01*
D02*
G37*
G36*
X150741D02*
X150131D01*
Y123732D01*
X149173Y121261D01*
X148618D01*
X147646Y123732D01*
Y121261D01*
X147036D01*
Y124801D01*
X147716D01*
X148909Y122122D01*
X150089Y124801D01*
X150741D01*
Y121261D01*
D02*
G37*
G36*
X123856D02*
X123259D01*
Y123732D01*
X122287Y121261D01*
X121732D01*
X120761Y123732D01*
Y121261D01*
X120150D01*
Y124801D01*
X120844D01*
X122024Y122122D01*
X123204Y124801D01*
X123856D01*
Y121261D01*
D02*
G37*
G36*
X142649Y124232D02*
X141650D01*
Y121261D01*
X140984D01*
Y124232D01*
X139971D01*
Y124801D01*
X142649D01*
Y124232D01*
D02*
G37*
G36*
X136029Y121261D02*
X135321D01*
X134918Y122219D01*
X133738D01*
X133974Y122788D01*
X134682D01*
X134127Y124120D01*
X132961Y121261D01*
X132295D01*
X133780Y124801D01*
X134488D01*
X136029Y121261D01*
D02*
G37*
G36*
X119734D02*
X119026D01*
X118623Y122219D01*
X117443D01*
X117665Y122788D01*
X118387D01*
X117832Y124120D01*
X116652Y121261D01*
X116000D01*
X117485Y124801D01*
X118193D01*
X119734Y121261D01*
D02*
G37*
G36*
X115667Y124232D02*
X113890D01*
Y123343D01*
X115569D01*
Y122760D01*
X113890D01*
Y121830D01*
X115694D01*
Y121261D01*
X113252D01*
Y124801D01*
X115667D01*
Y124232D01*
D02*
G37*
G36*
X112877D02*
X111850D01*
Y121261D01*
X111211D01*
Y124232D01*
X110198D01*
Y124801D01*
X112877D01*
Y124232D01*
D02*
G37*
G36*
X144967Y124787D02*
X145162Y124759D01*
X145370Y124703D01*
X145592Y124620D01*
X145800Y124509D01*
X145981Y124356D01*
X145994Y124343D01*
X146050Y124273D01*
X146119Y124176D01*
X146203Y124023D01*
X146286Y123843D01*
X146355Y123607D01*
X146411Y123343D01*
X146425Y123024D01*
Y123010D01*
Y122982D01*
Y122941D01*
Y122885D01*
X146397Y122719D01*
X146369Y122524D01*
X146314Y122302D01*
X146244Y122080D01*
X146133Y121872D01*
X145981Y121678D01*
X145967Y121664D01*
X145897Y121608D01*
X145800Y121539D01*
X145648Y121456D01*
X145467Y121372D01*
X145245Y121303D01*
X144981Y121247D01*
X144676Y121233D01*
X144593D01*
X144537Y121247D01*
X144384Y121261D01*
X144190Y121289D01*
X143982Y121344D01*
X143774Y121428D01*
X143565Y121525D01*
X143371Y121678D01*
X143357Y121705D01*
X143302Y121761D01*
X143232Y121872D01*
X143149Y122025D01*
X143066Y122205D01*
X142982Y122441D01*
X142927Y122705D01*
X142899Y123024D01*
Y123038D01*
Y123066D01*
Y123107D01*
X142913Y123177D01*
X142927Y123329D01*
X142955Y123524D01*
X143010Y123746D01*
X143094Y123968D01*
X143191Y124176D01*
X143343Y124356D01*
X143371Y124370D01*
X143427Y124426D01*
X143538Y124495D01*
X143676Y124592D01*
X143871Y124676D01*
X144093Y124745D01*
X144370Y124801D01*
X144676Y124814D01*
X144815D01*
X144967Y124787D01*
D02*
G37*
G36*
X105604Y127979D02*
X105618Y127951D01*
X105659Y127910D01*
X105715Y127854D01*
X105770Y127771D01*
X105840Y127674D01*
X105923Y127577D01*
X106006Y127452D01*
X106201Y127174D01*
X106381Y126869D01*
X106575Y126508D01*
X106742Y126133D01*
Y126119D01*
X106756Y126091D01*
X106783Y126036D01*
X106811Y125953D01*
X106839Y125855D01*
X106881Y125744D01*
X106922Y125619D01*
X106964Y125481D01*
X107047Y125161D01*
X107117Y124801D01*
X107186Y124412D01*
X107228Y123995D01*
Y123982D01*
Y123940D01*
Y123884D01*
Y123801D01*
Y123704D01*
Y123579D01*
Y123440D01*
X107214Y123288D01*
X107186Y122954D01*
X107144Y122580D01*
X107061Y122177D01*
X106964Y121775D01*
Y121761D01*
X106950Y121733D01*
X106936Y121664D01*
X106908Y121594D01*
X106867Y121497D01*
X106825Y121386D01*
X106783Y121261D01*
X106728Y121122D01*
X106589Y120817D01*
X106409Y120470D01*
X106214Y120123D01*
X105978Y119776D01*
X105965Y119762D01*
X105951Y119734D01*
X105909Y119693D01*
X105867Y119623D01*
X105798Y119554D01*
X105729Y119457D01*
X105534Y119249D01*
X105312Y118999D01*
X105035Y118735D01*
X104729Y118471D01*
X104396Y118221D01*
X104382Y118208D01*
X104355Y118194D01*
X104299Y118166D01*
X104230Y118110D01*
X104146Y118055D01*
X104049Y117999D01*
X103924Y117930D01*
X103799Y117861D01*
X103494Y117708D01*
X103161Y117555D01*
X102786Y117403D01*
X102383Y117278D01*
X102370D01*
X102314Y117264D01*
X102231Y117236D01*
X102120Y117208D01*
X101981Y117180D01*
X101828Y117153D01*
X101509Y117097D01*
X101495D01*
X101440Y117083D01*
X101342D01*
X101232Y117069D01*
X101107Y117055D01*
X100954D01*
X100621Y117042D01*
X100510D01*
X100385Y117055D01*
X100218D01*
X100024Y117069D01*
X99802Y117097D01*
X99580Y117125D01*
X99330Y117167D01*
X99302D01*
X99219Y117194D01*
X99094Y117222D01*
X98927Y117264D01*
X98733Y117319D01*
X98525Y117389D01*
X98081Y117555D01*
X98192Y117819D01*
X98206D01*
X98233Y117805D01*
X98289Y117777D01*
X98372Y117750D01*
X98469Y117722D01*
X98567Y117680D01*
X98691Y117639D01*
X98844Y117597D01*
X99150Y117514D01*
X99510Y117430D01*
X99885Y117375D01*
X100274Y117333D01*
X100787D01*
X100940Y117347D01*
X101245Y117361D01*
X101592Y117403D01*
X101967Y117472D01*
X102342Y117555D01*
X102356D01*
X102383Y117569D01*
X102439Y117583D01*
X102508Y117611D01*
X102606Y117639D01*
X102703Y117680D01*
X102953Y117777D01*
X103244Y117902D01*
X103563Y118055D01*
X103896Y118235D01*
X104230Y118444D01*
X104243Y118457D01*
X104271Y118471D01*
X104313Y118499D01*
X104382Y118555D01*
X104452Y118610D01*
X104535Y118679D01*
X104743Y118860D01*
X104993Y119082D01*
X105243Y119332D01*
X105507Y119623D01*
X105756Y119956D01*
X105770Y119970D01*
X105784Y119998D01*
X105812Y120040D01*
X105867Y120109D01*
X105909Y120192D01*
X105978Y120290D01*
X106048Y120401D01*
X106117Y120526D01*
X106270Y120817D01*
X106423Y121150D01*
X106575Y121511D01*
X106700Y121886D01*
Y121900D01*
X106714Y121927D01*
X106728Y121983D01*
X106742Y122066D01*
X106770Y122150D01*
X106783Y122260D01*
X106811Y122385D01*
X106839Y122524D01*
X106881Y122844D01*
X106922Y123190D01*
X106936Y123551D01*
Y123940D01*
Y123954D01*
Y123982D01*
Y124037D01*
X106922Y124120D01*
X106908Y124204D01*
Y124315D01*
X106881Y124440D01*
X106867Y124578D01*
X106811Y124884D01*
X106728Y125231D01*
X106631Y125592D01*
X106492Y125967D01*
Y125980D01*
X106478Y126008D01*
X106450Y126064D01*
X106423Y126133D01*
X106381Y126230D01*
X106325Y126327D01*
X106201Y126577D01*
X106048Y126855D01*
X105853Y127160D01*
X105631Y127479D01*
X105368Y127799D01*
X105590Y127993D01*
X105604Y127979D01*
D02*
G37*
G36*
X106756Y130949D02*
Y130922D01*
X106770Y130908D01*
Y130880D01*
X106756Y130866D01*
X106742Y130852D01*
X106700Y130811D01*
X106659Y130755D01*
X106520Y130602D01*
X106353Y130408D01*
X106145Y130186D01*
X105923Y129922D01*
X105673Y129659D01*
X105423Y129367D01*
X105409Y129353D01*
X105395Y129339D01*
X105354Y129298D01*
X105312Y129242D01*
X105173Y129089D01*
X104993Y128895D01*
X104799Y128659D01*
X104563Y128395D01*
X104313Y128132D01*
X104063Y127840D01*
X104049Y127826D01*
X104035Y127813D01*
X103994Y127771D01*
X103952Y127715D01*
X103813Y127563D01*
X103633Y127368D01*
X103425Y127132D01*
X103202Y126869D01*
X102953Y126591D01*
X102689Y126300D01*
X102675Y126286D01*
X102661Y126272D01*
X102620Y126230D01*
X102578Y126175D01*
X102439Y126022D01*
X102259Y125828D01*
X102050Y125592D01*
X101828Y125328D01*
X101578Y125064D01*
X101315Y124773D01*
X101329D01*
X101356Y124759D01*
X101398Y124745D01*
X101454Y124731D01*
X101523Y124717D01*
X101606Y124689D01*
X101814Y124634D01*
X102064Y124565D01*
X102328Y124495D01*
X102620Y124412D01*
X102925Y124329D01*
X102939D01*
X102966Y124315D01*
X103008D01*
X103064Y124287D01*
X103133Y124273D01*
X103216Y124245D01*
X103425Y124204D01*
X103674Y124134D01*
X103952Y124065D01*
X104243Y123982D01*
X104549Y123898D01*
X104535Y123884D01*
X104493Y123857D01*
X104424Y123801D01*
X104327Y123732D01*
X104202Y123649D01*
X104063Y123538D01*
X103910Y123426D01*
X103730Y123288D01*
X103536Y123149D01*
X103327Y122996D01*
X102883Y122663D01*
X102411Y122302D01*
X101926Y121927D01*
X101912Y121914D01*
X101870Y121886D01*
X101801Y121830D01*
X101703Y121761D01*
X101578Y121664D01*
X101440Y121566D01*
X101287Y121442D01*
X101107Y121317D01*
X100926Y121164D01*
X100718Y121011D01*
X100274Y120678D01*
X99802Y120331D01*
X99316Y119956D01*
X99302Y119943D01*
X99260Y119915D01*
X99191Y119859D01*
X99094Y119790D01*
X98983Y119707D01*
X98844Y119596D01*
X98678Y119484D01*
X98511Y119346D01*
X98317Y119207D01*
X98122Y119054D01*
X97678Y118721D01*
X97206Y118374D01*
X96720Y118013D01*
X96707Y117999D01*
X96665Y117972D01*
X96596Y117916D01*
X96498Y117847D01*
X96373Y117763D01*
X96235Y117652D01*
X96082Y117541D01*
X95902Y117403D01*
X95721Y117264D01*
X95513Y117111D01*
X95069Y116778D01*
X94611Y116431D01*
X94125Y116070D01*
X94111Y116084D01*
X94097Y116112D01*
Y116126D01*
Y116139D01*
X94111Y116153D01*
X94125Y116167D01*
X94167Y116209D01*
X94222Y116264D01*
X94347Y116417D01*
X94527Y116611D01*
X94736Y116833D01*
X94972Y117083D01*
X95221Y117347D01*
X95485Y117625D01*
X95499Y117639D01*
X95513Y117652D01*
X95555Y117694D01*
X95610Y117750D01*
X95735Y117902D01*
X95915Y118096D01*
X96124Y118319D01*
X96360Y118568D01*
X96609Y118832D01*
X96873Y119110D01*
X96887Y119124D01*
X96901Y119138D01*
X96943Y119179D01*
X96998Y119235D01*
X97137Y119387D01*
X97317Y119582D01*
X97526Y119804D01*
X97775Y120068D01*
X98025Y120345D01*
X98289Y120623D01*
X98303Y120637D01*
X98317Y120650D01*
X98358Y120692D01*
X98414Y120748D01*
X98553Y120900D01*
X98719Y121095D01*
X98941Y121317D01*
X99177Y121580D01*
X99427Y121858D01*
X99691Y122136D01*
X99677D01*
X99663Y122150D01*
X99580Y122177D01*
X99441Y122219D01*
X99274Y122274D01*
X99066Y122344D01*
X98844Y122427D01*
X98608Y122496D01*
X98358Y122580D01*
X98344D01*
X98331Y122594D01*
X98247Y122621D01*
X98122Y122663D01*
X97942Y122719D01*
X97748Y122788D01*
X97526Y122871D01*
X97276Y122954D01*
X97026Y123038D01*
X97040Y123052D01*
X97081Y123079D01*
X97151Y123135D01*
X97234Y123204D01*
X97345Y123301D01*
X97484Y123413D01*
X97637Y123524D01*
X97789Y123662D01*
X97970Y123815D01*
X98164Y123968D01*
X98580Y124301D01*
X99011Y124662D01*
X99469Y125037D01*
X99483Y125050D01*
X99524Y125078D01*
X99594Y125134D01*
X99677Y125203D01*
X99788Y125300D01*
X99913Y125397D01*
X100066Y125522D01*
X100232Y125647D01*
X100413Y125800D01*
X100593Y125953D01*
X101009Y126286D01*
X101454Y126647D01*
X101898Y127007D01*
X101912Y127021D01*
X101953Y127049D01*
X102023Y127105D01*
X102106Y127174D01*
X102217Y127271D01*
X102342Y127382D01*
X102495Y127493D01*
X102661Y127632D01*
X102842Y127771D01*
X103022Y127937D01*
X103438Y128271D01*
X103883Y128631D01*
X104327Y128992D01*
X104341Y129006D01*
X104382Y129034D01*
X104452Y129089D01*
X104535Y129159D01*
X104646Y129256D01*
X104771Y129353D01*
X104924Y129478D01*
X105076Y129603D01*
X105257Y129756D01*
X105451Y129908D01*
X105853Y130242D01*
X106298Y130602D01*
X106742Y130963D01*
X106756Y130949D01*
D02*
G37*
%LPC*%
G36*
X144676Y124259D02*
X144579D01*
X144482Y124245D01*
X144370Y124218D01*
X144232Y124176D01*
X144093Y124120D01*
X143954Y124051D01*
X143843Y123940D01*
X143829Y123926D01*
X143801Y123884D01*
X143760Y123815D01*
X143718Y123718D01*
X143663Y123579D01*
X143621Y123426D01*
X143593Y123246D01*
X143579Y123038D01*
Y123010D01*
Y122941D01*
X143593Y122830D01*
X143607Y122691D01*
X143649Y122552D01*
X143690Y122399D01*
X143760Y122247D01*
X143843Y122122D01*
X143857Y122108D01*
X143899Y122080D01*
X143954Y122025D01*
X144051Y121969D01*
X144162Y121914D01*
X144315Y121858D01*
X144482Y121830D01*
X144676Y121816D01*
X144759D01*
X144856Y121830D01*
X144967Y121858D01*
X145106Y121886D01*
X145231Y121941D01*
X145356Y122025D01*
X145467Y122122D01*
X145481Y122136D01*
X145509Y122177D01*
X145550Y122247D01*
X145606Y122358D01*
X145661Y122483D01*
X145703Y122635D01*
X145731Y122830D01*
X145745Y123038D01*
Y123052D01*
Y123066D01*
Y123135D01*
X145731Y123246D01*
X145717Y123371D01*
X145675Y123524D01*
X145634Y123676D01*
X145564Y123815D01*
X145467Y123940D01*
X145453Y123954D01*
X145412Y123995D01*
X145356Y124037D01*
X145273Y124107D01*
X145162Y124162D01*
X145023Y124204D01*
X144856Y124245D01*
X144676Y124259D01*
D02*
G37*
%LPD*%
D10*
X89665Y63386D02*
G03*
X89665Y63386I-492J0D01*
G01*
X65453Y82520D02*
G03*
X65453Y82520I-492J0D01*
G01*
X112598Y69764D02*
G03*
X112598Y69764I-492J0D01*
G01*
X190098Y83071D02*
G03*
X190098Y83071I-492J0D01*
G01*
X198287Y69488D02*
G03*
X198287Y69488I-492J0D01*
G01*
D11*
X122047Y65748D02*
G03*
X122047Y65748I-1181J0D01*
G01*
D12*
X82087Y64173D02*
Y76772D01*
X85630Y64173D02*
Y76772D01*
X82087D02*
X85630D01*
X82087Y64173D02*
X85630D01*
X84890Y79626D02*
X85677D01*
X84890Y84153D02*
X85677D01*
X40067Y55484D02*
X58965D01*
X40067Y43516D02*
X58965D01*
X53740Y108858D02*
X57480D01*
Y82480D02*
Y108858D01*
X53740Y82480D02*
X57480D01*
X51685Y79236D02*
X62315D01*
X51685Y58764D02*
X62315D01*
X116929Y53150D02*
X131890D01*
X116929Y69685D02*
X131890D01*
Y53150D02*
Y69685D01*
X116929Y53150D02*
Y69685D01*
X215945Y90551D02*
Y94291D01*
X189567Y90551D02*
X215945D01*
X189567D02*
Y94291D01*
X171457Y58268D02*
Y62008D01*
X197835D01*
Y58268D02*
Y62008D01*
X84890Y92028D02*
X85677D01*
X84890Y87500D02*
X85677D01*
D13*
X57437Y119524D02*
Y122476D01*
X161516Y51673D02*
X164469D01*
X75590Y77756D02*
X92126D01*
X75590Y63189D02*
X92126D01*
X75590D02*
Y77756D01*
X92126Y63189D02*
Y77756D01*
X91780Y78150D02*
Y85630D01*
X78787Y78150D02*
Y85630D01*
Y78150D02*
X91780D01*
X78787Y85630D02*
X91780D01*
X74756Y111343D02*
Y122760D01*
X69244Y111343D02*
Y122760D01*
X74756D01*
X69244Y111343D02*
X74756D01*
X57142Y118441D02*
X68362D01*
X68559D02*
Y123559D01*
X57142D02*
X68362D01*
X57142Y118441D02*
Y123559D01*
X27468Y42020D02*
Y56980D01*
X71563Y42020D02*
Y56980D01*
X27468D02*
X71563D01*
X27468Y42020D02*
X71563D01*
X25984Y109941D02*
X71653D01*
X25984Y81398D02*
X71653D01*
X25984D02*
Y109941D01*
X71653Y81398D02*
Y109941D01*
X42630Y80614D02*
X71370D01*
X42630Y57386D02*
X71370D01*
X42630D02*
Y80614D01*
X71370Y57386D02*
Y80614D01*
X55118Y110236D02*
X68504D01*
X55118Y118110D02*
X68504D01*
Y110236D02*
Y118110D01*
X55118Y110236D02*
Y118110D01*
X107874Y52165D02*
X140945D01*
X107874Y70669D02*
X140945D01*
Y52165D02*
Y70669D01*
X107874Y52165D02*
Y70669D01*
X160433Y51378D02*
X165551D01*
X160433D02*
Y62598D01*
Y62795D02*
X165551D01*
Y51378D02*
Y62598D01*
X217028Y76378D02*
Y122047D01*
X188484Y76378D02*
Y122047D01*
X217028D01*
X188484Y76378D02*
X217028D01*
X170374Y30512D02*
Y76181D01*
X198917Y30512D02*
Y76181D01*
X170374Y30512D02*
X198917D01*
X170374Y76181D02*
X198917D01*
X200000Y55807D02*
Y67224D01*
X205512Y55807D02*
Y67224D01*
X200000Y55807D02*
X205512D01*
X200000Y67224D02*
X205512D01*
X78787Y86024D02*
Y93504D01*
X91780Y86024D02*
Y93504D01*
X78787D02*
X91780D01*
X78787Y86024D02*
X91780D01*
X153937Y57284D02*
Y68701D01*
X148425Y57284D02*
Y68701D01*
X153937D01*
X148425Y57284D02*
X153937D01*
X160039Y51181D02*
Y56693D01*
X148622Y51181D02*
Y56693D01*
Y51181D02*
X160039D01*
X148622Y56693D02*
X160039D01*
X154331Y68799D02*
X159843D01*
X154331Y57382D02*
X159843D01*
Y68799D01*
X154331Y57382D02*
Y68799D01*
D14*
X97500Y86500D02*
Y113000D01*
X147500Y1500D02*
Y109500D01*
X97500Y2000D02*
Y75000D01*
X124500Y61500D02*
Y90000D01*
Y31500D02*
Y61500D01*
D15*
X130150Y43649D02*
Y38650D01*
X133007D01*
X133554Y43649D02*
X135458Y38650D01*
X137363Y43649D02*
X135458Y38650D01*
X107201Y43606D02*
Y38607D01*
X110534Y43606D02*
Y38607D01*
X107201Y41225D02*
X110534D01*
X111915Y43606D02*
X113819Y38607D01*
X115723Y43606D02*
X113819Y38607D01*
X111666Y118499D02*
Y115000D01*
X110500Y118499D02*
X112833D01*
X115582Y117999D02*
X115249Y118333D01*
X114749Y118499D01*
X114083D01*
X113583Y118333D01*
X113249Y117999D01*
Y117666D01*
X113416Y117333D01*
X113583Y117166D01*
X113916Y117000D01*
X114916Y116666D01*
X115249Y116500D01*
X115416Y116333D01*
X115582Y116000D01*
Y115500D01*
X115249Y115167D01*
X114749Y115000D01*
X114083D01*
X113583Y115167D01*
X113249Y115500D01*
X119032Y115000D02*
X117699Y118499D01*
X116365Y115000D01*
X116865Y116166D02*
X118532D01*
X119848Y118499D02*
Y115000D01*
X121848D01*
X124980Y118499D02*
Y115000D01*
Y118499D02*
X126480D01*
X126980Y118333D01*
X127146Y118166D01*
X127313Y117833D01*
Y117499D01*
X127146Y117166D01*
X126980Y117000D01*
X126480Y116833D01*
X124980D01*
X126147D02*
X127313Y115000D01*
X130262Y118499D02*
X128096D01*
Y115000D01*
X130262D01*
X128096Y116833D02*
X129429D01*
X130846Y118499D02*
X132179Y115000D01*
X133512Y118499D02*
X132179Y115000D01*
X136878Y117666D02*
Y117833D01*
X137044Y118166D01*
X137211Y118333D01*
X137544Y118499D01*
X138211D01*
X138544Y118333D01*
X138711Y118166D01*
X138877Y117833D01*
Y117499D01*
X138711Y117166D01*
X138377Y116666D01*
X136711Y115000D01*
X139044D01*
X151838Y28393D02*
Y25727D01*
X151671Y25227D01*
X151505Y25060D01*
X151171Y24893D01*
X150838D01*
X150505Y25060D01*
X150338Y25227D01*
X150172Y25727D01*
Y26060D01*
X152738Y27726D02*
X153071Y27893D01*
X153571Y28393D01*
Y24893D01*
X92520Y82999D02*
Y79500D01*
Y82999D02*
X94019D01*
X94519Y82833D01*
X94686Y82666D01*
X94853Y82333D01*
Y81999D01*
X94686Y81666D01*
X94519Y81500D01*
X94019Y81333D01*
X92520D01*
X93686D02*
X94853Y79500D01*
X95802Y82166D02*
Y82333D01*
X95969Y82666D01*
X96136Y82833D01*
X96469Y82999D01*
X97135D01*
X97469Y82833D01*
X97635Y82666D01*
X97802Y82333D01*
Y81999D01*
X97635Y81666D01*
X97302Y81166D01*
X95636Y79500D01*
X97969D01*
X33192Y114893D02*
Y112393D01*
X33359Y111893D01*
X33692Y111560D01*
X34192Y111393D01*
X34525D01*
X35025Y111560D01*
X35358Y111893D01*
X35525Y112393D01*
Y114893D01*
X36825D02*
X38658D01*
X37658Y113560D01*
X38158D01*
X38491Y113393D01*
X38658Y113226D01*
X38824Y112727D01*
Y112393D01*
X38658Y111893D01*
X38324Y111560D01*
X37824Y111393D01*
X37325D01*
X36825Y111560D01*
X36658Y111727D01*
X36491Y112060D01*
X116703Y75393D02*
Y72893D01*
X116870Y72393D01*
X117203Y72060D01*
X117703Y71894D01*
X118036D01*
X118536Y72060D01*
X118870Y72393D01*
X119036Y72893D01*
Y75393D01*
X120169Y74560D02*
Y74726D01*
X120336Y75059D01*
X120503Y75226D01*
X120836Y75393D01*
X121502D01*
X121836Y75226D01*
X122002Y75059D01*
X122169Y74726D01*
Y74393D01*
X122002Y74060D01*
X121669Y73560D01*
X120003Y71894D01*
X122336D01*
X76909Y63893D02*
Y61393D01*
X77076Y60893D01*
X77409Y60560D01*
X77909Y60394D01*
X78242D01*
X78742Y60560D01*
X79075Y60893D01*
X79242Y61393D01*
Y63893D01*
X80208Y63226D02*
X80542Y63393D01*
X81042Y63893D01*
Y60394D01*
X73999Y129500D02*
X70500D01*
X73999D02*
Y128000D01*
X73833Y127500D01*
X73666Y127334D01*
X73333Y127167D01*
X73000D01*
X72666Y127334D01*
X72500Y127500D01*
X72333Y128000D01*
Y129500D01*
Y128334D02*
X70500Y127167D01*
X73999Y124051D02*
X70500Y125717D01*
X73999Y126384D02*
Y124051D01*
X162999Y76000D02*
X159500D01*
X162999D02*
Y74500D01*
X162833Y74000D01*
X162666Y73834D01*
X162333Y73667D01*
X161999D01*
X161666Y73834D01*
X161500Y74000D01*
X161333Y74500D01*
Y76000D01*
Y74834D02*
X159500Y73667D01*
X162499Y70884D02*
X162833Y71051D01*
X162999Y71551D01*
Y71884D01*
X162833Y72384D01*
X162333Y72717D01*
X161500Y72884D01*
X160666D01*
X160000Y72717D01*
X159667Y72384D01*
X159500Y71884D01*
Y71718D01*
X159667Y71218D01*
X160000Y70884D01*
X160500Y70718D01*
X160666D01*
X161166Y70884D01*
X161500Y71218D01*
X161666Y71718D01*
Y71884D01*
X161500Y72384D01*
X161166Y72717D01*
X160666Y72884D01*
X155500Y50499D02*
Y47000D01*
Y50499D02*
X157000D01*
X157500Y50333D01*
X157666Y50166D01*
X157833Y49833D01*
Y49499D01*
X157666Y49166D01*
X157500Y49000D01*
X157000Y48833D01*
X155500D01*
X156666D02*
X157833Y47000D01*
X160616Y50499D02*
X158949D01*
X158783Y49000D01*
X158949Y49166D01*
X159449Y49333D01*
X159949D01*
X160449Y49166D01*
X160782Y48833D01*
X160949Y48333D01*
Y48000D01*
X160782Y47500D01*
X160449Y47167D01*
X159949Y47000D01*
X159449D01*
X158949Y47167D01*
X158783Y47333D01*
X158616Y47666D01*
X153499Y75500D02*
X150000D01*
X153499D02*
Y74000D01*
X153333Y73500D01*
X153166Y73334D01*
X152833Y73167D01*
X152499D01*
X152166Y73334D01*
X152000Y73500D01*
X151833Y74000D01*
Y75500D01*
Y74334D02*
X150000Y73167D01*
X153499Y70718D02*
X151166Y72384D01*
Y69885D01*
X153499Y70718D02*
X150000D01*
X80692Y97893D02*
Y94393D01*
Y97893D02*
X82192D01*
X82692Y97726D01*
X82858Y97559D01*
X83025Y97226D01*
Y96893D01*
X82858Y96560D01*
X82692Y96393D01*
X82192Y96227D01*
X80692D01*
X81858D02*
X83025Y94393D01*
X84141Y97893D02*
X85974D01*
X84974Y96560D01*
X85474D01*
X85808Y96393D01*
X85974Y96227D01*
X86141Y95727D01*
Y95393D01*
X85974Y94893D01*
X85641Y94560D01*
X85141Y94393D01*
X84641D01*
X84141Y94560D01*
X83975Y94727D01*
X83808Y95060D01*
X206409Y64373D02*
Y60874D01*
Y64373D02*
X207909D01*
X208409Y64207D01*
X208575Y64040D01*
X208742Y63707D01*
Y63374D01*
X208575Y63040D01*
X208409Y62874D01*
X207909Y62707D01*
X206409D01*
X207576D02*
X208742Y60874D01*
X209525Y63707D02*
X209858Y63873D01*
X210358Y64373D01*
Y60874D01*
X201561Y52946D02*
X201227Y52780D01*
X200894Y52446D01*
X200728Y52113D01*
X200561Y51613D01*
Y50780D01*
X200728Y50280D01*
X200894Y49947D01*
X201227Y49614D01*
X201561Y49447D01*
X202227D01*
X202560Y49614D01*
X202894Y49947D01*
X203060Y50280D01*
X203227Y50780D01*
Y51613D01*
X203060Y52113D01*
X202894Y52446D01*
X202560Y52780D01*
X202227Y52946D01*
X201561D01*
X202061Y50113D02*
X203060Y49114D01*
X204210Y52113D02*
Y52280D01*
X204377Y52613D01*
X204543Y52780D01*
X204877Y52946D01*
X205543D01*
X205876Y52780D01*
X206043Y52613D01*
X206210Y52280D01*
Y51947D01*
X206043Y51613D01*
X205710Y51113D01*
X204044Y49447D01*
X206376D01*
X190020Y128639D02*
X189686Y128472D01*
X189353Y128139D01*
X189186Y127805D01*
X189020Y127306D01*
Y126472D01*
X189186Y125972D01*
X189353Y125639D01*
X189686Y125306D01*
X190020Y125139D01*
X190686D01*
X191019Y125306D01*
X191352Y125639D01*
X191519Y125972D01*
X191686Y126472D01*
Y127306D01*
X191519Y127805D01*
X191352Y128139D01*
X191019Y128472D01*
X190686Y128639D01*
X190020D01*
X190519Y125806D02*
X191519Y124806D01*
X192502Y127972D02*
X192835Y128139D01*
X193335Y128639D01*
Y125139D01*
X227621Y72393D02*
Y69727D01*
X227454Y69227D01*
X227288Y69060D01*
X226954Y68893D01*
X226621D01*
X226288Y69060D01*
X226121Y69227D01*
X225955Y69727D01*
Y70060D01*
X228854Y72393D02*
X230687D01*
X229687Y71060D01*
X230187D01*
X230520Y70893D01*
X230687Y70727D01*
X230854Y70227D01*
Y69893D01*
X230687Y69393D01*
X230354Y69060D01*
X229854Y68893D01*
X229354D01*
X228854Y69060D01*
X228687Y69227D01*
X228521Y69560D01*
X6632Y87393D02*
Y84727D01*
X6465Y84227D01*
X6299Y84060D01*
X5966Y83894D01*
X5632D01*
X5299Y84060D01*
X5133Y84227D01*
X4966Y84727D01*
Y85060D01*
X7699Y86560D02*
Y86726D01*
X7865Y87059D01*
X8032Y87226D01*
X8365Y87393D01*
X9032D01*
X9365Y87226D01*
X9532Y87059D01*
X9698Y86726D01*
Y86393D01*
X9532Y86060D01*
X9198Y85560D01*
X7532Y83894D01*
X9865D01*
X34000Y62318D02*
Y58819D01*
Y62318D02*
X36166D01*
X34000Y60652D02*
X35333D01*
X36566Y61652D02*
X36899Y61818D01*
X37399Y62318D01*
Y58819D01*
X49500Y122999D02*
Y119500D01*
Y122999D02*
X50666D01*
X51166Y122833D01*
X51500Y122499D01*
X51666Y122166D01*
X51833Y121666D01*
Y120833D01*
X51666Y120333D01*
X51500Y120000D01*
X51166Y119667D01*
X50666Y119500D01*
X49500D01*
X52783Y122166D02*
Y122333D01*
X52949Y122666D01*
X53116Y122833D01*
X53449Y122999D01*
X54116D01*
X54449Y122833D01*
X54616Y122666D01*
X54782Y122333D01*
Y122000D01*
X54616Y121666D01*
X54282Y121166D01*
X52616Y119500D01*
X54949D01*
X165499Y68500D02*
X162000D01*
X165499D02*
Y67334D01*
X165333Y66834D01*
X164999Y66500D01*
X164666Y66334D01*
X164166Y66167D01*
X163333D01*
X162833Y66334D01*
X162500Y66500D01*
X162167Y66834D01*
X162000Y67334D01*
Y68500D01*
X164833Y65384D02*
X164999Y65051D01*
X165499Y64551D01*
X162000D01*
X36999Y80166D02*
X36833Y80499D01*
X36500Y80833D01*
X36166Y80999D01*
X35500D01*
X35166Y80833D01*
X34833Y80499D01*
X34667Y80166D01*
X34500Y79666D01*
Y78833D01*
X34667Y78333D01*
X34833Y78000D01*
X35166Y77667D01*
X35500Y77500D01*
X36166D01*
X36500Y77667D01*
X36833Y78000D01*
X36999Y78333D01*
X38149Y80166D02*
Y80333D01*
X38316Y80666D01*
X38482Y80833D01*
X38816Y80999D01*
X39482D01*
X39816Y80833D01*
X39982Y80666D01*
X40149Y80333D01*
Y80000D01*
X39982Y79666D01*
X39649Y79166D01*
X37983Y77500D01*
X40315D01*
X51499Y115666D02*
X51333Y115999D01*
X51000Y116333D01*
X50666Y116499D01*
X50000D01*
X49667Y116333D01*
X49333Y115999D01*
X49167Y115666D01*
X49000Y115166D01*
Y114333D01*
X49167Y113833D01*
X49333Y113500D01*
X49667Y113167D01*
X50000Y113000D01*
X50666D01*
X51000Y113167D01*
X51333Y113500D01*
X51499Y113833D01*
X52483Y115833D02*
X52816Y115999D01*
X53316Y116499D01*
Y113000D01*
X225385Y30878D02*
Y27379D01*
Y30878D02*
X226718Y27379D01*
X228051Y30878D02*
X226718Y27379D01*
X228051Y30878D02*
Y27379D01*
X229051Y30878D02*
Y27379D01*
X231383Y30878D02*
Y27379D01*
X229051Y29212D02*
X231383D01*
X234016Y30878D02*
X232350Y28545D01*
X234849D01*
X234016Y30878D02*
Y27379D01*
X224380Y135393D02*
Y131894D01*
Y135393D02*
X225713Y131894D01*
X227046Y135393D02*
X225713Y131894D01*
X227046Y135393D02*
Y131894D01*
X228046Y135393D02*
Y131894D01*
X230379Y135393D02*
Y131894D01*
X228046Y133727D02*
X230379D01*
X231678Y135393D02*
X233511D01*
X232511Y134060D01*
X233011D01*
X233345Y133893D01*
X233511Y133727D01*
X233678Y133227D01*
Y132893D01*
X233511Y132393D01*
X233178Y132060D01*
X232678Y131894D01*
X232178D01*
X231678Y132060D01*
X231512Y132227D01*
X231345Y132560D01*
X4891Y32873D02*
Y29374D01*
Y32873D02*
X6224Y29374D01*
X7557Y32873D02*
X6224Y29374D01*
X7557Y32873D02*
Y29374D01*
X8557Y32873D02*
Y29374D01*
X10890Y32873D02*
Y29374D01*
X8557Y31207D02*
X10890D01*
X12023Y32040D02*
Y32207D01*
X12190Y32540D01*
X12356Y32707D01*
X12689Y32873D01*
X13356D01*
X13689Y32707D01*
X13856Y32540D01*
X14023Y32207D01*
Y31874D01*
X13856Y31540D01*
X13523Y31040D01*
X11856Y29374D01*
X14189D01*
X29097Y133873D02*
Y130374D01*
Y133873D02*
X30430Y130374D01*
X31763Y133873D02*
X30430Y130374D01*
X31763Y133873D02*
Y130374D01*
X32763Y133873D02*
Y130374D01*
X35096Y133873D02*
Y130374D01*
X32763Y132207D02*
X35096D01*
X36062Y133207D02*
X36395Y133373D01*
X36895Y133873D01*
Y130374D01*
D16*
X0Y137795D02*
X255906D01*
X0Y0D02*
Y137795D01*
X255906Y0D02*
Y137795D01*
X0Y0D02*
X255906D01*
D17*
X120866Y66142D02*
G03*
X120866Y66142I-1969J0D01*
G01*
X80610Y76673D02*
X87106D01*
X80610Y64272D02*
X87106D01*
X80610D02*
Y76673D01*
X87106Y64272D02*
Y76673D01*
X89417Y79232D02*
Y84547D01*
X81150Y79232D02*
Y84547D01*
Y79232D02*
X89417D01*
X81150Y84547D02*
X89417D01*
X73772Y113705D02*
Y120398D01*
X70228Y113705D02*
Y120398D01*
X73772D01*
X70228Y113705D02*
X73772D01*
X29831Y43201D02*
Y55799D01*
X69201Y43201D02*
Y55799D01*
X29831D02*
X69201D01*
X29831Y43201D02*
X69201D01*
X34252Y108957D02*
X58661D01*
X34252Y82382D02*
X58661D01*
X34252D02*
Y108957D01*
X58661Y82382D02*
Y108957D01*
X44992Y79630D02*
X69008D01*
X44992Y58370D02*
X69008D01*
X44992D02*
Y79630D01*
X69008Y58370D02*
Y79630D01*
X57480Y111319D02*
X66142D01*
X57480Y117028D02*
X66142D01*
Y111319D02*
Y117028D01*
X57480Y111319D02*
Y117028D01*
X115354Y53150D02*
X133465D01*
X115354Y69685D02*
X133465D01*
Y53150D02*
Y69685D01*
X115354Y53150D02*
Y69685D01*
X216043Y89370D02*
Y113779D01*
X189469Y89370D02*
Y113779D01*
X216043D01*
X189469Y89370D02*
X216043D01*
X171358Y38780D02*
Y63189D01*
X197933Y38780D02*
Y63189D01*
X171358Y38780D02*
X197933D01*
X171358Y63189D02*
X197933D01*
X200984Y58169D02*
Y64862D01*
X204527Y58169D02*
Y64862D01*
X200984Y58169D02*
X204527D01*
X200984Y64862D02*
X204527D01*
X81150Y87106D02*
Y92421D01*
X89417Y87106D02*
Y92421D01*
X81150D02*
X89417D01*
X81150Y87106D02*
X89417D01*
X152953Y59646D02*
Y66339D01*
X149409Y59646D02*
Y66339D01*
X152953D01*
X149409Y59646D02*
X152953D01*
X157677Y52165D02*
Y55709D01*
X150984Y52165D02*
Y55709D01*
Y52165D02*
X157677D01*
X150984Y55709D02*
X157677D01*
X155315Y66437D02*
X158858D01*
X155315Y59744D02*
X158858D01*
Y66437D01*
X155315Y59744D02*
Y66437D01*
X83858Y68504D02*
Y72441D01*
X81890Y70472D02*
X85827D01*
X83315Y81890D02*
X87252D01*
X85283Y79921D02*
Y83858D01*
X70228Y117051D02*
X73772D01*
X72000Y115279D02*
Y118823D01*
X47547Y49500D02*
X51484D01*
X49516Y47532D02*
Y51468D01*
X48819Y93701D02*
Y97638D01*
X46850Y95669D02*
X50787D01*
X57000Y67032D02*
Y70969D01*
X55032Y69000D02*
X58969D01*
X61811Y112205D02*
Y116142D01*
X59842Y114173D02*
X63779D01*
X124409Y59449D02*
Y63386D01*
X122441Y61417D02*
X126378D01*
X200787Y99213D02*
X204724D01*
X202756Y97244D02*
Y101181D01*
X182677Y53347D02*
X186614D01*
X184646Y51378D02*
Y55315D01*
X200984Y61516D02*
X204527D01*
X202756Y59744D02*
Y63287D01*
X83315Y89764D02*
X87252D01*
X85283Y87795D02*
Y91732D01*
X149409Y62992D02*
X152953D01*
X151181Y61221D02*
Y64764D01*
X152559Y53937D02*
X156102D01*
X154331Y52165D02*
Y55709D01*
X157087Y61319D02*
Y64862D01*
X155315Y63090D02*
X158858D01*
M02*
