G04*
G04 #@! TF.GenerationSoftware,Altium Limited,Altium Designer,18.1.11 (251)*
G04*
G04 Layer_Physical_Order=1*
G04 Layer_Color=255*
%FSLAX25Y25*%
%MOIN*%
G70*
G01*
G75*
%ADD12C,0.00197*%
%ADD13C,0.00650*%
%ADD14C,0.03000*%
%ADD15C,0.00394*%
%ADD16R,0.02362X0.05512*%
%ADD17R,0.02362X0.02756*%
%ADD18R,0.02362X0.04134*%
%ADD19R,0.03937X0.05315*%
%ADD20R,0.03347X0.03543*%
%ADD21R,0.03150X0.03150*%
%ADD22R,0.10197X0.12756*%
%ADD23R,0.06496X0.21260*%
%ADD24R,0.05118X0.05709*%
%ADD25R,0.05315X0.03937*%
%ADD38C,0.02000*%
%ADD39C,0.01600*%
%ADD40C,0.03200*%
%ADD41C,0.24410*%
%ADD42C,0.06693*%
%ADD43C,0.02953*%
G36*
X253866Y2039D02*
X2039D01*
Y135756D01*
X253866D01*
Y2039D01*
D02*
G37*
%LPC*%
G36*
X240000Y134744D02*
X238006Y134587D01*
X236062Y134120D01*
X234214Y133355D01*
X232509Y132310D01*
X230989Y131011D01*
X229690Y129491D01*
X228645Y127786D01*
X227880Y125938D01*
X227413Y123994D01*
X227256Y122000D01*
X227413Y120006D01*
X227880Y118062D01*
X228645Y116214D01*
X229690Y114509D01*
X230989Y112989D01*
X232509Y111690D01*
X234214Y110645D01*
X236062Y109880D01*
X238006Y109413D01*
X240000Y109256D01*
X241994Y109413D01*
X243938Y109880D01*
X245786Y110645D01*
X247491Y111690D01*
X249011Y112989D01*
X250310Y114509D01*
X251355Y116214D01*
X252120Y118062D01*
X252587Y120006D01*
X252744Y122000D01*
X252587Y123994D01*
X252120Y125938D01*
X251355Y127786D01*
X250310Y129491D01*
X249011Y131011D01*
X247491Y132310D01*
X245786Y133355D01*
X243938Y134120D01*
X241994Y134587D01*
X240000Y134744D01*
D02*
G37*
G36*
X16000D02*
X14006Y134587D01*
X12062Y134120D01*
X10214Y133355D01*
X8509Y132310D01*
X6989Y131011D01*
X5690Y129491D01*
X4645Y127786D01*
X3880Y125938D01*
X3413Y123994D01*
X3256Y122000D01*
X3413Y120006D01*
X3880Y118062D01*
X4645Y116214D01*
X5690Y114509D01*
X6989Y112989D01*
X8509Y111690D01*
X10214Y110645D01*
X12062Y109880D01*
X14006Y109413D01*
X16000Y109256D01*
X17994Y109413D01*
X19938Y109880D01*
X21786Y110645D01*
X23491Y111690D01*
X25011Y112989D01*
X26310Y114509D01*
X27355Y116214D01*
X28120Y118062D01*
X28587Y120006D01*
X28744Y122000D01*
X28587Y123994D01*
X28120Y125938D01*
X27355Y127786D01*
X26310Y129491D01*
X25011Y131011D01*
X23491Y132310D01*
X21786Y133355D01*
X19938Y134120D01*
X17994Y134587D01*
X16000Y134744D01*
D02*
G37*
G36*
X229400Y84331D02*
Y80400D01*
X233331D01*
X233235Y81135D01*
X232797Y82192D01*
X232100Y83100D01*
X231192Y83797D01*
X230135Y84235D01*
X229400Y84331D01*
D02*
G37*
G36*
X228600D02*
X227865Y84235D01*
X226808Y83797D01*
X225900Y83100D01*
X225203Y82192D01*
X224765Y81135D01*
X224669Y80400D01*
X228600D01*
Y84331D01*
D02*
G37*
G36*
X20400Y80331D02*
Y76400D01*
X24331D01*
X24235Y77135D01*
X23797Y78192D01*
X23100Y79100D01*
X22192Y79797D01*
X21135Y80235D01*
X20400Y80331D01*
D02*
G37*
G36*
X19600D02*
X18865Y80235D01*
X17808Y79797D01*
X16900Y79100D01*
X16203Y78192D01*
X15765Y77135D01*
X15669Y76400D01*
X19600D01*
Y80331D01*
D02*
G37*
G36*
X233331Y79600D02*
X229400D01*
Y75669D01*
X230135Y75765D01*
X231192Y76203D01*
X232100Y76900D01*
X232797Y77808D01*
X233235Y78865D01*
X233331Y79600D01*
D02*
G37*
G36*
X228600D02*
X224669D01*
X224765Y78865D01*
X225203Y77808D01*
X225900Y76900D01*
X226808Y76203D01*
X227865Y75765D01*
X228600Y75669D01*
Y79600D01*
D02*
G37*
G36*
X24331Y75600D02*
X20000D01*
X15669D01*
X15765Y74865D01*
X16203Y73808D01*
X16900Y72900D01*
X17808Y72203D01*
X18200Y72041D01*
X18100Y71541D01*
X17000D01*
X17000Y71541D01*
X16617Y71383D01*
X16617Y71383D01*
X14617Y69383D01*
X14459Y69000D01*
X14459Y69000D01*
Y50000D01*
X14617Y49617D01*
X14617Y49617D01*
X18617Y45617D01*
X19000Y45459D01*
X19000Y45459D01*
X35000D01*
X35383Y45617D01*
X38383Y48617D01*
X38541Y49000D01*
X38541Y49000D01*
Y70000D01*
X38383Y70383D01*
X38383Y70383D01*
X37383Y71383D01*
X37000Y71541D01*
X37000Y71541D01*
X21900D01*
X21801Y72041D01*
X22192Y72203D01*
X23100Y72900D01*
X23797Y73808D01*
X24235Y74865D01*
X24331Y75600D01*
D02*
G37*
G36*
X229000Y73880D02*
X227996Y73747D01*
X227060Y73360D01*
X226257Y72743D01*
X225640Y71940D01*
X225386Y71325D01*
X117891D01*
X117825Y71425D01*
X117171Y71862D01*
X116400Y72015D01*
X115629Y71862D01*
X114975Y71425D01*
X114909Y71325D01*
X113224D01*
Y72272D01*
X108878D01*
Y67728D01*
X113224D01*
Y68674D01*
X114909D01*
X114975Y68575D01*
X115629Y68138D01*
X116400Y67985D01*
X117171Y68138D01*
X117825Y68575D01*
X117891Y68674D01*
X225386D01*
X225640Y68060D01*
X226257Y67257D01*
X227060Y66640D01*
X227996Y66253D01*
X229000Y66120D01*
X230004Y66253D01*
X230940Y66640D01*
X231743Y67257D01*
X232360Y68060D01*
X232747Y68996D01*
X232880Y70000D01*
X232747Y71004D01*
X232360Y71940D01*
X231743Y72743D01*
X230940Y73360D01*
X230004Y73747D01*
X229000Y73880D01*
D02*
G37*
G36*
X93860Y72697D02*
X92079D01*
Y72197D01*
X88839D01*
Y70412D01*
X85158D01*
Y71555D01*
X78843D01*
Y71228D01*
X77157D01*
Y71555D01*
X70842D01*
Y69864D01*
X70342Y69657D01*
X69383Y70617D01*
X69383Y70617D01*
X69000Y70776D01*
X69000Y70776D01*
X57000D01*
X56617Y70617D01*
X56617Y70617D01*
X55617Y69617D01*
X55459Y69235D01*
X55459Y69235D01*
Y54000D01*
X55617Y53617D01*
X55617Y53617D01*
X56617Y52617D01*
X57000Y52459D01*
X57000Y52459D01*
X58776D01*
X59459Y51776D01*
Y30891D01*
X58350D01*
X57967Y30733D01*
X57967Y30733D01*
X55617Y28383D01*
X55459Y28000D01*
X55459Y28000D01*
Y24000D01*
X55617Y23617D01*
X55617Y23617D01*
X59617Y19617D01*
X60000Y19459D01*
X60000Y19459D01*
X70000D01*
X70000Y19459D01*
X70383Y19617D01*
X74783Y24017D01*
X74941Y24400D01*
X74941Y24400D01*
Y34142D01*
X75275Y34642D01*
X75776D01*
Y39522D01*
X76237Y39714D01*
X77819Y38132D01*
Y36920D01*
X80000D01*
Y36120D01*
X77819D01*
Y34142D01*
X77438Y33854D01*
X76291D01*
Y30400D01*
X79850D01*
Y30000D01*
X80250D01*
Y26146D01*
X83409D01*
Y26646D01*
X84675D01*
Y25157D01*
X83531D01*
Y18843D01*
X88468D01*
Y25157D01*
X87326D01*
Y26646D01*
X89209D01*
Y33354D01*
X87231D01*
Y34642D01*
X87587D01*
Y36572D01*
X89898D01*
X90405Y36673D01*
X90835Y36960D01*
X92987Y39113D01*
X93275Y39543D01*
X93375Y40050D01*
Y50709D01*
X93475Y50775D01*
X93912Y51429D01*
X94065Y52200D01*
X93912Y52971D01*
X93475Y53625D01*
X93375Y53691D01*
Y54339D01*
X93375Y54339D01*
X93275Y54847D01*
X92987Y55277D01*
X92293Y55971D01*
X92201Y56433D01*
X92201D01*
Y57674D01*
X96319D01*
Y56433D01*
X99681D01*
Y61567D01*
X96319D01*
Y60325D01*
X92201D01*
Y61567D01*
X88839D01*
Y56433D01*
X89194D01*
Y55870D01*
X89295Y55362D01*
X89582Y54932D01*
X90423Y54092D01*
X90625Y53625D01*
X90188Y52971D01*
X90035Y52200D01*
X90188Y51429D01*
X90625Y50775D01*
X90724Y50709D01*
Y40599D01*
X89349Y39223D01*
X87587D01*
Y41153D01*
X84478D01*
Y50102D01*
X84478Y50102D01*
X84320Y50485D01*
X84320Y50485D01*
X81564Y53241D01*
X81181Y53399D01*
X81181Y53399D01*
X78819D01*
X78819Y53399D01*
X78436Y53241D01*
X78436Y53241D01*
X75680Y50485D01*
X75522Y50102D01*
X75522Y50102D01*
Y41685D01*
X75441Y41660D01*
X74941Y42031D01*
Y58632D01*
Y59531D01*
X77157D01*
Y64468D01*
X70884D01*
Y64950D01*
X70891Y64969D01*
Y66618D01*
X77157D01*
Y66945D01*
X78843D01*
Y66618D01*
X85158D01*
Y67761D01*
X88839D01*
Y67063D01*
X92079D01*
Y66563D01*
X93860D01*
Y69630D01*
Y72697D01*
D02*
G37*
G36*
X96441D02*
X94660D01*
Y69630D01*
Y66563D01*
X96441D01*
Y67063D01*
X99681D01*
Y68304D01*
X102776D01*
Y67728D01*
X107122D01*
Y72272D01*
X102776D01*
Y70955D01*
X99681D01*
Y72197D01*
X96441D01*
Y72697D01*
D02*
G37*
G36*
X85658Y64969D02*
X82400D01*
Y62400D01*
X85658D01*
Y64969D01*
D02*
G37*
G36*
X81600D02*
X78342D01*
Y62400D01*
X81600D01*
Y64969D01*
D02*
G37*
G36*
X85658Y61600D02*
X82400D01*
Y59031D01*
X85658D01*
Y61600D01*
D02*
G37*
G36*
X81600D02*
X78342D01*
Y59031D01*
X81600D01*
Y61600D01*
D02*
G37*
G36*
X48972Y53630D02*
X45124D01*
Y42400D01*
X48972D01*
Y53630D01*
D02*
G37*
G36*
X44324D02*
X40476D01*
Y42400D01*
X44324D01*
Y53630D01*
D02*
G37*
G36*
X48972Y41600D02*
X45124D01*
Y30370D01*
X48972D01*
Y41600D01*
D02*
G37*
G36*
X44324D02*
X40476D01*
Y30370D01*
X44324D01*
Y41600D01*
D02*
G37*
G36*
X79450Y29600D02*
X76291D01*
Y26146D01*
X79450D01*
Y29600D01*
D02*
G37*
G36*
X87575Y17575D02*
X85400D01*
Y15400D01*
X87575D01*
Y17575D01*
D02*
G37*
G36*
X84600D02*
X82425D01*
Y15400D01*
X84600D01*
Y17575D01*
D02*
G37*
G36*
X81382Y25157D02*
X76445D01*
Y18843D01*
X77588D01*
Y17075D01*
X76626D01*
Y12925D01*
X80776D01*
Y17075D01*
X80239D01*
Y18843D01*
X81382D01*
Y25157D01*
D02*
G37*
G36*
X87575Y14600D02*
X85400D01*
Y12425D01*
X87575D01*
Y14600D01*
D02*
G37*
G36*
X84600D02*
X82425D01*
Y12425D01*
X84600D01*
Y14600D01*
D02*
G37*
G36*
X240000Y28744D02*
X238006Y28587D01*
X236062Y28120D01*
X234214Y27355D01*
X232509Y26310D01*
X230989Y25011D01*
X229690Y23491D01*
X228645Y21786D01*
X227880Y19938D01*
X227413Y17994D01*
X227256Y16000D01*
X227413Y14006D01*
X227880Y12062D01*
X228645Y10214D01*
X229690Y8509D01*
X230989Y6989D01*
X232509Y5690D01*
X234214Y4645D01*
X236062Y3880D01*
X238006Y3413D01*
X240000Y3256D01*
X241994Y3413D01*
X243938Y3880D01*
X245786Y4645D01*
X247491Y5690D01*
X249011Y6989D01*
X250310Y8509D01*
X251355Y10214D01*
X252120Y12062D01*
X252587Y14006D01*
X252744Y16000D01*
X252587Y17994D01*
X252120Y19938D01*
X251355Y21786D01*
X250310Y23491D01*
X249011Y25011D01*
X247491Y26310D01*
X245786Y27355D01*
X243938Y28120D01*
X241994Y28587D01*
X240000Y28744D01*
D02*
G37*
G36*
X16000D02*
X14006Y28587D01*
X12062Y28120D01*
X10214Y27355D01*
X8509Y26310D01*
X6989Y25011D01*
X5690Y23491D01*
X4645Y21786D01*
X3880Y19938D01*
X3413Y17994D01*
X3256Y16000D01*
X3413Y14006D01*
X3880Y12062D01*
X4645Y10214D01*
X5690Y8509D01*
X6989Y6989D01*
X8509Y5690D01*
X10214Y4645D01*
X12062Y3880D01*
X14006Y3413D01*
X16000Y3256D01*
X17994Y3413D01*
X19938Y3880D01*
X21786Y4645D01*
X23491Y5690D01*
X25011Y6989D01*
X26310Y8509D01*
X27355Y10214D01*
X28120Y12062D01*
X28587Y14006D01*
X28744Y16000D01*
X28587Y17994D01*
X28120Y19938D01*
X27355Y21786D01*
X26310Y23491D01*
X25011Y25011D01*
X23491Y26310D01*
X21786Y27355D01*
X19938Y28120D01*
X17994Y28587D01*
X16000Y28744D01*
D02*
G37*
%LPD*%
G36*
X38000Y70000D02*
Y49000D01*
X35000Y46000D01*
X19000D01*
X15000Y50000D01*
Y69000D01*
X17000Y71000D01*
X37000D01*
X38000Y70000D01*
D02*
G37*
%LPC*%
G36*
X20400Y70331D02*
Y66400D01*
X24331D01*
X24235Y67135D01*
X23797Y68192D01*
X23100Y69100D01*
X22192Y69797D01*
X21135Y70235D01*
X20400Y70331D01*
D02*
G37*
G36*
X19600D02*
X18865Y70235D01*
X17808Y69797D01*
X16900Y69100D01*
X16203Y68192D01*
X15765Y67135D01*
X15669Y66400D01*
X19600D01*
Y70331D01*
D02*
G37*
G36*
X37114Y69378D02*
X31416D01*
Y62400D01*
X37114D01*
Y69378D01*
D02*
G37*
G36*
X30616D02*
X24917D01*
Y62400D01*
X30616D01*
Y69378D01*
D02*
G37*
G36*
X24331Y65600D02*
X20400D01*
Y61669D01*
X21135Y61765D01*
X22192Y62203D01*
X23100Y62900D01*
X23797Y63808D01*
X24235Y64865D01*
X24331Y65600D01*
D02*
G37*
G36*
X19600D02*
X15669D01*
X15765Y64865D01*
X16203Y63808D01*
X16900Y62900D01*
X17808Y62203D01*
X18865Y61765D01*
X19600Y61669D01*
Y65600D01*
D02*
G37*
G36*
X37114Y61600D02*
X31416D01*
Y54622D01*
X37114D01*
Y61600D01*
D02*
G37*
G36*
X30616D02*
X24917D01*
Y54622D01*
X30616D01*
Y61600D01*
D02*
G37*
%LPD*%
G36*
X70350Y68885D02*
Y64969D01*
X70342D01*
Y62400D01*
X74000D01*
Y62000D01*
X74400D01*
Y58632D01*
Y41653D01*
X71913D01*
Y39427D01*
X69248D01*
Y41600D01*
X65400D01*
Y30370D01*
X69248D01*
Y36368D01*
X71913D01*
Y34142D01*
X74400D01*
Y24400D01*
X70000Y20000D01*
X60000D01*
X56000Y24000D01*
Y28000D01*
X58350Y30350D01*
X60000D01*
Y52000D01*
X59000Y53000D01*
X57000D01*
X56000Y54000D01*
Y69235D01*
X57000Y70235D01*
X69000D01*
X70350Y68885D01*
D02*
G37*
G36*
X83937Y50102D02*
Y40653D01*
X81181Y37898D01*
X78819D01*
X76063Y40653D01*
Y50102D01*
X78819Y52858D01*
X81181D01*
X83937Y50102D01*
D02*
G37*
%LPC*%
G36*
X69083Y69378D02*
X63384D01*
Y62400D01*
X69083D01*
Y69378D01*
D02*
G37*
G36*
X62584D02*
X56886D01*
Y62400D01*
X62584D01*
Y69378D01*
D02*
G37*
G36*
X73600Y61600D02*
X70342D01*
Y59031D01*
X73600D01*
Y61600D01*
D02*
G37*
G36*
X69083D02*
X63384D01*
Y54622D01*
X69083D01*
Y61600D01*
D02*
G37*
G36*
X62584D02*
X56886D01*
Y54622D01*
X62584D01*
Y61600D01*
D02*
G37*
G36*
X69248Y53630D02*
X65400D01*
Y42400D01*
X69248D01*
Y53630D01*
D02*
G37*
G36*
X64600D02*
X60752D01*
Y42400D01*
X64600D01*
Y53630D01*
D02*
G37*
G36*
Y41600D02*
X60752D01*
Y30370D01*
X64600D01*
Y41600D01*
D02*
G37*
%LPD*%
D12*
X90039Y34157D02*
Y53843D01*
X69961Y34157D02*
Y53843D01*
X90039D01*
X69961Y34157D02*
X90039D01*
X86976Y56047D02*
Y72583D01*
X101543Y56047D02*
Y72583D01*
X86976Y56047D02*
X101543D01*
X86976Y72583D02*
X101543D01*
X75961Y18260D02*
Y25740D01*
X88953Y18260D02*
Y25740D01*
X75961D02*
X88953D01*
X75961Y18260D02*
X88953D01*
X102291Y67244D02*
X113709D01*
X102291Y72756D02*
X113709D01*
Y67244D02*
Y72756D01*
X102291Y67244D02*
Y72756D01*
X76339Y17559D02*
X87559D01*
X76142Y12441D02*
Y17559D01*
X76339Y12441D02*
X87559D01*
Y17559D01*
X24953Y54520D02*
Y69480D01*
X69047Y54520D02*
Y69480D01*
X24953D02*
X69047D01*
X24953Y54520D02*
X69047D01*
X40492Y30386D02*
Y53614D01*
X69232Y30386D02*
Y53614D01*
X40492D02*
X69232D01*
X40492Y30386D02*
X69232D01*
X76307Y26063D02*
Y33937D01*
X89693Y26063D02*
Y33937D01*
X76307D02*
X89693D01*
X76307Y26063D02*
X89693D01*
X70260Y72039D02*
X77740D01*
X70260Y59047D02*
X77740D01*
Y72039D01*
X70260Y59047D02*
Y72039D01*
X78260Y59047D02*
X85740D01*
X78260Y72039D02*
X85740D01*
X78260Y59047D02*
Y72039D01*
X85740Y59047D02*
Y72039D01*
D13*
X228200Y31200D02*
Y34699D01*
X229366Y33533D01*
X230533Y34699D01*
Y31200D01*
X231699Y34699D02*
Y31200D01*
Y32949D01*
X234031D01*
Y34699D01*
Y31200D01*
X236947D02*
Y34699D01*
X235198Y32949D01*
X237530D01*
X31650Y129750D02*
Y133249D01*
X32816Y132083D01*
X33983Y133249D01*
Y129750D01*
X35149Y133249D02*
Y129750D01*
Y131499D01*
X37481D01*
Y133249D01*
Y129750D01*
X38648Y132666D02*
X39231Y133249D01*
X40397D01*
X40980Y132666D01*
Y132083D01*
X40397Y131499D01*
X39814D01*
X40397D01*
X40980Y130916D01*
Y130333D01*
X40397Y129750D01*
X39231D01*
X38648Y130333D01*
X4200Y31200D02*
Y34699D01*
X5366Y33533D01*
X6533Y34699D01*
Y31200D01*
X7699Y34699D02*
Y31200D01*
Y32949D01*
X10031D01*
Y34699D01*
Y31200D01*
X13530D02*
X11198D01*
X13530Y33533D01*
Y34116D01*
X12947Y34699D01*
X11781D01*
X11198Y34116D01*
X219350Y129650D02*
Y133149D01*
X220516Y131983D01*
X221683Y133149D01*
Y129650D01*
X222849Y133149D02*
Y129650D01*
Y131399D01*
X225181D01*
Y133149D01*
Y129650D01*
X226348D02*
X227514D01*
X226931D01*
Y133149D01*
X226348Y132566D01*
D14*
X0Y0D02*
X255906D01*
Y137795D01*
X0D02*
X255906D01*
X0Y0D02*
Y137795D01*
D15*
X76653Y43695D02*
G03*
X76653Y43695I-1969J0D01*
G01*
X89055Y39955D02*
Y50191D01*
X70945Y39955D02*
Y50191D01*
X89055D01*
X70945Y39955D02*
X89055D01*
X88059Y61067D02*
Y67563D01*
X100461Y61067D02*
Y67563D01*
X88059Y61067D02*
X100461D01*
X88059Y67563D02*
X100461D01*
X78323Y19342D02*
Y24657D01*
X86591Y19342D02*
Y24657D01*
X78323D02*
X86591D01*
X78323Y19342D02*
X86591D01*
X104654Y68228D02*
X111346D01*
X104654Y71772D02*
X111346D01*
Y68228D02*
Y71772D01*
X104654Y68228D02*
Y71772D01*
X27315Y55701D02*
Y68299D01*
X66685Y55701D02*
Y68299D01*
X27315D02*
X66685D01*
X27315Y55701D02*
X66685D01*
X42854Y31370D02*
Y52630D01*
X66870Y31370D02*
Y52630D01*
X42854D02*
X66870D01*
X42854Y31370D02*
X66870D01*
X78669Y27146D02*
Y32854D01*
X87331Y27146D02*
Y32854D01*
X78669D02*
X87331D01*
X78669Y27146D02*
X87331D01*
X71342Y69677D02*
X76657D01*
X71342Y61409D02*
X76657D01*
Y69677D01*
X71342Y61409D02*
Y69677D01*
X79343Y61409D02*
X84658D01*
X79343Y69677D02*
X84658D01*
X79343Y61409D02*
Y69677D01*
X84658Y61409D02*
Y69677D01*
X78031Y45073D02*
X81968D01*
X80000Y43104D02*
Y47041D01*
X92291Y64315D02*
X96228D01*
X94260Y62347D02*
Y66284D01*
X80488Y22000D02*
X84425D01*
X82457Y20031D02*
Y23968D01*
X108000Y68228D02*
Y71772D01*
X106228Y70000D02*
X109772D01*
X45031Y62000D02*
X48968D01*
X47000Y60031D02*
Y63968D01*
X52894Y42000D02*
X56831D01*
X54862Y40031D02*
Y43968D01*
X81032Y30000D02*
X84969D01*
X83000Y28032D02*
Y31969D01*
X74000Y63575D02*
Y67512D01*
X72031Y65543D02*
X75968D01*
X82000Y63575D02*
Y67512D01*
X80032Y65543D02*
X83969D01*
D16*
X85905Y37898D02*
D03*
X74094D02*
D03*
D17*
X80000Y36520D02*
D03*
D18*
X98000Y59000D02*
D03*
X90520D02*
D03*
Y69630D02*
D03*
X94260D02*
D03*
X98000D02*
D03*
D19*
X78913Y22000D02*
D03*
X86000D02*
D03*
D20*
X111051Y70000D02*
D03*
X104949D02*
D03*
D21*
X85000Y15000D02*
D03*
X78701D02*
D03*
D22*
X31016Y62000D02*
D03*
X62984D02*
D03*
D23*
X44724Y42000D02*
D03*
X65000D02*
D03*
D24*
X79850Y30000D02*
D03*
X86150D02*
D03*
D25*
X74000Y69087D02*
D03*
Y62000D02*
D03*
X82000D02*
D03*
Y69087D02*
D03*
D38*
X64950Y37500D02*
X65348Y37898D01*
X74094D01*
D39*
X92050Y52200D02*
Y54339D01*
X90520Y55870D02*
X92050Y54339D01*
X90520Y55870D02*
Y59000D01*
X89898Y37898D02*
X92050Y40050D01*
Y52200D01*
X90520Y59000D02*
X98000D01*
X85905Y37898D02*
X89898D01*
X86000Y22000D02*
Y30150D01*
X111051Y70000D02*
X229000D01*
X104579Y69630D02*
X104949Y70000D01*
X98000Y69630D02*
X104579D01*
X89976Y69087D02*
X90520Y69630D01*
X82000Y69087D02*
X89976D01*
X78701Y15000D02*
X78913Y15213D01*
Y22000D01*
X85905Y30244D02*
X86000Y30150D01*
X85905Y30244D02*
Y37898D01*
X79850Y30000D02*
X80000Y30150D01*
Y36520D01*
D40*
X74000Y69087D02*
X82000D01*
D41*
X240000Y16000D02*
D03*
Y122000D02*
D03*
X16000Y16000D02*
D03*
Y122000D02*
D03*
D42*
X20000Y66000D02*
D03*
Y76000D02*
D03*
X229000Y80000D02*
D03*
Y70000D02*
D03*
D43*
X240000Y100000D02*
D03*
X250000Y80000D02*
D03*
X240000Y60000D02*
D03*
X250000Y40000D02*
D03*
X220000Y100000D02*
D03*
Y60000D02*
D03*
X230000Y40000D02*
D03*
X220000Y20000D02*
D03*
X210000Y120000D02*
D03*
X200000Y100000D02*
D03*
X210000Y80000D02*
D03*
X200000Y60000D02*
D03*
X210000Y40000D02*
D03*
X200000Y20000D02*
D03*
X190000Y120000D02*
D03*
X180000Y100000D02*
D03*
X190000Y80000D02*
D03*
X180000Y60000D02*
D03*
X190000Y40000D02*
D03*
X180000Y20000D02*
D03*
X170000Y120000D02*
D03*
X160000Y100000D02*
D03*
X170000Y80000D02*
D03*
X160000Y60000D02*
D03*
X170000Y40000D02*
D03*
X160000Y20000D02*
D03*
X150000Y120000D02*
D03*
X140000Y100000D02*
D03*
X150000Y80000D02*
D03*
X140000Y60000D02*
D03*
X150000Y40000D02*
D03*
X140000Y20000D02*
D03*
X130000Y120000D02*
D03*
X120000Y100000D02*
D03*
X130000Y80000D02*
D03*
X120000Y60000D02*
D03*
X130000Y40000D02*
D03*
X120000Y20000D02*
D03*
X110000Y120000D02*
D03*
X100000Y100000D02*
D03*
X110000Y80000D02*
D03*
Y40000D02*
D03*
X100000Y20000D02*
D03*
X90000Y120000D02*
D03*
X80000Y100000D02*
D03*
X70000Y120000D02*
D03*
X60000Y100000D02*
D03*
X70000Y80000D02*
D03*
X50000Y120000D02*
D03*
X40000Y100000D02*
D03*
X50000Y80000D02*
D03*
X40000Y20000D02*
D03*
X20000Y100000D02*
D03*
X30000Y80000D02*
D03*
Y40000D02*
D03*
X116400Y70000D02*
D03*
X92050Y52200D02*
D03*
X71000Y26000D02*
D03*
X59000D02*
D03*
X20000Y52000D02*
D03*
X32000D02*
D03*
M02*
