G04*
G04 #@! TF.GenerationSoftware,Altium Limited,Altium Designer,20.2.6 (244)*
G04*
G04 Layer_Color=8421504*
%FSLAX25Y25*%
%MOIN*%
G70*
G04*
G04 #@! TF.SameCoordinates,DEA562A4-C6CB-4A2D-AB16-88F5FE46ACB7*
G04*
G04*
G04 #@! TF.FilePolarity,Positive*
G04*
G01*
G75*
%ADD12C,0.00197*%
%ADD13C,0.00650*%
%ADD14C,0.03000*%
%ADD15C,0.00394*%
%ADD16C,0.07874*%
%ADD17R,0.02362X0.05512*%
%ADD18R,0.02362X0.02756*%
%ADD19R,0.02362X0.04134*%
%ADD20R,0.03937X0.05315*%
%ADD21R,0.03543X0.03347*%
%ADD22R,0.03150X0.03150*%
%ADD23R,0.10197X0.12756*%
%ADD24R,0.06496X0.21260*%
%ADD25R,0.05118X0.05709*%
%ADD26R,0.05315X0.03937*%
G36*
X83937Y50102D02*
Y40653D01*
X81181Y37898D01*
X78819D01*
X76063Y40653D01*
Y50102D01*
X78819Y52858D01*
X81181D01*
X83937Y50102D01*
D02*
G37*
D12*
X69961Y34157D02*
X90039D01*
X69961Y53843D02*
X90039D01*
X69961Y34157D02*
Y53843D01*
X90039Y34157D02*
Y53843D01*
X86976Y72583D02*
X101543D01*
X86976Y56047D02*
X101543D01*
Y72583D01*
X86976Y56047D02*
Y72583D01*
X75961Y18260D02*
X88953D01*
X75961Y25740D02*
X88953D01*
Y18260D02*
Y25740D01*
X75961Y18260D02*
Y25740D01*
X101969Y72363D02*
X107480D01*
X101969Y60946D02*
X107480D01*
Y72363D01*
X101969Y60946D02*
Y72363D01*
X87559Y12441D02*
Y17559D01*
X76339Y12441D02*
X87559D01*
X76142D02*
Y17559D01*
X76339D02*
X87559D01*
X24953Y54520D02*
X69047D01*
X24953Y69480D02*
X69047D01*
Y54520D02*
Y69480D01*
X24953Y54520D02*
Y69480D01*
X40492Y30386D02*
X69232D01*
X40492Y53614D02*
X69232D01*
Y30386D02*
Y53614D01*
X40492Y30386D02*
Y53614D01*
X76307Y26063D02*
X89693D01*
X76307Y33937D02*
X89693D01*
Y26063D02*
Y33937D01*
X76307Y26063D02*
Y33937D01*
X70260Y59047D02*
Y72039D01*
X77740Y59047D02*
Y72039D01*
X70260Y59047D02*
X77740D01*
X70260Y72039D02*
X77740D01*
X85740Y59047D02*
Y72039D01*
X78260Y59047D02*
Y72039D01*
X85740D01*
X78260Y59047D02*
X85740D01*
D13*
X125591Y85433D02*
Y88932D01*
X126757Y87766D01*
X127923Y88932D01*
Y85433D01*
X129089Y88932D02*
Y85433D01*
Y87182D01*
X131422D01*
Y88932D01*
Y85433D01*
X132588D02*
X133755D01*
X133171D01*
Y88932D01*
X132588Y88349D01*
X4200Y31200D02*
Y34699D01*
X5366Y33533D01*
X6533Y34699D01*
Y31200D01*
X7699Y34699D02*
Y31200D01*
Y32949D01*
X10031D01*
Y34699D01*
Y31200D01*
X13530D02*
X11198D01*
X13530Y33533D01*
Y34116D01*
X12947Y34699D01*
X11781D01*
X11198Y34116D01*
X9843Y83465D02*
Y86963D01*
X11009Y85797D01*
X12175Y86963D01*
Y83465D01*
X13341Y86963D02*
Y83465D01*
Y85214D01*
X15674D01*
Y86963D01*
Y83465D01*
X16840Y86380D02*
X17423Y86963D01*
X18590D01*
X19173Y86380D01*
Y85797D01*
X18590Y85214D01*
X18007D01*
X18590D01*
X19173Y84631D01*
Y84048D01*
X18590Y83465D01*
X17423D01*
X16840Y84048D01*
X100787Y3543D02*
Y7042D01*
X101954Y5876D01*
X103120Y7042D01*
Y3543D01*
X104286Y7042D02*
Y3543D01*
Y5293D01*
X106619D01*
Y7042D01*
Y3543D01*
X109535D02*
Y7042D01*
X107785Y5293D01*
X110118D01*
D14*
X0Y0D02*
Y118110D01*
Y0D02*
X137795D01*
Y118110D01*
X0D02*
X137795D01*
D15*
X76653Y43695D02*
G03*
X76653Y43695I-1969J0D01*
G01*
X70945Y39955D02*
X89055D01*
X70945Y50191D02*
X89055D01*
X70945Y39955D02*
Y50191D01*
X89055Y39955D02*
Y50191D01*
X88059Y67563D02*
X100461D01*
X88059Y61067D02*
X100461D01*
Y67563D01*
X88059Y61067D02*
Y67563D01*
X78323Y19342D02*
X86591D01*
X78323Y24657D02*
X86591D01*
Y19342D02*
Y24657D01*
X78323Y19342D02*
Y24657D01*
X102953Y70001D02*
X106496D01*
X102953Y63308D02*
X106496D01*
Y70001D01*
X102953Y63308D02*
Y70001D01*
X27315Y55701D02*
X66685D01*
X27315Y68299D02*
X66685D01*
Y55701D02*
Y68299D01*
X27315Y55701D02*
Y68299D01*
X42854Y31370D02*
X66870D01*
X42854Y52630D02*
X66870D01*
Y31370D02*
Y52630D01*
X42854Y31370D02*
Y52630D01*
X78669Y27146D02*
X87331D01*
X78669Y32854D02*
X87331D01*
Y27146D02*
Y32854D01*
X78669Y27146D02*
Y32854D01*
X71342Y61409D02*
Y69677D01*
X76657Y61409D02*
Y69677D01*
X71342Y61409D02*
X76657D01*
X71342Y69677D02*
X76657D01*
X84658Y61409D02*
Y69677D01*
X79343Y61409D02*
Y69677D01*
X84658D01*
X79343Y61409D02*
X84658D01*
X80000Y43104D02*
Y47041D01*
X78031Y45073D02*
X81968D01*
X94260Y62347D02*
Y66284D01*
X92291Y64315D02*
X96228D01*
X82457Y20031D02*
Y23968D01*
X80488Y22000D02*
X84425D01*
X104724Y64883D02*
Y68426D01*
X102953Y66654D02*
X106496D01*
X47000Y60031D02*
Y63968D01*
X45031Y62000D02*
X48968D01*
X54862Y40031D02*
Y43968D01*
X52894Y42000D02*
X56831D01*
X83000Y28032D02*
Y31969D01*
X81032Y30000D02*
X84969D01*
X72031Y65543D02*
X75968D01*
X74000Y63575D02*
Y67512D01*
X80032Y65543D02*
X83969D01*
X82000Y63575D02*
Y67512D01*
D16*
X98000Y51480D02*
D03*
X109449Y77165D02*
D03*
D17*
X74094Y37898D02*
D03*
X85905D02*
D03*
D18*
X80000Y36520D02*
D03*
D19*
X98000Y69630D02*
D03*
X94260D02*
D03*
X90520D02*
D03*
Y59000D02*
D03*
X98000D02*
D03*
D20*
X86000Y22000D02*
D03*
X78913D02*
D03*
D21*
X104724Y69706D02*
D03*
Y63603D02*
D03*
D22*
X78701Y15000D02*
D03*
X85000D02*
D03*
D23*
X62984Y62000D02*
D03*
X31016D02*
D03*
D24*
X65000Y42000D02*
D03*
X44724D02*
D03*
D25*
X86150Y30000D02*
D03*
X79850D02*
D03*
D26*
X74000Y62000D02*
D03*
Y69087D02*
D03*
X82000D02*
D03*
Y62000D02*
D03*
M02*
