G04*
G04 #@! TF.GenerationSoftware,Altium Limited,Altium Designer,20.2.6 (244)*
G04*
G04 Layer_Color=32896*
%FSLAX25Y25*%
%MOIN*%
G70*
G04*
G04 #@! TF.SameCoordinates,B85B110F-4335-4BA8-B73C-61F3E7A17BBE*
G04*
G04*
G04 #@! TF.FilePolarity,Positive*
G04*
G01*
G75*
%ADD12C,0.00197*%
%ADD13C,0.00650*%
%ADD14C,0.03000*%
%ADD15C,0.00394*%
G36*
X64427Y93349D02*
X63775D01*
Y94848D01*
X62026D01*
Y93349D01*
X61387D01*
Y96889D01*
X62026D01*
Y95417D01*
X63775D01*
Y96889D01*
X64427D01*
Y93349D01*
D02*
G37*
G36*
X56793D02*
X56154D01*
Y95972D01*
X54281Y93349D01*
X53642D01*
Y96889D01*
X54267D01*
Y94307D01*
X56127Y96889D01*
X56793D01*
Y93349D01*
D02*
G37*
G36*
X73088Y93349D02*
X72477D01*
Y95820D01*
X71506Y93349D01*
X70951D01*
X69979Y95820D01*
Y93349D01*
X69382D01*
Y96889D01*
X70034D01*
X71214Y94210D01*
X72394Y96889D01*
X73088D01*
Y93349D01*
D02*
G37*
G36*
X46202Y93349D02*
X45592D01*
Y95820D01*
X44620Y93349D01*
X44065D01*
X43107Y95820D01*
Y93349D01*
X42496D01*
Y96889D01*
X43149D01*
X44329Y94210D01*
X45522Y96889D01*
X46202D01*
Y93349D01*
D02*
G37*
G36*
X83040Y96319D02*
X82027D01*
Y93349D01*
X81388D01*
Y96319D01*
X80361D01*
Y96889D01*
X83040D01*
Y96319D01*
D02*
G37*
G36*
X79986Y93349D02*
X77543D01*
Y93918D01*
X79348D01*
Y94848D01*
X77668D01*
Y95431D01*
X79348D01*
Y96319D01*
X77571D01*
Y96889D01*
X79986D01*
Y93349D01*
D02*
G37*
G36*
X77238D02*
X76586D01*
X75406Y96208D01*
X74851Y94876D01*
X75573D01*
X75795Y94307D01*
X74615D01*
X74212Y93349D01*
X73504D01*
X75045Y96889D01*
X75753D01*
X77238Y93349D01*
D02*
G37*
G36*
X67522Y93349D02*
X66870D01*
Y96292D01*
X65981D01*
X65829Y96278D01*
X65732Y96236D01*
X65662Y96194D01*
X65648Y96181D01*
X65579Y96083D01*
X65551Y95986D01*
X65537Y95903D01*
Y95875D01*
Y95861D01*
X65551Y95764D01*
X65579Y95681D01*
X65648Y95542D01*
X65704Y95487D01*
X65732Y95445D01*
X65759Y95431D01*
X65773Y95417D01*
X65870Y95362D01*
X65968Y95306D01*
X66190Y95223D01*
X66287Y95195D01*
X66370Y95167D01*
X66426Y95153D01*
X66439D01*
X66342Y94584D01*
X66079Y94626D01*
X65856Y94696D01*
X65662Y94765D01*
X65509Y94834D01*
X65385Y94904D01*
X65301Y94959D01*
X65246Y95001D01*
X65232Y95015D01*
X65107Y95153D01*
X65010Y95292D01*
X64954Y95445D01*
X64899Y95584D01*
X64871Y95695D01*
X64857Y95806D01*
Y95861D01*
Y95889D01*
X64871Y96070D01*
X64899Y96222D01*
X64940Y96347D01*
X64996Y96458D01*
X65052Y96528D01*
X65093Y96597D01*
X65121Y96625D01*
X65135Y96639D01*
X65246Y96722D01*
X65371Y96777D01*
X65509Y96833D01*
X65634Y96861D01*
X65759Y96875D01*
X65856Y96889D01*
X67522D01*
Y93349D01*
D02*
G37*
G36*
X60943D02*
X60277D01*
X59111Y96208D01*
X58556Y94876D01*
X59263D01*
X59500Y94307D01*
X58320D01*
X57917Y93349D01*
X57209D01*
X58750Y96889D01*
X59458D01*
X60943Y93349D01*
D02*
G37*
G36*
X53267Y96319D02*
X52254D01*
Y93349D01*
X51588D01*
Y96319D01*
X50589D01*
Y96889D01*
X53267D01*
Y96319D01*
D02*
G37*
G36*
X48867Y96889D02*
X49145Y96833D01*
X49367Y96764D01*
X49561Y96680D01*
X49700Y96583D01*
X49811Y96514D01*
X49867Y96458D01*
X49894Y96444D01*
X50047Y96264D01*
X50144Y96056D01*
X50228Y95834D01*
X50283Y95612D01*
X50311Y95417D01*
X50325Y95265D01*
X50339Y95195D01*
Y95153D01*
Y95126D01*
Y95112D01*
X50311Y94793D01*
X50255Y94529D01*
X50172Y94293D01*
X50089Y94112D01*
X50006Y93960D01*
X49936Y93849D01*
X49881Y93793D01*
X49867Y93765D01*
X49672Y93613D01*
X49464Y93516D01*
X49256Y93432D01*
X49048Y93377D01*
X48853Y93349D01*
X48701Y93335D01*
X48645Y93321D01*
X48562D01*
X48257Y93335D01*
X47993Y93391D01*
X47771Y93460D01*
X47590Y93543D01*
X47438Y93627D01*
X47341Y93696D01*
X47271Y93752D01*
X47257Y93765D01*
X47105Y93960D01*
X46994Y94168D01*
X46924Y94390D01*
X46869Y94612D01*
X46841Y94806D01*
X46813Y94973D01*
Y95029D01*
Y95070D01*
Y95098D01*
Y95112D01*
X46827Y95431D01*
X46883Y95695D01*
X46952Y95931D01*
X47035Y96111D01*
X47118Y96264D01*
X47188Y96361D01*
X47243Y96430D01*
X47257Y96444D01*
X47438Y96597D01*
X47646Y96708D01*
X47868Y96791D01*
X48076Y96847D01*
X48270Y96875D01*
X48423Y96902D01*
X48562D01*
X48867Y96889D01*
D02*
G37*
G36*
X93159Y102302D02*
X93519Y102260D01*
X93839Y102205D01*
X93977Y102177D01*
X94102Y102149D01*
X94213Y102121D01*
X94310Y102094D01*
X94394Y102080D01*
X94449Y102066D01*
X94477Y102052D01*
X94491D01*
X94866Y101927D01*
X95213Y101774D01*
X95546Y101622D01*
X95823Y101469D01*
X95948Y101400D01*
X96073Y101330D01*
X96170Y101261D01*
X96254Y101219D01*
X96309Y101164D01*
X96365Y101136D01*
X96393Y101122D01*
X96406Y101108D01*
X96726Y100872D01*
X97031Y100608D01*
X97295Y100358D01*
X97531Y100123D01*
X97711Y99901D01*
X97794Y99817D01*
X97850Y99734D01*
X97905Y99664D01*
X97947Y99623D01*
X97961Y99595D01*
X97975Y99581D01*
X98197Y99234D01*
X98405Y98887D01*
X98558Y98554D01*
X98697Y98249D01*
X98752Y98110D01*
X98808Y97985D01*
X98835Y97874D01*
X98877Y97791D01*
X98905Y97707D01*
X98919Y97652D01*
X98932Y97624D01*
Y97610D01*
X99030Y97222D01*
X99099Y96833D01*
X99155Y96472D01*
X99182Y96153D01*
X99196Y96014D01*
Y95875D01*
X99210Y95764D01*
Y95667D01*
Y95598D01*
Y95528D01*
Y95500D01*
Y95487D01*
X99182Y95084D01*
X99127Y94709D01*
X99058Y94362D01*
X98988Y94043D01*
X98946Y93904D01*
X98919Y93779D01*
X98877Y93668D01*
X98849Y93585D01*
X98822Y93502D01*
X98808Y93446D01*
X98794Y93419D01*
Y93405D01*
X98641Y93030D01*
X98461Y92669D01*
X98280Y92350D01*
X98100Y92072D01*
X98017Y91947D01*
X97947Y91836D01*
X97878Y91739D01*
X97808Y91656D01*
X97767Y91586D01*
X97725Y91545D01*
X97711Y91517D01*
X97697Y91503D01*
Y91517D01*
X97461Y91684D01*
X97697Y92003D01*
X97919Y92322D01*
X98100Y92627D01*
X98238Y92905D01*
X98364Y93141D01*
X98405Y93252D01*
X98447Y93335D01*
X98475Y93405D01*
X98502Y93460D01*
X98516Y93488D01*
Y93502D01*
X98641Y93877D01*
X98724Y94224D01*
X98808Y94571D01*
X98849Y94876D01*
X98877Y95001D01*
X98891Y95126D01*
Y95237D01*
X98905Y95334D01*
X98919Y95403D01*
Y95459D01*
Y95487D01*
Y95500D01*
Y95875D01*
X98891Y96250D01*
X98849Y96583D01*
X98794Y96889D01*
X98766Y97027D01*
X98752Y97152D01*
X98724Y97263D01*
X98697Y97347D01*
X98683Y97430D01*
X98669Y97485D01*
X98655Y97513D01*
Y97527D01*
X98530Y97902D01*
X98377Y98249D01*
X98225Y98568D01*
X98072Y98846D01*
X98003Y98971D01*
X97933Y99082D01*
X97878Y99165D01*
X97822Y99248D01*
X97781Y99318D01*
X97753Y99359D01*
X97725Y99387D01*
Y99401D01*
X97475Y99720D01*
X97225Y99998D01*
X96975Y100261D01*
X96740Y100470D01*
X96545Y100650D01*
X96379Y100775D01*
X96323Y100830D01*
X96281Y100858D01*
X96254Y100886D01*
X96240D01*
X95907Y101094D01*
X95587Y101275D01*
X95282Y101427D01*
X95004Y101552D01*
X94755Y101649D01*
X94657Y101691D01*
X94574Y101719D01*
X94505Y101746D01*
X94449Y101760D01*
X94421Y101774D01*
X94408D01*
X94033Y101872D01*
X93672Y101941D01*
X93339Y101982D01*
X93020Y102010D01*
X92881D01*
X92756Y102024D01*
X92381D01*
X91992Y101996D01*
X91618Y101955D01*
X91271Y101885D01*
X90965Y101802D01*
X90827Y101774D01*
X90702Y101733D01*
X90591Y101705D01*
X90507Y101663D01*
X90424Y101649D01*
X90369Y101622D01*
X90341Y101608D01*
X90327D01*
X90230Y101872D01*
X90618Y102010D01*
X91007Y102121D01*
X91368Y102205D01*
X91687Y102260D01*
X91840Y102274D01*
X91965Y102302D01*
X92090D01*
X92187Y102316D01*
X92256Y102330D01*
X92770D01*
X93159Y102302D01*
D02*
G37*
G36*
X87870Y99887D02*
X87607Y99567D01*
X87384Y99248D01*
X87190Y98943D01*
X87037Y98665D01*
X86913Y98415D01*
X86857Y98318D01*
X86815Y98221D01*
X86787Y98152D01*
X86760Y98096D01*
X86746Y98068D01*
Y98054D01*
X86607Y97680D01*
X86510Y97319D01*
X86427Y96972D01*
X86371Y96666D01*
X86357Y96528D01*
X86330Y96403D01*
Y96292D01*
X86316Y96208D01*
X86302Y96125D01*
Y96070D01*
Y96042D01*
Y96028D01*
Y95639D01*
X86316Y95278D01*
X86357Y94931D01*
X86399Y94612D01*
X86427Y94473D01*
X86454Y94349D01*
X86468Y94238D01*
X86496Y94154D01*
X86510Y94071D01*
X86524Y94015D01*
X86538Y93988D01*
Y93974D01*
X86663Y93599D01*
X86815Y93238D01*
X86968Y92905D01*
X87121Y92614D01*
X87190Y92489D01*
X87260Y92378D01*
X87329Y92280D01*
X87371Y92197D01*
X87426Y92128D01*
X87454Y92086D01*
X87468Y92058D01*
X87481Y92044D01*
X87731Y91711D01*
X87995Y91420D01*
X88245Y91170D01*
X88495Y90948D01*
X88703Y90767D01*
X88786Y90698D01*
X88856Y90642D01*
X88925Y90587D01*
X88967Y90559D01*
X88994Y90545D01*
X89008Y90531D01*
X89341Y90323D01*
X89675Y90143D01*
X89994Y89990D01*
X90285Y89865D01*
X90535Y89768D01*
X90632Y89726D01*
X90729Y89699D01*
X90799Y89671D01*
X90854Y89657D01*
X90882Y89643D01*
X90896D01*
X91271Y89560D01*
X91645Y89490D01*
X91992Y89449D01*
X92298Y89435D01*
X92451Y89421D01*
X92964D01*
X93353Y89463D01*
X93727Y89518D01*
X94088Y89601D01*
X94394Y89685D01*
X94547Y89726D01*
X94671Y89768D01*
X94769Y89810D01*
X94866Y89837D01*
X94949Y89865D01*
X95004Y89893D01*
X95032Y89907D01*
X95046D01*
X95157Y89643D01*
X94713Y89477D01*
X94505Y89407D01*
X94310Y89352D01*
X94144Y89310D01*
X94019Y89282D01*
X93936Y89254D01*
X93908D01*
X93658Y89213D01*
X93436Y89185D01*
X93214Y89157D01*
X93020Y89144D01*
X92853D01*
X92728Y89130D01*
X92617D01*
X92284Y89144D01*
X92131D01*
X92006Y89157D01*
X91895Y89171D01*
X91798D01*
X91743Y89185D01*
X91729D01*
X91410Y89241D01*
X91257Y89268D01*
X91118Y89296D01*
X91007Y89324D01*
X90924Y89352D01*
X90868Y89366D01*
X90854D01*
X90452Y89490D01*
X90077Y89643D01*
X89744Y89796D01*
X89439Y89948D01*
X89314Y90018D01*
X89189Y90087D01*
X89092Y90143D01*
X89008Y90198D01*
X88939Y90254D01*
X88883Y90282D01*
X88856Y90295D01*
X88842Y90309D01*
X88509Y90559D01*
X88203Y90823D01*
X87926Y91087D01*
X87704Y91337D01*
X87509Y91545D01*
X87440Y91642D01*
X87371Y91711D01*
X87329Y91781D01*
X87287Y91822D01*
X87273Y91850D01*
X87260Y91864D01*
X87024Y92211D01*
X86829Y92558D01*
X86649Y92905D01*
X86510Y93210D01*
X86454Y93349D01*
X86413Y93474D01*
X86371Y93585D01*
X86330Y93682D01*
X86302Y93752D01*
X86288Y93821D01*
X86274Y93849D01*
Y93863D01*
X86177Y94265D01*
X86093Y94668D01*
X86052Y95043D01*
X86024Y95376D01*
X86010Y95528D01*
Y95667D01*
Y95792D01*
Y95889D01*
Y95973D01*
Y96028D01*
Y96070D01*
Y96083D01*
X86052Y96500D01*
X86121Y96889D01*
X86191Y97249D01*
X86274Y97569D01*
X86316Y97707D01*
X86357Y97832D01*
X86399Y97943D01*
X86427Y98041D01*
X86454Y98124D01*
X86482Y98179D01*
X86496Y98207D01*
Y98221D01*
X86663Y98596D01*
X86857Y98957D01*
X87037Y99262D01*
X87232Y99540D01*
X87315Y99664D01*
X87398Y99762D01*
X87468Y99859D01*
X87523Y99942D01*
X87579Y99998D01*
X87620Y100039D01*
X87634Y100067D01*
X87648Y100081D01*
X87870Y99887D01*
D02*
G37*
G36*
X86940Y102690D02*
X87384Y102330D01*
X87787Y101996D01*
X87981Y101844D01*
X88162Y101691D01*
X88314Y101566D01*
X88467Y101441D01*
X88592Y101344D01*
X88703Y101247D01*
X88786Y101177D01*
X88856Y101122D01*
X88897Y101094D01*
X88911Y101080D01*
X89355Y100719D01*
X89799Y100358D01*
X90216Y100025D01*
X90396Y99859D01*
X90577Y99720D01*
X90743Y99581D01*
X90896Y99470D01*
X91021Y99359D01*
X91132Y99262D01*
X91215Y99193D01*
X91285Y99137D01*
X91326Y99109D01*
X91340Y99095D01*
X91784Y98735D01*
X92229Y98374D01*
X92645Y98041D01*
X92825Y97888D01*
X93006Y97735D01*
X93172Y97610D01*
X93325Y97485D01*
X93450Y97388D01*
X93561Y97291D01*
X93644Y97222D01*
X93714Y97166D01*
X93755Y97138D01*
X93769Y97124D01*
X94227Y96750D01*
X94657Y96389D01*
X95074Y96056D01*
X95268Y95903D01*
X95449Y95750D01*
X95601Y95612D01*
X95754Y95500D01*
X95893Y95389D01*
X96004Y95292D01*
X96087Y95223D01*
X96157Y95167D01*
X96198Y95140D01*
X96212Y95126D01*
X95962Y95043D01*
X95712Y94959D01*
X95490Y94876D01*
X95296Y94806D01*
X95116Y94751D01*
X94991Y94709D01*
X94907Y94682D01*
X94893Y94668D01*
X94880D01*
X94630Y94585D01*
X94394Y94515D01*
X94172Y94432D01*
X93963Y94362D01*
X93797Y94307D01*
X93658Y94265D01*
X93575Y94238D01*
X93561Y94224D01*
X93547D01*
X93811Y93946D01*
X94061Y93668D01*
X94297Y93405D01*
X94519Y93183D01*
X94685Y92988D01*
X94824Y92836D01*
X94880Y92780D01*
X94921Y92738D01*
X94935Y92725D01*
X94949Y92711D01*
X95213Y92433D01*
X95463Y92155D01*
X95712Y91892D01*
X95921Y91670D01*
X96101Y91475D01*
X96240Y91323D01*
X96295Y91267D01*
X96337Y91225D01*
X96351Y91212D01*
X96365Y91198D01*
X96628Y90920D01*
X96878Y90656D01*
X97114Y90407D01*
X97322Y90184D01*
X97503Y89990D01*
X97628Y89837D01*
X97683Y89782D01*
X97725Y89740D01*
X97739Y89726D01*
X97753Y89713D01*
X98017Y89435D01*
X98266Y89171D01*
X98502Y88921D01*
X98711Y88699D01*
X98891Y88505D01*
X99016Y88352D01*
X99071Y88297D01*
X99113Y88255D01*
X99127Y88241D01*
X99141Y88227D01*
Y88213D01*
Y88200D01*
X99127Y88172D01*
X99113Y88158D01*
X98627Y88519D01*
X98169Y88866D01*
X97725Y89199D01*
X97517Y89352D01*
X97336Y89490D01*
X97156Y89629D01*
X97003Y89740D01*
X96864Y89851D01*
X96740Y89935D01*
X96642Y90004D01*
X96573Y90060D01*
X96531Y90087D01*
X96517Y90101D01*
X96032Y90462D01*
X95560Y90809D01*
X95116Y91142D01*
X94921Y91295D01*
X94727Y91434D01*
X94560Y91572D01*
X94394Y91684D01*
X94255Y91795D01*
X94144Y91878D01*
X94047Y91947D01*
X93977Y92003D01*
X93936Y92031D01*
X93922Y92044D01*
X93436Y92419D01*
X92964Y92766D01*
X92520Y93099D01*
X92312Y93252D01*
X92131Y93405D01*
X91951Y93530D01*
X91798Y93655D01*
X91659Y93752D01*
X91535Y93849D01*
X91437Y93918D01*
X91368Y93974D01*
X91326Y94002D01*
X91312Y94015D01*
X90827Y94390D01*
X90355Y94751D01*
X89911Y95084D01*
X89702Y95237D01*
X89508Y95376D01*
X89328Y95514D01*
X89175Y95626D01*
X89036Y95736D01*
X88911Y95820D01*
X88814Y95889D01*
X88745Y95945D01*
X88703Y95973D01*
X88689Y95986D01*
X88994Y96070D01*
X89286Y96153D01*
X89564Y96222D01*
X89813Y96292D01*
X90022Y96333D01*
X90105Y96361D01*
X90174Y96375D01*
X90230Y96403D01*
X90271D01*
X90299Y96417D01*
X90313D01*
X90618Y96500D01*
X90910Y96583D01*
X91174Y96653D01*
X91423Y96722D01*
X91632Y96777D01*
X91715Y96805D01*
X91784Y96819D01*
X91840Y96833D01*
X91882Y96847D01*
X91909Y96861D01*
X91923D01*
X91659Y97152D01*
X91410Y97416D01*
X91188Y97680D01*
X90979Y97916D01*
X90799Y98110D01*
X90660Y98263D01*
X90618Y98318D01*
X90577Y98360D01*
X90563Y98374D01*
X90549Y98388D01*
X90285Y98679D01*
X90035Y98957D01*
X89813Y99220D01*
X89605Y99456D01*
X89425Y99651D01*
X89286Y99803D01*
X89244Y99859D01*
X89203Y99901D01*
X89189Y99914D01*
X89175Y99928D01*
X88925Y100220D01*
X88675Y100484D01*
X88439Y100747D01*
X88245Y100983D01*
X88064Y101177D01*
X87926Y101330D01*
X87884Y101386D01*
X87842Y101427D01*
X87828Y101441D01*
X87815Y101455D01*
X87565Y101746D01*
X87315Y102010D01*
X87093Y102274D01*
X86885Y102496D01*
X86718Y102690D01*
X86579Y102843D01*
X86538Y102899D01*
X86496Y102940D01*
X86482Y102954D01*
X86468Y102968D01*
Y102996D01*
X86482Y103010D01*
Y103037D01*
X86496Y103051D01*
X86940Y102690D01*
D02*
G37*
%LPC*%
G36*
X48659Y96347D02*
X48562D01*
X48382Y96333D01*
X48215Y96292D01*
X48076Y96250D01*
X47965Y96194D01*
X47882Y96125D01*
X47826Y96083D01*
X47785Y96042D01*
X47771Y96028D01*
X47674Y95903D01*
X47604Y95764D01*
X47563Y95612D01*
X47521Y95459D01*
X47507Y95334D01*
X47493Y95223D01*
Y95153D01*
Y95140D01*
Y95126D01*
X47507Y94918D01*
X47535Y94723D01*
X47576Y94571D01*
X47632Y94446D01*
X47688Y94335D01*
X47729Y94265D01*
X47757Y94224D01*
X47771Y94210D01*
X47882Y94112D01*
X48007Y94029D01*
X48132Y93974D01*
X48270Y93946D01*
X48382Y93918D01*
X48479Y93904D01*
X48562D01*
X48756Y93918D01*
X48923Y93946D01*
X49076Y94002D01*
X49187Y94057D01*
X49284Y94112D01*
X49339Y94168D01*
X49381Y94196D01*
X49395Y94210D01*
X49478Y94335D01*
X49547Y94487D01*
X49589Y94640D01*
X49631Y94779D01*
X49645Y94918D01*
X49659Y95029D01*
Y95098D01*
Y95126D01*
X49645Y95334D01*
X49617Y95514D01*
X49575Y95667D01*
X49520Y95806D01*
X49478Y95903D01*
X49437Y95972D01*
X49409Y96014D01*
X49395Y96028D01*
X49284Y96139D01*
X49145Y96208D01*
X49006Y96264D01*
X48867Y96306D01*
X48756Y96333D01*
X48659Y96347D01*
D02*
G37*
%LPD*%
D12*
X69961Y34157D02*
X90039D01*
X69961Y53843D02*
X90039D01*
X69961Y34157D02*
Y53843D01*
X90039Y34157D02*
Y53843D01*
X86976Y72583D02*
X101543D01*
X86976Y56047D02*
X101543D01*
Y72583D01*
X86976Y56047D02*
Y72583D01*
X75961Y18260D02*
X88953D01*
X75961Y25740D02*
X88953D01*
Y18260D02*
Y25740D01*
X75961Y18260D02*
Y25740D01*
X102291Y67244D02*
Y72756D01*
X113709Y67244D02*
Y72756D01*
X102291D02*
X113709D01*
X102291Y67244D02*
X113709D01*
X87559Y12441D02*
Y17559D01*
X76339Y12441D02*
X87559D01*
X76142D02*
Y17559D01*
X76339D02*
X87559D01*
X24953Y54520D02*
X69047D01*
X24953Y69480D02*
X69047D01*
Y54520D02*
Y69480D01*
X24953Y54520D02*
Y69480D01*
X40492Y30386D02*
X69232D01*
X40492Y53614D02*
X69232D01*
Y30386D02*
Y53614D01*
X40492Y30386D02*
Y53614D01*
X76307Y26063D02*
X89693D01*
X76307Y33937D02*
X89693D01*
Y26063D02*
Y33937D01*
X76307Y26063D02*
Y33937D01*
X70260Y59047D02*
Y72039D01*
X77740Y59047D02*
Y72039D01*
X70260Y59047D02*
X77740D01*
X70260Y72039D02*
X77740D01*
X85740Y59047D02*
Y72039D01*
X78260Y59047D02*
Y72039D01*
X85740D01*
X78260Y59047D02*
X85740D01*
D13*
X75722Y87288D02*
X77055Y90787D01*
X78388Y87288D01*
X77888Y88454D02*
X76222D01*
X74905Y90787D02*
Y87288D01*
X74172Y90787D02*
Y87288D01*
X72173D01*
X69040Y90787D02*
Y87288D01*
Y90787D02*
X67540D01*
X67040Y90621D01*
X66874Y90454D01*
X66707Y90121D01*
Y89787D01*
X66874Y89454D01*
X67040Y89288D01*
X67540Y89121D01*
X69040D01*
X67874D02*
X66707Y87288D01*
X63758Y90787D02*
X65924D01*
Y87288D01*
X63758D01*
X65924Y89121D02*
X64591D01*
X63174Y90787D02*
X61841Y87288D01*
X60508Y90787D02*
X61841Y87288D01*
X57142Y89954D02*
Y90121D01*
X56976Y90454D01*
X56809Y90621D01*
X56476Y90787D01*
X55809D01*
X55476Y90621D01*
X55309Y90454D01*
X55143Y90121D01*
Y89787D01*
X55309Y89454D01*
X55643Y88954D01*
X57309Y87288D01*
X54976D01*
X114094Y66767D02*
Y63268D01*
Y65017D01*
X111762D01*
Y66767D01*
Y63268D01*
X110596Y66767D02*
X109429D01*
X110012D01*
Y63268D01*
X110596D01*
X109429D01*
X105347Y66183D02*
X105930Y66767D01*
X107097D01*
X107680Y66183D01*
Y63851D01*
X107097Y63268D01*
X105930D01*
X105347Y63851D01*
Y65017D01*
X106514D01*
X104181Y66767D02*
Y63268D01*
Y65017D01*
X101848D01*
Y66767D01*
Y63268D01*
X100682Y62685D02*
X98350D01*
X95434Y66767D02*
X96600D01*
X97183Y66183D01*
Y63851D01*
X96600Y63268D01*
X95434D01*
X94851Y63851D01*
Y66183D01*
X95434Y66767D01*
X93684D02*
Y63851D01*
X93101Y63268D01*
X91935D01*
X91352Y63851D01*
Y66767D01*
X90186D02*
X87853D01*
X89019D01*
Y63268D01*
X113938Y55979D02*
Y52480D01*
Y54230D01*
X111606D01*
Y55979D01*
Y52480D01*
X110439Y55979D02*
Y53647D01*
X109273Y52480D01*
X108107Y53647D01*
Y55979D01*
X106941Y51897D02*
X104608D01*
X101109Y55396D02*
X101692Y55979D01*
X102858D01*
X103442Y55396D01*
Y53063D01*
X102858Y52480D01*
X101692D01*
X101109Y53063D01*
Y54230D01*
X102275D01*
X99943Y52480D02*
Y55979D01*
X97610Y52480D01*
Y55979D01*
X96444D02*
Y52480D01*
X94695D01*
X94111Y53063D01*
Y55396D01*
X94695Y55979D01*
X96444D01*
X36968Y66019D02*
Y62520D01*
X35219D01*
X34636Y63103D01*
Y65435D01*
X35219Y66019D01*
X36968D01*
X33470Y64269D02*
X31137D01*
X32303Y65435D02*
Y63103D01*
X29971Y66019D02*
Y62520D01*
Y64269D01*
X27638D01*
Y66019D01*
Y62520D01*
X26472Y66019D02*
Y63686D01*
X25306Y62520D01*
X24139Y63686D01*
Y66019D01*
X44252Y56058D02*
Y52559D01*
Y54308D01*
X41919D01*
Y56058D01*
Y52559D01*
X40753Y56058D02*
Y53725D01*
X39587Y52559D01*
X38421Y53725D01*
Y56058D01*
X37254Y51976D02*
X34922D01*
X31423Y55475D02*
X32006Y56058D01*
X33172D01*
X33755Y55475D01*
Y53142D01*
X33172Y52559D01*
X32006D01*
X31423Y53142D01*
Y54308D01*
X32589D01*
X30257Y52559D02*
Y56058D01*
X27924Y52559D01*
Y56058D01*
X26758D02*
Y52559D01*
X25008D01*
X24425Y53142D01*
Y55475D01*
X25008Y56058D01*
X26758D01*
X101699Y110011D02*
Y113510D01*
X102866Y112344D01*
X104032Y113510D01*
Y110011D01*
X105198Y113510D02*
Y110011D01*
Y111760D01*
X107531D01*
Y113510D01*
Y110011D01*
X108697D02*
X109863D01*
X109280D01*
Y113510D01*
X108697Y112927D01*
X4200Y31200D02*
Y34699D01*
X5366Y33533D01*
X6533Y34699D01*
Y31200D01*
X7699Y34699D02*
Y31200D01*
Y32949D01*
X10031D01*
Y34699D01*
Y31200D01*
X13530D02*
X11198D01*
X13530Y33533D01*
Y34116D01*
X12947Y34699D01*
X11781D01*
X11198Y34116D01*
X31661Y111609D02*
Y115108D01*
X32828Y113942D01*
X33994Y115108D01*
Y111609D01*
X35160Y115108D02*
Y111609D01*
Y113358D01*
X37493D01*
Y115108D01*
Y111609D01*
X38659Y114525D02*
X39242Y115108D01*
X40409D01*
X40992Y114525D01*
Y113942D01*
X40409Y113358D01*
X39825D01*
X40409D01*
X40992Y112775D01*
Y112192D01*
X40409Y111609D01*
X39242D01*
X38659Y112192D01*
X95801Y5382D02*
Y8881D01*
X96967Y7715D01*
X98133Y8881D01*
Y5382D01*
X99300Y8881D02*
Y5382D01*
Y7131D01*
X101632D01*
Y8881D01*
Y5382D01*
X104548D02*
Y8881D01*
X102798Y7131D01*
X105131D01*
D14*
X0Y118110D02*
X0Y118110D01*
X137795D01*
Y0D02*
Y118110D01*
X137795Y0D02*
X137795Y0D01*
X0Y0D02*
X137795D01*
X0D02*
Y118110D01*
D15*
X76653Y43695D02*
G03*
X76653Y43695I-1969J0D01*
G01*
X70945Y39955D02*
X89055D01*
X70945Y50191D02*
X89055D01*
X70945Y39955D02*
Y50191D01*
X89055Y39955D02*
Y50191D01*
X88059Y67563D02*
X100461D01*
X88059Y61067D02*
X100461D01*
Y67563D01*
X88059Y61067D02*
Y67563D01*
X78323Y19342D02*
X86591D01*
X78323Y24657D02*
X86591D01*
Y19342D02*
Y24657D01*
X78323Y19342D02*
Y24657D01*
X104654Y68228D02*
Y71772D01*
X111346Y68228D02*
Y71772D01*
X104654D02*
X111346D01*
X104654Y68228D02*
X111346D01*
X27315Y55701D02*
X66685D01*
X27315Y68299D02*
X66685D01*
Y55701D02*
Y68299D01*
X27315Y55701D02*
Y68299D01*
X42854Y31370D02*
X66870D01*
X42854Y52630D02*
X66870D01*
Y31370D02*
Y52630D01*
X42854Y31370D02*
Y52630D01*
X78669Y27146D02*
X87331D01*
X78669Y32854D02*
X87331D01*
Y27146D02*
Y32854D01*
X78669Y27146D02*
Y32854D01*
X71342Y61409D02*
Y69677D01*
X76657Y61409D02*
Y69677D01*
X71342Y61409D02*
X76657D01*
X71342Y69677D02*
X76657D01*
X84658Y61409D02*
Y69677D01*
X79343Y61409D02*
Y69677D01*
X84658D01*
X79343Y61409D02*
X84658D01*
X80000Y43104D02*
Y47041D01*
X78031Y45073D02*
X81968D01*
X94260Y62347D02*
Y66284D01*
X92291Y64315D02*
X96228D01*
X82457Y20031D02*
Y23968D01*
X80488Y22000D02*
X84425D01*
X106228Y70000D02*
X109772D01*
X108000Y68228D02*
Y71772D01*
X47000Y60031D02*
Y63968D01*
X45031Y62000D02*
X48968D01*
X54862Y40031D02*
Y43968D01*
X52894Y42000D02*
X56831D01*
X83000Y28032D02*
Y31969D01*
X81032Y30000D02*
X84969D01*
X72031Y65543D02*
X75968D01*
X74000Y63575D02*
Y67512D01*
X80032Y65543D02*
X83969D01*
X82000Y63575D02*
Y67512D01*
M02*
