G04*
G04 #@! TF.GenerationSoftware,Altium Limited,Altium Designer,20.2.6 (244)*
G04*
G04 Layer_Color=32896*
%FSLAX25Y25*%
%MOIN*%
G70*
G04*
G04 #@! TF.SameCoordinates,D2B08C20-CCF6-46F9-8439-8C202572E0AB*
G04*
G04*
G04 #@! TF.FilePolarity,Positive*
G04*
G01*
G75*
%ADD13C,0.00650*%
G36*
X60290Y100200D02*
X59638D01*
Y101699D01*
X57889D01*
Y100200D01*
X57250D01*
Y103739D01*
X57889D01*
Y102268D01*
X59638D01*
Y103739D01*
X60290D01*
Y100200D01*
D02*
G37*
G36*
X52656D02*
X52018D01*
Y102823D01*
X50144Y100200D01*
X49505D01*
Y103739D01*
X50130D01*
Y101157D01*
X51990Y103739D01*
X52656D01*
Y100200D01*
D02*
G37*
G36*
X68951Y100200D02*
X68340D01*
Y102670D01*
X67369Y100200D01*
X66814D01*
X65842Y102670D01*
Y100200D01*
X65245D01*
Y103739D01*
X65898D01*
X67077Y101060D01*
X68257Y103739D01*
X68951D01*
Y100200D01*
D02*
G37*
G36*
X42066Y100200D02*
X41455D01*
Y102670D01*
X40483Y100200D01*
X39928D01*
X38971Y102670D01*
Y100200D01*
X38360D01*
Y103739D01*
X39012D01*
X40192Y101060D01*
X41386Y103739D01*
X42066D01*
Y100200D01*
D02*
G37*
G36*
X78903Y103170D02*
X77890D01*
Y100200D01*
X77251D01*
Y103170D01*
X76224D01*
Y103739D01*
X78903D01*
Y103170D01*
D02*
G37*
G36*
X75850Y100200D02*
X73407D01*
Y100769D01*
X75211D01*
Y101699D01*
X73532D01*
Y102282D01*
X75211D01*
Y103170D01*
X73435D01*
Y103739D01*
X75850D01*
Y100200D01*
D02*
G37*
G36*
X73101D02*
X72449D01*
X71269Y103059D01*
X70714Y101726D01*
X71436D01*
X71658Y101157D01*
X70478D01*
X70076Y100200D01*
X69368D01*
X70908Y103739D01*
X71616D01*
X73101Y100200D01*
D02*
G37*
G36*
X63385Y100200D02*
X62733D01*
Y103142D01*
X61845D01*
X61692Y103128D01*
X61595Y103087D01*
X61525Y103045D01*
X61512Y103031D01*
X61442Y102934D01*
X61414Y102837D01*
X61401Y102754D01*
Y102726D01*
Y102712D01*
X61414Y102615D01*
X61442Y102532D01*
X61512Y102393D01*
X61567Y102337D01*
X61595Y102296D01*
X61623Y102282D01*
X61637Y102268D01*
X61734Y102212D01*
X61831Y102157D01*
X62053Y102074D01*
X62150Y102046D01*
X62233Y102018D01*
X62289Y102004D01*
X62303D01*
X62206Y101435D01*
X61942Y101477D01*
X61720Y101546D01*
X61525Y101616D01*
X61373Y101685D01*
X61248Y101754D01*
X61165Y101810D01*
X61109Y101851D01*
X61095Y101865D01*
X60970Y102004D01*
X60873Y102143D01*
X60818Y102296D01*
X60762Y102434D01*
X60734Y102545D01*
X60720Y102656D01*
Y102712D01*
Y102740D01*
X60734Y102920D01*
X60762Y103073D01*
X60804Y103198D01*
X60859Y103309D01*
X60915Y103378D01*
X60956Y103448D01*
X60984Y103475D01*
X60998Y103489D01*
X61109Y103573D01*
X61234Y103628D01*
X61373Y103684D01*
X61498Y103711D01*
X61623Y103725D01*
X61720Y103739D01*
X63385D01*
Y100200D01*
D02*
G37*
G36*
X56806D02*
X56140D01*
X54974Y103059D01*
X54419Y101726D01*
X55127D01*
X55363Y101157D01*
X54183D01*
X53780Y100200D01*
X53073D01*
X54613Y103739D01*
X55321D01*
X56806Y100200D01*
D02*
G37*
G36*
X49131Y103170D02*
X48117D01*
Y100200D01*
X47451D01*
Y103170D01*
X46452D01*
Y103739D01*
X49131D01*
Y103170D01*
D02*
G37*
G36*
X44731Y103739D02*
X45008Y103684D01*
X45230Y103614D01*
X45425Y103531D01*
X45564Y103434D01*
X45674Y103364D01*
X45730Y103309D01*
X45758Y103295D01*
X45911Y103114D01*
X46008Y102906D01*
X46091Y102684D01*
X46146Y102462D01*
X46174Y102268D01*
X46188Y102115D01*
X46202Y102046D01*
Y102004D01*
Y101976D01*
Y101962D01*
X46174Y101643D01*
X46119Y101380D01*
X46035Y101144D01*
X45952Y100963D01*
X45869Y100811D01*
X45799Y100699D01*
X45744Y100644D01*
X45730Y100616D01*
X45536Y100463D01*
X45327Y100366D01*
X45119Y100283D01*
X44911Y100227D01*
X44717Y100200D01*
X44564Y100186D01*
X44509Y100172D01*
X44425D01*
X44120Y100186D01*
X43856Y100241D01*
X43634Y100311D01*
X43454Y100394D01*
X43301Y100477D01*
X43204Y100547D01*
X43134Y100602D01*
X43121Y100616D01*
X42968Y100811D01*
X42857Y101019D01*
X42788Y101241D01*
X42732Y101463D01*
X42704Y101657D01*
X42676Y101824D01*
Y101879D01*
Y101921D01*
Y101949D01*
Y101962D01*
X42690Y102282D01*
X42746Y102545D01*
X42815Y102781D01*
X42898Y102962D01*
X42982Y103114D01*
X43051Y103212D01*
X43107Y103281D01*
X43121Y103295D01*
X43301Y103448D01*
X43509Y103559D01*
X43731Y103642D01*
X43940Y103698D01*
X44134Y103725D01*
X44287Y103753D01*
X44425D01*
X44731Y103739D01*
D02*
G37*
G36*
X89022Y109152D02*
X89383Y109111D01*
X89702Y109055D01*
X89841Y109027D01*
X89966Y109000D01*
X90077Y108972D01*
X90174Y108944D01*
X90257Y108930D01*
X90313Y108916D01*
X90340Y108903D01*
X90354D01*
X90729Y108778D01*
X91076Y108625D01*
X91409Y108472D01*
X91687Y108319D01*
X91812Y108250D01*
X91936Y108181D01*
X92034Y108111D01*
X92117Y108070D01*
X92172Y108014D01*
X92228Y107986D01*
X92256Y107973D01*
X92270Y107959D01*
X92589Y107723D01*
X92894Y107459D01*
X93158Y107209D01*
X93394Y106973D01*
X93574Y106751D01*
X93658Y106668D01*
X93713Y106585D01*
X93769Y106515D01*
X93810Y106474D01*
X93824Y106446D01*
X93838Y106432D01*
X94060Y106085D01*
X94268Y105738D01*
X94421Y105405D01*
X94560Y105099D01*
X94615Y104961D01*
X94671Y104836D01*
X94699Y104725D01*
X94740Y104641D01*
X94768Y104558D01*
X94782Y104502D01*
X94796Y104475D01*
Y104461D01*
X94893Y104072D01*
X94962Y103684D01*
X95018Y103323D01*
X95046Y103004D01*
X95060Y102865D01*
Y102726D01*
X95073Y102615D01*
Y102518D01*
Y102448D01*
Y102379D01*
Y102351D01*
Y102337D01*
X95046Y101935D01*
X94990Y101560D01*
X94921Y101213D01*
X94851Y100894D01*
X94810Y100755D01*
X94782Y100630D01*
X94740Y100519D01*
X94713Y100436D01*
X94685Y100352D01*
X94671Y100297D01*
X94657Y100269D01*
Y100255D01*
X94504Y99880D01*
X94324Y99520D01*
X94143Y99200D01*
X93963Y98923D01*
X93880Y98798D01*
X93810Y98687D01*
X93741Y98590D01*
X93672Y98506D01*
X93630Y98437D01*
X93588Y98395D01*
X93574Y98368D01*
X93560Y98354D01*
Y98368D01*
X93325Y98534D01*
X93560Y98853D01*
X93783Y99173D01*
X93963Y99478D01*
X94102Y99756D01*
X94227Y99992D01*
X94268Y100103D01*
X94310Y100186D01*
X94338Y100255D01*
X94366Y100311D01*
X94379Y100338D01*
Y100352D01*
X94504Y100727D01*
X94588Y101074D01*
X94671Y101421D01*
X94713Y101726D01*
X94740Y101851D01*
X94754Y101976D01*
Y102087D01*
X94768Y102185D01*
X94782Y102254D01*
Y102310D01*
Y102337D01*
Y102351D01*
Y102726D01*
X94754Y103101D01*
X94713Y103434D01*
X94657Y103739D01*
X94629Y103878D01*
X94615Y104003D01*
X94588Y104114D01*
X94560Y104197D01*
X94546Y104280D01*
X94532Y104336D01*
X94518Y104364D01*
Y104378D01*
X94393Y104752D01*
X94241Y105099D01*
X94088Y105419D01*
X93935Y105696D01*
X93866Y105821D01*
X93796Y105932D01*
X93741Y106016D01*
X93685Y106099D01*
X93644Y106168D01*
X93616Y106210D01*
X93588Y106237D01*
Y106251D01*
X93338Y106571D01*
X93089Y106848D01*
X92839Y107112D01*
X92603Y107320D01*
X92409Y107501D01*
X92242Y107625D01*
X92186Y107681D01*
X92145Y107709D01*
X92117Y107737D01*
X92103D01*
X91770Y107945D01*
X91451Y108125D01*
X91145Y108278D01*
X90868Y108403D01*
X90618Y108500D01*
X90521Y108542D01*
X90438Y108569D01*
X90368Y108597D01*
X90313Y108611D01*
X90285Y108625D01*
X90271D01*
X89896Y108722D01*
X89535Y108791D01*
X89202Y108833D01*
X88883Y108861D01*
X88744D01*
X88619Y108875D01*
X88244D01*
X87856Y108847D01*
X87481Y108805D01*
X87134Y108736D01*
X86829Y108653D01*
X86690Y108625D01*
X86565Y108583D01*
X86454Y108555D01*
X86371Y108514D01*
X86287Y108500D01*
X86232Y108472D01*
X86204Y108458D01*
X86190D01*
X86093Y108722D01*
X86482Y108861D01*
X86870Y108972D01*
X87231Y109055D01*
X87550Y109111D01*
X87703Y109125D01*
X87828Y109152D01*
X87953D01*
X88050Y109166D01*
X88120Y109180D01*
X88633D01*
X89022Y109152D01*
D02*
G37*
G36*
X83733Y106737D02*
X83470Y106418D01*
X83248Y106099D01*
X83053Y105793D01*
X82901Y105516D01*
X82776Y105266D01*
X82720Y105169D01*
X82679Y105072D01*
X82651Y105002D01*
X82623Y104947D01*
X82609Y104919D01*
Y104905D01*
X82470Y104530D01*
X82373Y104169D01*
X82290Y103822D01*
X82234Y103517D01*
X82221Y103378D01*
X82193Y103253D01*
Y103142D01*
X82179Y103059D01*
X82165Y102976D01*
Y102920D01*
Y102892D01*
Y102879D01*
Y102490D01*
X82179Y102129D01*
X82221Y101782D01*
X82262Y101463D01*
X82290Y101324D01*
X82318Y101199D01*
X82332Y101088D01*
X82359Y101005D01*
X82373Y100921D01*
X82387Y100866D01*
X82401Y100838D01*
Y100824D01*
X82526Y100450D01*
X82679Y100089D01*
X82831Y99756D01*
X82984Y99464D01*
X83053Y99339D01*
X83123Y99228D01*
X83192Y99131D01*
X83234Y99048D01*
X83289Y98978D01*
X83317Y98937D01*
X83331Y98909D01*
X83345Y98895D01*
X83595Y98562D01*
X83858Y98270D01*
X84108Y98021D01*
X84358Y97799D01*
X84566Y97618D01*
X84649Y97549D01*
X84719Y97493D01*
X84788Y97438D01*
X84830Y97410D01*
X84858Y97396D01*
X84872Y97382D01*
X85205Y97174D01*
X85538Y96993D01*
X85857Y96841D01*
X86149Y96716D01*
X86398Y96619D01*
X86496Y96577D01*
X86593Y96549D01*
X86662Y96522D01*
X86718Y96508D01*
X86745Y96494D01*
X86759D01*
X87134Y96411D01*
X87509Y96341D01*
X87856Y96299D01*
X88161Y96286D01*
X88314Y96272D01*
X88827D01*
X89216Y96313D01*
X89591Y96369D01*
X89952Y96452D01*
X90257Y96535D01*
X90410Y96577D01*
X90535Y96619D01*
X90632Y96660D01*
X90729Y96688D01*
X90812Y96716D01*
X90868Y96744D01*
X90895Y96758D01*
X90909D01*
X91021Y96494D01*
X90576Y96327D01*
X90368Y96258D01*
X90174Y96202D01*
X90007Y96161D01*
X89882Y96133D01*
X89799Y96105D01*
X89771D01*
X89521Y96064D01*
X89299Y96036D01*
X89077Y96008D01*
X88883Y95994D01*
X88716D01*
X88591Y95980D01*
X88480D01*
X88147Y95994D01*
X87995D01*
X87870Y96008D01*
X87759Y96022D01*
X87661D01*
X87606Y96036D01*
X87592D01*
X87273Y96091D01*
X87120Y96119D01*
X86981Y96147D01*
X86870Y96175D01*
X86787Y96202D01*
X86731Y96216D01*
X86718D01*
X86315Y96341D01*
X85940Y96494D01*
X85607Y96646D01*
X85302Y96799D01*
X85177Y96868D01*
X85052Y96938D01*
X84955Y96993D01*
X84872Y97049D01*
X84802Y97105D01*
X84747Y97132D01*
X84719Y97146D01*
X84705Y97160D01*
X84372Y97410D01*
X84067Y97674D01*
X83789Y97937D01*
X83567Y98187D01*
X83373Y98395D01*
X83303Y98492D01*
X83234Y98562D01*
X83192Y98631D01*
X83151Y98673D01*
X83137Y98701D01*
X83123Y98715D01*
X82887Y99062D01*
X82692Y99409D01*
X82512Y99756D01*
X82373Y100061D01*
X82318Y100200D01*
X82276Y100325D01*
X82234Y100436D01*
X82193Y100533D01*
X82165Y100602D01*
X82151Y100672D01*
X82137Y100699D01*
Y100713D01*
X82040Y101116D01*
X81957Y101518D01*
X81915Y101893D01*
X81887Y102226D01*
X81874Y102379D01*
Y102518D01*
Y102643D01*
Y102740D01*
Y102823D01*
Y102879D01*
Y102920D01*
Y102934D01*
X81915Y103350D01*
X81985Y103739D01*
X82054Y104100D01*
X82137Y104419D01*
X82179Y104558D01*
X82221Y104683D01*
X82262Y104794D01*
X82290Y104891D01*
X82318Y104974D01*
X82345Y105030D01*
X82359Y105058D01*
Y105072D01*
X82526Y105446D01*
X82720Y105807D01*
X82901Y106113D01*
X83095Y106390D01*
X83178Y106515D01*
X83262Y106612D01*
X83331Y106710D01*
X83386Y106793D01*
X83442Y106848D01*
X83484Y106890D01*
X83498Y106918D01*
X83511Y106931D01*
X83733Y106737D01*
D02*
G37*
G36*
X82803Y109541D02*
X83248Y109180D01*
X83650Y108847D01*
X83845Y108694D01*
X84025Y108542D01*
X84178Y108417D01*
X84330Y108292D01*
X84455Y108195D01*
X84566Y108098D01*
X84649Y108028D01*
X84719Y107973D01*
X84761Y107945D01*
X84775Y107931D01*
X85219Y107570D01*
X85663Y107209D01*
X86079Y106876D01*
X86260Y106710D01*
X86440Y106571D01*
X86607Y106432D01*
X86759Y106321D01*
X86884Y106210D01*
X86995Y106113D01*
X87078Y106043D01*
X87148Y105988D01*
X87190Y105960D01*
X87204Y105946D01*
X87648Y105585D01*
X88092Y105224D01*
X88508Y104891D01*
X88689Y104738D01*
X88869Y104586D01*
X89036Y104461D01*
X89188Y104336D01*
X89313Y104239D01*
X89424Y104142D01*
X89508Y104072D01*
X89577Y104017D01*
X89619Y103989D01*
X89632Y103975D01*
X90091Y103600D01*
X90521Y103240D01*
X90937Y102906D01*
X91132Y102754D01*
X91312Y102601D01*
X91465Y102462D01*
X91617Y102351D01*
X91756Y102240D01*
X91867Y102143D01*
X91950Y102074D01*
X92020Y102018D01*
X92062Y101990D01*
X92075Y101976D01*
X91825Y101893D01*
X91576Y101810D01*
X91354Y101726D01*
X91159Y101657D01*
X90979Y101602D01*
X90854Y101560D01*
X90771Y101532D01*
X90757Y101518D01*
X90743D01*
X90493Y101435D01*
X90257Y101366D01*
X90035Y101282D01*
X89827Y101213D01*
X89660Y101157D01*
X89521Y101116D01*
X89438Y101088D01*
X89424Y101074D01*
X89410D01*
X89674Y100797D01*
X89924Y100519D01*
X90160Y100255D01*
X90382Y100033D01*
X90548Y99839D01*
X90687Y99686D01*
X90743Y99631D01*
X90785Y99589D01*
X90798Y99575D01*
X90812Y99561D01*
X91076Y99284D01*
X91326Y99006D01*
X91576Y98742D01*
X91784Y98520D01*
X91964Y98326D01*
X92103Y98173D01*
X92159Y98118D01*
X92200Y98076D01*
X92214Y98062D01*
X92228Y98048D01*
X92492Y97771D01*
X92742Y97507D01*
X92977Y97257D01*
X93186Y97035D01*
X93366Y96841D01*
X93491Y96688D01*
X93547Y96633D01*
X93588Y96591D01*
X93602Y96577D01*
X93616Y96563D01*
X93880Y96286D01*
X94130Y96022D01*
X94366Y95772D01*
X94574Y95550D01*
X94754Y95356D01*
X94879Y95203D01*
X94935Y95147D01*
X94976Y95106D01*
X94990Y95092D01*
X95004Y95078D01*
Y95064D01*
Y95050D01*
X94990Y95022D01*
X94976Y95009D01*
X94490Y95369D01*
X94032Y95717D01*
X93588Y96050D01*
X93380Y96202D01*
X93200Y96341D01*
X93019Y96480D01*
X92866Y96591D01*
X92728Y96702D01*
X92603Y96785D01*
X92506Y96855D01*
X92436Y96910D01*
X92395Y96938D01*
X92381Y96952D01*
X91895Y97313D01*
X91423Y97660D01*
X90979Y97993D01*
X90785Y98146D01*
X90590Y98284D01*
X90424Y98423D01*
X90257Y98534D01*
X90118Y98645D01*
X90007Y98729D01*
X89910Y98798D01*
X89841Y98853D01*
X89799Y98881D01*
X89785Y98895D01*
X89299Y99270D01*
X88827Y99617D01*
X88383Y99950D01*
X88175Y100103D01*
X87995Y100255D01*
X87814Y100380D01*
X87661Y100505D01*
X87523Y100602D01*
X87398Y100699D01*
X87301Y100769D01*
X87231Y100824D01*
X87190Y100852D01*
X87176Y100866D01*
X86690Y101241D01*
X86218Y101602D01*
X85774Y101935D01*
X85566Y102087D01*
X85371Y102226D01*
X85191Y102365D01*
X85038Y102476D01*
X84899Y102587D01*
X84775Y102670D01*
X84677Y102740D01*
X84608Y102795D01*
X84566Y102823D01*
X84552Y102837D01*
X84858Y102920D01*
X85149Y103004D01*
X85427Y103073D01*
X85677Y103142D01*
X85885Y103184D01*
X85968Y103212D01*
X86037Y103226D01*
X86093Y103253D01*
X86135D01*
X86163Y103267D01*
X86176D01*
X86482Y103350D01*
X86773Y103434D01*
X87037Y103503D01*
X87287Y103573D01*
X87495Y103628D01*
X87578Y103656D01*
X87648Y103670D01*
X87703Y103684D01*
X87745Y103698D01*
X87773Y103711D01*
X87786D01*
X87523Y104003D01*
X87273Y104267D01*
X87051Y104530D01*
X86843Y104766D01*
X86662Y104961D01*
X86523Y105113D01*
X86482Y105169D01*
X86440Y105210D01*
X86426Y105224D01*
X86412Y105238D01*
X86149Y105530D01*
X85899Y105807D01*
X85677Y106071D01*
X85469Y106307D01*
X85288Y106501D01*
X85149Y106654D01*
X85108Y106710D01*
X85066Y106751D01*
X85052Y106765D01*
X85038Y106779D01*
X84788Y107070D01*
X84539Y107334D01*
X84303Y107598D01*
X84108Y107834D01*
X83928Y108028D01*
X83789Y108181D01*
X83747Y108236D01*
X83706Y108278D01*
X83692Y108292D01*
X83678Y108306D01*
X83428Y108597D01*
X83178Y108861D01*
X82956Y109125D01*
X82748Y109347D01*
X82581Y109541D01*
X82443Y109694D01*
X82401Y109749D01*
X82359Y109791D01*
X82345Y109805D01*
X82332Y109819D01*
Y109846D01*
X82345Y109860D01*
Y109888D01*
X82359Y109902D01*
X82803Y109541D01*
D02*
G37*
%LPC*%
G36*
X44523Y103198D02*
X44425D01*
X44245Y103184D01*
X44078Y103142D01*
X43940Y103101D01*
X43828Y103045D01*
X43745Y102976D01*
X43690Y102934D01*
X43648Y102892D01*
X43634Y102879D01*
X43537Y102754D01*
X43468Y102615D01*
X43426Y102462D01*
X43384Y102310D01*
X43370Y102185D01*
X43356Y102074D01*
Y102004D01*
Y101990D01*
Y101976D01*
X43370Y101768D01*
X43398Y101574D01*
X43440Y101421D01*
X43495Y101296D01*
X43551Y101185D01*
X43593Y101116D01*
X43620Y101074D01*
X43634Y101060D01*
X43745Y100963D01*
X43870Y100880D01*
X43995Y100824D01*
X44134Y100797D01*
X44245Y100769D01*
X44342Y100755D01*
X44425D01*
X44620Y100769D01*
X44786Y100797D01*
X44939Y100852D01*
X45050Y100908D01*
X45147Y100963D01*
X45203Y101019D01*
X45244Y101046D01*
X45258Y101060D01*
X45341Y101185D01*
X45411Y101338D01*
X45452Y101491D01*
X45494Y101629D01*
X45508Y101768D01*
X45522Y101879D01*
Y101949D01*
Y101976D01*
X45508Y102185D01*
X45480Y102365D01*
X45439Y102518D01*
X45383Y102656D01*
X45341Y102754D01*
X45300Y102823D01*
X45272Y102865D01*
X45258Y102879D01*
X45147Y102990D01*
X45008Y103059D01*
X44870Y103114D01*
X44731Y103156D01*
X44620Y103184D01*
X44523Y103198D01*
D02*
G37*
%LPD*%
D13*
X109449Y53601D02*
Y50102D01*
Y51852D01*
X107116D01*
Y53601D01*
Y50102D01*
X105950Y53601D02*
Y51269D01*
X104784Y50102D01*
X103617Y51269D01*
Y53601D01*
X102451Y49519D02*
X100119D01*
X96620Y53018D02*
X97203Y53601D01*
X98369D01*
X98952Y53018D01*
Y50686D01*
X98369Y50102D01*
X97203D01*
X96620Y50686D01*
Y51852D01*
X97786D01*
X95453Y50102D02*
Y53601D01*
X93121Y50102D01*
Y53601D01*
X91954D02*
Y50102D01*
X90205D01*
X89622Y50686D01*
Y53018D01*
X90205Y53601D01*
X91954D01*
X109449Y63341D02*
Y59842D01*
Y61592D01*
X107116D01*
Y63341D01*
Y59842D01*
X105950Y63341D02*
X104784D01*
X105367D01*
Y59842D01*
X105950D01*
X104784D01*
X100702Y62758D02*
X101285Y63341D01*
X102451D01*
X103034Y62758D01*
Y60426D01*
X102451Y59842D01*
X101285D01*
X100702Y60426D01*
Y61592D01*
X101868D01*
X99535Y63341D02*
Y59842D01*
Y61592D01*
X97203D01*
Y63341D01*
Y59842D01*
X96036Y59259D02*
X93704D01*
X90788Y63341D02*
X91954D01*
X92538Y62758D01*
Y60426D01*
X91954Y59842D01*
X90788D01*
X90205Y60426D01*
Y62758D01*
X90788Y63341D01*
X89039D02*
Y60426D01*
X88456Y59842D01*
X87289D01*
X86706Y60426D01*
Y63341D01*
X85540D02*
X83207D01*
X84374D01*
Y59842D01*
X71585Y94139D02*
X72918Y97638D01*
X74251Y94139D01*
X73751Y95305D02*
X72085D01*
X70769Y97638D02*
Y94139D01*
X70035Y97638D02*
Y94139D01*
X68036D01*
X64903Y97638D02*
Y94139D01*
Y97638D02*
X63403D01*
X62904Y97471D01*
X62737Y97305D01*
X62570Y96971D01*
Y96638D01*
X62737Y96305D01*
X62904Y96138D01*
X63403Y95972D01*
X64903D01*
X63737D02*
X62570Y94139D01*
X59621Y97638D02*
X61787D01*
Y94139D01*
X59621D01*
X61787Y95972D02*
X60454D01*
X59038Y97638D02*
X57705Y94139D01*
X56372Y97638D02*
X57705Y94139D01*
X53006Y96805D02*
Y96971D01*
X52839Y97305D01*
X52672Y97471D01*
X52339Y97638D01*
X51673D01*
X51339Y97471D01*
X51173Y97305D01*
X51006Y96971D01*
Y96638D01*
X51173Y96305D01*
X51506Y95805D01*
X53172Y94139D01*
X50840D01*
X40157Y63735D02*
Y60236D01*
X38408D01*
X37825Y60819D01*
Y63152D01*
X38408Y63735D01*
X40157D01*
X36659Y61986D02*
X34326D01*
X35492Y63152D02*
Y60819D01*
X33160Y63735D02*
Y60236D01*
Y61986D01*
X30827D01*
Y63735D01*
Y60236D01*
X29661Y63735D02*
Y61402D01*
X28495Y60236D01*
X27328Y61402D01*
Y63735D01*
X46063Y52711D02*
Y49213D01*
Y50962D01*
X43730D01*
Y52711D01*
Y49213D01*
X42564Y52711D02*
Y50379D01*
X41398Y49213D01*
X40231Y50379D01*
Y52711D01*
X39065Y48630D02*
X36733D01*
X33234Y52128D02*
X33817Y52711D01*
X34983D01*
X35566Y52128D01*
Y49796D01*
X34983Y49213D01*
X33817D01*
X33234Y49796D01*
Y50962D01*
X34400D01*
X32067Y49213D02*
Y52711D01*
X29735Y49213D01*
Y52711D01*
X28569D02*
Y49213D01*
X26819D01*
X26236Y49796D01*
Y52128D01*
X26819Y52711D01*
X28569D01*
M02*
