G04*
G04 #@! TF.GenerationSoftware,Altium Limited,Altium Designer,20.2.6 (244)*
G04*
G04 Layer_Physical_Order=2*
G04 Layer_Color=16711680*
%FSLAX25Y25*%
%MOIN*%
G70*
G04*
G04 #@! TF.SameCoordinates,DEA562A4-C6CB-4A2D-AB16-88F5FE46ACB7*
G04*
G04*
G04 #@! TF.FilePolarity,Positive*
G04*
G01*
G75*
%ADD12C,0.00197*%
%ADD13C,0.00650*%
%ADD14C,0.03000*%
%ADD15C,0.00394*%
%ADD43C,0.24410*%
%ADD44C,0.06693*%
%ADD45C,0.02953*%
G36*
X135756Y2039D02*
X2039D01*
Y116071D01*
X135756D01*
Y2039D01*
D02*
G37*
%LPC*%
G36*
X121795Y114854D02*
X119802Y114697D01*
X117857Y114231D01*
X116010Y113465D01*
X114304Y112420D01*
X112784Y111122D01*
X111485Y109601D01*
X110440Y107896D01*
X109675Y106048D01*
X109208Y104104D01*
X109051Y102110D01*
X109208Y100117D01*
X109675Y98172D01*
X110440Y96325D01*
X111485Y94620D01*
X112784Y93099D01*
X114304Y91800D01*
X116010Y90755D01*
X117857Y89990D01*
X119802Y89523D01*
X121795Y89366D01*
X123789Y89523D01*
X125733Y89990D01*
X127581Y90755D01*
X129286Y91800D01*
X130807Y93099D01*
X132105Y94620D01*
X133150Y96325D01*
X133916Y98172D01*
X134382Y100117D01*
X134539Y102110D01*
X134382Y104104D01*
X133916Y106048D01*
X133150Y107896D01*
X132105Y109601D01*
X130807Y111122D01*
X129286Y112420D01*
X127581Y113465D01*
X125733Y114231D01*
X123789Y114697D01*
X121795Y114854D01*
D02*
G37*
G36*
X16000D02*
X14006Y114697D01*
X12062Y114231D01*
X10214Y113465D01*
X8509Y112420D01*
X6989Y111122D01*
X5690Y109601D01*
X4645Y107896D01*
X3880Y106048D01*
X3413Y104104D01*
X3256Y102110D01*
X3413Y100117D01*
X3880Y98172D01*
X4645Y96325D01*
X5690Y94620D01*
X6989Y93099D01*
X8509Y91800D01*
X10214Y90755D01*
X12062Y89990D01*
X14006Y89523D01*
X16000Y89366D01*
X17994Y89523D01*
X19938Y89990D01*
X21786Y90755D01*
X23491Y91800D01*
X25011Y93099D01*
X26310Y94620D01*
X27355Y96325D01*
X28120Y98172D01*
X28587Y100117D01*
X28744Y102110D01*
X28587Y104104D01*
X28120Y106048D01*
X27355Y107896D01*
X26310Y109601D01*
X25011Y111122D01*
X23491Y112420D01*
X21786Y113465D01*
X19938Y114231D01*
X17994Y114697D01*
X16000Y114854D01*
D02*
G37*
G36*
X116142Y65880D02*
X115138Y65747D01*
X114202Y65360D01*
X113398Y64743D01*
X112782Y63940D01*
X112394Y63004D01*
X112262Y62000D01*
X112394Y60996D01*
X112782Y60060D01*
X113398Y59257D01*
X114202Y58640D01*
X115138Y58253D01*
X116142Y58120D01*
X117146Y58253D01*
X118081Y58640D01*
X118885Y59257D01*
X119502Y60060D01*
X119889Y60996D01*
X120021Y62000D01*
X119889Y63004D01*
X119502Y63940D01*
X118885Y64743D01*
X118081Y65360D01*
X117146Y65747D01*
X116142Y65880D01*
D02*
G37*
G36*
X20000Y65360D02*
X18996Y65228D01*
X18060Y64840D01*
X17257Y64224D01*
X16640Y63420D01*
X16253Y62484D01*
X16120Y61480D01*
X16253Y60476D01*
X16640Y59540D01*
X17257Y58737D01*
X18060Y58121D01*
X18996Y57733D01*
X20000Y57601D01*
X21004Y57733D01*
X21940Y58121D01*
X22743Y58737D01*
X23360Y59540D01*
X23747Y60476D01*
X23880Y61480D01*
X23747Y62484D01*
X23360Y63420D01*
X22743Y64224D01*
X21940Y64840D01*
X21004Y65228D01*
X20000Y65360D01*
D02*
G37*
G36*
X116542Y56331D02*
Y52400D01*
X120473D01*
X120376Y53135D01*
X119938Y54192D01*
X119242Y55100D01*
X118334Y55797D01*
X117276Y56235D01*
X116542Y56331D01*
D02*
G37*
G36*
X115742D02*
X115007Y56235D01*
X113950Y55797D01*
X113042Y55100D01*
X112345Y54192D01*
X111907Y53135D01*
X111810Y52400D01*
X115742D01*
Y56331D01*
D02*
G37*
G36*
X20400Y55812D02*
Y51880D01*
X24331D01*
X24235Y52615D01*
X23797Y53672D01*
X23100Y54580D01*
X22192Y55277D01*
X21135Y55715D01*
X20400Y55812D01*
D02*
G37*
G36*
X19600D02*
X18865Y55715D01*
X17808Y55277D01*
X16900Y54580D01*
X16203Y53672D01*
X15765Y52615D01*
X15669Y51880D01*
X19600D01*
Y55812D01*
D02*
G37*
G36*
X115742Y51600D02*
X111810D01*
X111907Y50865D01*
X112345Y49808D01*
X113042Y48900D01*
X113950Y48203D01*
X115007Y47765D01*
X115742Y47669D01*
Y51600D01*
D02*
G37*
G36*
X120473D02*
X116542D01*
Y47669D01*
X117276Y47765D01*
X118334Y48203D01*
X119242Y48900D01*
X119938Y49808D01*
X120376Y50865D01*
X120473Y51600D01*
D02*
G37*
G36*
X24331Y51080D02*
X20400D01*
Y47149D01*
X21135Y47246D01*
X22192Y47684D01*
X23100Y48380D01*
X23797Y49288D01*
X24235Y50346D01*
X24331Y51080D01*
D02*
G37*
G36*
X19600D02*
X15669D01*
X15765Y50346D01*
X16203Y49288D01*
X16900Y48380D01*
X17808Y47684D01*
X18865Y47246D01*
X19600Y47149D01*
Y51080D01*
D02*
G37*
G36*
X121795Y28744D02*
X119802Y28587D01*
X117857Y28120D01*
X116010Y27355D01*
X114304Y26310D01*
X112784Y25011D01*
X111485Y23491D01*
X110440Y21786D01*
X109675Y19938D01*
X109208Y17994D01*
X109051Y16000D01*
X109208Y14006D01*
X109675Y12062D01*
X110440Y10214D01*
X111485Y8509D01*
X112784Y6989D01*
X114304Y5690D01*
X116010Y4645D01*
X117857Y3880D01*
X119802Y3413D01*
X121795Y3256D01*
X123789Y3413D01*
X125733Y3880D01*
X127581Y4645D01*
X129286Y5690D01*
X130807Y6989D01*
X132105Y8509D01*
X133150Y10214D01*
X133916Y12062D01*
X134382Y14006D01*
X134539Y16000D01*
X134382Y17994D01*
X133916Y19938D01*
X133150Y21786D01*
X132105Y23491D01*
X130807Y25011D01*
X129286Y26310D01*
X127581Y27355D01*
X125733Y28120D01*
X123789Y28587D01*
X121795Y28744D01*
D02*
G37*
G36*
X16000D02*
X14006Y28587D01*
X12062Y28120D01*
X10214Y27355D01*
X8509Y26310D01*
X6989Y25011D01*
X5690Y23491D01*
X4645Y21786D01*
X3880Y19938D01*
X3413Y17994D01*
X3256Y16000D01*
X3413Y14006D01*
X3880Y12062D01*
X4645Y10214D01*
X5690Y8509D01*
X6989Y6989D01*
X8509Y5690D01*
X10214Y4645D01*
X12062Y3880D01*
X14006Y3413D01*
X16000Y3256D01*
X17994Y3413D01*
X19938Y3880D01*
X21786Y4645D01*
X23491Y5690D01*
X25011Y6989D01*
X26310Y8509D01*
X27355Y10214D01*
X28120Y12062D01*
X28587Y14006D01*
X28744Y16000D01*
X28587Y17994D01*
X28120Y19938D01*
X27355Y21786D01*
X26310Y23491D01*
X25011Y25011D01*
X23491Y26310D01*
X21786Y27355D01*
X19938Y28120D01*
X17994Y28587D01*
X16000Y28744D01*
D02*
G37*
%LPD*%
D12*
X69961Y34157D02*
X90039D01*
X69961Y53843D02*
X90039D01*
X69961Y34157D02*
Y53843D01*
X90039Y34157D02*
Y53843D01*
X86976Y72583D02*
X101543D01*
X86976Y56047D02*
X101543D01*
Y72583D01*
X86976Y56047D02*
Y72583D01*
X75961Y18260D02*
X88953D01*
X75961Y25740D02*
X88953D01*
Y18260D02*
Y25740D01*
X75961Y18260D02*
Y25740D01*
X101969Y72363D02*
X107480D01*
X101969Y60946D02*
X107480D01*
Y72363D01*
X101969Y60946D02*
Y72363D01*
X87559Y12441D02*
Y17559D01*
X76339Y12441D02*
X87559D01*
X76142D02*
Y17559D01*
X76339D02*
X87559D01*
X24953Y54520D02*
X69047D01*
X24953Y69480D02*
X69047D01*
Y54520D02*
Y69480D01*
X24953Y54520D02*
Y69480D01*
X40492Y30386D02*
X69232D01*
X40492Y53614D02*
X69232D01*
Y30386D02*
Y53614D01*
X40492Y30386D02*
Y53614D01*
X76307Y26063D02*
X89693D01*
X76307Y33937D02*
X89693D01*
Y26063D02*
Y33937D01*
X76307Y26063D02*
Y33937D01*
X70260Y59047D02*
Y72039D01*
X77740Y59047D02*
Y72039D01*
X70260Y59047D02*
X77740D01*
X70260Y72039D02*
X77740D01*
X85740Y59047D02*
Y72039D01*
X78260Y59047D02*
Y72039D01*
X85740D01*
X78260Y59047D02*
X85740D01*
D13*
X125591Y85433D02*
Y88932D01*
X126757Y87766D01*
X127923Y88932D01*
Y85433D01*
X129089Y88932D02*
Y85433D01*
Y87182D01*
X131422D01*
Y88932D01*
Y85433D01*
X132588D02*
X133755D01*
X133171D01*
Y88932D01*
X132588Y88349D01*
X4200Y31200D02*
Y34699D01*
X5366Y33533D01*
X6533Y34699D01*
Y31200D01*
X7699Y34699D02*
Y31200D01*
Y32949D01*
X10031D01*
Y34699D01*
Y31200D01*
X13530D02*
X11198D01*
X13530Y33533D01*
Y34116D01*
X12947Y34699D01*
X11781D01*
X11198Y34116D01*
X9843Y83465D02*
Y86963D01*
X11009Y85797D01*
X12175Y86963D01*
Y83465D01*
X13341Y86963D02*
Y83465D01*
Y85214D01*
X15674D01*
Y86963D01*
Y83465D01*
X16840Y86380D02*
X17423Y86963D01*
X18590D01*
X19173Y86380D01*
Y85797D01*
X18590Y85214D01*
X18007D01*
X18590D01*
X19173Y84631D01*
Y84048D01*
X18590Y83465D01*
X17423D01*
X16840Y84048D01*
X100787Y3543D02*
Y7042D01*
X101954Y5876D01*
X103120Y7042D01*
Y3543D01*
X104286Y7042D02*
Y3543D01*
Y5293D01*
X106619D01*
Y7042D01*
Y3543D01*
X109535D02*
Y7042D01*
X107785Y5293D01*
X110118D01*
D14*
X0Y0D02*
Y118110D01*
Y0D02*
X137795D01*
Y118110D01*
X0D02*
X137795D01*
D15*
X76653Y43695D02*
G03*
X76653Y43695I-1969J0D01*
G01*
X70945Y39955D02*
X89055D01*
X70945Y50191D02*
X89055D01*
X70945Y39955D02*
Y50191D01*
X89055Y39955D02*
Y50191D01*
X88059Y67563D02*
X100461D01*
X88059Y61067D02*
X100461D01*
Y67563D01*
X88059Y61067D02*
Y67563D01*
X78323Y19342D02*
X86591D01*
X78323Y24657D02*
X86591D01*
Y19342D02*
Y24657D01*
X78323Y19342D02*
Y24657D01*
X102953Y70001D02*
X106496D01*
X102953Y63308D02*
X106496D01*
Y70001D01*
X102953Y63308D02*
Y70001D01*
X27315Y55701D02*
X66685D01*
X27315Y68299D02*
X66685D01*
Y55701D02*
Y68299D01*
X27315Y55701D02*
Y68299D01*
X42854Y31370D02*
X66870D01*
X42854Y52630D02*
X66870D01*
Y31370D02*
Y52630D01*
X42854Y31370D02*
Y52630D01*
X78669Y27146D02*
X87331D01*
X78669Y32854D02*
X87331D01*
Y27146D02*
Y32854D01*
X78669Y27146D02*
Y32854D01*
X71342Y61409D02*
Y69677D01*
X76657Y61409D02*
Y69677D01*
X71342Y61409D02*
X76657D01*
X71342Y69677D02*
X76657D01*
X84658Y61409D02*
Y69677D01*
X79343Y61409D02*
Y69677D01*
X84658D01*
X79343Y61409D02*
X84658D01*
X80000Y43104D02*
Y47041D01*
X78031Y45073D02*
X81968D01*
X94260Y62347D02*
Y66284D01*
X92291Y64315D02*
X96228D01*
X82457Y20031D02*
Y23968D01*
X80488Y22000D02*
X84425D01*
X104724Y64883D02*
Y68426D01*
X102953Y66654D02*
X106496D01*
X47000Y60031D02*
Y63968D01*
X45031Y62000D02*
X48968D01*
X54862Y40031D02*
Y43968D01*
X52894Y42000D02*
X56831D01*
X83000Y28032D02*
Y31969D01*
X81032Y30000D02*
X84969D01*
X72031Y65543D02*
X75968D01*
X74000Y63575D02*
Y67512D01*
X80032Y65543D02*
X83969D01*
X82000Y63575D02*
Y67512D01*
D43*
X121795Y102110D02*
D03*
X16000Y16000D02*
D03*
Y102110D02*
D03*
X121795Y16000D02*
D03*
D44*
X20000Y61480D02*
D03*
Y51480D02*
D03*
X116142Y52000D02*
D03*
Y62000D02*
D03*
D45*
X73600Y26146D02*
D03*
X85000Y10214D02*
D03*
X12062Y51480D02*
D03*
X123789Y52000D02*
D03*
X94260Y75095D02*
D03*
X82000Y56693D02*
D03*
X130000Y80000D02*
D03*
Y40000D02*
D03*
X100000Y100000D02*
D03*
X110000Y40000D02*
D03*
X100000Y20000D02*
D03*
X80000Y100000D02*
D03*
X90000Y80000D02*
D03*
X60000Y100000D02*
D03*
X70000Y80000D02*
D03*
X60000Y20000D02*
D03*
X40000Y100000D02*
D03*
X50000Y80000D02*
D03*
X40000Y20000D02*
D03*
X30000Y80000D02*
D03*
Y40000D02*
D03*
M02*
