G04*
G04 #@! TF.GenerationSoftware,Altium Limited,Altium Designer,20.2.5 (213)*
G04*
G04 Layer_Color=8388736*
%FSLAX25Y25*%
%MOIN*%
G70*
G04*
G04 #@! TF.SameCoordinates,39B45ED5-C860-4F3F-9C9E-4364353DF4F0*
G04*
G04*
G04 #@! TF.FilePolarity,Negative*
G04*
G01*
G75*
%ADD12C,0.00197*%
%ADD13C,0.00650*%
%ADD14C,0.03000*%
%ADD15C,0.00394*%
%ADD27C,0.08465*%
%ADD28R,0.02953X0.06102*%
%ADD29R,0.02953X0.03347*%
%ADD30R,0.02953X0.04724*%
%ADD31R,0.04528X0.05906*%
%ADD32R,0.03937X0.04134*%
%ADD33R,0.03740X0.03740*%
%ADD34R,0.10787X0.13346*%
%ADD35R,0.07087X0.21850*%
%ADD36R,0.05709X0.06299*%
%ADD37R,0.05906X0.04528*%
%ADD38C,0.25000*%
%ADD39C,0.07284*%
G36*
X78819Y53154D02*
X81181D01*
X81227Y53151D01*
X81273Y53140D01*
X81303Y53127D01*
X81316Y53122D01*
X81355Y53098D01*
X81391Y53068D01*
X84146Y50312D01*
X84146Y50312D01*
X84177Y50276D01*
X84201Y50237D01*
X84208Y50219D01*
X84219Y50194D01*
X84230Y50149D01*
X84233Y50102D01*
X84233Y50102D01*
Y40653D01*
X84229Y40607D01*
X84219Y40562D01*
X84206Y40532D01*
X84201Y40519D01*
X84177Y40479D01*
X84146Y40444D01*
X81391Y37688D01*
X81355Y37658D01*
X81316Y37634D01*
X81303Y37628D01*
X81273Y37616D01*
X81227Y37605D01*
X81181Y37601D01*
X78819D01*
X78773Y37605D01*
X78727Y37616D01*
X78697Y37628D01*
X78684Y37634D01*
X78645Y37658D01*
X78610Y37688D01*
X75854Y40444D01*
X75823Y40479D01*
X75799Y40519D01*
X75794Y40532D01*
X75781Y40562D01*
X75770Y40607D01*
X75767Y40653D01*
Y50102D01*
X75770Y50149D01*
X75781Y50194D01*
X75794Y50224D01*
X75799Y50237D01*
X75823Y50276D01*
X75854Y50312D01*
X78609Y53068D01*
X78610Y53068D01*
X78645Y53098D01*
X78684Y53122D01*
X78702Y53130D01*
X78727Y53140D01*
X78773Y53151D01*
X78819Y53154D01*
X78819Y53154D01*
D02*
G37*
D12*
X69961Y34157D02*
X90039D01*
X69961Y53843D02*
X90039D01*
X69961Y34157D02*
Y53843D01*
X90039Y34157D02*
Y53843D01*
X86976Y72583D02*
X101543D01*
X86976Y56047D02*
X101543D01*
Y72583D01*
X86976Y56047D02*
Y72583D01*
X75961Y18260D02*
X88953D01*
X75961Y25740D02*
X88953D01*
Y18260D02*
Y25740D01*
X75961Y18260D02*
Y25740D01*
X102291Y67244D02*
Y72756D01*
X113709Y67244D02*
Y72756D01*
X102291D02*
X113709D01*
X102291Y67244D02*
X113709D01*
X87559Y12441D02*
Y17559D01*
X76339Y12441D02*
X87559D01*
X76142D02*
Y17559D01*
X76339D02*
X87559D01*
X24953Y54520D02*
X69047D01*
X24953Y69480D02*
X69047D01*
Y54520D02*
Y69480D01*
X24953Y54520D02*
Y69480D01*
X40492Y30386D02*
X69232D01*
X40492Y53614D02*
X69232D01*
Y30386D02*
Y53614D01*
X40492Y30386D02*
Y53614D01*
X76307Y26063D02*
X89693D01*
X76307Y33937D02*
X89693D01*
Y26063D02*
Y33937D01*
X76307Y26063D02*
Y33937D01*
X70260Y59047D02*
Y72039D01*
X77740Y59047D02*
Y72039D01*
X70260Y59047D02*
X77740D01*
X70260Y72039D02*
X77740D01*
X85740Y59047D02*
Y72039D01*
X78260Y59047D02*
Y72039D01*
X85740D01*
X78260Y59047D02*
X85740D01*
D13*
X228200Y31200D02*
Y34699D01*
X229366Y33533D01*
X230533Y34699D01*
Y31200D01*
X231699Y34699D02*
Y31200D01*
Y32949D01*
X234031D01*
Y34699D01*
Y31200D01*
X236947D02*
Y34699D01*
X235198Y32949D01*
X237530D01*
X219350Y129650D02*
Y133149D01*
X220516Y131983D01*
X221683Y133149D01*
Y129650D01*
X222849Y133149D02*
Y129650D01*
Y131399D01*
X225181D01*
Y133149D01*
Y129650D01*
X226348D02*
X227514D01*
X226931D01*
Y133149D01*
X226348Y132566D01*
X4200Y31200D02*
Y34699D01*
X5366Y33533D01*
X6533Y34699D01*
Y31200D01*
X7699Y34699D02*
Y31200D01*
Y32949D01*
X10031D01*
Y34699D01*
Y31200D01*
X13530D02*
X11198D01*
X13530Y33533D01*
Y34116D01*
X12947Y34699D01*
X11781D01*
X11198Y34116D01*
X31650Y129750D02*
Y133249D01*
X32816Y132083D01*
X33983Y133249D01*
Y129750D01*
X35149Y133249D02*
Y129750D01*
Y131499D01*
X37481D01*
Y133249D01*
Y129750D01*
X38648Y132666D02*
X39231Y133249D01*
X40397D01*
X40980Y132666D01*
Y132083D01*
X40397Y131499D01*
X39814D01*
X40397D01*
X40980Y130916D01*
Y130333D01*
X40397Y129750D01*
X39231D01*
X38648Y130333D01*
D14*
X0Y0D02*
X255906D01*
Y137795D01*
X0D02*
X255906D01*
X0Y0D02*
Y137795D01*
D15*
X76653Y43695D02*
G03*
X76653Y43695I-1969J0D01*
G01*
X70945Y39955D02*
X89055D01*
X70945Y50191D02*
X89055D01*
X70945Y39955D02*
Y50191D01*
X89055Y39955D02*
Y50191D01*
X88059Y67563D02*
X100461D01*
X88059Y61067D02*
X100461D01*
Y67563D01*
X88059Y61067D02*
Y67563D01*
X78323Y19342D02*
X86591D01*
X78323Y24657D02*
X86591D01*
Y19342D02*
Y24657D01*
X78323Y19342D02*
Y24657D01*
X104654Y68228D02*
Y71772D01*
X111346Y68228D02*
Y71772D01*
X104654D02*
X111346D01*
X104654Y68228D02*
X111346D01*
X27315Y55701D02*
X66685D01*
X27315Y68299D02*
X66685D01*
Y55701D02*
Y68299D01*
X27315Y55701D02*
Y68299D01*
X42854Y31370D02*
X66870D01*
X42854Y52630D02*
X66870D01*
Y31370D02*
Y52630D01*
X42854Y31370D02*
Y52630D01*
X78669Y27146D02*
X87331D01*
X78669Y32854D02*
X87331D01*
Y27146D02*
Y32854D01*
X78669Y27146D02*
Y32854D01*
X71342Y61409D02*
Y69677D01*
X76657Y61409D02*
Y69677D01*
X71342Y61409D02*
X76657D01*
X71342Y69677D02*
X76657D01*
X84658Y61409D02*
Y69677D01*
X79343Y61409D02*
Y69677D01*
X84658D01*
X79343Y61409D02*
X84658D01*
X80000Y43104D02*
Y47041D01*
X78031Y45073D02*
X81968D01*
X94260Y62347D02*
Y66284D01*
X92291Y64315D02*
X96228D01*
X82457Y20031D02*
Y23968D01*
X80488Y22000D02*
X84425D01*
X106228Y70000D02*
X109772D01*
X108000Y68228D02*
Y71772D01*
X47000Y60031D02*
Y63968D01*
X45031Y62000D02*
X48968D01*
X54862Y40031D02*
Y43968D01*
X52894Y42000D02*
X56831D01*
X83000Y28032D02*
Y31969D01*
X81032Y30000D02*
X84969D01*
X72031Y65543D02*
X75968D01*
X74000Y63575D02*
Y67512D01*
X80032Y65543D02*
X83969D01*
X82000Y63575D02*
Y67512D01*
D27*
X106100Y59000D02*
D03*
X121550Y70000D02*
D03*
D28*
X74094Y37898D02*
D03*
X85905D02*
D03*
D29*
X80000Y36520D02*
D03*
D30*
X98000Y69630D02*
D03*
X94260D02*
D03*
X90520D02*
D03*
Y59000D02*
D03*
X98000D02*
D03*
D31*
X86000Y22000D02*
D03*
X78913D02*
D03*
D32*
X104949Y70000D02*
D03*
X111051D02*
D03*
D33*
X78701Y15000D02*
D03*
X85000D02*
D03*
D34*
X62984Y62000D02*
D03*
X31016D02*
D03*
D35*
X65000Y42000D02*
D03*
X44724D02*
D03*
D36*
X86150Y30000D02*
D03*
X79850D02*
D03*
D37*
X74000Y62000D02*
D03*
Y69087D02*
D03*
X82000D02*
D03*
Y62000D02*
D03*
D38*
X240000Y16000D02*
D03*
Y122000D02*
D03*
X16000Y16000D02*
D03*
Y122000D02*
D03*
D39*
X20000Y76000D02*
D03*
Y66000D02*
D03*
X229000Y70000D02*
D03*
Y80000D02*
D03*
M02*
