G04*
G04 #@! TF.GenerationSoftware,Altium Limited,Altium Designer,20.2.6 (244)*
G04*
G04 Layer_Color=32896*
%FSLAX25Y25*%
%MOIN*%
G70*
G04*
G04 #@! TF.SameCoordinates,ADB7C03E-4349-4DD4-984C-8FBEBC798E37*
G04*
G04*
G04 #@! TF.FilePolarity,Positive*
G04*
G01*
G75*
%ADD12C,0.00197*%
%ADD13C,0.00650*%
%ADD14C,0.03000*%
%ADD15C,0.00394*%
G36*
X69739Y108861D02*
X69087D01*
Y110360D01*
X67338D01*
Y108861D01*
X66699D01*
Y112400D01*
X67338D01*
Y110929D01*
X69087D01*
Y112400D01*
X69739D01*
Y108861D01*
D02*
G37*
G36*
X62105D02*
X61466D01*
Y111485D01*
X59593Y108861D01*
X58954D01*
Y112400D01*
X59579D01*
Y109819D01*
X61439Y112400D01*
X62105D01*
Y108861D01*
D02*
G37*
G36*
X78400Y108861D02*
X77789D01*
Y111332D01*
X76818Y108861D01*
X76263D01*
X75291Y111332D01*
Y108861D01*
X74694D01*
Y112400D01*
X75346D01*
X76526Y109722D01*
X77706Y112401D01*
X78400D01*
Y108861D01*
D02*
G37*
G36*
X51515Y108861D02*
X50904D01*
Y111332D01*
X49932Y108861D01*
X49377D01*
X48419Y111332D01*
Y108861D01*
X47809D01*
Y112400D01*
X48461D01*
X49641Y109722D01*
X50834Y112400D01*
X51515D01*
Y108861D01*
D02*
G37*
G36*
X88352Y111831D02*
X87339D01*
Y108861D01*
X86700D01*
Y111831D01*
X85673D01*
Y112401D01*
X88352D01*
Y111831D01*
D02*
G37*
G36*
X85298Y108861D02*
X82856D01*
Y109430D01*
X84660D01*
Y110360D01*
X82981D01*
Y110943D01*
X84660D01*
Y111831D01*
X82883D01*
Y112401D01*
X85298D01*
Y108861D01*
D02*
G37*
G36*
X82550D02*
X81898D01*
X80718Y111720D01*
X80163Y110388D01*
X80885D01*
X81107Y109819D01*
X79927D01*
X79524Y108861D01*
X78816D01*
X80357Y112401D01*
X81065D01*
X82550Y108861D01*
D02*
G37*
G36*
X72834Y108861D02*
X72182D01*
Y111804D01*
X71293D01*
X71141Y111790D01*
X71044Y111748D01*
X70974Y111706D01*
X70960Y111693D01*
X70891Y111595D01*
X70863Y111498D01*
X70849Y111415D01*
Y111387D01*
Y111373D01*
X70863Y111276D01*
X70891Y111193D01*
X70960Y111054D01*
X71016Y110999D01*
X71044Y110957D01*
X71071Y110943D01*
X71085Y110929D01*
X71183Y110874D01*
X71280Y110818D01*
X71502Y110735D01*
X71599Y110707D01*
X71682Y110679D01*
X71738Y110666D01*
X71752D01*
X71654Y110097D01*
X71391Y110138D01*
X71169Y110207D01*
X70974Y110277D01*
X70822Y110346D01*
X70697Y110416D01*
X70613Y110471D01*
X70558Y110513D01*
X70544Y110527D01*
X70419Y110666D01*
X70322Y110804D01*
X70266Y110957D01*
X70211Y111096D01*
X70183Y111207D01*
X70169Y111318D01*
Y111373D01*
Y111401D01*
X70183Y111582D01*
X70211Y111734D01*
X70253Y111859D01*
X70308Y111970D01*
X70364Y112040D01*
X70405Y112109D01*
X70433Y112137D01*
X70447Y112151D01*
X70558Y112234D01*
X70683Y112290D01*
X70822Y112345D01*
X70947Y112373D01*
X71071Y112387D01*
X71169Y112400D01*
X72834D01*
Y108861D01*
D02*
G37*
G36*
X66255D02*
X65589D01*
X64423Y111720D01*
X63868Y110388D01*
X64576D01*
X64812Y109819D01*
X63632D01*
X63229Y108861D01*
X62521D01*
X64062Y112400D01*
X64770D01*
X66255Y108861D01*
D02*
G37*
G36*
X58579Y111831D02*
X57566D01*
Y108861D01*
X56900D01*
Y111831D01*
X55901D01*
Y112400D01*
X58579D01*
Y111831D01*
D02*
G37*
G36*
X54180Y112400D02*
X54457Y112345D01*
X54679Y112276D01*
X54874Y112192D01*
X55012Y112095D01*
X55123Y112026D01*
X55179Y111970D01*
X55207Y111956D01*
X55359Y111776D01*
X55456Y111568D01*
X55540Y111346D01*
X55595Y111124D01*
X55623Y110929D01*
X55637Y110777D01*
X55651Y110707D01*
Y110666D01*
Y110638D01*
Y110624D01*
X55623Y110305D01*
X55568Y110041D01*
X55484Y109805D01*
X55401Y109625D01*
X55318Y109472D01*
X55248Y109361D01*
X55193Y109305D01*
X55179Y109277D01*
X54984Y109125D01*
X54776Y109028D01*
X54568Y108944D01*
X54360Y108889D01*
X54166Y108861D01*
X54013Y108847D01*
X53957Y108833D01*
X53874D01*
X53569Y108847D01*
X53305Y108903D01*
X53083Y108972D01*
X52903Y109055D01*
X52750Y109139D01*
X52653Y109208D01*
X52583Y109264D01*
X52569Y109277D01*
X52417Y109472D01*
X52306Y109680D01*
X52236Y109902D01*
X52181Y110124D01*
X52153Y110319D01*
X52125Y110485D01*
Y110541D01*
Y110582D01*
Y110610D01*
Y110624D01*
X52139Y110943D01*
X52195Y111207D01*
X52264Y111443D01*
X52347Y111623D01*
X52431Y111776D01*
X52500Y111873D01*
X52556Y111943D01*
X52569Y111956D01*
X52750Y112109D01*
X52958Y112220D01*
X53180Y112303D01*
X53388Y112359D01*
X53583Y112387D01*
X53735Y112414D01*
X53874D01*
X54180Y112400D01*
D02*
G37*
G36*
X98471Y117814D02*
X98831Y117772D01*
X99151Y117717D01*
X99290Y117689D01*
X99414Y117661D01*
X99525Y117633D01*
X99623Y117606D01*
X99706Y117592D01*
X99761Y117578D01*
X99789Y117564D01*
X99803D01*
X100178Y117439D01*
X100525Y117286D01*
X100858Y117134D01*
X101136Y116981D01*
X101260Y116912D01*
X101385Y116842D01*
X101482Y116773D01*
X101566Y116731D01*
X101621Y116676D01*
X101677Y116648D01*
X101705Y116634D01*
X101718Y116620D01*
X102038Y116384D01*
X102343Y116120D01*
X102607Y115871D01*
X102843Y115635D01*
X103023Y115412D01*
X103106Y115329D01*
X103162Y115246D01*
X103217Y115177D01*
X103259Y115135D01*
X103273Y115107D01*
X103287Y115093D01*
X103509Y114746D01*
X103717Y114399D01*
X103870Y114066D01*
X104009Y113761D01*
X104064Y113622D01*
X104120Y113497D01*
X104148Y113386D01*
X104189Y113303D01*
X104217Y113219D01*
X104231Y113164D01*
X104245Y113136D01*
Y113122D01*
X104342Y112734D01*
X104411Y112345D01*
X104467Y111984D01*
X104495Y111665D01*
X104508Y111526D01*
Y111387D01*
X104522Y111276D01*
Y111179D01*
Y111110D01*
Y111040D01*
Y111013D01*
Y110999D01*
X104495Y110596D01*
X104439Y110221D01*
X104370Y109874D01*
X104300Y109555D01*
X104259Y109416D01*
X104231Y109291D01*
X104189Y109180D01*
X104161Y109097D01*
X104134Y109014D01*
X104120Y108958D01*
X104106Y108931D01*
Y108917D01*
X103953Y108542D01*
X103773Y108181D01*
X103592Y107862D01*
X103412Y107584D01*
X103329Y107459D01*
X103259Y107348D01*
X103190Y107251D01*
X103120Y107168D01*
X103079Y107098D01*
X103037Y107057D01*
X103023Y107029D01*
X103009Y107015D01*
Y107029D01*
X102773Y107196D01*
X103009Y107515D01*
X103231Y107834D01*
X103412Y108139D01*
X103551Y108417D01*
X103676Y108653D01*
X103717Y108764D01*
X103759Y108847D01*
X103787Y108917D01*
X103814Y108972D01*
X103828Y109000D01*
Y109014D01*
X103953Y109389D01*
X104036Y109736D01*
X104120Y110083D01*
X104161Y110388D01*
X104189Y110513D01*
X104203Y110638D01*
Y110749D01*
X104217Y110846D01*
X104231Y110915D01*
Y110971D01*
Y110999D01*
Y111013D01*
Y111387D01*
X104203Y111762D01*
X104161Y112095D01*
X104106Y112401D01*
X104078Y112539D01*
X104064Y112664D01*
X104036Y112775D01*
X104009Y112859D01*
X103995Y112942D01*
X103981Y112997D01*
X103967Y113025D01*
Y113039D01*
X103842Y113414D01*
X103689Y113761D01*
X103537Y114080D01*
X103384Y114358D01*
X103315Y114483D01*
X103245Y114594D01*
X103190Y114677D01*
X103134Y114760D01*
X103093Y114830D01*
X103065Y114871D01*
X103037Y114899D01*
Y114913D01*
X102787Y115232D01*
X102537Y115510D01*
X102288Y115773D01*
X102052Y115982D01*
X101857Y116162D01*
X101691Y116287D01*
X101635Y116342D01*
X101594Y116370D01*
X101566Y116398D01*
X101552D01*
X101219Y116606D01*
X100900Y116787D01*
X100594Y116939D01*
X100317Y117064D01*
X100067Y117161D01*
X99970Y117203D01*
X99886Y117231D01*
X99817Y117259D01*
X99761Y117272D01*
X99734Y117286D01*
X99720D01*
X99345Y117384D01*
X98984Y117453D01*
X98651Y117494D01*
X98332Y117522D01*
X98193D01*
X98068Y117536D01*
X97693D01*
X97305Y117508D01*
X96930Y117467D01*
X96583Y117397D01*
X96277Y117314D01*
X96139Y117286D01*
X96014Y117245D01*
X95903Y117217D01*
X95819Y117175D01*
X95736Y117161D01*
X95681Y117134D01*
X95653Y117120D01*
X95639D01*
X95542Y117384D01*
X95930Y117522D01*
X96319Y117633D01*
X96680Y117717D01*
X96999Y117772D01*
X97152Y117786D01*
X97277Y117814D01*
X97402D01*
X97499Y117828D01*
X97568Y117841D01*
X98082D01*
X98471Y117814D01*
D02*
G37*
G36*
X93182Y115399D02*
X92919Y115079D01*
X92696Y114760D01*
X92502Y114455D01*
X92349Y114177D01*
X92225Y113927D01*
X92169Y113830D01*
X92127Y113733D01*
X92100Y113664D01*
X92072Y113608D01*
X92058Y113580D01*
Y113567D01*
X91919Y113192D01*
X91822Y112831D01*
X91739Y112484D01*
X91683Y112179D01*
X91669Y112040D01*
X91642Y111915D01*
Y111804D01*
X91628Y111720D01*
X91614Y111637D01*
Y111582D01*
Y111554D01*
Y111540D01*
Y111151D01*
X91628Y110791D01*
X91669Y110443D01*
X91711Y110124D01*
X91739Y109985D01*
X91767Y109861D01*
X91780Y109749D01*
X91808Y109666D01*
X91822Y109583D01*
X91836Y109527D01*
X91850Y109500D01*
Y109486D01*
X91975Y109111D01*
X92127Y108750D01*
X92280Y108417D01*
X92433Y108125D01*
X92502Y108001D01*
X92572Y107890D01*
X92641Y107792D01*
X92683Y107709D01*
X92738Y107640D01*
X92766Y107598D01*
X92780Y107570D01*
X92794Y107556D01*
X93044Y107223D01*
X93307Y106932D01*
X93557Y106682D01*
X93807Y106460D01*
X94015Y106280D01*
X94098Y106210D01*
X94168Y106155D01*
X94237Y106099D01*
X94279Y106071D01*
X94307Y106057D01*
X94320Y106044D01*
X94654Y105835D01*
X94987Y105655D01*
X95306Y105502D01*
X95597Y105377D01*
X95847Y105280D01*
X95944Y105238D01*
X96042Y105211D01*
X96111Y105183D01*
X96166Y105169D01*
X96194Y105155D01*
X96208D01*
X96583Y105072D01*
X96958Y105002D01*
X97305Y104961D01*
X97610Y104947D01*
X97763Y104933D01*
X98276D01*
X98665Y104975D01*
X99040Y105030D01*
X99401Y105114D01*
X99706Y105197D01*
X99859Y105238D01*
X99984Y105280D01*
X100081Y105322D01*
X100178Y105350D01*
X100261Y105377D01*
X100317Y105405D01*
X100344Y105419D01*
X100358D01*
X100469Y105155D01*
X100025Y104989D01*
X99817Y104919D01*
X99623Y104864D01*
X99456Y104822D01*
X99331Y104794D01*
X99248Y104767D01*
X99220D01*
X98970Y104725D01*
X98748Y104697D01*
X98526Y104669D01*
X98332Y104656D01*
X98165D01*
X98040Y104642D01*
X97929D01*
X97596Y104656D01*
X97443D01*
X97319Y104669D01*
X97207Y104683D01*
X97110D01*
X97055Y104697D01*
X97041D01*
X96722Y104753D01*
X96569Y104780D01*
X96430Y104808D01*
X96319Y104836D01*
X96236Y104864D01*
X96180Y104878D01*
X96166D01*
X95764Y105002D01*
X95389Y105155D01*
X95056Y105308D01*
X94751Y105461D01*
X94626Y105530D01*
X94501Y105599D01*
X94404Y105655D01*
X94320Y105710D01*
X94251Y105766D01*
X94195Y105794D01*
X94168Y105808D01*
X94154Y105821D01*
X93821Y106071D01*
X93515Y106335D01*
X93238Y106599D01*
X93016Y106849D01*
X92821Y107057D01*
X92752Y107154D01*
X92683Y107223D01*
X92641Y107293D01*
X92599Y107334D01*
X92585Y107362D01*
X92572Y107376D01*
X92336Y107723D01*
X92141Y108070D01*
X91961Y108417D01*
X91822Y108722D01*
X91767Y108861D01*
X91725Y108986D01*
X91683Y109097D01*
X91642Y109194D01*
X91614Y109264D01*
X91600Y109333D01*
X91586Y109361D01*
Y109375D01*
X91489Y109777D01*
X91406Y110180D01*
X91364Y110555D01*
X91336Y110888D01*
X91322Y111040D01*
Y111179D01*
Y111304D01*
Y111401D01*
Y111485D01*
Y111540D01*
Y111582D01*
Y111595D01*
X91364Y112012D01*
X91433Y112401D01*
X91503Y112761D01*
X91586Y113081D01*
X91628Y113219D01*
X91669Y113344D01*
X91711Y113455D01*
X91739Y113553D01*
X91767Y113636D01*
X91794Y113691D01*
X91808Y113719D01*
Y113733D01*
X91975Y114108D01*
X92169Y114469D01*
X92349Y114774D01*
X92544Y115052D01*
X92627Y115177D01*
X92710Y115274D01*
X92780Y115371D01*
X92835Y115454D01*
X92891Y115510D01*
X92932Y115551D01*
X92946Y115579D01*
X92960Y115593D01*
X93182Y115399D01*
D02*
G37*
G36*
X92252Y118202D02*
X92696Y117841D01*
X93099Y117508D01*
X93293Y117356D01*
X93474Y117203D01*
X93626Y117078D01*
X93779Y116953D01*
X93904Y116856D01*
X94015Y116759D01*
X94098Y116690D01*
X94168Y116634D01*
X94209Y116606D01*
X94223Y116592D01*
X94667Y116231D01*
X95112Y115871D01*
X95528Y115537D01*
X95708Y115371D01*
X95889Y115232D01*
X96055Y115093D01*
X96208Y114982D01*
X96333Y114871D01*
X96444Y114774D01*
X96527Y114705D01*
X96597Y114649D01*
X96638Y114621D01*
X96652Y114608D01*
X97096Y114247D01*
X97541Y113886D01*
X97957Y113553D01*
X98137Y113400D01*
X98318Y113247D01*
X98484Y113122D01*
X98637Y112997D01*
X98762Y112900D01*
X98873Y112803D01*
X98956Y112734D01*
X99026Y112678D01*
X99067Y112650D01*
X99081Y112636D01*
X99539Y112262D01*
X99970Y111901D01*
X100386Y111568D01*
X100580Y111415D01*
X100761Y111262D01*
X100913Y111124D01*
X101066Y111013D01*
X101205Y110901D01*
X101316Y110804D01*
X101399Y110735D01*
X101469Y110679D01*
X101510Y110652D01*
X101524Y110638D01*
X101274Y110555D01*
X101024Y110471D01*
X100802Y110388D01*
X100608Y110319D01*
X100428Y110263D01*
X100303Y110221D01*
X100219Y110194D01*
X100206Y110180D01*
X100192D01*
X99942Y110097D01*
X99706Y110027D01*
X99484Y109944D01*
X99276Y109874D01*
X99109Y109819D01*
X98970Y109777D01*
X98887Y109749D01*
X98873Y109736D01*
X98859D01*
X99123Y109458D01*
X99373Y109180D01*
X99609Y108917D01*
X99831Y108695D01*
X99997Y108500D01*
X100136Y108348D01*
X100192Y108292D01*
X100233Y108250D01*
X100247Y108237D01*
X100261Y108223D01*
X100525Y107945D01*
X100775Y107668D01*
X101024Y107404D01*
X101233Y107182D01*
X101413Y106987D01*
X101552Y106835D01*
X101607Y106779D01*
X101649Y106737D01*
X101663Y106724D01*
X101677Y106710D01*
X101941Y106432D01*
X102190Y106168D01*
X102426Y105919D01*
X102635Y105696D01*
X102815Y105502D01*
X102940Y105350D01*
X102995Y105294D01*
X103037Y105252D01*
X103051Y105238D01*
X103065Y105225D01*
X103329Y104947D01*
X103578Y104683D01*
X103814Y104433D01*
X104023Y104211D01*
X104203Y104017D01*
X104328Y103864D01*
X104383Y103809D01*
X104425Y103767D01*
X104439Y103753D01*
X104453Y103739D01*
Y103726D01*
Y103712D01*
X104439Y103684D01*
X104425Y103670D01*
X103939Y104031D01*
X103481Y104378D01*
X103037Y104711D01*
X102829Y104864D01*
X102648Y105002D01*
X102468Y105141D01*
X102315Y105252D01*
X102176Y105363D01*
X102052Y105447D01*
X101954Y105516D01*
X101885Y105572D01*
X101843Y105599D01*
X101830Y105613D01*
X101344Y105974D01*
X100872Y106321D01*
X100428Y106654D01*
X100233Y106807D01*
X100039Y106946D01*
X99872Y107085D01*
X99706Y107196D01*
X99567Y107307D01*
X99456Y107390D01*
X99359Y107459D01*
X99290Y107515D01*
X99248Y107543D01*
X99234Y107556D01*
X98748Y107931D01*
X98276Y108278D01*
X97832Y108611D01*
X97624Y108764D01*
X97443Y108917D01*
X97263Y109042D01*
X97110Y109167D01*
X96971Y109264D01*
X96847Y109361D01*
X96749Y109430D01*
X96680Y109486D01*
X96638Y109513D01*
X96624Y109527D01*
X96139Y109902D01*
X95667Y110263D01*
X95223Y110596D01*
X95014Y110749D01*
X94820Y110888D01*
X94640Y111026D01*
X94487Y111137D01*
X94348Y111249D01*
X94223Y111332D01*
X94126Y111401D01*
X94057Y111457D01*
X94015Y111485D01*
X94001Y111498D01*
X94307Y111582D01*
X94598Y111665D01*
X94876Y111734D01*
X95126Y111804D01*
X95334Y111845D01*
X95417Y111873D01*
X95486Y111887D01*
X95542Y111915D01*
X95583D01*
X95611Y111929D01*
X95625D01*
X95930Y112012D01*
X96222Y112095D01*
X96486Y112165D01*
X96736Y112234D01*
X96944Y112290D01*
X97027Y112317D01*
X97096Y112331D01*
X97152Y112345D01*
X97194Y112359D01*
X97221Y112373D01*
X97235D01*
X96971Y112664D01*
X96722Y112928D01*
X96500Y113192D01*
X96291Y113428D01*
X96111Y113622D01*
X95972Y113775D01*
X95930Y113830D01*
X95889Y113872D01*
X95875Y113886D01*
X95861Y113900D01*
X95597Y114191D01*
X95348Y114469D01*
X95126Y114732D01*
X94917Y114968D01*
X94737Y115163D01*
X94598Y115315D01*
X94556Y115371D01*
X94515Y115412D01*
X94501Y115426D01*
X94487Y115440D01*
X94237Y115732D01*
X93987Y115996D01*
X93751Y116259D01*
X93557Y116495D01*
X93377Y116690D01*
X93238Y116842D01*
X93196Y116898D01*
X93155Y116939D01*
X93141Y116953D01*
X93127Y116967D01*
X92877Y117259D01*
X92627Y117522D01*
X92405Y117786D01*
X92197Y118008D01*
X92030Y118202D01*
X91891Y118355D01*
X91850Y118411D01*
X91808Y118452D01*
X91794Y118466D01*
X91780Y118480D01*
Y118508D01*
X91794Y118522D01*
Y118549D01*
X91808Y118563D01*
X92252Y118202D01*
D02*
G37*
%LPC*%
G36*
X53971Y111859D02*
X53874D01*
X53694Y111845D01*
X53527Y111804D01*
X53388Y111762D01*
X53277Y111706D01*
X53194Y111637D01*
X53139Y111595D01*
X53097Y111554D01*
X53083Y111540D01*
X52986Y111415D01*
X52916Y111276D01*
X52875Y111124D01*
X52833Y110971D01*
X52819Y110846D01*
X52805Y110735D01*
Y110666D01*
Y110652D01*
Y110638D01*
X52819Y110430D01*
X52847Y110235D01*
X52889Y110083D01*
X52944Y109958D01*
X53000Y109847D01*
X53041Y109777D01*
X53069Y109736D01*
X53083Y109722D01*
X53194Y109625D01*
X53319Y109541D01*
X53444Y109486D01*
X53583Y109458D01*
X53694Y109430D01*
X53791Y109416D01*
X53874D01*
X54068Y109430D01*
X54235Y109458D01*
X54388Y109513D01*
X54499Y109569D01*
X54596Y109625D01*
X54651Y109680D01*
X54693Y109708D01*
X54707Y109722D01*
X54790Y109847D01*
X54860Y109999D01*
X54901Y110152D01*
X54943Y110291D01*
X54957Y110430D01*
X54971Y110541D01*
Y110610D01*
Y110638D01*
X54957Y110846D01*
X54929Y111026D01*
X54887Y111179D01*
X54832Y111318D01*
X54790Y111415D01*
X54749Y111485D01*
X54721Y111526D01*
X54707Y111540D01*
X54596Y111651D01*
X54457Y111720D01*
X54318Y111776D01*
X54180Y111818D01*
X54068Y111845D01*
X53971Y111859D01*
D02*
G37*
%LPD*%
D12*
X69961Y34157D02*
X90039D01*
X69961Y53843D02*
X90039D01*
X69961Y34157D02*
Y53843D01*
X90039Y34157D02*
Y53843D01*
X86976Y72583D02*
X101543D01*
X86976Y56047D02*
X101543D01*
Y72583D01*
X86976Y56047D02*
Y72583D01*
X75961Y18260D02*
X88953D01*
X75961Y25740D02*
X88953D01*
Y18260D02*
Y25740D01*
X75961Y18260D02*
Y25740D01*
X102291Y67244D02*
Y72756D01*
X113709Y67244D02*
Y72756D01*
X102291D02*
X113709D01*
X102291Y67244D02*
X113709D01*
X87559Y12441D02*
Y17559D01*
X76339Y12441D02*
X87559D01*
X76142D02*
Y17559D01*
X76339D02*
X87559D01*
X24953Y54520D02*
X69047D01*
X24953Y69480D02*
X69047D01*
Y54520D02*
Y69480D01*
X24953Y54520D02*
Y69480D01*
X40492Y30386D02*
X69232D01*
X40492Y53614D02*
X69232D01*
Y30386D02*
Y53614D01*
X40492Y30386D02*
Y53614D01*
X76307Y26063D02*
X89693D01*
X76307Y33937D02*
X89693D01*
Y26063D02*
Y33937D01*
X76307Y26063D02*
Y33937D01*
X70260Y59047D02*
Y72039D01*
X77740Y59047D02*
Y72039D01*
X70260Y59047D02*
X77740D01*
X70260Y72039D02*
X77740D01*
X85740Y59047D02*
Y72039D01*
X78260Y59047D02*
Y72039D01*
X85740D01*
X78260Y59047D02*
X85740D01*
D13*
X81034Y102800D02*
X82367Y106299D01*
X83700Y102800D01*
X83200Y103966D02*
X81534D01*
X80217Y106299D02*
Y102800D01*
X79484Y106299D02*
Y102800D01*
X77485D01*
X74352Y106299D02*
Y102800D01*
Y106299D02*
X72852D01*
X72352Y106133D01*
X72186Y105966D01*
X72019Y105633D01*
Y105299D01*
X72186Y104966D01*
X72352Y104800D01*
X72852Y104633D01*
X74352D01*
X73186D02*
X72019Y102800D01*
X69070Y106299D02*
X71236D01*
Y102800D01*
X69070D01*
X71236Y104633D02*
X69903D01*
X68487Y106299D02*
X67154Y102800D01*
X65820Y106299D02*
X67154Y102800D01*
X62454Y105466D02*
Y105633D01*
X62288Y105966D01*
X62121Y106133D01*
X61788Y106299D01*
X61121D01*
X60788Y106133D01*
X60622Y105966D01*
X60455Y105633D01*
Y105299D01*
X60622Y104966D01*
X60955Y104466D01*
X62621Y102800D01*
X60288D01*
X221750Y72173D02*
Y68674D01*
Y70424D01*
X219417D01*
Y72173D01*
Y68674D01*
X218251Y72173D02*
X217085D01*
X217668D01*
Y68674D01*
X218251D01*
X217085D01*
X213003Y71590D02*
X213586Y72173D01*
X214752D01*
X215335Y71590D01*
Y69258D01*
X214752Y68674D01*
X213586D01*
X213003Y69258D01*
Y70424D01*
X214169D01*
X211837Y72173D02*
Y68674D01*
Y70424D01*
X209504D01*
Y72173D01*
Y68674D01*
X208338Y68091D02*
X206005D01*
X203089Y72173D02*
X204256D01*
X204839Y71590D01*
Y69258D01*
X204256Y68674D01*
X203089D01*
X202506Y69258D01*
Y71590D01*
X203089Y72173D01*
X201340D02*
Y69258D01*
X200757Y68674D01*
X199591D01*
X199007Y69258D01*
Y72173D01*
X197841D02*
X195509D01*
X196675D01*
Y68674D01*
X222400Y85349D02*
Y81850D01*
Y83599D01*
X220067D01*
Y85349D01*
Y81850D01*
X218901Y85349D02*
Y83016D01*
X217735Y81850D01*
X216569Y83016D01*
Y85349D01*
X215402Y81267D02*
X213070D01*
X209571Y84766D02*
X210154Y85349D01*
X211320D01*
X211903Y84766D01*
Y82433D01*
X211320Y81850D01*
X210154D01*
X209571Y82433D01*
Y83599D01*
X210737D01*
X208404Y81850D02*
Y85349D01*
X206072Y81850D01*
Y85349D01*
X204906D02*
Y81850D01*
X203156D01*
X202573Y82433D01*
Y84766D01*
X203156Y85349D01*
X204906D01*
X40000Y67307D02*
Y63808D01*
X38251D01*
X37667Y64391D01*
Y66724D01*
X38251Y67307D01*
X40000D01*
X36501Y65557D02*
X34168D01*
X35335Y66724D02*
Y64391D01*
X33002Y67307D02*
Y63808D01*
Y65557D01*
X30670D01*
Y67307D01*
Y63808D01*
X29503Y67307D02*
Y64974D01*
X28337Y63808D01*
X27171Y64974D01*
Y67307D01*
X47100Y77099D02*
Y73600D01*
Y75349D01*
X44767D01*
Y77099D01*
Y73600D01*
X43601Y77099D02*
Y74766D01*
X42435Y73600D01*
X41269Y74766D01*
Y77099D01*
X40102Y73017D02*
X37770D01*
X34271Y76516D02*
X34854Y77099D01*
X36020D01*
X36603Y76516D01*
Y74183D01*
X36020Y73600D01*
X34854D01*
X34271Y74183D01*
Y75349D01*
X35437D01*
X33105Y73600D02*
Y77099D01*
X30772Y73600D01*
Y77099D01*
X29606D02*
Y73600D01*
X27856D01*
X27273Y74183D01*
Y76516D01*
X27856Y77099D01*
X29606D01*
X228200Y31200D02*
Y34699D01*
X229366Y33533D01*
X230533Y34699D01*
Y31200D01*
X231699Y34699D02*
Y31200D01*
Y32949D01*
X234031D01*
Y34699D01*
Y31200D01*
X236947D02*
Y34699D01*
X235198Y32949D01*
X237530D01*
X219350Y129650D02*
Y133149D01*
X220516Y131983D01*
X221683Y133149D01*
Y129650D01*
X222849Y133149D02*
Y129650D01*
Y131399D01*
X225181D01*
Y133149D01*
Y129650D01*
X226348D02*
X227514D01*
X226931D01*
Y133149D01*
X226348Y132566D01*
X4200Y31200D02*
Y34699D01*
X5366Y33533D01*
X6533Y34699D01*
Y31200D01*
X7699Y34699D02*
Y31200D01*
Y32949D01*
X10031D01*
Y34699D01*
Y31200D01*
X13530D02*
X11198D01*
X13530Y33533D01*
Y34116D01*
X12947Y34699D01*
X11781D01*
X11198Y34116D01*
X31650Y129750D02*
Y133249D01*
X32816Y132083D01*
X33983Y133249D01*
Y129750D01*
X35149Y133249D02*
Y129750D01*
Y131499D01*
X37481D01*
Y133249D01*
Y129750D01*
X38648Y132666D02*
X39231Y133249D01*
X40397D01*
X40980Y132666D01*
Y132083D01*
X40397Y131499D01*
X39814D01*
X40397D01*
X40980Y130916D01*
Y130333D01*
X40397Y129750D01*
X39231D01*
X38648Y130333D01*
D14*
X0Y0D02*
X255906D01*
Y137795D01*
X0D02*
X255906D01*
X0Y0D02*
Y137795D01*
D15*
X76653Y43695D02*
G03*
X76653Y43695I-1969J0D01*
G01*
X70945Y39955D02*
X89055D01*
X70945Y50191D02*
X89055D01*
X70945Y39955D02*
Y50191D01*
X89055Y39955D02*
Y50191D01*
X88059Y67563D02*
X100461D01*
X88059Y61067D02*
X100461D01*
Y67563D01*
X88059Y61067D02*
Y67563D01*
X78323Y19342D02*
X86591D01*
X78323Y24657D02*
X86591D01*
Y19342D02*
Y24657D01*
X78323Y19342D02*
Y24657D01*
X104654Y68228D02*
Y71772D01*
X111346Y68228D02*
Y71772D01*
X104654D02*
X111346D01*
X104654Y68228D02*
X111346D01*
X27315Y55701D02*
X66685D01*
X27315Y68299D02*
X66685D01*
Y55701D02*
Y68299D01*
X27315Y55701D02*
Y68299D01*
X42854Y31370D02*
X66870D01*
X42854Y52630D02*
X66870D01*
Y31370D02*
Y52630D01*
X42854Y31370D02*
Y52630D01*
X78669Y27146D02*
X87331D01*
X78669Y32854D02*
X87331D01*
Y27146D02*
Y32854D01*
X78669Y27146D02*
Y32854D01*
X71342Y61409D02*
Y69677D01*
X76657Y61409D02*
Y69677D01*
X71342Y61409D02*
X76657D01*
X71342Y69677D02*
X76657D01*
X84658Y61409D02*
Y69677D01*
X79343Y61409D02*
Y69677D01*
X84658D01*
X79343Y61409D02*
X84658D01*
X80000Y43104D02*
Y47041D01*
X78031Y45073D02*
X81968D01*
X94260Y62347D02*
Y66284D01*
X92291Y64315D02*
X96228D01*
X82457Y20031D02*
Y23968D01*
X80488Y22000D02*
X84425D01*
X106228Y70000D02*
X109772D01*
X108000Y68228D02*
Y71772D01*
X47000Y60031D02*
Y63968D01*
X45031Y62000D02*
X48968D01*
X54862Y40031D02*
Y43968D01*
X52894Y42000D02*
X56831D01*
X83000Y28032D02*
Y31969D01*
X81032Y30000D02*
X84969D01*
X72031Y65543D02*
X75968D01*
X74000Y63575D02*
Y67512D01*
X80032Y65543D02*
X83969D01*
X82000Y63575D02*
Y67512D01*
M02*
