G04*
G04 #@! TF.GenerationSoftware,Altium Limited,Altium Designer,20.2.6 (244)*
G04*
G04 Layer_Physical_Order=1*
G04 Layer_Color=255*
%FSLAX25Y25*%
%MOIN*%
G70*
G04*
G04 #@! TF.SameCoordinates,D2B08C20-CCF6-46F9-8439-8C202572E0AB*
G04*
G04*
G04 #@! TF.FilePolarity,Positive*
G04*
G01*
G75*
%ADD14R,0.03150X0.03150*%
%ADD15C,0.07874*%
%ADD16R,0.03937X0.05315*%
%ADD17R,0.05118X0.05709*%
%ADD18R,0.02362X0.05512*%
%ADD19R,0.02362X0.02756*%
%ADD20R,0.02362X0.04134*%
%ADD21R,0.10197X0.12756*%
%ADD22R,0.03543X0.03347*%
%ADD23R,0.06496X0.21260*%
%ADD24R,0.05315X0.03937*%
%ADD38C,0.01600*%
%ADD39C,0.02000*%
%ADD40C,0.03200*%
%ADD41C,0.24410*%
%ADD42C,0.06693*%
%ADD43C,0.02953*%
G36*
X135756Y2039D02*
X2039D01*
Y116071D01*
X135756D01*
Y2039D01*
D02*
G37*
%LPC*%
G36*
X121795Y114854D02*
X119802Y114697D01*
X117857Y114231D01*
X116010Y113465D01*
X114304Y112420D01*
X112784Y111122D01*
X111485Y109601D01*
X110440Y107896D01*
X109675Y106048D01*
X109208Y104104D01*
X109051Y102110D01*
X109208Y100117D01*
X109675Y98172D01*
X110440Y96325D01*
X111485Y94620D01*
X112784Y93099D01*
X114304Y91800D01*
X116010Y90755D01*
X117857Y89990D01*
X119802Y89523D01*
X121795Y89366D01*
X123789Y89523D01*
X125733Y89990D01*
X127581Y90755D01*
X129286Y91800D01*
X130807Y93099D01*
X132105Y94620D01*
X133150Y96325D01*
X133916Y98172D01*
X134382Y100117D01*
X134539Y102110D01*
X134382Y104104D01*
X133916Y106048D01*
X133150Y107896D01*
X132105Y109601D01*
X130807Y111122D01*
X129286Y112420D01*
X127581Y113465D01*
X125733Y114231D01*
X123789Y114697D01*
X121795Y114854D01*
D02*
G37*
G36*
X16000D02*
X14006Y114697D01*
X12062Y114231D01*
X10214Y113465D01*
X8509Y112420D01*
X6989Y111122D01*
X5690Y109601D01*
X4645Y107896D01*
X3880Y106048D01*
X3413Y104104D01*
X3256Y102110D01*
X3413Y100117D01*
X3880Y98172D01*
X4645Y96325D01*
X5690Y94620D01*
X6989Y93099D01*
X8509Y91800D01*
X10214Y90755D01*
X12062Y89990D01*
X14006Y89523D01*
X16000Y89366D01*
X17994Y89523D01*
X19938Y89990D01*
X21786Y90755D01*
X23491Y91800D01*
X25011Y93099D01*
X26310Y94620D01*
X27355Y96325D01*
X28120Y98172D01*
X28587Y100117D01*
X28744Y102110D01*
X28587Y104104D01*
X28120Y106048D01*
X27355Y107896D01*
X26310Y109601D01*
X25011Y111122D01*
X23491Y112420D01*
X21786Y113465D01*
X19938Y114231D01*
X17994Y114697D01*
X16000Y114854D01*
D02*
G37*
G36*
X93860Y72697D02*
X92079D01*
Y72197D01*
X88839D01*
Y70412D01*
X85158D01*
Y71555D01*
X78843D01*
Y71228D01*
X77157D01*
Y71555D01*
X70842D01*
Y69864D01*
X70342Y69657D01*
X69383Y70617D01*
X69383Y70617D01*
X69000Y70776D01*
X69000Y70776D01*
X57000D01*
X56617Y70617D01*
X56617Y70617D01*
X55617Y69617D01*
X55459Y69235D01*
X55459Y69235D01*
Y54000D01*
X55617Y53617D01*
X55617Y53617D01*
X56617Y52617D01*
X57000Y52459D01*
X57000Y52459D01*
X58776D01*
X59459Y51776D01*
Y30350D01*
X59459Y29754D01*
X59617Y29371D01*
X59617Y29371D01*
X59971Y29017D01*
X59971Y29017D01*
X60353Y28859D01*
X60354Y28859D01*
X72764D01*
X72805Y28876D01*
X72848Y28865D01*
X72991Y28953D01*
X73146Y29017D01*
X73163Y29058D01*
X73201Y29082D01*
X74838Y31332D01*
X74877Y31495D01*
X74941Y31650D01*
Y34142D01*
X75275Y34642D01*
X75776D01*
Y39522D01*
X76237Y39714D01*
X77819Y38132D01*
Y36920D01*
X80000D01*
Y36120D01*
X77819D01*
Y34142D01*
X77438Y33854D01*
X76291D01*
Y30400D01*
X79850D01*
Y30000D01*
X80250D01*
Y26146D01*
X83409D01*
Y26646D01*
X84675D01*
Y25157D01*
X83531D01*
Y18843D01*
X88468D01*
Y25157D01*
X87326D01*
Y26646D01*
X89209D01*
Y33354D01*
X87231D01*
Y34642D01*
X87587D01*
Y36572D01*
X89898D01*
X90405Y36673D01*
X90835Y36960D01*
X92987Y39113D01*
X93275Y39543D01*
X93375Y40050D01*
Y49744D01*
X93875Y49843D01*
X94124Y49243D01*
X94836Y48316D01*
X95762Y47605D01*
X96842Y47157D01*
X98000Y47005D01*
X99158Y47157D01*
X100238Y47605D01*
X101164Y48316D01*
X101876Y49243D01*
X102323Y50322D01*
X102475Y51480D01*
X102323Y52639D01*
X101876Y53718D01*
X101164Y54645D01*
X100238Y55356D01*
X99326Y55734D01*
Y56433D01*
X99681D01*
Y61567D01*
X96319D01*
Y60325D01*
X92201D01*
Y61567D01*
X88839D01*
Y56433D01*
X89194D01*
Y55870D01*
X89295Y55362D01*
X89582Y54932D01*
X90724Y53790D01*
Y40599D01*
X89349Y39223D01*
X87587D01*
Y41153D01*
X84478D01*
Y50102D01*
X84478Y50102D01*
X84320Y50485D01*
X84320Y50485D01*
X81564Y53241D01*
X81181Y53399D01*
X81181Y53399D01*
X78819D01*
X78819Y53399D01*
X78436Y53241D01*
X78436Y53241D01*
X75680Y50485D01*
X75522Y50102D01*
X75522Y50102D01*
Y41685D01*
X75441Y41660D01*
X74941Y42031D01*
Y58632D01*
Y59531D01*
X77157D01*
Y64468D01*
X70884D01*
Y64950D01*
X70891Y64969D01*
Y66618D01*
X77157D01*
Y66945D01*
X78843D01*
Y66618D01*
X85158D01*
Y67761D01*
X88839D01*
Y67063D01*
X92079D01*
Y66563D01*
X93860D01*
Y69630D01*
Y72697D01*
D02*
G37*
G36*
X96441D02*
X94660D01*
Y69630D01*
Y66563D01*
X96441D01*
Y67063D01*
X99681D01*
Y68342D01*
X102453D01*
Y67532D01*
X106996D01*
Y71879D01*
X102453D01*
Y70993D01*
X99681D01*
Y72197D01*
X96441D01*
Y72697D01*
D02*
G37*
G36*
X109449Y81641D02*
X108291Y81488D01*
X107211Y81041D01*
X106284Y80330D01*
X105573Y79403D01*
X105126Y78324D01*
X104973Y77165D01*
X105126Y76007D01*
X105573Y74928D01*
X106284Y74001D01*
X107211Y73290D01*
X108291Y72843D01*
X109449Y72690D01*
X110607Y72843D01*
X111519Y73220D01*
X114816Y69923D01*
Y65614D01*
X114202Y65360D01*
X113398Y64743D01*
X112926Y64127D01*
X106996D01*
Y65776D01*
X102453D01*
Y61430D01*
X106996D01*
Y61476D01*
X112331D01*
X112394Y60996D01*
X112782Y60060D01*
X113398Y59257D01*
X114202Y58640D01*
X115138Y58253D01*
X116142Y58120D01*
X117146Y58253D01*
X118081Y58640D01*
X118885Y59257D01*
X119502Y60060D01*
X119889Y60996D01*
X120021Y62000D01*
X119889Y63004D01*
X119502Y63940D01*
X118885Y64743D01*
X118081Y65360D01*
X117467Y65614D01*
Y70472D01*
X117366Y70980D01*
X117079Y71410D01*
X113394Y75095D01*
X113772Y76007D01*
X113924Y77165D01*
X113772Y78324D01*
X113324Y79403D01*
X112613Y80330D01*
X111687Y81041D01*
X110607Y81488D01*
X109449Y81641D01*
D02*
G37*
G36*
X85658Y64969D02*
X82400D01*
Y62400D01*
X85658D01*
Y64969D01*
D02*
G37*
G36*
X81600D02*
X78342D01*
Y62400D01*
X81600D01*
Y64969D01*
D02*
G37*
G36*
X85658Y61600D02*
X82400D01*
Y59031D01*
X85658D01*
Y61600D01*
D02*
G37*
G36*
X81600D02*
X78342D01*
Y59031D01*
X81600D01*
Y61600D01*
D02*
G37*
G36*
X17000Y71541D02*
X16617Y71383D01*
Y71383D01*
X14617Y69383D01*
X14459Y69000D01*
X14459Y69000D01*
Y57480D01*
X14479Y57431D01*
X14469Y57378D01*
X14556Y57245D01*
X14617Y57098D01*
X14667Y57077D01*
X14696Y57032D01*
X17019Y55458D01*
X17169Y55427D01*
X17177Y55423D01*
X17289Y55015D01*
X17280Y54872D01*
X16900Y54580D01*
X16203Y53672D01*
X15765Y52615D01*
X15669Y51880D01*
X20000D01*
X24331D01*
X24235Y52615D01*
X23964Y53269D01*
X24403Y53516D01*
X24760Y53027D01*
X24797Y53004D01*
X24814Y52964D01*
X24970Y52899D01*
X25114Y52812D01*
X25156Y52822D01*
X25197Y52805D01*
X36732D01*
X36851Y52855D01*
X36979Y52865D01*
X38515Y53652D01*
X38571Y53718D01*
X38650Y53751D01*
X38700Y53870D01*
X38783Y53968D01*
X38776Y54054D01*
X38809Y54134D01*
Y69903D01*
X38801Y69922D01*
X38807Y69942D01*
X38723Y70111D01*
X38650Y70285D01*
X38631Y70293D01*
X38622Y70312D01*
X37354Y71409D01*
X37175Y71469D01*
X37000Y71541D01*
X17000D01*
X17000Y71541D01*
D02*
G37*
G36*
X116542Y56331D02*
Y52400D01*
X120473D01*
X120376Y53135D01*
X119938Y54192D01*
X119242Y55100D01*
X118334Y55797D01*
X117276Y56235D01*
X116542Y56331D01*
D02*
G37*
G36*
X115742D02*
X115007Y56235D01*
X113950Y55797D01*
X113042Y55100D01*
X112345Y54192D01*
X111907Y53135D01*
X111810Y52400D01*
X115742D01*
Y56331D01*
D02*
G37*
G36*
Y51600D02*
X111810D01*
X111907Y50865D01*
X112345Y49808D01*
X113042Y48900D01*
X113950Y48203D01*
X115007Y47765D01*
X115742Y47669D01*
Y51600D01*
D02*
G37*
G36*
X120473D02*
X116542D01*
Y47669D01*
X117276Y47765D01*
X118334Y48203D01*
X119242Y48900D01*
X119938Y49808D01*
X120376Y50865D01*
X120473Y51600D01*
D02*
G37*
G36*
X24331Y51080D02*
X20400D01*
Y47149D01*
X21135Y47246D01*
X22192Y47684D01*
X23100Y48380D01*
X23797Y49288D01*
X24235Y50346D01*
X24331Y51080D01*
D02*
G37*
G36*
X19600D02*
X15669D01*
X15765Y50346D01*
X16203Y49288D01*
X16900Y48380D01*
X17808Y47684D01*
X18865Y47246D01*
X19600Y47149D01*
Y51080D01*
D02*
G37*
G36*
X48972Y53630D02*
X45124D01*
Y42400D01*
X48972D01*
Y53630D01*
D02*
G37*
G36*
X44324D02*
X40476D01*
Y42400D01*
X44324D01*
Y53630D01*
D02*
G37*
G36*
X48972Y41600D02*
X45124D01*
Y30370D01*
X48972D01*
Y41600D01*
D02*
G37*
G36*
X44324D02*
X40476D01*
Y30370D01*
X44324D01*
Y41600D01*
D02*
G37*
G36*
X79450Y29600D02*
X76291D01*
Y26146D01*
X79450D01*
Y29600D01*
D02*
G37*
G36*
X87575Y17575D02*
X85400D01*
Y15400D01*
X87575D01*
Y17575D01*
D02*
G37*
G36*
X84600D02*
X82425D01*
Y15400D01*
X84600D01*
Y17575D01*
D02*
G37*
G36*
X81382Y25157D02*
X76445D01*
Y18843D01*
X77588D01*
Y17075D01*
X76626D01*
Y12925D01*
X80776D01*
Y17075D01*
X80239D01*
Y18843D01*
X81382D01*
Y25157D01*
D02*
G37*
G36*
X87575Y14600D02*
X85400D01*
Y12425D01*
X87575D01*
Y14600D01*
D02*
G37*
G36*
X84600D02*
X82425D01*
Y12425D01*
X84600D01*
Y14600D01*
D02*
G37*
G36*
X121795Y28744D02*
X119802Y28587D01*
X117857Y28120D01*
X116010Y27355D01*
X114304Y26310D01*
X112784Y25011D01*
X111485Y23491D01*
X110440Y21786D01*
X109675Y19938D01*
X109208Y17994D01*
X109051Y16000D01*
X109208Y14006D01*
X109675Y12062D01*
X110440Y10214D01*
X111485Y8509D01*
X112784Y6989D01*
X114304Y5690D01*
X116010Y4645D01*
X117857Y3880D01*
X119802Y3413D01*
X121795Y3256D01*
X123789Y3413D01*
X125733Y3880D01*
X127581Y4645D01*
X129286Y5690D01*
X130807Y6989D01*
X132105Y8509D01*
X133150Y10214D01*
X133916Y12062D01*
X134382Y14006D01*
X134539Y16000D01*
X134382Y17994D01*
X133916Y19938D01*
X133150Y21786D01*
X132105Y23491D01*
X130807Y25011D01*
X129286Y26310D01*
X127581Y27355D01*
X125733Y28120D01*
X123789Y28587D01*
X121795Y28744D01*
D02*
G37*
G36*
X16000D02*
X14006Y28587D01*
X12062Y28120D01*
X10214Y27355D01*
X8509Y26310D01*
X6989Y25011D01*
X5690Y23491D01*
X4645Y21786D01*
X3880Y19938D01*
X3413Y17994D01*
X3256Y16000D01*
X3413Y14006D01*
X3880Y12062D01*
X4645Y10214D01*
X5690Y8509D01*
X6989Y6989D01*
X8509Y5690D01*
X10214Y4645D01*
X12062Y3880D01*
X14006Y3413D01*
X16000Y3256D01*
X17994Y3413D01*
X19938Y3880D01*
X21786Y4645D01*
X23491Y5690D01*
X25011Y6989D01*
X26310Y8509D01*
X27355Y10214D01*
X28120Y12062D01*
X28587Y14006D01*
X28744Y16000D01*
X28587Y17994D01*
X28120Y19938D01*
X27355Y21786D01*
X26310Y23491D01*
X25011Y25011D01*
X23491Y26310D01*
X21786Y27355D01*
X19938Y28120D01*
X17994Y28587D01*
X16000Y28744D01*
D02*
G37*
%LPD*%
G36*
X70350Y68885D02*
Y64969D01*
X70342D01*
Y62400D01*
X74000D01*
Y62000D01*
X74400D01*
Y58632D01*
Y41653D01*
X71913D01*
Y39427D01*
X69248D01*
Y41600D01*
X65400D01*
Y30370D01*
X69248D01*
Y36368D01*
X71913D01*
Y34142D01*
X74400D01*
Y31650D01*
X72764Y29400D01*
X60353D01*
X60000Y29754D01*
X60000Y30350D01*
Y52000D01*
X59000Y53000D01*
X57000D01*
X56000Y54000D01*
Y69235D01*
X57000Y70235D01*
X69000D01*
X70350Y68885D01*
D02*
G37*
G36*
X83937Y50102D02*
Y40653D01*
X81181Y37898D01*
X78819D01*
X76063Y40653D01*
Y50102D01*
X78819Y52858D01*
X81181D01*
X83937Y50102D01*
D02*
G37*
%LPC*%
G36*
X69083Y69378D02*
X63384D01*
Y62400D01*
X69083D01*
Y69378D01*
D02*
G37*
G36*
X62584D02*
X56886D01*
Y62400D01*
X62584D01*
Y69378D01*
D02*
G37*
G36*
X73600Y61600D02*
X70342D01*
Y59031D01*
X73600D01*
Y61600D01*
D02*
G37*
G36*
X69083D02*
X63384D01*
Y54622D01*
X69083D01*
Y61600D01*
D02*
G37*
G36*
X62584D02*
X56886D01*
Y54622D01*
X62584D01*
Y61600D01*
D02*
G37*
G36*
X69248Y53630D02*
X65400D01*
Y42400D01*
X69248D01*
Y53630D01*
D02*
G37*
G36*
X64600D02*
X60752D01*
Y42400D01*
X64600D01*
Y53630D01*
D02*
G37*
G36*
Y41600D02*
X60752D01*
Y30370D01*
X64600D01*
Y41600D01*
D02*
G37*
%LPD*%
G36*
X38268Y69903D02*
Y54134D01*
X36732Y53347D01*
X25197D01*
X24235Y54663D01*
Y55870D01*
X18779D01*
X17323Y55905D01*
X15000Y57480D01*
Y69000D01*
X17000Y71000D01*
X37000D01*
X38268Y69903D01*
D02*
G37*
%LPC*%
G36*
X37114Y69378D02*
X31416D01*
Y62400D01*
X37114D01*
Y69378D01*
D02*
G37*
G36*
X30616D02*
X24917D01*
Y62400D01*
X30616D01*
Y69378D01*
D02*
G37*
G36*
X20400Y65812D02*
Y61880D01*
X24331D01*
X24235Y62615D01*
X23797Y63672D01*
X23100Y64580D01*
X22192Y65277D01*
X21135Y65715D01*
X20400Y65812D01*
D02*
G37*
G36*
X19600D02*
X18865Y65715D01*
X17808Y65277D01*
X16900Y64580D01*
X16203Y63672D01*
X15765Y62615D01*
X15669Y61880D01*
X19600D01*
Y65812D01*
D02*
G37*
G36*
X24331Y61080D02*
X20400D01*
Y57149D01*
X21135Y57246D01*
X22192Y57684D01*
X23100Y58380D01*
X23797Y59288D01*
X24235Y60346D01*
X24331Y61080D01*
D02*
G37*
G36*
X19600D02*
X15669D01*
X15765Y60346D01*
X16203Y59288D01*
X16900Y58380D01*
X17808Y57684D01*
X18865Y57246D01*
X19600Y57149D01*
Y61080D01*
D02*
G37*
G36*
X37114Y61600D02*
X31416D01*
Y54622D01*
X37114D01*
Y61600D01*
D02*
G37*
G36*
X30616D02*
X24917D01*
Y54622D01*
X30616D01*
Y61600D01*
D02*
G37*
%LPD*%
D14*
X78701Y15000D02*
D03*
X85000D02*
D03*
D15*
X98000Y51480D02*
D03*
X109449Y77165D02*
D03*
D16*
X86000Y22000D02*
D03*
X78913D02*
D03*
D17*
X86150Y30000D02*
D03*
X79850D02*
D03*
D18*
X74094Y37898D02*
D03*
X85905D02*
D03*
D19*
X80000Y36520D02*
D03*
D20*
X98000Y69630D02*
D03*
X94260D02*
D03*
X90520D02*
D03*
Y59000D02*
D03*
X98000D02*
D03*
D21*
X62984Y62000D02*
D03*
X31016D02*
D03*
D22*
X104724Y63603D02*
D03*
Y69706D02*
D03*
D23*
X44724Y42000D02*
D03*
X65000D02*
D03*
D24*
X74000Y69087D02*
D03*
Y62000D02*
D03*
X82000D02*
D03*
Y69087D02*
D03*
D38*
X90520Y55870D02*
Y59000D01*
X98000Y51480D02*
Y59000D01*
X89898Y37898D02*
X92050Y40050D01*
X90520Y55870D02*
X92050Y54339D01*
Y40050D02*
Y54339D01*
X90520Y59000D02*
X98000D01*
X109449Y77165D02*
X116142Y70472D01*
Y62000D02*
Y70472D01*
X104724Y63603D02*
X105526Y62802D01*
X115340D01*
X116142Y62000D01*
X98000Y69630D02*
X98038Y69668D01*
X104687D01*
X104724Y69706D01*
X85905Y37898D02*
X89898D01*
X86000Y22000D02*
Y30150D01*
X89976Y69087D02*
X90520Y69630D01*
X82000Y69087D02*
X89976D01*
X78701Y15000D02*
X78913Y15213D01*
Y22000D01*
X85905Y30244D02*
X86000Y30150D01*
X85905Y30244D02*
Y37898D01*
X79850Y30000D02*
X80000Y30150D01*
Y36520D01*
D39*
X64950Y37500D02*
X65348Y37898D01*
X74094D01*
D40*
X74000Y69087D02*
X82000D01*
D41*
X16000Y16000D02*
D03*
X121795D02*
D03*
Y102110D02*
D03*
X16000D02*
D03*
D42*
X116142Y52000D02*
D03*
Y62000D02*
D03*
X20000Y61480D02*
D03*
Y51480D02*
D03*
D43*
X73600Y26146D02*
D03*
X85000Y10214D02*
D03*
X12062Y51480D02*
D03*
X123789Y52000D02*
D03*
X94260Y75095D02*
D03*
X82000Y56693D02*
D03*
X130000Y80000D02*
D03*
Y40000D02*
D03*
X100000Y100000D02*
D03*
X110000Y40000D02*
D03*
X100000Y20000D02*
D03*
X80000Y100000D02*
D03*
X90000Y80000D02*
D03*
X60000Y100000D02*
D03*
X70000Y80000D02*
D03*
X60000Y20000D02*
D03*
X40000Y100000D02*
D03*
X50000Y80000D02*
D03*
X40000Y20000D02*
D03*
X30000Y80000D02*
D03*
Y40000D02*
D03*
M02*
